G04 #@! TF.GenerationSoftware,KiCad,Pcbnew,9.0.3*
G04 #@! TF.CreationDate,2026-01-29T19:37:25+01:00*
G04 #@! TF.ProjectId,CM5IO,434d3549-4f2e-46b6-9963-61645f706362,rev?*
G04 #@! TF.SameCoordinates,Original*
G04 #@! TF.FileFunction,Other,ECO1*
%FSLAX46Y46*%
G04 Gerber Fmt 4.6, Leading zero omitted, Abs format (unit mm)*
G04 Created by KiCad (PCBNEW 9.0.3) date 2026-01-29 19:37:25*
%MOMM*%
%LPD*%
G01*
G04 APERTURE LIST*
%ADD10C,0.100000*%
%ADD11C,0.150000*%
G04 #@! TA.AperFunction,Profile*
%ADD12C,0.050000*%
G04 #@! TD*
G04 APERTURE END LIST*
D10*
X167700000Y-102685000D02*
X160715000Y-109670000D01*
X154257400Y-109670000D01*
X154257400Y-100887600D01*
X159239800Y-95905200D01*
X167700000Y-95905200D01*
X167700000Y-102685000D01*
X170441400Y-81944722D02*
X170441400Y-87015200D01*
X166631400Y-90825200D01*
X163657800Y-90825200D01*
X163657800Y-85110200D01*
X155201400Y-85110200D01*
X155201400Y-75585200D01*
X164081878Y-75585200D01*
X170441400Y-81944722D01*
X159011400Y-99080200D02*
X153296400Y-99080200D01*
X151391400Y-100985200D01*
X151391400Y-121940200D01*
X147581400Y-121940200D01*
X147581400Y-119400200D01*
X149486400Y-117495200D01*
X149486400Y-99080200D01*
X151391400Y-97188000D01*
X159011400Y-97175200D01*
X159011400Y-99080200D01*
X167901400Y-113653450D02*
X167901400Y-114193200D01*
X167268663Y-114828200D01*
X166506602Y-114830402D01*
X165742400Y-114066200D01*
X163710400Y-114066200D01*
X163710400Y-114828200D01*
X165602700Y-114828200D01*
X165602700Y-116098200D01*
X161932400Y-116098200D01*
X161932400Y-111653200D01*
X165901150Y-111653200D01*
X167901400Y-113653450D01*
X161272000Y-85034000D02*
X162796000Y-85034000D01*
X149029200Y-85872200D02*
X160103600Y-85872200D01*
X160103600Y-93111200D01*
X149029200Y-93111200D01*
X149029200Y-85872200D01*
D11*
X159871988Y-102760019D02*
X159300560Y-102760019D01*
X159586274Y-102760019D02*
X159586274Y-101760019D01*
X159586274Y-101760019D02*
X159491036Y-101902876D01*
X159491036Y-101902876D02*
X159395798Y-101998114D01*
X159395798Y-101998114D02*
X159300560Y-102045733D01*
X160491036Y-101760019D02*
X160586274Y-101760019D01*
X160586274Y-101760019D02*
X160681512Y-101807638D01*
X160681512Y-101807638D02*
X160729131Y-101855257D01*
X160729131Y-101855257D02*
X160776750Y-101950495D01*
X160776750Y-101950495D02*
X160824369Y-102140971D01*
X160824369Y-102140971D02*
X160824369Y-102379066D01*
X160824369Y-102379066D02*
X160776750Y-102569542D01*
X160776750Y-102569542D02*
X160729131Y-102664780D01*
X160729131Y-102664780D02*
X160681512Y-102712400D01*
X160681512Y-102712400D02*
X160586274Y-102760019D01*
X160586274Y-102760019D02*
X160491036Y-102760019D01*
X160491036Y-102760019D02*
X160395798Y-102712400D01*
X160395798Y-102712400D02*
X160348179Y-102664780D01*
X160348179Y-102664780D02*
X160300560Y-102569542D01*
X160300560Y-102569542D02*
X160252941Y-102379066D01*
X160252941Y-102379066D02*
X160252941Y-102140971D01*
X160252941Y-102140971D02*
X160300560Y-101950495D01*
X160300560Y-101950495D02*
X160348179Y-101855257D01*
X160348179Y-101855257D02*
X160395798Y-101807638D01*
X160395798Y-101807638D02*
X160491036Y-101760019D01*
X161443417Y-101760019D02*
X161538655Y-101760019D01*
X161538655Y-101760019D02*
X161633893Y-101807638D01*
X161633893Y-101807638D02*
X161681512Y-101855257D01*
X161681512Y-101855257D02*
X161729131Y-101950495D01*
X161729131Y-101950495D02*
X161776750Y-102140971D01*
X161776750Y-102140971D02*
X161776750Y-102379066D01*
X161776750Y-102379066D02*
X161729131Y-102569542D01*
X161729131Y-102569542D02*
X161681512Y-102664780D01*
X161681512Y-102664780D02*
X161633893Y-102712400D01*
X161633893Y-102712400D02*
X161538655Y-102760019D01*
X161538655Y-102760019D02*
X161443417Y-102760019D01*
X161443417Y-102760019D02*
X161348179Y-102712400D01*
X161348179Y-102712400D02*
X161300560Y-102664780D01*
X161300560Y-102664780D02*
X161252941Y-102569542D01*
X161252941Y-102569542D02*
X161205322Y-102379066D01*
X161205322Y-102379066D02*
X161205322Y-102140971D01*
X161205322Y-102140971D02*
X161252941Y-101950495D01*
X161252941Y-101950495D02*
X161300560Y-101855257D01*
X161300560Y-101855257D02*
X161348179Y-101807638D01*
X161348179Y-101807638D02*
X161443417Y-101760019D01*
X162776750Y-102760019D02*
X162443417Y-102283828D01*
X162205322Y-102760019D02*
X162205322Y-101760019D01*
X162205322Y-101760019D02*
X162586274Y-101760019D01*
X162586274Y-101760019D02*
X162681512Y-101807638D01*
X162681512Y-101807638D02*
X162729131Y-101855257D01*
X162729131Y-101855257D02*
X162776750Y-101950495D01*
X162776750Y-101950495D02*
X162776750Y-102093352D01*
X162776750Y-102093352D02*
X162729131Y-102188590D01*
X162729131Y-102188590D02*
X162681512Y-102236209D01*
X162681512Y-102236209D02*
X162586274Y-102283828D01*
X162586274Y-102283828D02*
X162205322Y-102283828D01*
X149235798Y-109160819D02*
X149426274Y-109160819D01*
X149426274Y-109160819D02*
X149521512Y-109113200D01*
X149521512Y-109113200D02*
X149569131Y-109065580D01*
X149569131Y-109065580D02*
X149664369Y-108922723D01*
X149664369Y-108922723D02*
X149711988Y-108732247D01*
X149711988Y-108732247D02*
X149711988Y-108351295D01*
X149711988Y-108351295D02*
X149664369Y-108256057D01*
X149664369Y-108256057D02*
X149616750Y-108208438D01*
X149616750Y-108208438D02*
X149521512Y-108160819D01*
X149521512Y-108160819D02*
X149331036Y-108160819D01*
X149331036Y-108160819D02*
X149235798Y-108208438D01*
X149235798Y-108208438D02*
X149188179Y-108256057D01*
X149188179Y-108256057D02*
X149140560Y-108351295D01*
X149140560Y-108351295D02*
X149140560Y-108589390D01*
X149140560Y-108589390D02*
X149188179Y-108684628D01*
X149188179Y-108684628D02*
X149235798Y-108732247D01*
X149235798Y-108732247D02*
X149331036Y-108779866D01*
X149331036Y-108779866D02*
X149521512Y-108779866D01*
X149521512Y-108779866D02*
X149616750Y-108732247D01*
X149616750Y-108732247D02*
X149664369Y-108684628D01*
X149664369Y-108684628D02*
X149711988Y-108589390D01*
X150331036Y-108160819D02*
X150426274Y-108160819D01*
X150426274Y-108160819D02*
X150521512Y-108208438D01*
X150521512Y-108208438D02*
X150569131Y-108256057D01*
X150569131Y-108256057D02*
X150616750Y-108351295D01*
X150616750Y-108351295D02*
X150664369Y-108541771D01*
X150664369Y-108541771D02*
X150664369Y-108779866D01*
X150664369Y-108779866D02*
X150616750Y-108970342D01*
X150616750Y-108970342D02*
X150569131Y-109065580D01*
X150569131Y-109065580D02*
X150521512Y-109113200D01*
X150521512Y-109113200D02*
X150426274Y-109160819D01*
X150426274Y-109160819D02*
X150331036Y-109160819D01*
X150331036Y-109160819D02*
X150235798Y-109113200D01*
X150235798Y-109113200D02*
X150188179Y-109065580D01*
X150188179Y-109065580D02*
X150140560Y-108970342D01*
X150140560Y-108970342D02*
X150092941Y-108779866D01*
X150092941Y-108779866D02*
X150092941Y-108541771D01*
X150092941Y-108541771D02*
X150140560Y-108351295D01*
X150140560Y-108351295D02*
X150188179Y-108256057D01*
X150188179Y-108256057D02*
X150235798Y-108208438D01*
X150235798Y-108208438D02*
X150331036Y-108160819D01*
X151664369Y-109160819D02*
X151331036Y-108684628D01*
X151092941Y-109160819D02*
X151092941Y-108160819D01*
X151092941Y-108160819D02*
X151473893Y-108160819D01*
X151473893Y-108160819D02*
X151569131Y-108208438D01*
X151569131Y-108208438D02*
X151616750Y-108256057D01*
X151616750Y-108256057D02*
X151664369Y-108351295D01*
X151664369Y-108351295D02*
X151664369Y-108494152D01*
X151664369Y-108494152D02*
X151616750Y-108589390D01*
X151616750Y-108589390D02*
X151569131Y-108637009D01*
X151569131Y-108637009D02*
X151473893Y-108684628D01*
X151473893Y-108684628D02*
X151092941Y-108684628D01*
X153521988Y-90060019D02*
X152950560Y-90060019D01*
X153236274Y-90060019D02*
X153236274Y-89060019D01*
X153236274Y-89060019D02*
X153141036Y-89202876D01*
X153141036Y-89202876D02*
X153045798Y-89298114D01*
X153045798Y-89298114D02*
X152950560Y-89345733D01*
X154141036Y-89060019D02*
X154236274Y-89060019D01*
X154236274Y-89060019D02*
X154331512Y-89107638D01*
X154331512Y-89107638D02*
X154379131Y-89155257D01*
X154379131Y-89155257D02*
X154426750Y-89250495D01*
X154426750Y-89250495D02*
X154474369Y-89440971D01*
X154474369Y-89440971D02*
X154474369Y-89679066D01*
X154474369Y-89679066D02*
X154426750Y-89869542D01*
X154426750Y-89869542D02*
X154379131Y-89964780D01*
X154379131Y-89964780D02*
X154331512Y-90012400D01*
X154331512Y-90012400D02*
X154236274Y-90060019D01*
X154236274Y-90060019D02*
X154141036Y-90060019D01*
X154141036Y-90060019D02*
X154045798Y-90012400D01*
X154045798Y-90012400D02*
X153998179Y-89964780D01*
X153998179Y-89964780D02*
X153950560Y-89869542D01*
X153950560Y-89869542D02*
X153902941Y-89679066D01*
X153902941Y-89679066D02*
X153902941Y-89440971D01*
X153902941Y-89440971D02*
X153950560Y-89250495D01*
X153950560Y-89250495D02*
X153998179Y-89155257D01*
X153998179Y-89155257D02*
X154045798Y-89107638D01*
X154045798Y-89107638D02*
X154141036Y-89060019D01*
X155093417Y-89060019D02*
X155188655Y-89060019D01*
X155188655Y-89060019D02*
X155283893Y-89107638D01*
X155283893Y-89107638D02*
X155331512Y-89155257D01*
X155331512Y-89155257D02*
X155379131Y-89250495D01*
X155379131Y-89250495D02*
X155426750Y-89440971D01*
X155426750Y-89440971D02*
X155426750Y-89679066D01*
X155426750Y-89679066D02*
X155379131Y-89869542D01*
X155379131Y-89869542D02*
X155331512Y-89964780D01*
X155331512Y-89964780D02*
X155283893Y-90012400D01*
X155283893Y-90012400D02*
X155188655Y-90060019D01*
X155188655Y-90060019D02*
X155093417Y-90060019D01*
X155093417Y-90060019D02*
X154998179Y-90012400D01*
X154998179Y-90012400D02*
X154950560Y-89964780D01*
X154950560Y-89964780D02*
X154902941Y-89869542D01*
X154902941Y-89869542D02*
X154855322Y-89679066D01*
X154855322Y-89679066D02*
X154855322Y-89440971D01*
X154855322Y-89440971D02*
X154902941Y-89250495D01*
X154902941Y-89250495D02*
X154950560Y-89155257D01*
X154950560Y-89155257D02*
X154998179Y-89107638D01*
X154998179Y-89107638D02*
X155093417Y-89060019D01*
X156426750Y-90060019D02*
X156093417Y-89583828D01*
X155855322Y-90060019D02*
X155855322Y-89060019D01*
X155855322Y-89060019D02*
X156236274Y-89060019D01*
X156236274Y-89060019D02*
X156331512Y-89107638D01*
X156331512Y-89107638D02*
X156379131Y-89155257D01*
X156379131Y-89155257D02*
X156426750Y-89250495D01*
X156426750Y-89250495D02*
X156426750Y-89393352D01*
X156426750Y-89393352D02*
X156379131Y-89488590D01*
X156379131Y-89488590D02*
X156331512Y-89536209D01*
X156331512Y-89536209D02*
X156236274Y-89583828D01*
X156236274Y-89583828D02*
X155855322Y-89583828D01*
X161776988Y-81170019D02*
X161205560Y-81170019D01*
X161491274Y-81170019D02*
X161491274Y-80170019D01*
X161491274Y-80170019D02*
X161396036Y-80312876D01*
X161396036Y-80312876D02*
X161300798Y-80408114D01*
X161300798Y-80408114D02*
X161205560Y-80455733D01*
X162396036Y-80170019D02*
X162491274Y-80170019D01*
X162491274Y-80170019D02*
X162586512Y-80217638D01*
X162586512Y-80217638D02*
X162634131Y-80265257D01*
X162634131Y-80265257D02*
X162681750Y-80360495D01*
X162681750Y-80360495D02*
X162729369Y-80550971D01*
X162729369Y-80550971D02*
X162729369Y-80789066D01*
X162729369Y-80789066D02*
X162681750Y-80979542D01*
X162681750Y-80979542D02*
X162634131Y-81074780D01*
X162634131Y-81074780D02*
X162586512Y-81122400D01*
X162586512Y-81122400D02*
X162491274Y-81170019D01*
X162491274Y-81170019D02*
X162396036Y-81170019D01*
X162396036Y-81170019D02*
X162300798Y-81122400D01*
X162300798Y-81122400D02*
X162253179Y-81074780D01*
X162253179Y-81074780D02*
X162205560Y-80979542D01*
X162205560Y-80979542D02*
X162157941Y-80789066D01*
X162157941Y-80789066D02*
X162157941Y-80550971D01*
X162157941Y-80550971D02*
X162205560Y-80360495D01*
X162205560Y-80360495D02*
X162253179Y-80265257D01*
X162253179Y-80265257D02*
X162300798Y-80217638D01*
X162300798Y-80217638D02*
X162396036Y-80170019D01*
X163348417Y-80170019D02*
X163443655Y-80170019D01*
X163443655Y-80170019D02*
X163538893Y-80217638D01*
X163538893Y-80217638D02*
X163586512Y-80265257D01*
X163586512Y-80265257D02*
X163634131Y-80360495D01*
X163634131Y-80360495D02*
X163681750Y-80550971D01*
X163681750Y-80550971D02*
X163681750Y-80789066D01*
X163681750Y-80789066D02*
X163634131Y-80979542D01*
X163634131Y-80979542D02*
X163586512Y-81074780D01*
X163586512Y-81074780D02*
X163538893Y-81122400D01*
X163538893Y-81122400D02*
X163443655Y-81170019D01*
X163443655Y-81170019D02*
X163348417Y-81170019D01*
X163348417Y-81170019D02*
X163253179Y-81122400D01*
X163253179Y-81122400D02*
X163205560Y-81074780D01*
X163205560Y-81074780D02*
X163157941Y-80979542D01*
X163157941Y-80979542D02*
X163110322Y-80789066D01*
X163110322Y-80789066D02*
X163110322Y-80550971D01*
X163110322Y-80550971D02*
X163157941Y-80360495D01*
X163157941Y-80360495D02*
X163205560Y-80265257D01*
X163205560Y-80265257D02*
X163253179Y-80217638D01*
X163253179Y-80217638D02*
X163348417Y-80170019D01*
X164681750Y-81170019D02*
X164348417Y-80693828D01*
X164110322Y-81170019D02*
X164110322Y-80170019D01*
X164110322Y-80170019D02*
X164491274Y-80170019D01*
X164491274Y-80170019D02*
X164586512Y-80217638D01*
X164586512Y-80217638D02*
X164634131Y-80265257D01*
X164634131Y-80265257D02*
X164681750Y-80360495D01*
X164681750Y-80360495D02*
X164681750Y-80503352D01*
X164681750Y-80503352D02*
X164634131Y-80598590D01*
X164634131Y-80598590D02*
X164586512Y-80646209D01*
X164586512Y-80646209D02*
X164491274Y-80693828D01*
X164491274Y-80693828D02*
X164110322Y-80693828D01*
X163205798Y-113682019D02*
X163396274Y-113682019D01*
X163396274Y-113682019D02*
X163491512Y-113634400D01*
X163491512Y-113634400D02*
X163539131Y-113586780D01*
X163539131Y-113586780D02*
X163634369Y-113443923D01*
X163634369Y-113443923D02*
X163681988Y-113253447D01*
X163681988Y-113253447D02*
X163681988Y-112872495D01*
X163681988Y-112872495D02*
X163634369Y-112777257D01*
X163634369Y-112777257D02*
X163586750Y-112729638D01*
X163586750Y-112729638D02*
X163491512Y-112682019D01*
X163491512Y-112682019D02*
X163301036Y-112682019D01*
X163301036Y-112682019D02*
X163205798Y-112729638D01*
X163205798Y-112729638D02*
X163158179Y-112777257D01*
X163158179Y-112777257D02*
X163110560Y-112872495D01*
X163110560Y-112872495D02*
X163110560Y-113110590D01*
X163110560Y-113110590D02*
X163158179Y-113205828D01*
X163158179Y-113205828D02*
X163205798Y-113253447D01*
X163205798Y-113253447D02*
X163301036Y-113301066D01*
X163301036Y-113301066D02*
X163491512Y-113301066D01*
X163491512Y-113301066D02*
X163586750Y-113253447D01*
X163586750Y-113253447D02*
X163634369Y-113205828D01*
X163634369Y-113205828D02*
X163681988Y-113110590D01*
X164301036Y-112682019D02*
X164396274Y-112682019D01*
X164396274Y-112682019D02*
X164491512Y-112729638D01*
X164491512Y-112729638D02*
X164539131Y-112777257D01*
X164539131Y-112777257D02*
X164586750Y-112872495D01*
X164586750Y-112872495D02*
X164634369Y-113062971D01*
X164634369Y-113062971D02*
X164634369Y-113301066D01*
X164634369Y-113301066D02*
X164586750Y-113491542D01*
X164586750Y-113491542D02*
X164539131Y-113586780D01*
X164539131Y-113586780D02*
X164491512Y-113634400D01*
X164491512Y-113634400D02*
X164396274Y-113682019D01*
X164396274Y-113682019D02*
X164301036Y-113682019D01*
X164301036Y-113682019D02*
X164205798Y-113634400D01*
X164205798Y-113634400D02*
X164158179Y-113586780D01*
X164158179Y-113586780D02*
X164110560Y-113491542D01*
X164110560Y-113491542D02*
X164062941Y-113301066D01*
X164062941Y-113301066D02*
X164062941Y-113062971D01*
X164062941Y-113062971D02*
X164110560Y-112872495D01*
X164110560Y-112872495D02*
X164158179Y-112777257D01*
X164158179Y-112777257D02*
X164205798Y-112729638D01*
X164205798Y-112729638D02*
X164301036Y-112682019D01*
X165634369Y-113682019D02*
X165301036Y-113205828D01*
X165062941Y-113682019D02*
X165062941Y-112682019D01*
X165062941Y-112682019D02*
X165443893Y-112682019D01*
X165443893Y-112682019D02*
X165539131Y-112729638D01*
X165539131Y-112729638D02*
X165586750Y-112777257D01*
X165586750Y-112777257D02*
X165634369Y-112872495D01*
X165634369Y-112872495D02*
X165634369Y-113015352D01*
X165634369Y-113015352D02*
X165586750Y-113110590D01*
X165586750Y-113110590D02*
X165539131Y-113158209D01*
X165539131Y-113158209D02*
X165443893Y-113205828D01*
X165443893Y-113205828D02*
X165062941Y-113205828D01*
X133414819Y-110751094D02*
X133414819Y-110084428D01*
X133414819Y-110084428D02*
X134414819Y-110512999D01*
X133843390Y-109560618D02*
X133795771Y-109655856D01*
X133795771Y-109655856D02*
X133748152Y-109703475D01*
X133748152Y-109703475D02*
X133652914Y-109751094D01*
X133652914Y-109751094D02*
X133605295Y-109751094D01*
X133605295Y-109751094D02*
X133510057Y-109703475D01*
X133510057Y-109703475D02*
X133462438Y-109655856D01*
X133462438Y-109655856D02*
X133414819Y-109560618D01*
X133414819Y-109560618D02*
X133414819Y-109370142D01*
X133414819Y-109370142D02*
X133462438Y-109274904D01*
X133462438Y-109274904D02*
X133510057Y-109227285D01*
X133510057Y-109227285D02*
X133605295Y-109179666D01*
X133605295Y-109179666D02*
X133652914Y-109179666D01*
X133652914Y-109179666D02*
X133748152Y-109227285D01*
X133748152Y-109227285D02*
X133795771Y-109274904D01*
X133795771Y-109274904D02*
X133843390Y-109370142D01*
X133843390Y-109370142D02*
X133843390Y-109560618D01*
X133843390Y-109560618D02*
X133891009Y-109655856D01*
X133891009Y-109655856D02*
X133938628Y-109703475D01*
X133938628Y-109703475D02*
X134033866Y-109751094D01*
X134033866Y-109751094D02*
X134224342Y-109751094D01*
X134224342Y-109751094D02*
X134319580Y-109703475D01*
X134319580Y-109703475D02*
X134367200Y-109655856D01*
X134367200Y-109655856D02*
X134414819Y-109560618D01*
X134414819Y-109560618D02*
X134414819Y-109370142D01*
X134414819Y-109370142D02*
X134367200Y-109274904D01*
X134367200Y-109274904D02*
X134319580Y-109227285D01*
X134319580Y-109227285D02*
X134224342Y-109179666D01*
X134224342Y-109179666D02*
X134033866Y-109179666D01*
X134033866Y-109179666D02*
X133938628Y-109227285D01*
X133938628Y-109227285D02*
X133891009Y-109274904D01*
X133891009Y-109274904D02*
X133843390Y-109370142D01*
X134319580Y-108751094D02*
X134367200Y-108703475D01*
X134367200Y-108703475D02*
X134414819Y-108751094D01*
X134414819Y-108751094D02*
X134367200Y-108798713D01*
X134367200Y-108798713D02*
X134319580Y-108751094D01*
X134319580Y-108751094D02*
X134414819Y-108751094D01*
X133414819Y-108084428D02*
X133414819Y-107989190D01*
X133414819Y-107989190D02*
X133462438Y-107893952D01*
X133462438Y-107893952D02*
X133510057Y-107846333D01*
X133510057Y-107846333D02*
X133605295Y-107798714D01*
X133605295Y-107798714D02*
X133795771Y-107751095D01*
X133795771Y-107751095D02*
X134033866Y-107751095D01*
X134033866Y-107751095D02*
X134224342Y-107798714D01*
X134224342Y-107798714D02*
X134319580Y-107846333D01*
X134319580Y-107846333D02*
X134367200Y-107893952D01*
X134367200Y-107893952D02*
X134414819Y-107989190D01*
X134414819Y-107989190D02*
X134414819Y-108084428D01*
X134414819Y-108084428D02*
X134367200Y-108179666D01*
X134367200Y-108179666D02*
X134319580Y-108227285D01*
X134319580Y-108227285D02*
X134224342Y-108274904D01*
X134224342Y-108274904D02*
X134033866Y-108322523D01*
X134033866Y-108322523D02*
X133795771Y-108322523D01*
X133795771Y-108322523D02*
X133605295Y-108274904D01*
X133605295Y-108274904D02*
X133510057Y-108227285D01*
X133510057Y-108227285D02*
X133462438Y-108179666D01*
X133462438Y-108179666D02*
X133414819Y-108084428D01*
X134414819Y-106560618D02*
X133748152Y-106560618D01*
X133843390Y-106560618D02*
X133795771Y-106512999D01*
X133795771Y-106512999D02*
X133748152Y-106417761D01*
X133748152Y-106417761D02*
X133748152Y-106274904D01*
X133748152Y-106274904D02*
X133795771Y-106179666D01*
X133795771Y-106179666D02*
X133891009Y-106132047D01*
X133891009Y-106132047D02*
X134414819Y-106132047D01*
X133891009Y-106132047D02*
X133795771Y-106084428D01*
X133795771Y-106084428D02*
X133748152Y-105989190D01*
X133748152Y-105989190D02*
X133748152Y-105846333D01*
X133748152Y-105846333D02*
X133795771Y-105751094D01*
X133795771Y-105751094D02*
X133891009Y-105703475D01*
X133891009Y-105703475D02*
X134414819Y-105703475D01*
X134414819Y-105227285D02*
X133748152Y-105227285D01*
X133843390Y-105227285D02*
X133795771Y-105179666D01*
X133795771Y-105179666D02*
X133748152Y-105084428D01*
X133748152Y-105084428D02*
X133748152Y-104941571D01*
X133748152Y-104941571D02*
X133795771Y-104846333D01*
X133795771Y-104846333D02*
X133891009Y-104798714D01*
X133891009Y-104798714D02*
X134414819Y-104798714D01*
X133891009Y-104798714D02*
X133795771Y-104751095D01*
X133795771Y-104751095D02*
X133748152Y-104655857D01*
X133748152Y-104655857D02*
X133748152Y-104513000D01*
X133748152Y-104513000D02*
X133795771Y-104417761D01*
X133795771Y-104417761D02*
X133891009Y-104370142D01*
X133891009Y-104370142D02*
X134414819Y-104370142D01*
D10*
X145786000Y-68524000D02*
X134523580Y-68524000D01*
X134523580Y-146502000D02*
X145786000Y-146502000D01*
X135110000Y-68524000D02*
X135110000Y-146502000D01*
X135110000Y-68524000D02*
X135696421Y-69650504D01*
X135110000Y-68524000D02*
X134523579Y-69650504D01*
X135110000Y-146502000D02*
X134523579Y-145375496D01*
X135110000Y-146502000D02*
X135696421Y-145375496D01*
D11*
X173464333Y-57938819D02*
X172988143Y-57938819D01*
X172988143Y-57938819D02*
X172940524Y-58415009D01*
X172940524Y-58415009D02*
X172988143Y-58367390D01*
X172988143Y-58367390D02*
X173083381Y-58319771D01*
X173083381Y-58319771D02*
X173321476Y-58319771D01*
X173321476Y-58319771D02*
X173416714Y-58367390D01*
X173416714Y-58367390D02*
X173464333Y-58415009D01*
X173464333Y-58415009D02*
X173511952Y-58510247D01*
X173511952Y-58510247D02*
X173511952Y-58748342D01*
X173511952Y-58748342D02*
X173464333Y-58843580D01*
X173464333Y-58843580D02*
X173416714Y-58891200D01*
X173416714Y-58891200D02*
X173321476Y-58938819D01*
X173321476Y-58938819D02*
X173083381Y-58938819D01*
X173083381Y-58938819D02*
X172988143Y-58891200D01*
X172988143Y-58891200D02*
X172940524Y-58843580D01*
X173988143Y-58938819D02*
X174178619Y-58938819D01*
X174178619Y-58938819D02*
X174273857Y-58891200D01*
X174273857Y-58891200D02*
X174321476Y-58843580D01*
X174321476Y-58843580D02*
X174416714Y-58700723D01*
X174416714Y-58700723D02*
X174464333Y-58510247D01*
X174464333Y-58510247D02*
X174464333Y-58129295D01*
X174464333Y-58129295D02*
X174416714Y-58034057D01*
X174416714Y-58034057D02*
X174369095Y-57986438D01*
X174369095Y-57986438D02*
X174273857Y-57938819D01*
X174273857Y-57938819D02*
X174083381Y-57938819D01*
X174083381Y-57938819D02*
X173988143Y-57986438D01*
X173988143Y-57986438D02*
X173940524Y-58034057D01*
X173940524Y-58034057D02*
X173892905Y-58129295D01*
X173892905Y-58129295D02*
X173892905Y-58367390D01*
X173892905Y-58367390D02*
X173940524Y-58462628D01*
X173940524Y-58462628D02*
X173988143Y-58510247D01*
X173988143Y-58510247D02*
X174083381Y-58557866D01*
X174083381Y-58557866D02*
X174273857Y-58557866D01*
X174273857Y-58557866D02*
X174369095Y-58510247D01*
X174369095Y-58510247D02*
X174416714Y-58462628D01*
X174416714Y-58462628D02*
X174464333Y-58367390D01*
X174892905Y-58843580D02*
X174940524Y-58891200D01*
X174940524Y-58891200D02*
X174892905Y-58938819D01*
X174892905Y-58938819D02*
X174845286Y-58891200D01*
X174845286Y-58891200D02*
X174892905Y-58843580D01*
X174892905Y-58843580D02*
X174892905Y-58938819D01*
X175273857Y-57938819D02*
X175940523Y-57938819D01*
X175940523Y-57938819D02*
X175511952Y-58938819D01*
X177083381Y-58938819D02*
X177083381Y-58272152D01*
X177083381Y-58367390D02*
X177131000Y-58319771D01*
X177131000Y-58319771D02*
X177226238Y-58272152D01*
X177226238Y-58272152D02*
X177369095Y-58272152D01*
X177369095Y-58272152D02*
X177464333Y-58319771D01*
X177464333Y-58319771D02*
X177511952Y-58415009D01*
X177511952Y-58415009D02*
X177511952Y-58938819D01*
X177511952Y-58415009D02*
X177559571Y-58319771D01*
X177559571Y-58319771D02*
X177654809Y-58272152D01*
X177654809Y-58272152D02*
X177797666Y-58272152D01*
X177797666Y-58272152D02*
X177892905Y-58319771D01*
X177892905Y-58319771D02*
X177940524Y-58415009D01*
X177940524Y-58415009D02*
X177940524Y-58938819D01*
X178416714Y-58938819D02*
X178416714Y-58272152D01*
X178416714Y-58367390D02*
X178464333Y-58319771D01*
X178464333Y-58319771D02*
X178559571Y-58272152D01*
X178559571Y-58272152D02*
X178702428Y-58272152D01*
X178702428Y-58272152D02*
X178797666Y-58319771D01*
X178797666Y-58319771D02*
X178845285Y-58415009D01*
X178845285Y-58415009D02*
X178845285Y-58938819D01*
X178845285Y-58415009D02*
X178892904Y-58319771D01*
X178892904Y-58319771D02*
X178988142Y-58272152D01*
X178988142Y-58272152D02*
X179130999Y-58272152D01*
X179130999Y-58272152D02*
X179226238Y-58319771D01*
X179226238Y-58319771D02*
X179273857Y-58415009D01*
X179273857Y-58415009D02*
X179273857Y-58938819D01*
D10*
X146286000Y-68024000D02*
X146286000Y-59047580D01*
X205976000Y-59047580D02*
X205976000Y-68024000D01*
X146286000Y-59634000D02*
X205976000Y-59634000D01*
X146286000Y-59634000D02*
X147412504Y-59047579D01*
X146286000Y-59634000D02*
X147412504Y-60220421D01*
X205976000Y-59634000D02*
X204849496Y-60220421D01*
X205976000Y-59634000D02*
X204849496Y-59047579D01*
D12*
X170288978Y-121225633D02*
X170289000Y-94244427D01*
X173340373Y-124277000D02*
G75*
G02*
X171926143Y-123691229I-73J1999900D01*
G01*
X164860000Y-68524000D02*
G75*
G02*
X166860000Y-70524000I0J-2000000D01*
G01*
X170289000Y-94244427D02*
G75*
G02*
X170874773Y-92830199I2000000J27D01*
G01*
X190863000Y-80046323D02*
G75*
G02*
X190277223Y-81460545I-2000100J23D01*
G01*
X174546427Y-89987000D02*
X184799000Y-89987000D01*
X197213000Y-113421427D02*
X197213000Y-116141816D01*
X205976000Y-70524000D02*
X205976000Y-144502000D01*
X174387677Y-84526000D02*
G75*
G02*
X172973455Y-83940223I23J2000100D01*
G01*
X167445787Y-78412537D02*
G75*
G02*
X166859984Y-76998323I1414213J1414237D01*
G01*
X187384787Y-102764787D02*
X196627214Y-112007214D01*
X146286000Y-70524000D02*
G75*
G02*
X148286000Y-68524000I2000000J0D01*
G01*
X187797537Y-83940213D02*
X190277214Y-81460536D01*
X192133000Y-121500001D02*
G75*
G02*
X195370953Y-118135383I3369900J-2699D01*
G01*
X146286000Y-144502000D02*
X146286000Y-70524000D01*
X148286000Y-68524000D02*
X164860000Y-68524000D01*
X148286000Y-146502000D02*
G75*
G02*
X146286000Y-144502000I0J2000000D01*
G01*
X196627214Y-112007214D02*
G75*
G02*
X197213022Y-113421427I-1414314J-1414286D01*
G01*
X197212290Y-116141816D02*
G75*
G02*
X195371779Y-118135421I-1999990J16D01*
G01*
X192133000Y-122277000D02*
G75*
G02*
X190133000Y-124277000I-2000000J0D01*
G01*
X187384787Y-102764787D02*
G75*
G02*
X186798978Y-101350573I1414313J1414287D01*
G01*
X167445787Y-78412537D02*
X172973464Y-83940214D01*
X205976000Y-144502000D02*
G75*
G02*
X203976000Y-146502000I-2000000J0D01*
G01*
X170874786Y-122639846D02*
G75*
G02*
X170288977Y-121225633I1414214J1414246D01*
G01*
X184799000Y-89987000D02*
G75*
G02*
X186799000Y-91987000I0J-2000000D01*
G01*
X166860000Y-70524000D02*
X166860000Y-76998323D01*
X190863000Y-70524000D02*
G75*
G02*
X192863000Y-68524000I2000000J0D01*
G01*
X190133000Y-124277000D02*
X173340373Y-124277000D01*
X203976000Y-68524000D02*
G75*
G02*
X205976000Y-70524000I0J-2000000D01*
G01*
X203976000Y-146502000D02*
X148286000Y-146502000D01*
X190863000Y-80046323D02*
X190863000Y-70524000D01*
X174387677Y-84526000D02*
X186383323Y-84526000D01*
X186799000Y-91987000D02*
X186799000Y-101350573D01*
X171925713Y-123691213D02*
X170874786Y-122640286D01*
X192133000Y-121500001D02*
X192133000Y-122277000D01*
X170874787Y-92830213D02*
X173132214Y-90572786D01*
X192863000Y-68524000D02*
X203976000Y-68524000D01*
X187797537Y-83940213D02*
G75*
G02*
X186383323Y-84526016I-1414237J1414213D01*
G01*
X173132214Y-90572786D02*
G75*
G02*
X174546427Y-89987019I1414186J-1414214D01*
G01*
M02*
