G04 #@! TF.GenerationSoftware,KiCad,Pcbnew,9.0.3*
G04 #@! TF.CreationDate,2026-01-29T19:37:25+01:00*
G04 #@! TF.ProjectId,CM5IO,434d3549-4f2e-46b6-9963-61645f706362,rev?*
G04 #@! TF.SameCoordinates,Original*
G04 #@! TF.FileFunction,Soldermask,Bot*
G04 #@! TF.FilePolarity,Negative*
%FSLAX46Y46*%
G04 Gerber Fmt 4.6, Leading zero omitted, Abs format (unit mm)*
G04 Created by KiCad (PCBNEW 9.0.3) date 2026-01-29 19:37:25*
%MOMM*%
%LPD*%
G01*
G04 APERTURE LIST*
G04 Aperture macros list*
%AMRoundRect*
0 Rectangle with rounded corners*
0 $1 Rounding radius*
0 $2 $3 $4 $5 $6 $7 $8 $9 X,Y pos of 4 corners*
0 Add a 4 corners polygon primitive as box body*
4,1,4,$2,$3,$4,$5,$6,$7,$8,$9,$2,$3,0*
0 Add four circle primitives for the rounded corners*
1,1,$1+$1,$2,$3*
1,1,$1+$1,$4,$5*
1,1,$1+$1,$6,$7*
1,1,$1+$1,$8,$9*
0 Add four rect primitives between the rounded corners*
20,1,$1+$1,$2,$3,$4,$5,0*
20,1,$1+$1,$4,$5,$6,$7,0*
20,1,$1+$1,$6,$7,$8,$9,0*
20,1,$1+$1,$8,$9,$2,$3,0*%
%AMFreePoly0*
4,1,6,1.000000,0.000000,0.500000,-0.750000,-0.500000,-0.750000,-0.500000,0.750000,0.500000,0.750000,1.000000,0.000000,1.000000,0.000000,$1*%
G04 Aperture macros list end*
%ADD10R,1.700000X1.700000*%
%ADD11O,1.700000X1.700000*%
%ADD12C,0.650000*%
%ADD13O,1.000000X2.100000*%
%ADD14O,1.000000X1.800000*%
%ADD15RoundRect,0.250000X-0.350000X0.350000X-0.350000X-0.350000X0.350000X-0.350000X0.350000X0.350000X0*%
%ADD16C,1.200000*%
%ADD17O,2.400000X1.200000*%
%ADD18O,2.100000X1.200000*%
%ADD19R,1.350000X1.350000*%
%ADD20C,1.350000*%
%ADD21C,6.100000*%
%ADD22C,4.700000*%
%ADD23C,1.700000*%
%ADD24R,3.000000X3.000000*%
%ADD25C,3.000000*%
%ADD26RoundRect,0.140000X0.170000X-0.140000X0.170000X0.140000X-0.170000X0.140000X-0.170000X-0.140000X0*%
%ADD27RoundRect,0.140000X-0.170000X0.140000X-0.170000X-0.140000X0.170000X-0.140000X0.170000X0.140000X0*%
%ADD28RoundRect,0.162500X0.837500X0.162500X-0.837500X0.162500X-0.837500X-0.162500X0.837500X-0.162500X0*%
%ADD29R,1.100000X0.700000*%
%ADD30R,0.930000X0.900000*%
%ADD31R,0.780000X1.050000*%
%ADD32R,3.330000X0.700000*%
%ADD33R,1.830000X1.140000*%
%ADD34R,2.800000X0.860000*%
%ADD35R,2.000000X2.000000*%
%ADD36RoundRect,0.250000X0.250000X0.475000X-0.250000X0.475000X-0.250000X-0.475000X0.250000X-0.475000X0*%
%ADD37RoundRect,0.250000X0.475000X-0.250000X0.475000X0.250000X-0.475000X0.250000X-0.475000X-0.250000X0*%
%ADD38FreePoly0,180.000000*%
%ADD39FreePoly0,0.000000*%
%ADD40RoundRect,0.150000X-0.150000X0.512500X-0.150000X-0.512500X0.150000X-0.512500X0.150000X0.512500X0*%
%ADD41RoundRect,0.150000X-0.548008X-0.335876X-0.335876X-0.548008X0.548008X0.335876X0.335876X0.548008X0*%
%ADD42RoundRect,0.250000X-0.707107X-0.212132X-0.212132X-0.707107X0.707107X0.212132X0.212132X0.707107X0*%
%ADD43RoundRect,0.135000X-0.135000X-0.185000X0.135000X-0.185000X0.135000X0.185000X-0.135000X0.185000X0*%
%ADD44R,1.600200X0.406400*%
%ADD45R,1.600200X0.609600*%
G04 #@! TA.AperFunction,Profile*
%ADD46C,0.050000*%
G04 #@! TD*
G04 APERTURE END LIST*
G36*
X187332001Y-85952001D02*
G01*
X182332001Y-85952001D01*
X182332001Y-87452001D01*
X187332001Y-87452001D01*
X187332001Y-85952001D01*
G37*
D10*
X201150000Y-93162000D03*
D11*
X203690000Y-93162000D03*
X201150000Y-95702000D03*
X203690000Y-95702000D03*
X201150000Y-98242000D03*
X203690000Y-98242000D03*
X201150000Y-100782000D03*
X203690000Y-100782000D03*
X201150000Y-103322000D03*
X203690000Y-103322000D03*
X201150000Y-105862000D03*
X203690000Y-105862000D03*
X201150000Y-108402000D03*
X203690000Y-108402000D03*
X201150000Y-110942000D03*
X203690000Y-110942000D03*
X201150000Y-113482000D03*
X203690000Y-113482000D03*
X201150000Y-116022000D03*
X203690000Y-116022000D03*
X201150000Y-118562000D03*
X203690000Y-118562000D03*
X201150000Y-121102000D03*
X203690000Y-121102000D03*
X201150000Y-123642000D03*
X203690000Y-123642000D03*
X201150000Y-126182000D03*
X203690000Y-126182000D03*
X201150000Y-128722000D03*
X203690000Y-128722000D03*
X201150000Y-131262000D03*
X203690000Y-131262000D03*
X201150000Y-133802000D03*
X203690000Y-133802000D03*
X201150000Y-136342000D03*
X203690000Y-136342000D03*
X201150000Y-138882000D03*
X203690000Y-138882000D03*
X201150000Y-141422000D03*
X203690000Y-141422000D03*
D12*
X184871000Y-140453200D03*
X190651000Y-140453200D03*
D13*
X183441000Y-139953200D03*
D14*
X183441000Y-144133200D03*
D13*
X192081000Y-139953200D03*
D14*
X192081000Y-144133200D03*
D15*
X155762000Y-117348000D03*
D16*
X155762000Y-119848000D03*
X155762000Y-121848000D03*
X155762000Y-124348000D03*
X157262000Y-124848000D03*
X157262000Y-122848000D03*
X157262000Y-120848000D03*
X157262000Y-118848000D03*
X157262000Y-116848000D03*
D17*
X156512000Y-114448000D03*
D18*
X148012000Y-114448000D03*
D17*
X156512000Y-127248000D03*
D18*
X148012000Y-127248000D03*
D19*
X194847000Y-127087000D03*
D20*
X194847000Y-129087000D03*
X192847000Y-127087000D03*
X192847000Y-129087000D03*
X190847000Y-127087000D03*
X190847000Y-129087000D03*
X188847000Y-127087000D03*
X188847000Y-129087000D03*
X186847000Y-127087000D03*
X186847000Y-129087000D03*
X184847000Y-127087000D03*
X184847000Y-129087000D03*
D21*
X195500000Y-121500000D03*
X195500000Y-73500000D03*
D22*
X162500000Y-121500000D03*
X162500000Y-73500000D03*
D10*
X159494000Y-140914000D03*
D23*
X159494000Y-143454000D03*
D24*
X150477000Y-141676000D03*
D25*
X150477000Y-136596000D03*
D26*
X155430000Y-85260000D03*
X155430000Y-84300000D03*
D27*
X152788298Y-88766198D03*
X152788298Y-89726198D03*
D28*
X153398000Y-85420000D03*
X153398000Y-87320000D03*
X149978000Y-86370000D03*
D29*
X204235000Y-86398000D03*
X204235000Y-85298000D03*
X204235000Y-84198000D03*
X204235000Y-83098000D03*
X204235000Y-81998000D03*
X204235000Y-80898000D03*
X204235000Y-79798000D03*
X204235000Y-78698000D03*
D30*
X191770000Y-88188000D03*
D31*
X191695000Y-83923000D03*
D32*
X192970000Y-90498000D03*
D33*
X204220000Y-90278000D03*
D34*
X203735000Y-77618000D03*
D32*
X192970000Y-77538000D03*
D35*
X189466000Y-144851000D03*
X155963400Y-111704000D03*
X195181000Y-140092801D03*
X201785000Y-144851000D03*
X200769000Y-74112000D03*
D36*
X154094000Y-115260000D03*
X152194000Y-115260000D03*
D35*
X180703000Y-144921000D03*
D37*
X158224000Y-131196000D03*
X158224000Y-129296000D03*
D35*
X180703000Y-141619000D03*
D38*
X186832001Y-86702001D03*
D39*
X182832001Y-86702001D03*
D40*
X154480000Y-129362500D03*
X155430000Y-129362500D03*
X156380000Y-129362500D03*
X156380000Y-131637500D03*
X155430000Y-131637500D03*
X154480000Y-131637500D03*
D36*
X154094000Y-117292000D03*
X152194000Y-117292000D03*
D35*
X149588000Y-82621000D03*
X156319000Y-140660000D03*
D41*
X196535386Y-101196586D03*
X197242493Y-101903693D03*
X197949600Y-102610800D03*
X198656707Y-103317907D03*
D42*
X193830703Y-102062792D03*
X197790501Y-106022590D03*
D35*
X156319000Y-143708000D03*
D43*
X155428000Y-133294000D03*
X156448000Y-133294000D03*
D44*
X162186400Y-116955201D03*
X164574000Y-116455202D03*
X162186400Y-115955200D03*
X164574000Y-115455201D03*
X162186400Y-114955200D03*
X164574000Y-114455201D03*
X162186400Y-113955202D03*
X164574000Y-113455200D03*
X162186400Y-112955201D03*
X164574000Y-112455200D03*
X162186400Y-111955201D03*
X164574000Y-111455202D03*
X162186400Y-110955200D03*
X164574000Y-110455201D03*
X162186400Y-109955200D03*
X164574000Y-109455201D03*
D45*
X164574000Y-108455401D03*
X164574000Y-117955001D03*
X162186400Y-108446201D03*
X162186400Y-117971201D03*
D46*
X170288978Y-121225633D02*
X170289000Y-94244427D01*
X173340373Y-124277000D02*
G75*
G02*
X171926143Y-123691229I-73J1999900D01*
G01*
X164860000Y-68524000D02*
G75*
G02*
X166860000Y-70524000I0J-2000000D01*
G01*
X170289000Y-94244427D02*
G75*
G02*
X170874773Y-92830199I2000000J27D01*
G01*
X190863000Y-80046323D02*
G75*
G02*
X190277223Y-81460545I-2000100J23D01*
G01*
X174546427Y-89987000D02*
X184799000Y-89987000D01*
X197213000Y-113421427D02*
X197213000Y-116141816D01*
X205976000Y-70524000D02*
X205976000Y-144502000D01*
X174387677Y-84526000D02*
G75*
G02*
X172973455Y-83940223I23J2000100D01*
G01*
X167445787Y-78412537D02*
G75*
G02*
X166859984Y-76998323I1414213J1414237D01*
G01*
X187384787Y-102764787D02*
X196627214Y-112007214D01*
X146286000Y-70524000D02*
G75*
G02*
X148286000Y-68524000I2000000J0D01*
G01*
X187797537Y-83940213D02*
X190277214Y-81460536D01*
X192133000Y-121500001D02*
G75*
G02*
X195370953Y-118135383I3369900J-2699D01*
G01*
X146286000Y-144502000D02*
X146286000Y-70524000D01*
X148286000Y-68524000D02*
X164860000Y-68524000D01*
X148286000Y-146502000D02*
G75*
G02*
X146286000Y-144502000I0J2000000D01*
G01*
X196627214Y-112007214D02*
G75*
G02*
X197213022Y-113421427I-1414314J-1414286D01*
G01*
X197212290Y-116141816D02*
G75*
G02*
X195371779Y-118135421I-1999990J16D01*
G01*
X192133000Y-122277000D02*
G75*
G02*
X190133000Y-124277000I-2000000J0D01*
G01*
X187384787Y-102764787D02*
G75*
G02*
X186798978Y-101350573I1414313J1414287D01*
G01*
X167445787Y-78412537D02*
X172973464Y-83940214D01*
X205976000Y-144502000D02*
G75*
G02*
X203976000Y-146502000I-2000000J0D01*
G01*
X170874786Y-122639846D02*
G75*
G02*
X170288977Y-121225633I1414214J1414246D01*
G01*
X184799000Y-89987000D02*
G75*
G02*
X186799000Y-91987000I0J-2000000D01*
G01*
X166860000Y-70524000D02*
X166860000Y-76998323D01*
X190863000Y-70524000D02*
G75*
G02*
X192863000Y-68524000I2000000J0D01*
G01*
X190133000Y-124277000D02*
X173340373Y-124277000D01*
X203976000Y-68524000D02*
G75*
G02*
X205976000Y-70524000I0J-2000000D01*
G01*
X203976000Y-146502000D02*
X148286000Y-146502000D01*
X190863000Y-80046323D02*
X190863000Y-70524000D01*
X174387677Y-84526000D02*
X186383323Y-84526000D01*
X186799000Y-91987000D02*
X186799000Y-101350573D01*
X171925713Y-123691213D02*
X170874786Y-122640286D01*
X192133000Y-121500001D02*
X192133000Y-122277000D01*
X170874787Y-92830213D02*
X173132214Y-90572786D01*
X192863000Y-68524000D02*
X203976000Y-68524000D01*
X187797537Y-83940213D02*
G75*
G02*
X186383323Y-84526016I-1414237J1414213D01*
G01*
X173132214Y-90572786D02*
G75*
G02*
X174546427Y-89987019I1414186J-1414214D01*
G01*
M02*
