G04 #@! TF.GenerationSoftware,KiCad,Pcbnew,9.0.3*
G04 #@! TF.CreationDate,2026-01-29T19:37:25+01:00*
G04 #@! TF.ProjectId,CM5IO,434d3549-4f2e-46b6-9963-61645f706362,rev?*
G04 #@! TF.SameCoordinates,Original*
G04 #@! TF.FileFunction,Paste,Bot*
G04 #@! TF.FilePolarity,Positive*
%FSLAX46Y46*%
G04 Gerber Fmt 4.6, Leading zero omitted, Abs format (unit mm)*
G04 Created by KiCad (PCBNEW 9.0.3) date 2026-01-29 19:37:25*
%MOMM*%
%LPD*%
G01*
G04 APERTURE LIST*
G04 Aperture macros list*
%AMRoundRect*
0 Rectangle with rounded corners*
0 $1 Rounding radius*
0 $2 $3 $4 $5 $6 $7 $8 $9 X,Y pos of 4 corners*
0 Add a 4 corners polygon primitive as box body*
4,1,4,$2,$3,$4,$5,$6,$7,$8,$9,$2,$3,0*
0 Add four circle primitives for the rounded corners*
1,1,$1+$1,$2,$3*
1,1,$1+$1,$4,$5*
1,1,$1+$1,$6,$7*
1,1,$1+$1,$8,$9*
0 Add four rect primitives between the rounded corners*
20,1,$1+$1,$2,$3,$4,$5,0*
20,1,$1+$1,$4,$5,$6,$7,0*
20,1,$1+$1,$6,$7,$8,$9,0*
20,1,$1+$1,$8,$9,$2,$3,0*%
G04 Aperture macros list end*
%ADD10RoundRect,0.140000X0.170000X-0.140000X0.170000X0.140000X-0.170000X0.140000X-0.170000X-0.140000X0*%
%ADD11RoundRect,0.140000X-0.170000X0.140000X-0.170000X-0.140000X0.170000X-0.140000X0.170000X0.140000X0*%
%ADD12RoundRect,0.162500X0.837500X0.162500X-0.837500X0.162500X-0.837500X-0.162500X0.837500X-0.162500X0*%
%ADD13R,1.100000X0.700000*%
%ADD14R,0.930000X0.900000*%
%ADD15R,0.780000X1.050000*%
%ADD16R,3.330000X0.700000*%
%ADD17R,1.830000X1.140000*%
%ADD18R,2.800000X0.860000*%
%ADD19RoundRect,0.250000X0.250000X0.475000X-0.250000X0.475000X-0.250000X-0.475000X0.250000X-0.475000X0*%
%ADD20RoundRect,0.250000X0.475000X-0.250000X0.475000X0.250000X-0.475000X0.250000X-0.475000X-0.250000X0*%
%ADD21RoundRect,0.150000X-0.150000X0.512500X-0.150000X-0.512500X0.150000X-0.512500X0.150000X0.512500X0*%
%ADD22RoundRect,0.150000X-0.548008X-0.335876X-0.335876X-0.548008X0.548008X0.335876X0.335876X0.548008X0*%
%ADD23RoundRect,0.250000X-0.707107X-0.212132X-0.212132X-0.707107X0.707107X0.212132X0.212132X0.707107X0*%
%ADD24RoundRect,0.135000X-0.135000X-0.185000X0.135000X-0.185000X0.135000X0.185000X-0.135000X0.185000X0*%
%ADD25R,1.600200X0.406400*%
%ADD26R,1.600200X0.609600*%
G04 #@! TA.AperFunction,Profile*
%ADD27C,0.050000*%
G04 #@! TD*
G04 APERTURE END LIST*
D10*
X155430000Y-85260000D03*
X155430000Y-84300000D03*
D11*
X152788298Y-88766198D03*
X152788298Y-89726198D03*
D12*
X153398000Y-85420000D03*
X153398000Y-87320000D03*
X149978000Y-86370000D03*
D13*
X204235000Y-86398000D03*
X204235000Y-85298000D03*
X204235000Y-84198000D03*
X204235000Y-83098000D03*
X204235000Y-81998000D03*
X204235000Y-80898000D03*
X204235000Y-79798000D03*
X204235000Y-78698000D03*
D14*
X191770000Y-88188000D03*
D15*
X191695000Y-83923000D03*
D16*
X192970000Y-90498000D03*
D17*
X204220000Y-90278000D03*
D18*
X203735000Y-77618000D03*
D16*
X192970000Y-77538000D03*
D19*
X154094000Y-115260000D03*
X152194000Y-115260000D03*
D20*
X158224000Y-131196000D03*
X158224000Y-129296000D03*
D21*
X154480000Y-129362500D03*
X155430000Y-129362500D03*
X156380000Y-129362500D03*
X156380000Y-131637500D03*
X155430000Y-131637500D03*
X154480000Y-131637500D03*
D19*
X154094000Y-117292000D03*
X152194000Y-117292000D03*
D22*
X196535386Y-101196586D03*
X197242493Y-101903693D03*
X197949600Y-102610800D03*
X198656707Y-103317907D03*
D23*
X193830703Y-102062792D03*
X197790501Y-106022590D03*
D24*
X155428000Y-133294000D03*
X156448000Y-133294000D03*
D25*
X162186400Y-116955201D03*
X164574000Y-116455202D03*
X162186400Y-115955200D03*
X164574000Y-115455201D03*
X162186400Y-114955200D03*
X164574000Y-114455201D03*
X162186400Y-113955202D03*
X164574000Y-113455200D03*
X162186400Y-112955201D03*
X164574000Y-112455200D03*
X162186400Y-111955201D03*
X164574000Y-111455202D03*
X162186400Y-110955200D03*
X164574000Y-110455201D03*
X162186400Y-109955200D03*
X164574000Y-109455201D03*
D26*
X164574000Y-108455401D03*
X164574000Y-117955001D03*
X162186400Y-108446201D03*
X162186400Y-117971201D03*
D27*
X170288978Y-121225633D02*
X170289000Y-94244427D01*
X173340373Y-124277000D02*
G75*
G02*
X171926143Y-123691229I-73J1999900D01*
G01*
X164860000Y-68524000D02*
G75*
G02*
X166860000Y-70524000I0J-2000000D01*
G01*
X170289000Y-94244427D02*
G75*
G02*
X170874773Y-92830199I2000000J27D01*
G01*
X190863000Y-80046323D02*
G75*
G02*
X190277223Y-81460545I-2000100J23D01*
G01*
X174546427Y-89987000D02*
X184799000Y-89987000D01*
X197213000Y-113421427D02*
X197213000Y-116141816D01*
X205976000Y-70524000D02*
X205976000Y-144502000D01*
X174387677Y-84526000D02*
G75*
G02*
X172973455Y-83940223I23J2000100D01*
G01*
X167445787Y-78412537D02*
G75*
G02*
X166859984Y-76998323I1414213J1414237D01*
G01*
X187384787Y-102764787D02*
X196627214Y-112007214D01*
X146286000Y-70524000D02*
G75*
G02*
X148286000Y-68524000I2000000J0D01*
G01*
X187797537Y-83940213D02*
X190277214Y-81460536D01*
X192133000Y-121500001D02*
G75*
G02*
X195370953Y-118135383I3369900J-2699D01*
G01*
X146286000Y-144502000D02*
X146286000Y-70524000D01*
X148286000Y-68524000D02*
X164860000Y-68524000D01*
X148286000Y-146502000D02*
G75*
G02*
X146286000Y-144502000I0J2000000D01*
G01*
X196627214Y-112007214D02*
G75*
G02*
X197213022Y-113421427I-1414314J-1414286D01*
G01*
X197212290Y-116141816D02*
G75*
G02*
X195371779Y-118135421I-1999990J16D01*
G01*
X192133000Y-122277000D02*
G75*
G02*
X190133000Y-124277000I-2000000J0D01*
G01*
X187384787Y-102764787D02*
G75*
G02*
X186798978Y-101350573I1414313J1414287D01*
G01*
X167445787Y-78412537D02*
X172973464Y-83940214D01*
X205976000Y-144502000D02*
G75*
G02*
X203976000Y-146502000I-2000000J0D01*
G01*
X170874786Y-122639846D02*
G75*
G02*
X170288977Y-121225633I1414214J1414246D01*
G01*
X184799000Y-89987000D02*
G75*
G02*
X186799000Y-91987000I0J-2000000D01*
G01*
X166860000Y-70524000D02*
X166860000Y-76998323D01*
X190863000Y-70524000D02*
G75*
G02*
X192863000Y-68524000I2000000J0D01*
G01*
X190133000Y-124277000D02*
X173340373Y-124277000D01*
X203976000Y-68524000D02*
G75*
G02*
X205976000Y-70524000I0J-2000000D01*
G01*
X203976000Y-146502000D02*
X148286000Y-146502000D01*
X190863000Y-80046323D02*
X190863000Y-70524000D01*
X174387677Y-84526000D02*
X186383323Y-84526000D01*
X186799000Y-91987000D02*
X186799000Y-101350573D01*
X171925713Y-123691213D02*
X170874786Y-122640286D01*
X192133000Y-121500001D02*
X192133000Y-122277000D01*
X170874787Y-92830213D02*
X173132214Y-90572786D01*
X192863000Y-68524000D02*
X203976000Y-68524000D01*
X187797537Y-83940213D02*
G75*
G02*
X186383323Y-84526016I-1414237J1414213D01*
G01*
X173132214Y-90572786D02*
G75*
G02*
X174546427Y-89987019I1414186J-1414214D01*
G01*
M02*
