M48
; DRILL file {KiCad 9.0.3} date 2026-01-29T19:37:27+0100
; FORMAT={-:-/ absolute / inch / decimal}
; #@! TF.CreationDate,2026-01-29T19:37:27+01:00
; #@! TF.GenerationSoftware,Kicad,Pcbnew,9.0.3
; #@! TF.FileFunction,Plated,1,4,PTH
FMAT,2
INCH
; #@! TA.AperFunction,Plated,PTH,ViaDrill
T1C0.0118
; #@! TA.AperFunction,Plated,PTH,ComponentDrill
T2C0.0236
; #@! TA.AperFunction,Plated,PTH,ComponentDrill
T3C0.0276
; #@! TA.AperFunction,Plated,PTH,ComponentDrill
T4C0.0315
; #@! TA.AperFunction,Plated,PTH,ComponentDrill
T5C0.0394
; #@! TA.AperFunction,Plated,PTH,ComponentDrill
T6C0.0598
%
G90
G05
T1
X5.7953Y-3.0208
X5.7993Y-5.2678
X5.7993Y-5.3678
X5.7993Y-5.4678
X5.811Y-4.6181
X5.8143Y-3.8778
X5.8271Y-4.4409
X5.8343Y-3.4028
X5.8343Y-5.1528
X5.8393Y-4.742
X5.8393Y-4.7735
X5.8393Y-5.2678
X5.8393Y-5.4678
X5.8469Y-2.7835
X5.8503Y-3.0658
X5.8549Y-3.7635
X5.8793Y-5.2678
X5.8793Y-5.4678
X5.8973Y-3.6052
X5.8973Y-3.6367
X5.9009Y-5.7275
X5.9018Y-5.0828
X5.9018Y-5.2228
X5.9043Y-3.4378
X5.9193Y-5.2678
X5.9193Y-5.4678
X5.9213Y-3.551
X5.9213Y-3.5825
X5.9303Y-4.8958
X5.9393Y-3.6488
X5.9493Y-4.5378
X5.9493Y-4.5778
X5.9493Y-4.6178
X5.9513Y-3.5948
X5.9515Y-3.4308
X5.9593Y-5.2678
X5.9593Y-5.4678
X5.9603Y-3.5398
X5.9793Y-5.0178
X5.9793Y-5.0478
X5.9853Y-3.4158
X5.9889Y-3.7655
X5.9893Y-3.9602
X5.9893Y-4.0192
X5.9893Y-4.0783
X5.9893Y-4.1373
X5.9893Y-4.1964
X5.9893Y-4.2554
X5.9893Y-4.3145
X5.9893Y-5.1878
X5.9919Y-4.5778
X5.9949Y-2.7835
X5.9968Y-4.7053
X5.9972Y-2.9202
X5.9972Y-2.9792
X5.9972Y-3.0383
X5.9972Y-3.0973
X5.9972Y-3.1564
X5.9972Y-3.2154
X5.9972Y-3.2745
X5.9993Y-5.2678
X5.9993Y-5.4678
X6.0013Y-3.8058
X6.0068Y-5.0378
X6.0068Y-5.0778
X6.0093Y-2.8578
X6.0143Y-4.6878
X6.0318Y-4.6703
X6.0323Y-3.7028
X6.0353Y-3.7958
X6.0393Y-3.3328
X6.0393Y-5.1878
X6.0393Y-5.2178
X6.0393Y-5.2678
X6.0393Y-5.4678
X6.044Y-3.5031
X6.0493Y-4.7078
X6.0553Y-4.8958
X6.0583Y-3.6808
X6.0593Y-3.8218
X6.0644Y-4.6879
X6.0723Y-3.5638
X6.0733Y-4.0788
X6.0742Y-3.9596
X6.0742Y-4.1368
X6.0743Y-4.0186
X6.0743Y-4.1959
X6.0743Y-4.2548
X6.0793Y-3.3178
X6.0793Y-5.2678
X6.0793Y-5.4678
X6.0819Y-4.6704
X6.0913Y-3.8218
X6.0993Y-4.3278
X6.1033Y-3.6128
X6.1046Y-4.092
X6.1046Y-4.1235
X6.1093Y-2.9202
X6.1093Y-2.9792
X6.1093Y-3.0383
X6.1093Y-3.0978
X6.1093Y-3.1578
X6.1093Y-3.2154
X6.1093Y-3.2778
X6.1093Y-4.2102
X6.1093Y-4.2417
X6.1193Y-5.4678
X6.1227Y-4.0122
X6.1383Y-3.1111
X6.1383Y-3.1426
X6.1383Y-3.2292
X6.1383Y-3.2607
X6.1383Y-4.1511
X6.1383Y-4.1826
X6.1403Y-2.993
X6.1403Y-3.0245
X6.1449Y-4.0344
X6.1493Y-4.2692
X6.1493Y-4.3007
X6.1593Y-3.3178
X6.1593Y-5.4678
X6.1693Y-2.9202
X6.1693Y-2.9778
X6.1693Y-3.0378
X6.1693Y-3.0978
X6.1693Y-3.1578
X6.1693Y-3.2178
X6.1693Y-3.2778
X6.1749Y-4.3215
X6.1972Y-2.7992
X6.1993Y-5.2678
X6.1993Y-5.3678
X6.1993Y-5.4678
X6.2033Y-3.1702
X6.2033Y-3.2017
X6.2092Y-2.8679
X6.2383Y-3.8504
X6.2383Y-3.8819
X6.2393Y-3.3818
X6.2403Y-3.052
X6.2403Y-3.0835
X6.2583Y-4.3828
X6.2603Y-4.5008
X6.2749Y-2.9615
X6.2758Y-3.5197
X6.2758Y-3.5512
X6.2803Y-2.8515
X6.2813Y-5.0528
X6.2874Y-3.6535
X6.2874Y-3.7008
X6.2874Y-3.748
X6.2875Y-3.4252
X6.2875Y-3.4567
X6.3153Y-5.0968
X6.3183Y-4.4468
X6.3353Y-4.5658
X6.3491Y-3.748
X6.3493Y-3.4646
X6.3493Y-3.5118
X6.3493Y-3.5591
X6.3493Y-3.6063
X6.3493Y-3.6535
X6.3493Y-3.7008
X6.3503Y-3.3388
X6.3593Y-4.0288
X6.3609Y-5.7175
X6.3793Y-3.9128
X6.3853Y-4.6818
X6.3863Y-4.2048
X6.4003Y-3.3838
X6.4029Y-3.7415
X6.4043Y-3.9728
X6.4093Y-3.4173
X6.4093Y-3.4646
X6.4093Y-3.5118
X6.4093Y-3.5591
X6.4093Y-3.6063
X6.4093Y-3.6535
X6.4093Y-3.7008
X6.4173Y-4.9128
X6.4263Y-4.4078
X6.4303Y-4.3128
X6.4306Y-4.2688
X6.4323Y-4.5258
X6.4343Y-3.3228
X6.4343Y-4.4388
X6.4343Y-5.2528
X6.4353Y-4.5578
X6.4353Y-4.6048
X6.4593Y-4.9548
X6.4743Y-3.6078
X6.4743Y-3.6528
X6.4743Y-5.0128
X6.4743Y-5.0528
X6.4743Y-5.1298
X6.4743Y-5.1758
X6.4743Y-5.2128
X6.4743Y-5.2528
X6.4763Y-4.3311
X6.4777Y-3.0055
X6.4777Y-3.037
X6.478Y-3.7165
X6.4793Y-4.2178
X6.4793Y-4.6828
X6.4802Y-3.8504
X6.4802Y-3.8819
X6.5003Y-3.6858
X6.5103Y-3.0208
X6.5104Y-4.0987
X6.5143Y-5.0128
X6.5143Y-5.0528
X6.5143Y-5.0928
X6.5143Y-5.1298
X6.5143Y-5.1758
X6.5143Y-5.2128
X6.5143Y-5.2528
X6.5153Y-4.0528
X6.5163Y-3.0968
X6.5203Y-3.8976
X6.5203Y-3.9291
X6.5243Y-3.7118
X6.5243Y-3.8578
X6.5313Y-3.9918
X6.5313Y-4.0248
X6.5342Y-5.4578
X6.5342Y-5.4928
X6.5343Y-5.3628
X6.5343Y-5.3928
X6.5343Y-5.4228
X6.5343Y-5.5228
X6.5343Y-5.5528
X6.5343Y-5.5828
X6.5363Y-4.6448
X6.5369Y-2.7555
X6.5373Y-4.5298
X6.5423Y-3.5197
X6.5423Y-3.5512
X6.5423Y-4.3888
X6.5423Y-4.7848
X6.5453Y-4.1168
X6.5488Y-3.8031
X6.5488Y-3.8346
X6.5509Y-3.9155
X6.5533Y-4.1948
X6.5543Y-5.2528
X6.5563Y-3.1368
X6.5593Y-4.0078
X6.5632Y-4.5069
X6.5643Y-5.3128
X6.5643Y-5.3828
X6.5643Y-5.4128
X6.5643Y-5.4428
X6.5643Y-5.4728
X6.5643Y-5.5028
X6.5643Y-5.5328
X6.5643Y-5.5628
X6.5643Y-5.5928
X6.5653Y-3.9449
X6.5653Y-3.9764
X6.5683Y-4.0698
X6.5763Y-4.1028
X6.5803Y-4.7468
X6.5823Y-4.5708
X6.5823Y-4.8288
X6.5833Y-4.2198
X6.5833Y-4.6368
X6.5854Y-4.4847
X6.5893Y-3.7778
X6.5893Y-3.8178
X6.5893Y-3.8578
X6.5893Y-3.9228
X6.5893Y-4.0028
X6.5903Y-3.4724
X6.5903Y-3.5039
X6.5942Y-5.4578
X6.5942Y-5.4928
X6.5943Y-5.0128
X6.5943Y-5.0528
X6.5943Y-5.0928
X6.5943Y-5.1298
X6.5943Y-5.1758
X6.5943Y-5.2128
X6.5943Y-5.2528
X6.5943Y-5.2928
X6.5943Y-5.3928
X6.5943Y-5.4228
X6.5943Y-5.5228
X6.5943Y-5.5528
X6.5943Y-5.5828
X6.5963Y-3.1768
X6.5993Y-3.6078
X6.6243Y-5.4128
X6.6243Y-5.4428
X6.6243Y-5.4728
X6.6243Y-5.5028
X6.6243Y-5.5328
X6.6243Y-5.5628
X6.6243Y-5.5928
X6.6343Y-5.2328
X6.6343Y-5.2728
X6.6343Y-5.3128
X6.6363Y-3.2168
X6.6363Y-3.4252
X6.6363Y-3.4567
X6.6393Y-3.5678
X6.6543Y-4.9678
X6.6543Y-5.5528
X6.6543Y-5.5828
X6.6543Y-5.6128
X6.6743Y-5.2928
X6.6743Y-5.3328
X6.6763Y-3.2568
X6.6793Y-3.5278
X6.6813Y-3.378
X6.6813Y-3.4094
X6.6843Y-5.1228
X6.7143Y-5.2728
X6.7143Y-5.3128
X6.7163Y-3.2968
X6.7193Y-3.4878
X6.7313Y-5.3498
X6.7329Y-5.0035
X6.7563Y-3.3368
X6.7593Y-3.4478
X6.7643Y-5.7278
X6.8749Y-4.9635
X6.8993Y-3.4078
X6.9793Y-3.4078
X6.9803Y-5.6608
X7.0203Y-5.6108
X7.0403Y-5.3668
X7.0403Y-5.3888
X7.0593Y-3.4078
X7.1075Y-5.2728
X7.1075Y-5.3128
X7.1075Y-5.3528
X7.1134Y-5.3937
X7.115Y-5.4328
X7.1333Y-5.4138
X7.1334Y-5.3287
X7.1343Y-5.3728
X7.1393Y-3.4078
X7.159Y-5.3428
X7.1593Y-5.3878
X7.1643Y-5.4328
X7.1653Y-5.4108
X7.1743Y-5.3696
X7.1803Y-5.5108
X7.1843Y-5.2178
X7.1893Y-4.9278
X7.1893Y-5.5778
X7.2223Y-5.3268
X7.2223Y-5.3508
X7.2579Y-5.4392
X7.2793Y-5.3278
X7.2819Y-5.4161
X7.2977Y-5.3964
X7.3093Y-5.2278
X7.3174Y-5.4161
X7.3503Y-3.5535
X7.3568Y-5.5553
X7.3843Y-5.3328
X7.3993Y-4.0078
X7.4033Y-3.8038
X7.4203Y-3.8508
X7.4223Y-3.5068
X7.4263Y-3.5428
X7.4303Y-5.5408
X7.4303Y-5.5958
X7.4363Y-3.4368
X7.4393Y-3.8938
X7.4503Y-3.8638
X7.4583Y-3.5688
X7.4623Y-3.9198
X7.4663Y-5.5478
X7.4763Y-3.5018
X7.4788Y-5.42
X7.4823Y-3.8538
X7.4843Y-3.3778
X7.4843Y-3.8878
X7.4869Y-3.5908
X7.4903Y-4.1308
X7.4913Y-3.5318
X7.4943Y-3.7478
X7.4983Y-3.4758
X7.4985Y-5.4003
X7.4993Y-3.7978
X7.5043Y-3.7138
X7.5063Y-5.4239
X7.5203Y-3.6508
X7.5209Y-3.3475
X7.5213Y-3.5188
X7.5213Y-3.7648
X7.5303Y-3.6808
X7.5322Y-5.3268
X7.5329Y-3.1995
X7.5443Y-3.6228
X7.5449Y-5.4215
X7.5493Y-3.7078
X7.5571Y-3.0236
X7.5573Y-3.5168
X7.5703Y-4.2108
X7.5722Y-5.3668
X7.5728Y-2.9882
X7.5769Y-4.8835
X7.5969Y-3.5255
X7.5973Y-3.6028
X7.5993Y-3.4528
X7.6003Y-5.7288
X7.6053Y-5.5108
X7.6083Y-3.6678
X7.6103Y-5.6058
X7.6123Y-3.7008
X7.6153Y-5.5408
X7.6213Y-3.4288
X7.6283Y-3.7288
X7.6443Y-5.6428
X7.6503Y-4.2908
X7.6773Y-3.3701
X7.6793Y-3.4803
X7.6793Y-3.5278
X7.6813Y-3.811
X7.6813Y-3.8896
X7.6813Y-3.9685
X7.6843Y-5.5155
X7.6853Y-3.6048
X7.6893Y-3.5591
X7.6893Y-4.0787
X7.6893Y-4.126
X7.6993Y-3.6628
X7.7033Y-3.6308
X7.7083Y-3.3908
X7.7093Y-3.5178
X7.712Y-4.0211
X7.7233Y-4.0578
X7.7263Y-3.3238
X7.7263Y-3.9048
X7.7303Y-3.4438
X7.7349Y-5.1015
X7.7363Y-3.7928
X7.7369Y-5.1855
X7.7389Y-3.1995
X7.7393Y-3.7165
X7.7393Y-3.874
X7.7393Y-4.126
X7.7433Y-3.9398
X7.7443Y-3.5748
X7.7472Y-3.5118
X7.7483Y-3.4108
X7.7483Y-3.8228
X7.7488Y-3.5433
X7.7493Y-4.3678
X7.7743Y-4.6728
X7.7753Y-5.5258
X7.7989Y-3.1995
X7.8013Y-3.9843
X7.8073Y-3.6188
X7.8143Y-5.6128
X7.8153Y-5.5708
X7.8173Y-3.7398
X7.8183Y-3.9258
X7.8193Y-4.126
X7.8203Y-4.0128
X7.824Y-3.5906
X7.8243Y-3.3578
X7.8281Y-3.3926
X7.8283Y-3.7928
X7.8303Y-5.6858
X7.8333Y-3.4278
X7.8369Y-2.7775
X7.8423Y-3.7178
X7.8423Y-3.7608
X7.8593Y-5.7128
X7.8603Y-3.4648
X7.8603Y-3.4968
X7.8603Y-3.5258
X7.8713Y-3.5558
X7.8853Y-3.4648
X7.8853Y-3.4968
X7.8853Y-3.5276
X7.8937Y-3.4408
X7.9003Y-5.6458
X7.9103Y-3.4648
X7.9103Y-3.4968
X7.9103Y-3.5276
X7.9149Y-3.0995
X7.9353Y-3.4968
X7.9443Y-5.7028
X7.9493Y-3.2652
X7.9593Y-3.4478
X7.9593Y-3.7218
X7.9869Y-3.0995
X8.0056Y-3.2678
X8.0056Y-3.4378
X8.0093Y-3.1878
X8.0109Y-5.6395
X8.0509Y-2.7775
X8.0693Y-3.3578
X8.0743Y-3.1417
X8.0793Y-3.2278
X8.0853Y-4.7158
X8.0856Y-4.8678
X8.0883Y-3.4608
X8.0889Y-3.1855
X8.0903Y-3.5958
T3
X6.1324Y-4.62
X6.1324Y-4.7184
X6.1324Y-4.7972
X6.1324Y-4.8956
X6.1914Y-4.6003
X6.1914Y-4.6791
X6.1914Y-4.7578
X6.1914Y-4.8365
X6.1914Y-4.9153
T4
X7.2774Y-5.0034
X7.2774Y-5.0822
X7.3562Y-5.0034
X7.3562Y-5.0822
X7.4349Y-5.0034
X7.4349Y-5.0822
X7.5137Y-5.0034
X7.5137Y-5.0822
X7.5924Y-5.0034
X7.5924Y-5.0822
X7.6711Y-5.0034
X7.6711Y-5.0822
T5
X6.2793Y-5.5478
X6.2793Y-5.6478
X7.9193Y-3.6678
X7.9193Y-3.7678
X7.9193Y-3.8678
X7.9193Y-3.9678
X7.9193Y-4.0678
X7.9193Y-4.1678
X7.9193Y-4.2678
X7.9193Y-4.3678
X7.9193Y-4.4678
X7.9193Y-4.5678
X7.9193Y-4.6678
X7.9193Y-4.7678
X7.9193Y-4.8678
X7.9193Y-4.9678
X7.9193Y-5.0678
X7.9193Y-5.1678
X7.9193Y-5.2678
X7.9193Y-5.3678
X7.9193Y-5.4678
X7.9193Y-5.5678
X8.0193Y-3.6678
X8.0193Y-3.7678
X8.0193Y-3.8678
X8.0193Y-3.9678
X8.0193Y-4.0678
X8.0193Y-4.1678
X8.0193Y-4.2678
X8.0193Y-4.3678
X8.0193Y-4.4678
X8.0193Y-4.5678
X8.0193Y-4.6678
X8.0193Y-4.7678
X8.0193Y-4.8678
X8.0193Y-4.9678
X8.0193Y-5.0678
X8.0193Y-5.1678
X8.0193Y-5.2678
X8.0193Y-5.3678
X8.0193Y-5.4678
X8.0193Y-5.5678
T6
X5.9243Y-5.3778
X5.9243Y-5.5778
T2
G00X5.843Y-4.5058
M15
G01X5.8115Y-4.5058
M16
G05
G00X5.843Y-5.0098
M15
G01X5.8115Y-5.0098
M16
G05
G00X6.1835Y-4.5058
M15
G01X6.1402Y-4.5058
M16
G05
G00X6.1835Y-5.0098
M15
G01X6.1402Y-5.0098
M16
G05
G00X7.2221Y-5.4883
M15
G01X7.2221Y-5.5316
M16
G05
G00X7.2221Y-5.6588
M15
G01X7.2221Y-5.6903
M16
G05
G00X7.5622Y-5.4883
M15
G01X7.5622Y-5.5316
M16
G05
G00X7.5622Y-5.6588
M15
G01X7.5622Y-5.6903
M16
G05
M30
