G04 #@! TF.GenerationSoftware,KiCad,Pcbnew,9.0.3*
G04 #@! TF.CreationDate,2026-01-29T19:37:25+01:00*
G04 #@! TF.ProjectId,CM5IO,434d3549-4f2e-46b6-9963-61645f706362,rev?*
G04 #@! TF.SameCoordinates,Original*
G04 #@! TF.FileFunction,OtherDrawing,Comment*
%FSLAX46Y46*%
G04 Gerber Fmt 4.6, Leading zero omitted, Abs format (unit mm)*
G04 Created by KiCad (PCBNEW 9.0.3) date 2026-01-29 19:37:25*
%MOMM*%
%LPD*%
G01*
G04 APERTURE LIST*
%ADD10C,0.100000*%
%ADD11C,0.120000*%
%ADD12C,0.010000*%
G04 #@! TA.AperFunction,Profile*
%ADD13C,0.050000*%
G04 #@! TD*
G04 APERTURE END LIST*
D10*
X186046714Y-146384309D02*
X186046714Y-145884309D01*
X186046714Y-145884309D02*
X186237190Y-145884309D01*
X186237190Y-145884309D02*
X186284809Y-145908119D01*
X186284809Y-145908119D02*
X186308619Y-145931928D01*
X186308619Y-145931928D02*
X186332428Y-145979547D01*
X186332428Y-145979547D02*
X186332428Y-146050976D01*
X186332428Y-146050976D02*
X186308619Y-146098595D01*
X186308619Y-146098595D02*
X186284809Y-146122404D01*
X186284809Y-146122404D02*
X186237190Y-146146214D01*
X186237190Y-146146214D02*
X186046714Y-146146214D01*
X186832428Y-146336690D02*
X186808619Y-146360500D01*
X186808619Y-146360500D02*
X186737190Y-146384309D01*
X186737190Y-146384309D02*
X186689571Y-146384309D01*
X186689571Y-146384309D02*
X186618143Y-146360500D01*
X186618143Y-146360500D02*
X186570524Y-146312880D01*
X186570524Y-146312880D02*
X186546714Y-146265261D01*
X186546714Y-146265261D02*
X186522905Y-146170023D01*
X186522905Y-146170023D02*
X186522905Y-146098595D01*
X186522905Y-146098595D02*
X186546714Y-146003357D01*
X186546714Y-146003357D02*
X186570524Y-145955738D01*
X186570524Y-145955738D02*
X186618143Y-145908119D01*
X186618143Y-145908119D02*
X186689571Y-145884309D01*
X186689571Y-145884309D02*
X186737190Y-145884309D01*
X186737190Y-145884309D02*
X186808619Y-145908119D01*
X186808619Y-145908119D02*
X186832428Y-145931928D01*
X187213381Y-146122404D02*
X187284809Y-146146214D01*
X187284809Y-146146214D02*
X187308619Y-146170023D01*
X187308619Y-146170023D02*
X187332428Y-146217642D01*
X187332428Y-146217642D02*
X187332428Y-146289071D01*
X187332428Y-146289071D02*
X187308619Y-146336690D01*
X187308619Y-146336690D02*
X187284809Y-146360500D01*
X187284809Y-146360500D02*
X187237190Y-146384309D01*
X187237190Y-146384309D02*
X187046714Y-146384309D01*
X187046714Y-146384309D02*
X187046714Y-145884309D01*
X187046714Y-145884309D02*
X187213381Y-145884309D01*
X187213381Y-145884309D02*
X187261000Y-145908119D01*
X187261000Y-145908119D02*
X187284809Y-145931928D01*
X187284809Y-145931928D02*
X187308619Y-145979547D01*
X187308619Y-145979547D02*
X187308619Y-146027166D01*
X187308619Y-146027166D02*
X187284809Y-146074785D01*
X187284809Y-146074785D02*
X187261000Y-146098595D01*
X187261000Y-146098595D02*
X187213381Y-146122404D01*
X187213381Y-146122404D02*
X187046714Y-146122404D01*
X187927666Y-146122404D02*
X188094333Y-146122404D01*
X188165761Y-146384309D02*
X187927666Y-146384309D01*
X187927666Y-146384309D02*
X187927666Y-145884309D01*
X187927666Y-145884309D02*
X188165761Y-145884309D01*
X188594333Y-146384309D02*
X188594333Y-145884309D01*
X188594333Y-146360500D02*
X188546714Y-146384309D01*
X188546714Y-146384309D02*
X188451476Y-146384309D01*
X188451476Y-146384309D02*
X188403857Y-146360500D01*
X188403857Y-146360500D02*
X188380047Y-146336690D01*
X188380047Y-146336690D02*
X188356238Y-146289071D01*
X188356238Y-146289071D02*
X188356238Y-146146214D01*
X188356238Y-146146214D02*
X188380047Y-146098595D01*
X188380047Y-146098595D02*
X188403857Y-146074785D01*
X188403857Y-146074785D02*
X188451476Y-146050976D01*
X188451476Y-146050976D02*
X188546714Y-146050976D01*
X188546714Y-146050976D02*
X188594333Y-146074785D01*
X189046714Y-146050976D02*
X189046714Y-146455738D01*
X189046714Y-146455738D02*
X189022904Y-146503357D01*
X189022904Y-146503357D02*
X188999095Y-146527166D01*
X188999095Y-146527166D02*
X188951476Y-146550976D01*
X188951476Y-146550976D02*
X188880047Y-146550976D01*
X188880047Y-146550976D02*
X188832428Y-146527166D01*
X189046714Y-146360500D02*
X188999095Y-146384309D01*
X188999095Y-146384309D02*
X188903857Y-146384309D01*
X188903857Y-146384309D02*
X188856238Y-146360500D01*
X188856238Y-146360500D02*
X188832428Y-146336690D01*
X188832428Y-146336690D02*
X188808619Y-146289071D01*
X188808619Y-146289071D02*
X188808619Y-146146214D01*
X188808619Y-146146214D02*
X188832428Y-146098595D01*
X188832428Y-146098595D02*
X188856238Y-146074785D01*
X188856238Y-146074785D02*
X188903857Y-146050976D01*
X188903857Y-146050976D02*
X188999095Y-146050976D01*
X188999095Y-146050976D02*
X189046714Y-146074785D01*
X189475285Y-146360500D02*
X189427666Y-146384309D01*
X189427666Y-146384309D02*
X189332428Y-146384309D01*
X189332428Y-146384309D02*
X189284809Y-146360500D01*
X189284809Y-146360500D02*
X189261000Y-146312880D01*
X189261000Y-146312880D02*
X189261000Y-146122404D01*
X189261000Y-146122404D02*
X189284809Y-146074785D01*
X189284809Y-146074785D02*
X189332428Y-146050976D01*
X189332428Y-146050976D02*
X189427666Y-146050976D01*
X189427666Y-146050976D02*
X189475285Y-146074785D01*
X189475285Y-146074785D02*
X189499095Y-146122404D01*
X189499095Y-146122404D02*
X189499095Y-146170023D01*
X189499095Y-146170023D02*
X189261000Y-146217642D01*
X192761000Y-146733200D02*
X182761000Y-146733200D01*
D11*
X205310000Y-83188000D02*
X207940000Y-83188000D01*
X206540000Y-88688000D02*
X206540000Y-77688000D01*
X207940000Y-77688000D02*
X205960000Y-77688000D01*
X207940000Y-88688000D02*
X205890000Y-88688000D01*
X207940000Y-88688000D02*
X207940000Y-77688000D01*
D12*
X192235000Y-87240510D02*
X191679600Y-87240510D01*
X191679600Y-86688000D01*
X192235000Y-86688000D01*
X192235000Y-87240510D01*
G36*
X192235000Y-87240510D02*
G01*
X191679600Y-87240510D01*
X191679600Y-86688000D01*
X192235000Y-86688000D01*
X192235000Y-87240510D01*
G37*
X192235000Y-87243410D02*
X191673360Y-87243410D01*
X191673360Y-86688000D01*
X192235000Y-86688000D01*
X192235000Y-87243410D01*
G36*
X192235000Y-87243410D02*
G01*
X191673360Y-87243410D01*
X191673360Y-86688000D01*
X192235000Y-86688000D01*
X192235000Y-87243410D01*
G37*
X194035000Y-89256660D02*
X191880290Y-89256660D01*
X191880290Y-88703000D01*
X194035000Y-88703000D01*
X194035000Y-89256660D01*
G36*
X194035000Y-89256660D02*
G01*
X191880290Y-89256660D01*
X191880290Y-88703000D01*
X194035000Y-88703000D01*
X194035000Y-89256660D01*
G37*
X194035000Y-89263260D02*
X191871820Y-89263260D01*
X191871820Y-88703000D01*
X194035000Y-88703000D01*
X194035000Y-89263260D01*
G36*
X194035000Y-89263260D02*
G01*
X191871820Y-89263260D01*
X191871820Y-88703000D01*
X194035000Y-88703000D01*
X194035000Y-89263260D01*
G37*
X199735000Y-90854340D02*
X197333820Y-90854340D01*
X197333820Y-90148000D01*
X199735000Y-90148000D01*
X199735000Y-90854340D01*
G36*
X199735000Y-90854340D02*
G01*
X197333820Y-90854340D01*
X197333820Y-90148000D01*
X199735000Y-90148000D01*
X199735000Y-90854340D01*
G37*
X199735000Y-90859560D02*
X197332840Y-90859560D01*
X197332840Y-90148000D01*
X199735000Y-90148000D01*
X199735000Y-90859560D01*
G36*
X199735000Y-90859560D02*
G01*
X197332840Y-90859560D01*
X197332840Y-90148000D01*
X199735000Y-90148000D01*
X199735000Y-90859560D01*
G37*
D13*
X170288978Y-121225633D02*
X170289000Y-94244427D01*
X173340373Y-124277000D02*
G75*
G02*
X171926143Y-123691229I-73J1999900D01*
G01*
X164860000Y-68524000D02*
G75*
G02*
X166860000Y-70524000I0J-2000000D01*
G01*
X170289000Y-94244427D02*
G75*
G02*
X170874773Y-92830199I2000000J27D01*
G01*
X190863000Y-80046323D02*
G75*
G02*
X190277223Y-81460545I-2000100J23D01*
G01*
X174546427Y-89987000D02*
X184799000Y-89987000D01*
X197213000Y-113421427D02*
X197213000Y-116141816D01*
X205976000Y-70524000D02*
X205976000Y-144502000D01*
X174387677Y-84526000D02*
G75*
G02*
X172973455Y-83940223I23J2000100D01*
G01*
X167445787Y-78412537D02*
G75*
G02*
X166859984Y-76998323I1414213J1414237D01*
G01*
X187384787Y-102764787D02*
X196627214Y-112007214D01*
X146286000Y-70524000D02*
G75*
G02*
X148286000Y-68524000I2000000J0D01*
G01*
X187797537Y-83940213D02*
X190277214Y-81460536D01*
X192133000Y-121500001D02*
G75*
G02*
X195370953Y-118135383I3369900J-2699D01*
G01*
X146286000Y-144502000D02*
X146286000Y-70524000D01*
X148286000Y-68524000D02*
X164860000Y-68524000D01*
X148286000Y-146502000D02*
G75*
G02*
X146286000Y-144502000I0J2000000D01*
G01*
X196627214Y-112007214D02*
G75*
G02*
X197213022Y-113421427I-1414314J-1414286D01*
G01*
X197212290Y-116141816D02*
G75*
G02*
X195371779Y-118135421I-1999990J16D01*
G01*
X192133000Y-122277000D02*
G75*
G02*
X190133000Y-124277000I-2000000J0D01*
G01*
X187384787Y-102764787D02*
G75*
G02*
X186798978Y-101350573I1414313J1414287D01*
G01*
X167445787Y-78412537D02*
X172973464Y-83940214D01*
X205976000Y-144502000D02*
G75*
G02*
X203976000Y-146502000I-2000000J0D01*
G01*
X170874786Y-122639846D02*
G75*
G02*
X170288977Y-121225633I1414214J1414246D01*
G01*
X184799000Y-89987000D02*
G75*
G02*
X186799000Y-91987000I0J-2000000D01*
G01*
X166860000Y-70524000D02*
X166860000Y-76998323D01*
X190863000Y-70524000D02*
G75*
G02*
X192863000Y-68524000I2000000J0D01*
G01*
X190133000Y-124277000D02*
X173340373Y-124277000D01*
X203976000Y-68524000D02*
G75*
G02*
X205976000Y-70524000I0J-2000000D01*
G01*
X203976000Y-146502000D02*
X148286000Y-146502000D01*
X190863000Y-80046323D02*
X190863000Y-70524000D01*
X174387677Y-84526000D02*
X186383323Y-84526000D01*
X186799000Y-91987000D02*
X186799000Y-101350573D01*
X171925713Y-123691213D02*
X170874786Y-122640286D01*
X192133000Y-121500001D02*
X192133000Y-122277000D01*
X170874787Y-92830213D02*
X173132214Y-90572786D01*
X192863000Y-68524000D02*
X203976000Y-68524000D01*
X187797537Y-83940213D02*
G75*
G02*
X186383323Y-84526016I-1414237J1414213D01*
G01*
X173132214Y-90572786D02*
G75*
G02*
X174546427Y-89987019I1414186J-1414214D01*
G01*
M02*
