G04 #@! TF.GenerationSoftware,KiCad,Pcbnew,9.0.7*
G04 #@! TF.CreationDate,2026-02-01T23:57:30+01:00*
G04 #@! TF.ProjectId,CM5IO_top,434d3549-4f5f-4746-9f70-2e6b69636164,rev?*
G04 #@! TF.SameCoordinates,Original*
G04 #@! TF.FileFunction,OtherDrawing,Comment*
%FSLAX46Y46*%
G04 Gerber Fmt 4.6, Leading zero omitted, Abs format (unit mm)*
G04 Created by KiCad (PCBNEW 9.0.7) date 2026-02-01 23:57:30*
%MOMM*%
%LPD*%
G01*
G04 APERTURE LIST*
%ADD10C,0.100000*%
G04 #@! TA.AperFunction,Profile*
%ADD11C,0.050000*%
G04 #@! TD*
G04 APERTURE END LIST*
D10*
X170163290Y-108795914D02*
X170663290Y-108795914D01*
X170663290Y-108795914D02*
X170663290Y-108986390D01*
X170663290Y-108986390D02*
X170639480Y-109034009D01*
X170639480Y-109034009D02*
X170615671Y-109057819D01*
X170615671Y-109057819D02*
X170568052Y-109081628D01*
X170568052Y-109081628D02*
X170496623Y-109081628D01*
X170496623Y-109081628D02*
X170449004Y-109057819D01*
X170449004Y-109057819D02*
X170425195Y-109034009D01*
X170425195Y-109034009D02*
X170401385Y-108986390D01*
X170401385Y-108986390D02*
X170401385Y-108795914D01*
X170210909Y-109581628D02*
X170187100Y-109557819D01*
X170187100Y-109557819D02*
X170163290Y-109486390D01*
X170163290Y-109486390D02*
X170163290Y-109438771D01*
X170163290Y-109438771D02*
X170187100Y-109367343D01*
X170187100Y-109367343D02*
X170234719Y-109319724D01*
X170234719Y-109319724D02*
X170282338Y-109295914D01*
X170282338Y-109295914D02*
X170377576Y-109272105D01*
X170377576Y-109272105D02*
X170449004Y-109272105D01*
X170449004Y-109272105D02*
X170544242Y-109295914D01*
X170544242Y-109295914D02*
X170591861Y-109319724D01*
X170591861Y-109319724D02*
X170639480Y-109367343D01*
X170639480Y-109367343D02*
X170663290Y-109438771D01*
X170663290Y-109438771D02*
X170663290Y-109486390D01*
X170663290Y-109486390D02*
X170639480Y-109557819D01*
X170639480Y-109557819D02*
X170615671Y-109581628D01*
X170425195Y-109962581D02*
X170401385Y-110034009D01*
X170401385Y-110034009D02*
X170377576Y-110057819D01*
X170377576Y-110057819D02*
X170329957Y-110081628D01*
X170329957Y-110081628D02*
X170258528Y-110081628D01*
X170258528Y-110081628D02*
X170210909Y-110057819D01*
X170210909Y-110057819D02*
X170187100Y-110034009D01*
X170187100Y-110034009D02*
X170163290Y-109986390D01*
X170163290Y-109986390D02*
X170163290Y-109795914D01*
X170163290Y-109795914D02*
X170663290Y-109795914D01*
X170663290Y-109795914D02*
X170663290Y-109962581D01*
X170663290Y-109962581D02*
X170639480Y-110010200D01*
X170639480Y-110010200D02*
X170615671Y-110034009D01*
X170615671Y-110034009D02*
X170568052Y-110057819D01*
X170568052Y-110057819D02*
X170520433Y-110057819D01*
X170520433Y-110057819D02*
X170472814Y-110034009D01*
X170472814Y-110034009D02*
X170449004Y-110010200D01*
X170449004Y-110010200D02*
X170425195Y-109962581D01*
X170425195Y-109962581D02*
X170425195Y-109795914D01*
X170425195Y-110676866D02*
X170425195Y-110843533D01*
X170163290Y-110914961D02*
X170163290Y-110676866D01*
X170163290Y-110676866D02*
X170663290Y-110676866D01*
X170663290Y-110676866D02*
X170663290Y-110914961D01*
X170163290Y-111343533D02*
X170663290Y-111343533D01*
X170187100Y-111343533D02*
X170163290Y-111295914D01*
X170163290Y-111295914D02*
X170163290Y-111200676D01*
X170163290Y-111200676D02*
X170187100Y-111153057D01*
X170187100Y-111153057D02*
X170210909Y-111129247D01*
X170210909Y-111129247D02*
X170258528Y-111105438D01*
X170258528Y-111105438D02*
X170401385Y-111105438D01*
X170401385Y-111105438D02*
X170449004Y-111129247D01*
X170449004Y-111129247D02*
X170472814Y-111153057D01*
X170472814Y-111153057D02*
X170496623Y-111200676D01*
X170496623Y-111200676D02*
X170496623Y-111295914D01*
X170496623Y-111295914D02*
X170472814Y-111343533D01*
X170496623Y-111795914D02*
X170091861Y-111795914D01*
X170091861Y-111795914D02*
X170044242Y-111772104D01*
X170044242Y-111772104D02*
X170020433Y-111748295D01*
X170020433Y-111748295D02*
X169996623Y-111700676D01*
X169996623Y-111700676D02*
X169996623Y-111629247D01*
X169996623Y-111629247D02*
X170020433Y-111581628D01*
X170187100Y-111795914D02*
X170163290Y-111748295D01*
X170163290Y-111748295D02*
X170163290Y-111653057D01*
X170163290Y-111653057D02*
X170187100Y-111605438D01*
X170187100Y-111605438D02*
X170210909Y-111581628D01*
X170210909Y-111581628D02*
X170258528Y-111557819D01*
X170258528Y-111557819D02*
X170401385Y-111557819D01*
X170401385Y-111557819D02*
X170449004Y-111581628D01*
X170449004Y-111581628D02*
X170472814Y-111605438D01*
X170472814Y-111605438D02*
X170496623Y-111653057D01*
X170496623Y-111653057D02*
X170496623Y-111748295D01*
X170496623Y-111748295D02*
X170472814Y-111795914D01*
X170187100Y-112224485D02*
X170163290Y-112176866D01*
X170163290Y-112176866D02*
X170163290Y-112081628D01*
X170163290Y-112081628D02*
X170187100Y-112034009D01*
X170187100Y-112034009D02*
X170234719Y-112010200D01*
X170234719Y-112010200D02*
X170425195Y-112010200D01*
X170425195Y-112010200D02*
X170472814Y-112034009D01*
X170472814Y-112034009D02*
X170496623Y-112081628D01*
X170496623Y-112081628D02*
X170496623Y-112176866D01*
X170496623Y-112176866D02*
X170472814Y-112224485D01*
X170472814Y-112224485D02*
X170425195Y-112248295D01*
X170425195Y-112248295D02*
X170377576Y-112248295D01*
X170377576Y-112248295D02*
X170329957Y-112010200D01*
X169814400Y-115510200D02*
X169814400Y-105510200D01*
D11*
X205975958Y-144508558D02*
G75*
G02*
X203975958Y-146508658I-2000058J-42D01*
G01*
X198381400Y-92190200D02*
G75*
G02*
X200381400Y-90190200I2000000J0D01*
G01*
X205974864Y-92190158D02*
X205975958Y-144508558D01*
X169679400Y-101290400D02*
G75*
G02*
X171679400Y-99290400I2000000J0D01*
G01*
X155633209Y-144508599D02*
X155633210Y-139588499D01*
X169679400Y-135588500D02*
X169679400Y-101290400D01*
X171679400Y-99290400D02*
X196381400Y-99290400D01*
X157633210Y-137588500D02*
X167679400Y-137588500D01*
X200381400Y-90190200D02*
X203974864Y-90190200D01*
X155633210Y-139588499D02*
G75*
G02*
X157633210Y-137588510I1999990J-1D01*
G01*
X198381400Y-97290400D02*
G75*
G02*
X196381400Y-99290400I-2000000J0D01*
G01*
X169679400Y-135588500D02*
G75*
G02*
X167679400Y-137588500I-2000000J0D01*
G01*
X157633209Y-146508600D02*
G75*
G02*
X155633200Y-144508599I-9J2000000D01*
G01*
X198381400Y-97290400D02*
X198381400Y-92190200D01*
X203975958Y-146508600D02*
X157633209Y-146508600D01*
X203974864Y-90190200D02*
G75*
G02*
X205974900Y-92190158I36J-2000000D01*
G01*
M02*
