G04 #@! TF.GenerationSoftware,KiCad,Pcbnew,9.0.7*
G04 #@! TF.CreationDate,2026-02-01T23:57:30+01:00*
G04 #@! TF.ProjectId,CM5IO_top,434d3549-4f5f-4746-9f70-2e6b69636164,rev?*
G04 #@! TF.SameCoordinates,Original*
G04 #@! TF.FileFunction,AssemblyDrawing,Bot*
%FSLAX46Y46*%
G04 Gerber Fmt 4.6, Leading zero omitted, Abs format (unit mm)*
G04 Created by KiCad (PCBNEW 9.0.7) date 2026-02-01 23:57:30*
%MOMM*%
%LPD*%
G01*
G04 APERTURE LIST*
%ADD10C,0.100000*%
%ADD11C,0.150000*%
%ADD12C,0.080000*%
%ADD13C,0.050000*%
%ADD14C,0.120000*%
G04 #@! TA.AperFunction,Profile*
%ADD15C,0.050000*%
G04 #@! TD*
G04 APERTURE END LIST*
D10*
X181871400Y-127401200D02*
X181871400Y-138450200D01*
X174505400Y-145816200D01*
X161297400Y-145816200D01*
X161297400Y-138958200D01*
X157741400Y-138958200D01*
X157741400Y-132608200D01*
X162821400Y-132608200D01*
X162821400Y-126004200D01*
X180474400Y-126004200D01*
X181871400Y-127401200D01*
X171203400Y-127528200D02*
X179340500Y-127528200D01*
X179340500Y-135656200D01*
X171203400Y-135656200D01*
X171203400Y-127528200D01*
D11*
X171289523Y-73669580D02*
X171241904Y-73717200D01*
X171241904Y-73717200D02*
X171099047Y-73764819D01*
X171099047Y-73764819D02*
X171003809Y-73764819D01*
X171003809Y-73764819D02*
X170860952Y-73717200D01*
X170860952Y-73717200D02*
X170765714Y-73621961D01*
X170765714Y-73621961D02*
X170718095Y-73526723D01*
X170718095Y-73526723D02*
X170670476Y-73336247D01*
X170670476Y-73336247D02*
X170670476Y-73193390D01*
X170670476Y-73193390D02*
X170718095Y-73002914D01*
X170718095Y-73002914D02*
X170765714Y-72907676D01*
X170765714Y-72907676D02*
X170860952Y-72812438D01*
X170860952Y-72812438D02*
X171003809Y-72764819D01*
X171003809Y-72764819D02*
X171099047Y-72764819D01*
X171099047Y-72764819D02*
X171241904Y-72812438D01*
X171241904Y-72812438D02*
X171289523Y-72860057D01*
X171860952Y-73764819D02*
X171765714Y-73717200D01*
X171765714Y-73717200D02*
X171718095Y-73669580D01*
X171718095Y-73669580D02*
X171670476Y-73574342D01*
X171670476Y-73574342D02*
X171670476Y-73288628D01*
X171670476Y-73288628D02*
X171718095Y-73193390D01*
X171718095Y-73193390D02*
X171765714Y-73145771D01*
X171765714Y-73145771D02*
X171860952Y-73098152D01*
X171860952Y-73098152D02*
X172003809Y-73098152D01*
X172003809Y-73098152D02*
X172099047Y-73145771D01*
X172099047Y-73145771D02*
X172146666Y-73193390D01*
X172146666Y-73193390D02*
X172194285Y-73288628D01*
X172194285Y-73288628D02*
X172194285Y-73574342D01*
X172194285Y-73574342D02*
X172146666Y-73669580D01*
X172146666Y-73669580D02*
X172099047Y-73717200D01*
X172099047Y-73717200D02*
X172003809Y-73764819D01*
X172003809Y-73764819D02*
X171860952Y-73764819D01*
X172622857Y-73764819D02*
X172622857Y-73098152D01*
X172622857Y-73193390D02*
X172670476Y-73145771D01*
X172670476Y-73145771D02*
X172765714Y-73098152D01*
X172765714Y-73098152D02*
X172908571Y-73098152D01*
X172908571Y-73098152D02*
X173003809Y-73145771D01*
X173003809Y-73145771D02*
X173051428Y-73241009D01*
X173051428Y-73241009D02*
X173051428Y-73764819D01*
X173051428Y-73241009D02*
X173099047Y-73145771D01*
X173099047Y-73145771D02*
X173194285Y-73098152D01*
X173194285Y-73098152D02*
X173337142Y-73098152D01*
X173337142Y-73098152D02*
X173432381Y-73145771D01*
X173432381Y-73145771D02*
X173480000Y-73241009D01*
X173480000Y-73241009D02*
X173480000Y-73764819D01*
X173956190Y-73098152D02*
X173956190Y-74098152D01*
X173956190Y-73145771D02*
X174051428Y-73098152D01*
X174051428Y-73098152D02*
X174241904Y-73098152D01*
X174241904Y-73098152D02*
X174337142Y-73145771D01*
X174337142Y-73145771D02*
X174384761Y-73193390D01*
X174384761Y-73193390D02*
X174432380Y-73288628D01*
X174432380Y-73288628D02*
X174432380Y-73574342D01*
X174432380Y-73574342D02*
X174384761Y-73669580D01*
X174384761Y-73669580D02*
X174337142Y-73717200D01*
X174337142Y-73717200D02*
X174241904Y-73764819D01*
X174241904Y-73764819D02*
X174051428Y-73764819D01*
X174051428Y-73764819D02*
X173956190Y-73717200D01*
X175289523Y-73098152D02*
X175289523Y-73764819D01*
X174860952Y-73098152D02*
X174860952Y-73621961D01*
X174860952Y-73621961D02*
X174908571Y-73717200D01*
X174908571Y-73717200D02*
X175003809Y-73764819D01*
X175003809Y-73764819D02*
X175146666Y-73764819D01*
X175146666Y-73764819D02*
X175241904Y-73717200D01*
X175241904Y-73717200D02*
X175289523Y-73669580D01*
X175622857Y-73098152D02*
X176003809Y-73098152D01*
X175765714Y-72764819D02*
X175765714Y-73621961D01*
X175765714Y-73621961D02*
X175813333Y-73717200D01*
X175813333Y-73717200D02*
X175908571Y-73764819D01*
X175908571Y-73764819D02*
X176003809Y-73764819D01*
X176718095Y-73717200D02*
X176622857Y-73764819D01*
X176622857Y-73764819D02*
X176432381Y-73764819D01*
X176432381Y-73764819D02*
X176337143Y-73717200D01*
X176337143Y-73717200D02*
X176289524Y-73621961D01*
X176289524Y-73621961D02*
X176289524Y-73241009D01*
X176289524Y-73241009D02*
X176337143Y-73145771D01*
X176337143Y-73145771D02*
X176432381Y-73098152D01*
X176432381Y-73098152D02*
X176622857Y-73098152D01*
X176622857Y-73098152D02*
X176718095Y-73145771D01*
X176718095Y-73145771D02*
X176765714Y-73241009D01*
X176765714Y-73241009D02*
X176765714Y-73336247D01*
X176765714Y-73336247D02*
X176289524Y-73431485D01*
X177194286Y-73764819D02*
X177194286Y-72764819D01*
X177194286Y-72764819D02*
X177527619Y-73479104D01*
X177527619Y-73479104D02*
X177860952Y-72764819D01*
X177860952Y-72764819D02*
X177860952Y-73764819D01*
X178480000Y-73764819D02*
X178384762Y-73717200D01*
X178384762Y-73717200D02*
X178337143Y-73669580D01*
X178337143Y-73669580D02*
X178289524Y-73574342D01*
X178289524Y-73574342D02*
X178289524Y-73288628D01*
X178289524Y-73288628D02*
X178337143Y-73193390D01*
X178337143Y-73193390D02*
X178384762Y-73145771D01*
X178384762Y-73145771D02*
X178480000Y-73098152D01*
X178480000Y-73098152D02*
X178622857Y-73098152D01*
X178622857Y-73098152D02*
X178718095Y-73145771D01*
X178718095Y-73145771D02*
X178765714Y-73193390D01*
X178765714Y-73193390D02*
X178813333Y-73288628D01*
X178813333Y-73288628D02*
X178813333Y-73574342D01*
X178813333Y-73574342D02*
X178765714Y-73669580D01*
X178765714Y-73669580D02*
X178718095Y-73717200D01*
X178718095Y-73717200D02*
X178622857Y-73764819D01*
X178622857Y-73764819D02*
X178480000Y-73764819D01*
X179670476Y-73764819D02*
X179670476Y-72764819D01*
X179670476Y-73717200D02*
X179575238Y-73764819D01*
X179575238Y-73764819D02*
X179384762Y-73764819D01*
X179384762Y-73764819D02*
X179289524Y-73717200D01*
X179289524Y-73717200D02*
X179241905Y-73669580D01*
X179241905Y-73669580D02*
X179194286Y-73574342D01*
X179194286Y-73574342D02*
X179194286Y-73288628D01*
X179194286Y-73288628D02*
X179241905Y-73193390D01*
X179241905Y-73193390D02*
X179289524Y-73145771D01*
X179289524Y-73145771D02*
X179384762Y-73098152D01*
X179384762Y-73098152D02*
X179575238Y-73098152D01*
X179575238Y-73098152D02*
X179670476Y-73145771D01*
X180575238Y-73098152D02*
X180575238Y-73764819D01*
X180146667Y-73098152D02*
X180146667Y-73621961D01*
X180146667Y-73621961D02*
X180194286Y-73717200D01*
X180194286Y-73717200D02*
X180289524Y-73764819D01*
X180289524Y-73764819D02*
X180432381Y-73764819D01*
X180432381Y-73764819D02*
X180527619Y-73717200D01*
X180527619Y-73717200D02*
X180575238Y-73669580D01*
X181194286Y-73764819D02*
X181099048Y-73717200D01*
X181099048Y-73717200D02*
X181051429Y-73621961D01*
X181051429Y-73621961D02*
X181051429Y-72764819D01*
X181956191Y-73717200D02*
X181860953Y-73764819D01*
X181860953Y-73764819D02*
X181670477Y-73764819D01*
X181670477Y-73764819D02*
X181575239Y-73717200D01*
X181575239Y-73717200D02*
X181527620Y-73621961D01*
X181527620Y-73621961D02*
X181527620Y-73241009D01*
X181527620Y-73241009D02*
X181575239Y-73145771D01*
X181575239Y-73145771D02*
X181670477Y-73098152D01*
X181670477Y-73098152D02*
X181860953Y-73098152D01*
X181860953Y-73098152D02*
X181956191Y-73145771D01*
X181956191Y-73145771D02*
X182003810Y-73241009D01*
X182003810Y-73241009D02*
X182003810Y-73336247D01*
X182003810Y-73336247D02*
X181527620Y-73431485D01*
X182908572Y-72764819D02*
X182432382Y-72764819D01*
X182432382Y-72764819D02*
X182384763Y-73241009D01*
X182384763Y-73241009D02*
X182432382Y-73193390D01*
X182432382Y-73193390D02*
X182527620Y-73145771D01*
X182527620Y-73145771D02*
X182765715Y-73145771D01*
X182765715Y-73145771D02*
X182860953Y-73193390D01*
X182860953Y-73193390D02*
X182908572Y-73241009D01*
X182908572Y-73241009D02*
X182956191Y-73336247D01*
X182956191Y-73336247D02*
X182956191Y-73574342D01*
X182956191Y-73574342D02*
X182908572Y-73669580D01*
X182908572Y-73669580D02*
X182860953Y-73717200D01*
X182860953Y-73717200D02*
X182765715Y-73764819D01*
X182765715Y-73764819D02*
X182527620Y-73764819D01*
X182527620Y-73764819D02*
X182432382Y-73717200D01*
X182432382Y-73717200D02*
X182384763Y-73669580D01*
X183384763Y-73383866D02*
X184146668Y-73383866D01*
X185194286Y-73669580D02*
X185146667Y-73717200D01*
X185146667Y-73717200D02*
X185003810Y-73764819D01*
X185003810Y-73764819D02*
X184908572Y-73764819D01*
X184908572Y-73764819D02*
X184765715Y-73717200D01*
X184765715Y-73717200D02*
X184670477Y-73621961D01*
X184670477Y-73621961D02*
X184622858Y-73526723D01*
X184622858Y-73526723D02*
X184575239Y-73336247D01*
X184575239Y-73336247D02*
X184575239Y-73193390D01*
X184575239Y-73193390D02*
X184622858Y-73002914D01*
X184622858Y-73002914D02*
X184670477Y-72907676D01*
X184670477Y-72907676D02*
X184765715Y-72812438D01*
X184765715Y-72812438D02*
X184908572Y-72764819D01*
X184908572Y-72764819D02*
X185003810Y-72764819D01*
X185003810Y-72764819D02*
X185146667Y-72812438D01*
X185146667Y-72812438D02*
X185194286Y-72860057D01*
X185622858Y-73764819D02*
X185622858Y-72764819D01*
X185622858Y-72764819D02*
X185956191Y-73479104D01*
X185956191Y-73479104D02*
X186289524Y-72764819D01*
X186289524Y-72764819D02*
X186289524Y-73764819D01*
X187241905Y-72764819D02*
X186765715Y-72764819D01*
X186765715Y-72764819D02*
X186718096Y-73241009D01*
X186718096Y-73241009D02*
X186765715Y-73193390D01*
X186765715Y-73193390D02*
X186860953Y-73145771D01*
X186860953Y-73145771D02*
X187099048Y-73145771D01*
X187099048Y-73145771D02*
X187194286Y-73193390D01*
X187194286Y-73193390D02*
X187241905Y-73241009D01*
X187241905Y-73241009D02*
X187289524Y-73336247D01*
X187289524Y-73336247D02*
X187289524Y-73574342D01*
X187289524Y-73574342D02*
X187241905Y-73669580D01*
X187241905Y-73669580D02*
X187194286Y-73717200D01*
X187194286Y-73717200D02*
X187099048Y-73764819D01*
X187099048Y-73764819D02*
X186860953Y-73764819D01*
X186860953Y-73764819D02*
X186765715Y-73717200D01*
X186765715Y-73717200D02*
X186718096Y-73669580D01*
X169371219Y-140214214D02*
X169371219Y-139642786D01*
X169371219Y-139928500D02*
X168371219Y-139928500D01*
X168371219Y-139928500D02*
X168514076Y-139833262D01*
X168514076Y-139833262D02*
X168609314Y-139738024D01*
X168609314Y-139738024D02*
X168656933Y-139642786D01*
X169371219Y-140642786D02*
X168371219Y-140642786D01*
X169371219Y-141214214D02*
X168799790Y-140785643D01*
X168371219Y-141214214D02*
X168942647Y-140642786D01*
D12*
X167493549Y-140107071D02*
X167255454Y-139940405D01*
X167493549Y-139821357D02*
X166993549Y-139821357D01*
X166993549Y-139821357D02*
X166993549Y-140011833D01*
X166993549Y-140011833D02*
X167017359Y-140059452D01*
X167017359Y-140059452D02*
X167041168Y-140083262D01*
X167041168Y-140083262D02*
X167088787Y-140107071D01*
X167088787Y-140107071D02*
X167160216Y-140107071D01*
X167160216Y-140107071D02*
X167207835Y-140083262D01*
X167207835Y-140083262D02*
X167231644Y-140059452D01*
X167231644Y-140059452D02*
X167255454Y-140011833D01*
X167255454Y-140011833D02*
X167255454Y-139821357D01*
X167493549Y-140583262D02*
X167493549Y-140297548D01*
X167493549Y-140440405D02*
X166993549Y-140440405D01*
X166993549Y-140440405D02*
X167064978Y-140392786D01*
X167064978Y-140392786D02*
X167112597Y-140345167D01*
X167112597Y-140345167D02*
X167136406Y-140297548D01*
X166993549Y-140749928D02*
X166993549Y-141059452D01*
X166993549Y-141059452D02*
X167184025Y-140892785D01*
X167184025Y-140892785D02*
X167184025Y-140964214D01*
X167184025Y-140964214D02*
X167207835Y-141011833D01*
X167207835Y-141011833D02*
X167231644Y-141035642D01*
X167231644Y-141035642D02*
X167279263Y-141059452D01*
X167279263Y-141059452D02*
X167398311Y-141059452D01*
X167398311Y-141059452D02*
X167445930Y-141035642D01*
X167445930Y-141035642D02*
X167469740Y-141011833D01*
X167469740Y-141011833D02*
X167493549Y-140964214D01*
X167493549Y-140964214D02*
X167493549Y-140821357D01*
X167493549Y-140821357D02*
X167469740Y-140773738D01*
X167469740Y-140773738D02*
X167445930Y-140749928D01*
D11*
X192058485Y-145346219D02*
X192629913Y-145346219D01*
X192344199Y-145346219D02*
X192344199Y-144346219D01*
X192344199Y-144346219D02*
X192439437Y-144489076D01*
X192439437Y-144489076D02*
X192534675Y-144584314D01*
X192534675Y-144584314D02*
X192629913Y-144631933D01*
X191629913Y-145346219D02*
X191629913Y-144346219D01*
X191058485Y-145346219D02*
X191487056Y-144774790D01*
X191058485Y-144346219D02*
X191629913Y-144917647D01*
D12*
X192165628Y-143468549D02*
X192332294Y-143230454D01*
X192451342Y-143468549D02*
X192451342Y-142968549D01*
X192451342Y-142968549D02*
X192260866Y-142968549D01*
X192260866Y-142968549D02*
X192213247Y-142992359D01*
X192213247Y-142992359D02*
X192189437Y-143016168D01*
X192189437Y-143016168D02*
X192165628Y-143063787D01*
X192165628Y-143063787D02*
X192165628Y-143135216D01*
X192165628Y-143135216D02*
X192189437Y-143182835D01*
X192189437Y-143182835D02*
X192213247Y-143206644D01*
X192213247Y-143206644D02*
X192260866Y-143230454D01*
X192260866Y-143230454D02*
X192451342Y-143230454D01*
X191689437Y-143468549D02*
X191975151Y-143468549D01*
X191832294Y-143468549D02*
X191832294Y-142968549D01*
X191832294Y-142968549D02*
X191879913Y-143039978D01*
X191879913Y-143039978D02*
X191927532Y-143087597D01*
X191927532Y-143087597D02*
X191975151Y-143111406D01*
X191379914Y-142968549D02*
X191332295Y-142968549D01*
X191332295Y-142968549D02*
X191284676Y-142992359D01*
X191284676Y-142992359D02*
X191260866Y-143016168D01*
X191260866Y-143016168D02*
X191237057Y-143063787D01*
X191237057Y-143063787D02*
X191213247Y-143159025D01*
X191213247Y-143159025D02*
X191213247Y-143278073D01*
X191213247Y-143278073D02*
X191237057Y-143373311D01*
X191237057Y-143373311D02*
X191260866Y-143420930D01*
X191260866Y-143420930D02*
X191284676Y-143444740D01*
X191284676Y-143444740D02*
X191332295Y-143468549D01*
X191332295Y-143468549D02*
X191379914Y-143468549D01*
X191379914Y-143468549D02*
X191427533Y-143444740D01*
X191427533Y-143444740D02*
X191451342Y-143420930D01*
X191451342Y-143420930D02*
X191475152Y-143373311D01*
X191475152Y-143373311D02*
X191498961Y-143278073D01*
X191498961Y-143278073D02*
X191498961Y-143159025D01*
X191498961Y-143159025D02*
X191475152Y-143063787D01*
X191475152Y-143063787D02*
X191451342Y-143016168D01*
X191451342Y-143016168D02*
X191427533Y-142992359D01*
X191427533Y-142992359D02*
X191379914Y-142968549D01*
D11*
X192996504Y-117904638D02*
X193091742Y-117857019D01*
X193091742Y-117857019D02*
X193234599Y-117857019D01*
X193234599Y-117857019D02*
X193377456Y-117904638D01*
X193377456Y-117904638D02*
X193472694Y-117999876D01*
X193472694Y-117999876D02*
X193520313Y-118095114D01*
X193520313Y-118095114D02*
X193567932Y-118285590D01*
X193567932Y-118285590D02*
X193567932Y-118428447D01*
X193567932Y-118428447D02*
X193520313Y-118618923D01*
X193520313Y-118618923D02*
X193472694Y-118714161D01*
X193472694Y-118714161D02*
X193377456Y-118809400D01*
X193377456Y-118809400D02*
X193234599Y-118857019D01*
X193234599Y-118857019D02*
X193139361Y-118857019D01*
X193139361Y-118857019D02*
X192996504Y-118809400D01*
X192996504Y-118809400D02*
X192948885Y-118761780D01*
X192948885Y-118761780D02*
X192948885Y-118428447D01*
X192948885Y-118428447D02*
X193139361Y-118428447D01*
X192520313Y-118857019D02*
X192520313Y-117857019D01*
X192520313Y-117857019D02*
X191948885Y-118857019D01*
X191948885Y-118857019D02*
X191948885Y-117857019D01*
X191472694Y-118857019D02*
X191472694Y-117857019D01*
X191472694Y-117857019D02*
X191234599Y-117857019D01*
X191234599Y-117857019D02*
X191091742Y-117904638D01*
X191091742Y-117904638D02*
X190996504Y-117999876D01*
X190996504Y-117999876D02*
X190948885Y-118095114D01*
X190948885Y-118095114D02*
X190901266Y-118285590D01*
X190901266Y-118285590D02*
X190901266Y-118428447D01*
X190901266Y-118428447D02*
X190948885Y-118618923D01*
X190948885Y-118618923D02*
X190996504Y-118714161D01*
X190996504Y-118714161D02*
X191091742Y-118809400D01*
X191091742Y-118809400D02*
X191234599Y-118857019D01*
X191234599Y-118857019D02*
X191472694Y-118857019D01*
X193496504Y-113807019D02*
X192925076Y-113807019D01*
X193210790Y-114807019D02*
X193210790Y-113807019D01*
X192591742Y-114807019D02*
X192591742Y-113807019D01*
X192591742Y-113807019D02*
X192210790Y-113807019D01*
X192210790Y-113807019D02*
X192115552Y-113854638D01*
X192115552Y-113854638D02*
X192067933Y-113902257D01*
X192067933Y-113902257D02*
X192020314Y-113997495D01*
X192020314Y-113997495D02*
X192020314Y-114140352D01*
X192020314Y-114140352D02*
X192067933Y-114235590D01*
X192067933Y-114235590D02*
X192115552Y-114283209D01*
X192115552Y-114283209D02*
X192210790Y-114330828D01*
X192210790Y-114330828D02*
X192591742Y-114330828D01*
X191686980Y-113807019D02*
X191067933Y-113807019D01*
X191067933Y-113807019D02*
X191401266Y-114187971D01*
X191401266Y-114187971D02*
X191258409Y-114187971D01*
X191258409Y-114187971D02*
X191163171Y-114235590D01*
X191163171Y-114235590D02*
X191115552Y-114283209D01*
X191115552Y-114283209D02*
X191067933Y-114378447D01*
X191067933Y-114378447D02*
X191067933Y-114616542D01*
X191067933Y-114616542D02*
X191115552Y-114711780D01*
X191115552Y-114711780D02*
X191163171Y-114759400D01*
X191163171Y-114759400D02*
X191258409Y-114807019D01*
X191258409Y-114807019D02*
X191544123Y-114807019D01*
X191544123Y-114807019D02*
X191639361Y-114759400D01*
X191639361Y-114759400D02*
X191686980Y-114711780D01*
X190842933Y-114307019D02*
X193715795Y-114307019D01*
X190995519Y-143550923D02*
X190995519Y-142979495D01*
X190995519Y-143265209D02*
X189995519Y-143265209D01*
X189995519Y-143265209D02*
X190138376Y-143169971D01*
X190138376Y-143169971D02*
X190233614Y-143074733D01*
X190233614Y-143074733D02*
X190281233Y-142979495D01*
X189995519Y-144169971D02*
X189995519Y-144265209D01*
X189995519Y-144265209D02*
X190043138Y-144360447D01*
X190043138Y-144360447D02*
X190090757Y-144408066D01*
X190090757Y-144408066D02*
X190185995Y-144455685D01*
X190185995Y-144455685D02*
X190376471Y-144503304D01*
X190376471Y-144503304D02*
X190614566Y-144503304D01*
X190614566Y-144503304D02*
X190805042Y-144455685D01*
X190805042Y-144455685D02*
X190900280Y-144408066D01*
X190900280Y-144408066D02*
X190947900Y-144360447D01*
X190947900Y-144360447D02*
X190995519Y-144265209D01*
X190995519Y-144265209D02*
X190995519Y-144169971D01*
X190995519Y-144169971D02*
X190947900Y-144074733D01*
X190947900Y-144074733D02*
X190900280Y-144027114D01*
X190900280Y-144027114D02*
X190805042Y-143979495D01*
X190805042Y-143979495D02*
X190614566Y-143931876D01*
X190614566Y-143931876D02*
X190376471Y-143931876D01*
X190376471Y-143931876D02*
X190185995Y-143979495D01*
X190185995Y-143979495D02*
X190090757Y-144027114D01*
X190090757Y-144027114D02*
X190043138Y-144074733D01*
X190043138Y-144074733D02*
X189995519Y-144169971D01*
X190995519Y-144931876D02*
X189995519Y-144931876D01*
X190995519Y-145503304D02*
X190424090Y-145074733D01*
X189995519Y-145503304D02*
X190566947Y-144931876D01*
D12*
X189117849Y-143919971D02*
X188879754Y-143753305D01*
X189117849Y-143634257D02*
X188617849Y-143634257D01*
X188617849Y-143634257D02*
X188617849Y-143824733D01*
X188617849Y-143824733D02*
X188641659Y-143872352D01*
X188641659Y-143872352D02*
X188665468Y-143896162D01*
X188665468Y-143896162D02*
X188713087Y-143919971D01*
X188713087Y-143919971D02*
X188784516Y-143919971D01*
X188784516Y-143919971D02*
X188832135Y-143896162D01*
X188832135Y-143896162D02*
X188855944Y-143872352D01*
X188855944Y-143872352D02*
X188879754Y-143824733D01*
X188879754Y-143824733D02*
X188879754Y-143634257D01*
X189117849Y-144396162D02*
X189117849Y-144110448D01*
X189117849Y-144253305D02*
X188617849Y-144253305D01*
X188617849Y-144253305D02*
X188689278Y-144205686D01*
X188689278Y-144205686D02*
X188736897Y-144158067D01*
X188736897Y-144158067D02*
X188760706Y-144110448D01*
X189117849Y-144872352D02*
X189117849Y-144586638D01*
X189117849Y-144729495D02*
X188617849Y-144729495D01*
X188617849Y-144729495D02*
X188689278Y-144681876D01*
X188689278Y-144681876D02*
X188736897Y-144634257D01*
X188736897Y-144634257D02*
X188760706Y-144586638D01*
D11*
X162589238Y-137498819D02*
X162589238Y-138213104D01*
X162589238Y-138213104D02*
X162636857Y-138355961D01*
X162636857Y-138355961D02*
X162732095Y-138451200D01*
X162732095Y-138451200D02*
X162874952Y-138498819D01*
X162874952Y-138498819D02*
X162970190Y-138498819D01*
X162351143Y-138594057D02*
X161589238Y-138594057D01*
X161351142Y-138498819D02*
X161351142Y-137498819D01*
X161351142Y-137498819D02*
X160970190Y-137498819D01*
X160970190Y-137498819D02*
X160874952Y-137546438D01*
X160874952Y-137546438D02*
X160827333Y-137594057D01*
X160827333Y-137594057D02*
X160779714Y-137689295D01*
X160779714Y-137689295D02*
X160779714Y-137832152D01*
X160779714Y-137832152D02*
X160827333Y-137927390D01*
X160827333Y-137927390D02*
X160874952Y-137975009D01*
X160874952Y-137975009D02*
X160970190Y-138022628D01*
X160970190Y-138022628D02*
X161351142Y-138022628D01*
X160398761Y-138451200D02*
X160255904Y-138498819D01*
X160255904Y-138498819D02*
X160017809Y-138498819D01*
X160017809Y-138498819D02*
X159922571Y-138451200D01*
X159922571Y-138451200D02*
X159874952Y-138403580D01*
X159874952Y-138403580D02*
X159827333Y-138308342D01*
X159827333Y-138308342D02*
X159827333Y-138213104D01*
X159827333Y-138213104D02*
X159874952Y-138117866D01*
X159874952Y-138117866D02*
X159922571Y-138070247D01*
X159922571Y-138070247D02*
X160017809Y-138022628D01*
X160017809Y-138022628D02*
X160208285Y-137975009D01*
X160208285Y-137975009D02*
X160303523Y-137927390D01*
X160303523Y-137927390D02*
X160351142Y-137879771D01*
X160351142Y-137879771D02*
X160398761Y-137784533D01*
X160398761Y-137784533D02*
X160398761Y-137689295D01*
X160398761Y-137689295D02*
X160351142Y-137594057D01*
X160351142Y-137594057D02*
X160303523Y-137546438D01*
X160303523Y-137546438D02*
X160208285Y-137498819D01*
X160208285Y-137498819D02*
X159970190Y-137498819D01*
X159970190Y-137498819D02*
X159827333Y-137546438D01*
X159398761Y-137498819D02*
X159398761Y-138308342D01*
X159398761Y-138308342D02*
X159351142Y-138403580D01*
X159351142Y-138403580D02*
X159303523Y-138451200D01*
X159303523Y-138451200D02*
X159208285Y-138498819D01*
X159208285Y-138498819D02*
X159017809Y-138498819D01*
X159017809Y-138498819D02*
X158922571Y-138451200D01*
X158922571Y-138451200D02*
X158874952Y-138403580D01*
X158874952Y-138403580D02*
X158827333Y-138308342D01*
X158827333Y-138308342D02*
X158827333Y-137498819D01*
X158589238Y-138594057D02*
X157827333Y-138594057D01*
X157589237Y-137975009D02*
X157255904Y-137975009D01*
X157113047Y-138498819D02*
X157589237Y-138498819D01*
X157589237Y-138498819D02*
X157589237Y-137498819D01*
X157589237Y-137498819D02*
X157113047Y-137498819D01*
X156684475Y-138498819D02*
X156684475Y-137498819D01*
X156684475Y-137498819D02*
X156113047Y-138498819D01*
X156113047Y-138498819D02*
X156113047Y-137498819D01*
X158948819Y-141850666D02*
X159663104Y-141850666D01*
X159663104Y-141850666D02*
X159805961Y-141803047D01*
X159805961Y-141803047D02*
X159901200Y-141707809D01*
X159901200Y-141707809D02*
X159948819Y-141564952D01*
X159948819Y-141564952D02*
X159948819Y-141469714D01*
X158948819Y-142231619D02*
X158948819Y-142850666D01*
X158948819Y-142850666D02*
X159329771Y-142517333D01*
X159329771Y-142517333D02*
X159329771Y-142660190D01*
X159329771Y-142660190D02*
X159377390Y-142755428D01*
X159377390Y-142755428D02*
X159425009Y-142803047D01*
X159425009Y-142803047D02*
X159520247Y-142850666D01*
X159520247Y-142850666D02*
X159758342Y-142850666D01*
X159758342Y-142850666D02*
X159853580Y-142803047D01*
X159853580Y-142803047D02*
X159901200Y-142755428D01*
X159901200Y-142755428D02*
X159948819Y-142660190D01*
X159948819Y-142660190D02*
X159948819Y-142374476D01*
X159948819Y-142374476D02*
X159901200Y-142279238D01*
X159901200Y-142279238D02*
X159853580Y-142231619D01*
X206419999Y-143646819D02*
X205848571Y-143646819D01*
X206134285Y-144646819D02*
X206134285Y-143646819D01*
X205515237Y-144646819D02*
X205515237Y-143646819D01*
X205515237Y-144123009D02*
X204943809Y-144123009D01*
X204943809Y-144646819D02*
X204943809Y-143646819D01*
X204467618Y-144646819D02*
X204467618Y-143646819D01*
X204467618Y-143646819D02*
X204229523Y-143646819D01*
X204229523Y-143646819D02*
X204086666Y-143694438D01*
X204086666Y-143694438D02*
X203991428Y-143789676D01*
X203991428Y-143789676D02*
X203943809Y-143884914D01*
X203943809Y-143884914D02*
X203896190Y-144075390D01*
X203896190Y-144075390D02*
X203896190Y-144218247D01*
X203896190Y-144218247D02*
X203943809Y-144408723D01*
X203943809Y-144408723D02*
X203991428Y-144503961D01*
X203991428Y-144503961D02*
X204086666Y-144599200D01*
X204086666Y-144599200D02*
X204229523Y-144646819D01*
X204229523Y-144646819D02*
X204467618Y-144646819D01*
X203467618Y-144265866D02*
X202705714Y-144265866D01*
X202277142Y-143742057D02*
X202229523Y-143694438D01*
X202229523Y-143694438D02*
X202134285Y-143646819D01*
X202134285Y-143646819D02*
X201896190Y-143646819D01*
X201896190Y-143646819D02*
X201800952Y-143694438D01*
X201800952Y-143694438D02*
X201753333Y-143742057D01*
X201753333Y-143742057D02*
X201705714Y-143837295D01*
X201705714Y-143837295D02*
X201705714Y-143932533D01*
X201705714Y-143932533D02*
X201753333Y-144075390D01*
X201753333Y-144075390D02*
X202324761Y-144646819D01*
X202324761Y-144646819D02*
X201705714Y-144646819D01*
X201086666Y-143646819D02*
X200991428Y-143646819D01*
X200991428Y-143646819D02*
X200896190Y-143694438D01*
X200896190Y-143694438D02*
X200848571Y-143742057D01*
X200848571Y-143742057D02*
X200800952Y-143837295D01*
X200800952Y-143837295D02*
X200753333Y-144027771D01*
X200753333Y-144027771D02*
X200753333Y-144265866D01*
X200753333Y-144265866D02*
X200800952Y-144456342D01*
X200800952Y-144456342D02*
X200848571Y-144551580D01*
X200848571Y-144551580D02*
X200896190Y-144599200D01*
X200896190Y-144599200D02*
X200991428Y-144646819D01*
X200991428Y-144646819D02*
X201086666Y-144646819D01*
X201086666Y-144646819D02*
X201181904Y-144599200D01*
X201181904Y-144599200D02*
X201229523Y-144551580D01*
X201229523Y-144551580D02*
X201277142Y-144456342D01*
X201277142Y-144456342D02*
X201324761Y-144265866D01*
X201324761Y-144265866D02*
X201324761Y-144027771D01*
X201324761Y-144027771D02*
X201277142Y-143837295D01*
X201277142Y-143837295D02*
X201229523Y-143742057D01*
X201229523Y-143742057D02*
X201181904Y-143694438D01*
X201181904Y-143694438D02*
X201086666Y-143646819D01*
X200324761Y-144265866D02*
X199562857Y-144265866D01*
X198515238Y-144646819D02*
X198848571Y-144170628D01*
X199086666Y-144646819D02*
X199086666Y-143646819D01*
X199086666Y-143646819D02*
X198705714Y-143646819D01*
X198705714Y-143646819D02*
X198610476Y-143694438D01*
X198610476Y-143694438D02*
X198562857Y-143742057D01*
X198562857Y-143742057D02*
X198515238Y-143837295D01*
X198515238Y-143837295D02*
X198515238Y-143980152D01*
X198515238Y-143980152D02*
X198562857Y-144075390D01*
X198562857Y-144075390D02*
X198610476Y-144123009D01*
X198610476Y-144123009D02*
X198705714Y-144170628D01*
X198705714Y-144170628D02*
X199086666Y-144170628D01*
X201874819Y-116958666D02*
X202589104Y-116958666D01*
X202589104Y-116958666D02*
X202731961Y-116911047D01*
X202731961Y-116911047D02*
X202827200Y-116815809D01*
X202827200Y-116815809D02*
X202874819Y-116672952D01*
X202874819Y-116672952D02*
X202874819Y-116577714D01*
X202303390Y-117577714D02*
X202255771Y-117482476D01*
X202255771Y-117482476D02*
X202208152Y-117434857D01*
X202208152Y-117434857D02*
X202112914Y-117387238D01*
X202112914Y-117387238D02*
X202065295Y-117387238D01*
X202065295Y-117387238D02*
X201970057Y-117434857D01*
X201970057Y-117434857D02*
X201922438Y-117482476D01*
X201922438Y-117482476D02*
X201874819Y-117577714D01*
X201874819Y-117577714D02*
X201874819Y-117768190D01*
X201874819Y-117768190D02*
X201922438Y-117863428D01*
X201922438Y-117863428D02*
X201970057Y-117911047D01*
X201970057Y-117911047D02*
X202065295Y-117958666D01*
X202065295Y-117958666D02*
X202112914Y-117958666D01*
X202112914Y-117958666D02*
X202208152Y-117911047D01*
X202208152Y-117911047D02*
X202255771Y-117863428D01*
X202255771Y-117863428D02*
X202303390Y-117768190D01*
X202303390Y-117768190D02*
X202303390Y-117577714D01*
X202303390Y-117577714D02*
X202351009Y-117482476D01*
X202351009Y-117482476D02*
X202398628Y-117434857D01*
X202398628Y-117434857D02*
X202493866Y-117387238D01*
X202493866Y-117387238D02*
X202684342Y-117387238D01*
X202684342Y-117387238D02*
X202779580Y-117434857D01*
X202779580Y-117434857D02*
X202827200Y-117482476D01*
X202827200Y-117482476D02*
X202874819Y-117577714D01*
X202874819Y-117577714D02*
X202874819Y-117768190D01*
X202874819Y-117768190D02*
X202827200Y-117863428D01*
X202827200Y-117863428D02*
X202779580Y-117911047D01*
X202779580Y-117911047D02*
X202684342Y-117958666D01*
X202684342Y-117958666D02*
X202493866Y-117958666D01*
X202493866Y-117958666D02*
X202398628Y-117911047D01*
X202398628Y-117911047D02*
X202351009Y-117863428D01*
X202351009Y-117863428D02*
X202303390Y-117768190D01*
X180466161Y-113012019D02*
X180942351Y-113012019D01*
X180942351Y-113012019D02*
X180989970Y-113488209D01*
X180989970Y-113488209D02*
X180942351Y-113440590D01*
X180942351Y-113440590D02*
X180847113Y-113392971D01*
X180847113Y-113392971D02*
X180609018Y-113392971D01*
X180609018Y-113392971D02*
X180513780Y-113440590D01*
X180513780Y-113440590D02*
X180466161Y-113488209D01*
X180466161Y-113488209D02*
X180418542Y-113583447D01*
X180418542Y-113583447D02*
X180418542Y-113821542D01*
X180418542Y-113821542D02*
X180466161Y-113916780D01*
X180466161Y-113916780D02*
X180513780Y-113964400D01*
X180513780Y-113964400D02*
X180609018Y-114012019D01*
X180609018Y-114012019D02*
X180847113Y-114012019D01*
X180847113Y-114012019D02*
X180942351Y-113964400D01*
X180942351Y-113964400D02*
X180989970Y-113916780D01*
X179989970Y-113916780D02*
X179942351Y-113964400D01*
X179942351Y-113964400D02*
X179989970Y-114012019D01*
X179989970Y-114012019D02*
X180037589Y-113964400D01*
X180037589Y-113964400D02*
X179989970Y-113916780D01*
X179989970Y-113916780D02*
X179989970Y-114012019D01*
X178989971Y-114012019D02*
X179561399Y-114012019D01*
X179275685Y-114012019D02*
X179275685Y-113012019D01*
X179275685Y-113012019D02*
X179370923Y-113154876D01*
X179370923Y-113154876D02*
X179466161Y-113250114D01*
X179466161Y-113250114D02*
X179561399Y-113297733D01*
X178561399Y-114012019D02*
X178561399Y-113012019D01*
X177989971Y-114012019D02*
X178418542Y-113440590D01*
X177989971Y-113012019D02*
X178561399Y-113583447D01*
X176275685Y-114012019D02*
X176847113Y-114012019D01*
X176561399Y-114012019D02*
X176561399Y-113012019D01*
X176561399Y-113012019D02*
X176656637Y-113154876D01*
X176656637Y-113154876D02*
X176751875Y-113250114D01*
X176751875Y-113250114D02*
X176847113Y-113297733D01*
X175894732Y-114012019D02*
X175132828Y-113012019D01*
X175751875Y-113012019D02*
X175656637Y-113059638D01*
X175656637Y-113059638D02*
X175609018Y-113154876D01*
X175609018Y-113154876D02*
X175656637Y-113250114D01*
X175656637Y-113250114D02*
X175751875Y-113297733D01*
X175751875Y-113297733D02*
X175847113Y-113250114D01*
X175847113Y-113250114D02*
X175894732Y-113154876D01*
X175894732Y-113154876D02*
X175847113Y-113059638D01*
X175847113Y-113059638D02*
X175751875Y-113012019D01*
X175180447Y-113964400D02*
X175132828Y-113869161D01*
X175132828Y-113869161D02*
X175180447Y-113773923D01*
X175180447Y-113773923D02*
X175275685Y-113726304D01*
X175275685Y-113726304D02*
X175370923Y-113773923D01*
X175370923Y-113773923D02*
X175418542Y-113869161D01*
X175418542Y-113869161D02*
X175370923Y-113964400D01*
X175370923Y-113964400D02*
X175275685Y-114012019D01*
X175275685Y-114012019D02*
X175180447Y-113964400D01*
D12*
X178144733Y-112134349D02*
X178311399Y-111896254D01*
X178430447Y-112134349D02*
X178430447Y-111634349D01*
X178430447Y-111634349D02*
X178239971Y-111634349D01*
X178239971Y-111634349D02*
X178192352Y-111658159D01*
X178192352Y-111658159D02*
X178168542Y-111681968D01*
X178168542Y-111681968D02*
X178144733Y-111729587D01*
X178144733Y-111729587D02*
X178144733Y-111801016D01*
X178144733Y-111801016D02*
X178168542Y-111848635D01*
X178168542Y-111848635D02*
X178192352Y-111872444D01*
X178192352Y-111872444D02*
X178239971Y-111896254D01*
X178239971Y-111896254D02*
X178430447Y-111896254D01*
X177978066Y-111634349D02*
X177644733Y-111634349D01*
X177644733Y-111634349D02*
X177859018Y-112134349D01*
D11*
X180676219Y-144077914D02*
X180676219Y-143506486D01*
X180676219Y-143792200D02*
X179676219Y-143792200D01*
X179676219Y-143792200D02*
X179819076Y-143696962D01*
X179819076Y-143696962D02*
X179914314Y-143601724D01*
X179914314Y-143601724D02*
X179961933Y-143506486D01*
X180676219Y-144506486D02*
X179676219Y-144506486D01*
X180676219Y-145077914D02*
X180104790Y-144649343D01*
X179676219Y-145077914D02*
X180247647Y-144506486D01*
D12*
X182098549Y-143970771D02*
X181860454Y-143804105D01*
X182098549Y-143685057D02*
X181598549Y-143685057D01*
X181598549Y-143685057D02*
X181598549Y-143875533D01*
X181598549Y-143875533D02*
X181622359Y-143923152D01*
X181622359Y-143923152D02*
X181646168Y-143946962D01*
X181646168Y-143946962D02*
X181693787Y-143970771D01*
X181693787Y-143970771D02*
X181765216Y-143970771D01*
X181765216Y-143970771D02*
X181812835Y-143946962D01*
X181812835Y-143946962D02*
X181836644Y-143923152D01*
X181836644Y-143923152D02*
X181860454Y-143875533D01*
X181860454Y-143875533D02*
X181860454Y-143685057D01*
X182098549Y-144446962D02*
X182098549Y-144161248D01*
X182098549Y-144304105D02*
X181598549Y-144304105D01*
X181598549Y-144304105D02*
X181669978Y-144256486D01*
X181669978Y-144256486D02*
X181717597Y-144208867D01*
X181717597Y-144208867D02*
X181741406Y-144161248D01*
X181646168Y-144637438D02*
X181622359Y-144661247D01*
X181622359Y-144661247D02*
X181598549Y-144708866D01*
X181598549Y-144708866D02*
X181598549Y-144827914D01*
X181598549Y-144827914D02*
X181622359Y-144875533D01*
X181622359Y-144875533D02*
X181646168Y-144899342D01*
X181646168Y-144899342D02*
X181693787Y-144923152D01*
X181693787Y-144923152D02*
X181741406Y-144923152D01*
X181741406Y-144923152D02*
X181812835Y-144899342D01*
X181812835Y-144899342D02*
X182098549Y-144613628D01*
X182098549Y-144613628D02*
X182098549Y-144923152D01*
D11*
X173354747Y-117238190D02*
X173688080Y-117238190D01*
X173830937Y-116714380D02*
X173354747Y-116714380D01*
X173354747Y-116714380D02*
X173354747Y-117714380D01*
X173354747Y-117714380D02*
X173830937Y-117714380D01*
X174211890Y-116762000D02*
X174354747Y-116714380D01*
X174354747Y-116714380D02*
X174592842Y-116714380D01*
X174592842Y-116714380D02*
X174688080Y-116762000D01*
X174688080Y-116762000D02*
X174735699Y-116809619D01*
X174735699Y-116809619D02*
X174783318Y-116904857D01*
X174783318Y-116904857D02*
X174783318Y-117000095D01*
X174783318Y-117000095D02*
X174735699Y-117095333D01*
X174735699Y-117095333D02*
X174688080Y-117142952D01*
X174688080Y-117142952D02*
X174592842Y-117190571D01*
X174592842Y-117190571D02*
X174402366Y-117238190D01*
X174402366Y-117238190D02*
X174307128Y-117285809D01*
X174307128Y-117285809D02*
X174259509Y-117333428D01*
X174259509Y-117333428D02*
X174211890Y-117428666D01*
X174211890Y-117428666D02*
X174211890Y-117523904D01*
X174211890Y-117523904D02*
X174259509Y-117619142D01*
X174259509Y-117619142D02*
X174307128Y-117666761D01*
X174307128Y-117666761D02*
X174402366Y-117714380D01*
X174402366Y-117714380D02*
X174640461Y-117714380D01*
X174640461Y-117714380D02*
X174783318Y-117666761D01*
X175211890Y-116714380D02*
X175211890Y-117714380D01*
X175211890Y-117714380D02*
X175592842Y-117714380D01*
X175592842Y-117714380D02*
X175688080Y-117666761D01*
X175688080Y-117666761D02*
X175735699Y-117619142D01*
X175735699Y-117619142D02*
X175783318Y-117523904D01*
X175783318Y-117523904D02*
X175783318Y-117381047D01*
X175783318Y-117381047D02*
X175735699Y-117285809D01*
X175735699Y-117285809D02*
X175688080Y-117238190D01*
X175688080Y-117238190D02*
X175592842Y-117190571D01*
X175592842Y-117190571D02*
X175211890Y-117190571D01*
X176116652Y-117714380D02*
X176735699Y-117714380D01*
X176735699Y-117714380D02*
X176402366Y-117333428D01*
X176402366Y-117333428D02*
X176545223Y-117333428D01*
X176545223Y-117333428D02*
X176640461Y-117285809D01*
X176640461Y-117285809D02*
X176688080Y-117238190D01*
X176688080Y-117238190D02*
X176735699Y-117142952D01*
X176735699Y-117142952D02*
X176735699Y-116904857D01*
X176735699Y-116904857D02*
X176688080Y-116809619D01*
X176688080Y-116809619D02*
X176640461Y-116762000D01*
X176640461Y-116762000D02*
X176545223Y-116714380D01*
X176545223Y-116714380D02*
X176259509Y-116714380D01*
X176259509Y-116714380D02*
X176164271Y-116762000D01*
X176164271Y-116762000D02*
X176116652Y-116809619D01*
X177116652Y-117619142D02*
X177164271Y-117666761D01*
X177164271Y-117666761D02*
X177259509Y-117714380D01*
X177259509Y-117714380D02*
X177497604Y-117714380D01*
X177497604Y-117714380D02*
X177592842Y-117666761D01*
X177592842Y-117666761D02*
X177640461Y-117619142D01*
X177640461Y-117619142D02*
X177688080Y-117523904D01*
X177688080Y-117523904D02*
X177688080Y-117428666D01*
X177688080Y-117428666D02*
X177640461Y-117285809D01*
X177640461Y-117285809D02*
X177069033Y-116714380D01*
X177069033Y-116714380D02*
X177688080Y-116714380D01*
X178116652Y-117095333D02*
X178878557Y-117095333D01*
X179307128Y-116762000D02*
X179449985Y-116714380D01*
X179449985Y-116714380D02*
X179688080Y-116714380D01*
X179688080Y-116714380D02*
X179783318Y-116762000D01*
X179783318Y-116762000D02*
X179830937Y-116809619D01*
X179830937Y-116809619D02*
X179878556Y-116904857D01*
X179878556Y-116904857D02*
X179878556Y-117000095D01*
X179878556Y-117000095D02*
X179830937Y-117095333D01*
X179830937Y-117095333D02*
X179783318Y-117142952D01*
X179783318Y-117142952D02*
X179688080Y-117190571D01*
X179688080Y-117190571D02*
X179497604Y-117238190D01*
X179497604Y-117238190D02*
X179402366Y-117285809D01*
X179402366Y-117285809D02*
X179354747Y-117333428D01*
X179354747Y-117333428D02*
X179307128Y-117428666D01*
X179307128Y-117428666D02*
X179307128Y-117523904D01*
X179307128Y-117523904D02*
X179354747Y-117619142D01*
X179354747Y-117619142D02*
X179402366Y-117666761D01*
X179402366Y-117666761D02*
X179497604Y-117714380D01*
X179497604Y-117714380D02*
X179735699Y-117714380D01*
X179735699Y-117714380D02*
X179878556Y-117666761D01*
X180211890Y-117714380D02*
X180830937Y-117714380D01*
X180830937Y-117714380D02*
X180497604Y-117333428D01*
X180497604Y-117333428D02*
X180640461Y-117333428D01*
X180640461Y-117333428D02*
X180735699Y-117285809D01*
X180735699Y-117285809D02*
X180783318Y-117238190D01*
X180783318Y-117238190D02*
X180830937Y-117142952D01*
X180830937Y-117142952D02*
X180830937Y-116904857D01*
X180830937Y-116904857D02*
X180783318Y-116809619D01*
X180783318Y-116809619D02*
X180735699Y-116762000D01*
X180735699Y-116762000D02*
X180640461Y-116714380D01*
X180640461Y-116714380D02*
X180354747Y-116714380D01*
X180354747Y-116714380D02*
X180259509Y-116762000D01*
X180259509Y-116762000D02*
X180211890Y-116809619D01*
X181259509Y-117095333D02*
X182021414Y-117095333D01*
X182402366Y-117714380D02*
X182640461Y-116714380D01*
X182640461Y-116714380D02*
X182830937Y-117428666D01*
X182830937Y-117428666D02*
X183021413Y-116714380D01*
X183021413Y-116714380D02*
X183259509Y-117714380D01*
X184211889Y-116714380D02*
X183878556Y-117190571D01*
X183640461Y-116714380D02*
X183640461Y-117714380D01*
X183640461Y-117714380D02*
X184021413Y-117714380D01*
X184021413Y-117714380D02*
X184116651Y-117666761D01*
X184116651Y-117666761D02*
X184164270Y-117619142D01*
X184164270Y-117619142D02*
X184211889Y-117523904D01*
X184211889Y-117523904D02*
X184211889Y-117381047D01*
X184211889Y-117381047D02*
X184164270Y-117285809D01*
X184164270Y-117285809D02*
X184116651Y-117238190D01*
X184116651Y-117238190D02*
X184021413Y-117190571D01*
X184021413Y-117190571D02*
X183640461Y-117190571D01*
X184830937Y-117714380D02*
X185021413Y-117714380D01*
X185021413Y-117714380D02*
X185116651Y-117666761D01*
X185116651Y-117666761D02*
X185211889Y-117571523D01*
X185211889Y-117571523D02*
X185259508Y-117381047D01*
X185259508Y-117381047D02*
X185259508Y-117047714D01*
X185259508Y-117047714D02*
X185211889Y-116857238D01*
X185211889Y-116857238D02*
X185116651Y-116762000D01*
X185116651Y-116762000D02*
X185021413Y-116714380D01*
X185021413Y-116714380D02*
X184830937Y-116714380D01*
X184830937Y-116714380D02*
X184735699Y-116762000D01*
X184735699Y-116762000D02*
X184640461Y-116857238D01*
X184640461Y-116857238D02*
X184592842Y-117047714D01*
X184592842Y-117047714D02*
X184592842Y-117381047D01*
X184592842Y-117381047D02*
X184640461Y-117571523D01*
X184640461Y-117571523D02*
X184735699Y-117666761D01*
X184735699Y-117666761D02*
X184830937Y-117714380D01*
X185878556Y-117714380D02*
X186069032Y-117714380D01*
X186069032Y-117714380D02*
X186164270Y-117666761D01*
X186164270Y-117666761D02*
X186259508Y-117571523D01*
X186259508Y-117571523D02*
X186307127Y-117381047D01*
X186307127Y-117381047D02*
X186307127Y-117047714D01*
X186307127Y-117047714D02*
X186259508Y-116857238D01*
X186259508Y-116857238D02*
X186164270Y-116762000D01*
X186164270Y-116762000D02*
X186069032Y-116714380D01*
X186069032Y-116714380D02*
X185878556Y-116714380D01*
X185878556Y-116714380D02*
X185783318Y-116762000D01*
X185783318Y-116762000D02*
X185688080Y-116857238D01*
X185688080Y-116857238D02*
X185640461Y-117047714D01*
X185640461Y-117047714D02*
X185640461Y-117381047D01*
X185640461Y-117381047D02*
X185688080Y-117571523D01*
X185688080Y-117571523D02*
X185783318Y-117666761D01*
X185783318Y-117666761D02*
X185878556Y-117714380D01*
X186735699Y-116714380D02*
X186735699Y-117714380D01*
X186735699Y-117714380D02*
X187069032Y-117000095D01*
X187069032Y-117000095D02*
X187402365Y-117714380D01*
X187402365Y-117714380D02*
X187402365Y-116714380D01*
X187878556Y-117095333D02*
X188640461Y-117095333D01*
X189640460Y-116714380D02*
X189069032Y-116714380D01*
X189354746Y-116714380D02*
X189354746Y-117714380D01*
X189354746Y-117714380D02*
X189259508Y-117571523D01*
X189259508Y-117571523D02*
X189164270Y-117476285D01*
X189164270Y-117476285D02*
X189069032Y-117428666D01*
X180711889Y-132914380D02*
X180711889Y-132104857D01*
X180711889Y-132104857D02*
X180759508Y-132009619D01*
X180759508Y-132009619D02*
X180807127Y-131962000D01*
X180807127Y-131962000D02*
X180902365Y-131914380D01*
X180902365Y-131914380D02*
X181092841Y-131914380D01*
X181092841Y-131914380D02*
X181188079Y-131962000D01*
X181188079Y-131962000D02*
X181235698Y-132009619D01*
X181235698Y-132009619D02*
X181283317Y-132104857D01*
X181283317Y-132104857D02*
X181283317Y-132914380D01*
X182283317Y-131914380D02*
X181711889Y-131914380D01*
X181997603Y-131914380D02*
X181997603Y-132914380D01*
X181997603Y-132914380D02*
X181902365Y-132771523D01*
X181902365Y-132771523D02*
X181807127Y-132676285D01*
X181807127Y-132676285D02*
X181711889Y-132628666D01*
X176529257Y-137574352D02*
X176529257Y-138241019D01*
X176767352Y-137193400D02*
X177005447Y-137907685D01*
X177005447Y-137907685D02*
X176386400Y-137907685D01*
X176100685Y-137241019D02*
X175434019Y-137241019D01*
X175434019Y-137241019D02*
X175862590Y-138241019D01*
X174862590Y-137241019D02*
X174767352Y-137241019D01*
X174767352Y-137241019D02*
X174672114Y-137288638D01*
X174672114Y-137288638D02*
X174624495Y-137336257D01*
X174624495Y-137336257D02*
X174576876Y-137431495D01*
X174576876Y-137431495D02*
X174529257Y-137621971D01*
X174529257Y-137621971D02*
X174529257Y-137860066D01*
X174529257Y-137860066D02*
X174576876Y-138050542D01*
X174576876Y-138050542D02*
X174624495Y-138145780D01*
X174624495Y-138145780D02*
X174672114Y-138193400D01*
X174672114Y-138193400D02*
X174767352Y-138241019D01*
X174767352Y-138241019D02*
X174862590Y-138241019D01*
X174862590Y-138241019D02*
X174957828Y-138193400D01*
X174957828Y-138193400D02*
X175005447Y-138145780D01*
X175005447Y-138145780D02*
X175053066Y-138050542D01*
X175053066Y-138050542D02*
X175100685Y-137860066D01*
X175100685Y-137860066D02*
X175100685Y-137621971D01*
X175100685Y-137621971D02*
X175053066Y-137431495D01*
X175053066Y-137431495D02*
X175005447Y-137336257D01*
X175005447Y-137336257D02*
X174957828Y-137288638D01*
X174957828Y-137288638D02*
X174862590Y-137241019D01*
X174100685Y-137574352D02*
X174100685Y-138241019D01*
X174100685Y-137669590D02*
X174053066Y-137621971D01*
X174053066Y-137621971D02*
X173957828Y-137574352D01*
X173957828Y-137574352D02*
X173814971Y-137574352D01*
X173814971Y-137574352D02*
X173719733Y-137621971D01*
X173719733Y-137621971D02*
X173672114Y-137717209D01*
X173672114Y-137717209D02*
X173672114Y-138241019D01*
X172862590Y-137717209D02*
X173195923Y-137717209D01*
X173195923Y-138241019D02*
X173195923Y-137241019D01*
X173195923Y-137241019D02*
X172719733Y-137241019D01*
D12*
X174969733Y-139645730D02*
X174993542Y-139669540D01*
X174993542Y-139669540D02*
X175064971Y-139693349D01*
X175064971Y-139693349D02*
X175112590Y-139693349D01*
X175112590Y-139693349D02*
X175184018Y-139669540D01*
X175184018Y-139669540D02*
X175231637Y-139621920D01*
X175231637Y-139621920D02*
X175255447Y-139574301D01*
X175255447Y-139574301D02*
X175279256Y-139479063D01*
X175279256Y-139479063D02*
X175279256Y-139407635D01*
X175279256Y-139407635D02*
X175255447Y-139312397D01*
X175255447Y-139312397D02*
X175231637Y-139264778D01*
X175231637Y-139264778D02*
X175184018Y-139217159D01*
X175184018Y-139217159D02*
X175112590Y-139193349D01*
X175112590Y-139193349D02*
X175064971Y-139193349D01*
X175064971Y-139193349D02*
X174993542Y-139217159D01*
X174993542Y-139217159D02*
X174969733Y-139240968D01*
X174803066Y-139193349D02*
X174469733Y-139193349D01*
X174469733Y-139193349D02*
X174684018Y-139693349D01*
D11*
X181974137Y-146861304D02*
X181497947Y-146861304D01*
X182069375Y-147147019D02*
X181736042Y-146147019D01*
X181736042Y-146147019D02*
X181402709Y-147147019D01*
X180878899Y-146147019D02*
X180688423Y-146147019D01*
X180688423Y-146147019D02*
X180593185Y-146194638D01*
X180593185Y-146194638D02*
X180497947Y-146289876D01*
X180497947Y-146289876D02*
X180450328Y-146480352D01*
X180450328Y-146480352D02*
X180450328Y-146813685D01*
X180450328Y-146813685D02*
X180497947Y-147004161D01*
X180497947Y-147004161D02*
X180593185Y-147099400D01*
X180593185Y-147099400D02*
X180688423Y-147147019D01*
X180688423Y-147147019D02*
X180878899Y-147147019D01*
X180878899Y-147147019D02*
X180974137Y-147099400D01*
X180974137Y-147099400D02*
X181069375Y-147004161D01*
X181069375Y-147004161D02*
X181116994Y-146813685D01*
X181116994Y-146813685D02*
X181116994Y-146480352D01*
X181116994Y-146480352D02*
X181069375Y-146289876D01*
X181069375Y-146289876D02*
X180974137Y-146194638D01*
X180974137Y-146194638D02*
X180878899Y-146147019D01*
X180116994Y-146147019D02*
X179497947Y-146147019D01*
X179497947Y-146147019D02*
X179831280Y-146527971D01*
X179831280Y-146527971D02*
X179688423Y-146527971D01*
X179688423Y-146527971D02*
X179593185Y-146575590D01*
X179593185Y-146575590D02*
X179545566Y-146623209D01*
X179545566Y-146623209D02*
X179497947Y-146718447D01*
X179497947Y-146718447D02*
X179497947Y-146956542D01*
X179497947Y-146956542D02*
X179545566Y-147051780D01*
X179545566Y-147051780D02*
X179593185Y-147099400D01*
X179593185Y-147099400D02*
X179688423Y-147147019D01*
X179688423Y-147147019D02*
X179974137Y-147147019D01*
X179974137Y-147147019D02*
X180069375Y-147099400D01*
X180069375Y-147099400D02*
X180116994Y-147051780D01*
X178640804Y-146480352D02*
X178640804Y-147147019D01*
X178878899Y-146099400D02*
X179116994Y-146813685D01*
X179116994Y-146813685D02*
X178497947Y-146813685D01*
X177926518Y-146147019D02*
X177831280Y-146147019D01*
X177831280Y-146147019D02*
X177736042Y-146194638D01*
X177736042Y-146194638D02*
X177688423Y-146242257D01*
X177688423Y-146242257D02*
X177640804Y-146337495D01*
X177640804Y-146337495D02*
X177593185Y-146527971D01*
X177593185Y-146527971D02*
X177593185Y-146766066D01*
X177593185Y-146766066D02*
X177640804Y-146956542D01*
X177640804Y-146956542D02*
X177688423Y-147051780D01*
X177688423Y-147051780D02*
X177736042Y-147099400D01*
X177736042Y-147099400D02*
X177831280Y-147147019D01*
X177831280Y-147147019D02*
X177926518Y-147147019D01*
X177926518Y-147147019D02*
X178021756Y-147099400D01*
X178021756Y-147099400D02*
X178069375Y-147051780D01*
X178069375Y-147051780D02*
X178116994Y-146956542D01*
X178116994Y-146956542D02*
X178164613Y-146766066D01*
X178164613Y-146766066D02*
X178164613Y-146527971D01*
X178164613Y-146527971D02*
X178116994Y-146337495D01*
X178116994Y-146337495D02*
X178069375Y-146242257D01*
X178069375Y-146242257D02*
X178021756Y-146194638D01*
X178021756Y-146194638D02*
X177926518Y-146147019D01*
X176640804Y-147147019D02*
X177212232Y-147147019D01*
X176926518Y-147147019D02*
X176926518Y-146147019D01*
X176926518Y-146147019D02*
X177021756Y-146289876D01*
X177021756Y-146289876D02*
X177116994Y-146385114D01*
X177116994Y-146385114D02*
X177212232Y-146432733D01*
X176259851Y-146861304D02*
X175783661Y-146861304D01*
X176355089Y-147147019D02*
X176021756Y-146147019D01*
X176021756Y-146147019D02*
X175688423Y-147147019D01*
D13*
X178909376Y-144468114D02*
X178939852Y-144452876D01*
X178939852Y-144452876D02*
X178970328Y-144422400D01*
X178970328Y-144422400D02*
X179016042Y-144376685D01*
X179016042Y-144376685D02*
X179046519Y-144361447D01*
X179046519Y-144361447D02*
X179076995Y-144361447D01*
X179061757Y-144437638D02*
X179092233Y-144422400D01*
X179092233Y-144422400D02*
X179122709Y-144391923D01*
X179122709Y-144391923D02*
X179137947Y-144330971D01*
X179137947Y-144330971D02*
X179137947Y-144224304D01*
X179137947Y-144224304D02*
X179122709Y-144163352D01*
X179122709Y-144163352D02*
X179092233Y-144132876D01*
X179092233Y-144132876D02*
X179061757Y-144117638D01*
X179061757Y-144117638D02*
X179000804Y-144117638D01*
X179000804Y-144117638D02*
X178970328Y-144132876D01*
X178970328Y-144132876D02*
X178939852Y-144163352D01*
X178939852Y-144163352D02*
X178924614Y-144224304D01*
X178924614Y-144224304D02*
X178924614Y-144330971D01*
X178924614Y-144330971D02*
X178939852Y-144391923D01*
X178939852Y-144391923D02*
X178970328Y-144422400D01*
X178970328Y-144422400D02*
X179000804Y-144437638D01*
X179000804Y-144437638D02*
X179061757Y-144437638D01*
X178619852Y-144437638D02*
X178802709Y-144437638D01*
X178711281Y-144437638D02*
X178711281Y-144117638D01*
X178711281Y-144117638D02*
X178741757Y-144163352D01*
X178741757Y-144163352D02*
X178772233Y-144193828D01*
X178772233Y-144193828D02*
X178802709Y-144209066D01*
D11*
X162997819Y-140893323D02*
X162997819Y-140321895D01*
X162997819Y-140607609D02*
X161997819Y-140607609D01*
X161997819Y-140607609D02*
X162140676Y-140512371D01*
X162140676Y-140512371D02*
X162235914Y-140417133D01*
X162235914Y-140417133D02*
X162283533Y-140321895D01*
X161997819Y-141512371D02*
X161997819Y-141607609D01*
X161997819Y-141607609D02*
X162045438Y-141702847D01*
X162045438Y-141702847D02*
X162093057Y-141750466D01*
X162093057Y-141750466D02*
X162188295Y-141798085D01*
X162188295Y-141798085D02*
X162378771Y-141845704D01*
X162378771Y-141845704D02*
X162616866Y-141845704D01*
X162616866Y-141845704D02*
X162807342Y-141798085D01*
X162807342Y-141798085D02*
X162902580Y-141750466D01*
X162902580Y-141750466D02*
X162950200Y-141702847D01*
X162950200Y-141702847D02*
X162997819Y-141607609D01*
X162997819Y-141607609D02*
X162997819Y-141512371D01*
X162997819Y-141512371D02*
X162950200Y-141417133D01*
X162950200Y-141417133D02*
X162902580Y-141369514D01*
X162902580Y-141369514D02*
X162807342Y-141321895D01*
X162807342Y-141321895D02*
X162616866Y-141274276D01*
X162616866Y-141274276D02*
X162378771Y-141274276D01*
X162378771Y-141274276D02*
X162188295Y-141321895D01*
X162188295Y-141321895D02*
X162093057Y-141369514D01*
X162093057Y-141369514D02*
X162045438Y-141417133D01*
X162045438Y-141417133D02*
X161997819Y-141512371D01*
X162997819Y-142274276D02*
X161997819Y-142274276D01*
X162997819Y-142845704D02*
X162426390Y-142417133D01*
X161997819Y-142845704D02*
X162569247Y-142274276D01*
D12*
X164420149Y-141262371D02*
X164182054Y-141095705D01*
X164420149Y-140976657D02*
X163920149Y-140976657D01*
X163920149Y-140976657D02*
X163920149Y-141167133D01*
X163920149Y-141167133D02*
X163943959Y-141214752D01*
X163943959Y-141214752D02*
X163967768Y-141238562D01*
X163967768Y-141238562D02*
X164015387Y-141262371D01*
X164015387Y-141262371D02*
X164086816Y-141262371D01*
X164086816Y-141262371D02*
X164134435Y-141238562D01*
X164134435Y-141238562D02*
X164158244Y-141214752D01*
X164158244Y-141214752D02*
X164182054Y-141167133D01*
X164182054Y-141167133D02*
X164182054Y-140976657D01*
X164420149Y-141738562D02*
X164420149Y-141452848D01*
X164420149Y-141595705D02*
X163920149Y-141595705D01*
X163920149Y-141595705D02*
X163991578Y-141548086D01*
X163991578Y-141548086D02*
X164039197Y-141500467D01*
X164039197Y-141500467D02*
X164063006Y-141452848D01*
X163920149Y-142167133D02*
X163920149Y-142071895D01*
X163920149Y-142071895D02*
X163943959Y-142024276D01*
X163943959Y-142024276D02*
X163967768Y-142000466D01*
X163967768Y-142000466D02*
X164039197Y-141952847D01*
X164039197Y-141952847D02*
X164134435Y-141929038D01*
X164134435Y-141929038D02*
X164324911Y-141929038D01*
X164324911Y-141929038D02*
X164372530Y-141952847D01*
X164372530Y-141952847D02*
X164396340Y-141976657D01*
X164396340Y-141976657D02*
X164420149Y-142024276D01*
X164420149Y-142024276D02*
X164420149Y-142119514D01*
X164420149Y-142119514D02*
X164396340Y-142167133D01*
X164396340Y-142167133D02*
X164372530Y-142190942D01*
X164372530Y-142190942D02*
X164324911Y-142214752D01*
X164324911Y-142214752D02*
X164205863Y-142214752D01*
X164205863Y-142214752D02*
X164158244Y-142190942D01*
X164158244Y-142190942D02*
X164134435Y-142167133D01*
X164134435Y-142167133D02*
X164110625Y-142119514D01*
X164110625Y-142119514D02*
X164110625Y-142024276D01*
X164110625Y-142024276D02*
X164134435Y-141976657D01*
X164134435Y-141976657D02*
X164158244Y-141952847D01*
X164158244Y-141952847D02*
X164205863Y-141929038D01*
D11*
X189399152Y-147191457D02*
X189494390Y-147143838D01*
X189494390Y-147143838D02*
X189589628Y-147048600D01*
X189589628Y-147048600D02*
X189732485Y-146905742D01*
X189732485Y-146905742D02*
X189827723Y-146858123D01*
X189827723Y-146858123D02*
X189922961Y-146858123D01*
X189875342Y-147096219D02*
X189970580Y-147048600D01*
X189970580Y-147048600D02*
X190065818Y-146953361D01*
X190065818Y-146953361D02*
X190113437Y-146762885D01*
X190113437Y-146762885D02*
X190113437Y-146429552D01*
X190113437Y-146429552D02*
X190065818Y-146239076D01*
X190065818Y-146239076D02*
X189970580Y-146143838D01*
X189970580Y-146143838D02*
X189875342Y-146096219D01*
X189875342Y-146096219D02*
X189684866Y-146096219D01*
X189684866Y-146096219D02*
X189589628Y-146143838D01*
X189589628Y-146143838D02*
X189494390Y-146239076D01*
X189494390Y-146239076D02*
X189446771Y-146429552D01*
X189446771Y-146429552D02*
X189446771Y-146762885D01*
X189446771Y-146762885D02*
X189494390Y-146953361D01*
X189494390Y-146953361D02*
X189589628Y-147048600D01*
X189589628Y-147048600D02*
X189684866Y-147096219D01*
X189684866Y-147096219D02*
X189875342Y-147096219D01*
X189256295Y-147191457D02*
X188494390Y-147191457D01*
X188256294Y-147096219D02*
X188256294Y-146096219D01*
X188256294Y-146096219D02*
X187684866Y-147096219D01*
X187684866Y-147096219D02*
X187684866Y-146096219D01*
X187208675Y-147096219D02*
X187208675Y-146096219D01*
X187208675Y-146096219D02*
X186827723Y-146096219D01*
X186827723Y-146096219D02*
X186732485Y-146143838D01*
X186732485Y-146143838D02*
X186684866Y-146191457D01*
X186684866Y-146191457D02*
X186637247Y-146286695D01*
X186637247Y-146286695D02*
X186637247Y-146429552D01*
X186637247Y-146429552D02*
X186684866Y-146524790D01*
X186684866Y-146524790D02*
X186732485Y-146572409D01*
X186732485Y-146572409D02*
X186827723Y-146620028D01*
X186827723Y-146620028D02*
X187208675Y-146620028D01*
X186208675Y-147096219D02*
X186208675Y-146096219D01*
X186208675Y-146096219D02*
X185637247Y-147096219D01*
X185637247Y-147096219D02*
X185637247Y-146096219D01*
X185399152Y-147191457D02*
X184637247Y-147191457D01*
X184065818Y-146572409D02*
X183922961Y-146620028D01*
X183922961Y-146620028D02*
X183875342Y-146667647D01*
X183875342Y-146667647D02*
X183827723Y-146762885D01*
X183827723Y-146762885D02*
X183827723Y-146905742D01*
X183827723Y-146905742D02*
X183875342Y-147000980D01*
X183875342Y-147000980D02*
X183922961Y-147048600D01*
X183922961Y-147048600D02*
X184018199Y-147096219D01*
X184018199Y-147096219D02*
X184399151Y-147096219D01*
X184399151Y-147096219D02*
X184399151Y-146096219D01*
X184399151Y-146096219D02*
X184065818Y-146096219D01*
X184065818Y-146096219D02*
X183970580Y-146143838D01*
X183970580Y-146143838D02*
X183922961Y-146191457D01*
X183922961Y-146191457D02*
X183875342Y-146286695D01*
X183875342Y-146286695D02*
X183875342Y-146381933D01*
X183875342Y-146381933D02*
X183922961Y-146477171D01*
X183922961Y-146477171D02*
X183970580Y-146524790D01*
X183970580Y-146524790D02*
X184065818Y-146572409D01*
X184065818Y-146572409D02*
X184399151Y-146572409D01*
X183399151Y-146572409D02*
X183065818Y-146572409D01*
X182922961Y-147096219D02*
X183399151Y-147096219D01*
X183399151Y-147096219D02*
X183399151Y-146096219D01*
X183399151Y-146096219D02*
X182922961Y-146096219D01*
X181922961Y-147000980D02*
X181970580Y-147048600D01*
X181970580Y-147048600D02*
X182113437Y-147096219D01*
X182113437Y-147096219D02*
X182208675Y-147096219D01*
X182208675Y-147096219D02*
X182351532Y-147048600D01*
X182351532Y-147048600D02*
X182446770Y-146953361D01*
X182446770Y-146953361D02*
X182494389Y-146858123D01*
X182494389Y-146858123D02*
X182542008Y-146667647D01*
X182542008Y-146667647D02*
X182542008Y-146524790D01*
X182542008Y-146524790D02*
X182494389Y-146334314D01*
X182494389Y-146334314D02*
X182446770Y-146239076D01*
X182446770Y-146239076D02*
X182351532Y-146143838D01*
X182351532Y-146143838D02*
X182208675Y-146096219D01*
X182208675Y-146096219D02*
X182113437Y-146096219D01*
X182113437Y-146096219D02*
X181970580Y-146143838D01*
X181970580Y-146143838D02*
X181922961Y-146191457D01*
D13*
X186048676Y-144417314D02*
X186079152Y-144402076D01*
X186079152Y-144402076D02*
X186109628Y-144371600D01*
X186109628Y-144371600D02*
X186155342Y-144325885D01*
X186155342Y-144325885D02*
X186185819Y-144310647D01*
X186185819Y-144310647D02*
X186216295Y-144310647D01*
X186201057Y-144386838D02*
X186231533Y-144371600D01*
X186231533Y-144371600D02*
X186262009Y-144341123D01*
X186262009Y-144341123D02*
X186277247Y-144280171D01*
X186277247Y-144280171D02*
X186277247Y-144173504D01*
X186277247Y-144173504D02*
X186262009Y-144112552D01*
X186262009Y-144112552D02*
X186231533Y-144082076D01*
X186231533Y-144082076D02*
X186201057Y-144066838D01*
X186201057Y-144066838D02*
X186140104Y-144066838D01*
X186140104Y-144066838D02*
X186109628Y-144082076D01*
X186109628Y-144082076D02*
X186079152Y-144112552D01*
X186079152Y-144112552D02*
X186063914Y-144173504D01*
X186063914Y-144173504D02*
X186063914Y-144280171D01*
X186063914Y-144280171D02*
X186079152Y-144341123D01*
X186079152Y-144341123D02*
X186109628Y-144371600D01*
X186109628Y-144371600D02*
X186140104Y-144386838D01*
X186140104Y-144386838D02*
X186201057Y-144386838D01*
X185942009Y-144097314D02*
X185926771Y-144082076D01*
X185926771Y-144082076D02*
X185896295Y-144066838D01*
X185896295Y-144066838D02*
X185820104Y-144066838D01*
X185820104Y-144066838D02*
X185789628Y-144082076D01*
X185789628Y-144082076D02*
X185774390Y-144097314D01*
X185774390Y-144097314D02*
X185759152Y-144127790D01*
X185759152Y-144127790D02*
X185759152Y-144158266D01*
X185759152Y-144158266D02*
X185774390Y-144203980D01*
X185774390Y-144203980D02*
X185957247Y-144386838D01*
X185957247Y-144386838D02*
X185759152Y-144386838D01*
D11*
X195708590Y-114826019D02*
X195089543Y-114826019D01*
X195089543Y-114826019D02*
X195422876Y-115206971D01*
X195422876Y-115206971D02*
X195280019Y-115206971D01*
X195280019Y-115206971D02*
X195184781Y-115254590D01*
X195184781Y-115254590D02*
X195137162Y-115302209D01*
X195137162Y-115302209D02*
X195089543Y-115397447D01*
X195089543Y-115397447D02*
X195089543Y-115635542D01*
X195089543Y-115635542D02*
X195137162Y-115730780D01*
X195137162Y-115730780D02*
X195184781Y-115778400D01*
X195184781Y-115778400D02*
X195280019Y-115826019D01*
X195280019Y-115826019D02*
X195565733Y-115826019D01*
X195565733Y-115826019D02*
X195660971Y-115778400D01*
X195660971Y-115778400D02*
X195708590Y-115730780D01*
X194803828Y-114826019D02*
X194470495Y-115826019D01*
X194470495Y-115826019D02*
X194137162Y-114826019D01*
X193899066Y-114826019D02*
X193280019Y-114826019D01*
X193280019Y-114826019D02*
X193613352Y-115206971D01*
X193613352Y-115206971D02*
X193470495Y-115206971D01*
X193470495Y-115206971D02*
X193375257Y-115254590D01*
X193375257Y-115254590D02*
X193327638Y-115302209D01*
X193327638Y-115302209D02*
X193280019Y-115397447D01*
X193280019Y-115397447D02*
X193280019Y-115635542D01*
X193280019Y-115635542D02*
X193327638Y-115730780D01*
X193327638Y-115730780D02*
X193375257Y-115778400D01*
X193375257Y-115778400D02*
X193470495Y-115826019D01*
X193470495Y-115826019D02*
X193756209Y-115826019D01*
X193756209Y-115826019D02*
X193851447Y-115778400D01*
X193851447Y-115778400D02*
X193899066Y-115730780D01*
X193089543Y-115921257D02*
X192327638Y-115921257D01*
X191613352Y-115826019D02*
X192089542Y-115826019D01*
X192089542Y-115826019D02*
X192089542Y-114826019D01*
X191089542Y-114826019D02*
X190899066Y-114826019D01*
X190899066Y-114826019D02*
X190803828Y-114873638D01*
X190803828Y-114873638D02*
X190708590Y-114968876D01*
X190708590Y-114968876D02*
X190660971Y-115159352D01*
X190660971Y-115159352D02*
X190660971Y-115492685D01*
X190660971Y-115492685D02*
X190708590Y-115683161D01*
X190708590Y-115683161D02*
X190803828Y-115778400D01*
X190803828Y-115778400D02*
X190899066Y-115826019D01*
X190899066Y-115826019D02*
X191089542Y-115826019D01*
X191089542Y-115826019D02*
X191184780Y-115778400D01*
X191184780Y-115778400D02*
X191280018Y-115683161D01*
X191280018Y-115683161D02*
X191327637Y-115492685D01*
X191327637Y-115492685D02*
X191327637Y-115159352D01*
X191327637Y-115159352D02*
X191280018Y-114968876D01*
X191280018Y-114968876D02*
X191184780Y-114873638D01*
X191184780Y-114873638D02*
X191089542Y-114826019D01*
X189660971Y-115826019D02*
X189994304Y-115349828D01*
X190232399Y-115826019D02*
X190232399Y-114826019D01*
X190232399Y-114826019D02*
X189851447Y-114826019D01*
X189851447Y-114826019D02*
X189756209Y-114873638D01*
X189756209Y-114873638D02*
X189708590Y-114921257D01*
X189708590Y-114921257D02*
X189660971Y-115016495D01*
X189660971Y-115016495D02*
X189660971Y-115159352D01*
X189660971Y-115159352D02*
X189708590Y-115254590D01*
X189708590Y-115254590D02*
X189756209Y-115302209D01*
X189756209Y-115302209D02*
X189851447Y-115349828D01*
X189851447Y-115349828D02*
X190232399Y-115349828D01*
X189280018Y-115540304D02*
X188803828Y-115540304D01*
X189375256Y-115826019D02*
X189041923Y-114826019D01*
X189041923Y-114826019D02*
X188708590Y-115826019D01*
X193494304Y-110776019D02*
X192922876Y-110776019D01*
X193208590Y-111776019D02*
X193208590Y-110776019D01*
X192589542Y-111776019D02*
X192589542Y-110776019D01*
X192589542Y-110776019D02*
X192208590Y-110776019D01*
X192208590Y-110776019D02*
X192113352Y-110823638D01*
X192113352Y-110823638D02*
X192065733Y-110871257D01*
X192065733Y-110871257D02*
X192018114Y-110966495D01*
X192018114Y-110966495D02*
X192018114Y-111109352D01*
X192018114Y-111109352D02*
X192065733Y-111204590D01*
X192065733Y-111204590D02*
X192113352Y-111252209D01*
X192113352Y-111252209D02*
X192208590Y-111299828D01*
X192208590Y-111299828D02*
X192589542Y-111299828D01*
X191637161Y-110871257D02*
X191589542Y-110823638D01*
X191589542Y-110823638D02*
X191494304Y-110776019D01*
X191494304Y-110776019D02*
X191256209Y-110776019D01*
X191256209Y-110776019D02*
X191160971Y-110823638D01*
X191160971Y-110823638D02*
X191113352Y-110871257D01*
X191113352Y-110871257D02*
X191065733Y-110966495D01*
X191065733Y-110966495D02*
X191065733Y-111061733D01*
X191065733Y-111061733D02*
X191113352Y-111204590D01*
X191113352Y-111204590D02*
X191684780Y-111776019D01*
X191684780Y-111776019D02*
X191065733Y-111776019D01*
X190840733Y-111276019D02*
X193713595Y-111276019D01*
X185071418Y-111151419D02*
X184452371Y-111151419D01*
X184452371Y-111151419D02*
X184785704Y-111532371D01*
X184785704Y-111532371D02*
X184642847Y-111532371D01*
X184642847Y-111532371D02*
X184547609Y-111579990D01*
X184547609Y-111579990D02*
X184499990Y-111627609D01*
X184499990Y-111627609D02*
X184452371Y-111722847D01*
X184452371Y-111722847D02*
X184452371Y-111960942D01*
X184452371Y-111960942D02*
X184499990Y-112056180D01*
X184499990Y-112056180D02*
X184547609Y-112103800D01*
X184547609Y-112103800D02*
X184642847Y-112151419D01*
X184642847Y-112151419D02*
X184928561Y-112151419D01*
X184928561Y-112151419D02*
X185023799Y-112103800D01*
X185023799Y-112103800D02*
X185071418Y-112056180D01*
X184166656Y-111151419D02*
X183833323Y-112151419D01*
X183833323Y-112151419D02*
X183499990Y-111151419D01*
X183261894Y-111151419D02*
X182642847Y-111151419D01*
X182642847Y-111151419D02*
X182976180Y-111532371D01*
X182976180Y-111532371D02*
X182833323Y-111532371D01*
X182833323Y-111532371D02*
X182738085Y-111579990D01*
X182738085Y-111579990D02*
X182690466Y-111627609D01*
X182690466Y-111627609D02*
X182642847Y-111722847D01*
X182642847Y-111722847D02*
X182642847Y-111960942D01*
X182642847Y-111960942D02*
X182690466Y-112056180D01*
X182690466Y-112056180D02*
X182738085Y-112103800D01*
X182738085Y-112103800D02*
X182833323Y-112151419D01*
X182833323Y-112151419D02*
X183119037Y-112151419D01*
X183119037Y-112151419D02*
X183214275Y-112103800D01*
X183214275Y-112103800D02*
X183261894Y-112056180D01*
X182452371Y-112246657D02*
X181690466Y-112246657D01*
X181452370Y-111627609D02*
X181119037Y-111627609D01*
X180976180Y-112151419D02*
X181452370Y-112151419D01*
X181452370Y-112151419D02*
X181452370Y-111151419D01*
X181452370Y-111151419D02*
X180976180Y-111151419D01*
X180595227Y-112103800D02*
X180452370Y-112151419D01*
X180452370Y-112151419D02*
X180214275Y-112151419D01*
X180214275Y-112151419D02*
X180119037Y-112103800D01*
X180119037Y-112103800D02*
X180071418Y-112056180D01*
X180071418Y-112056180D02*
X180023799Y-111960942D01*
X180023799Y-111960942D02*
X180023799Y-111865704D01*
X180023799Y-111865704D02*
X180071418Y-111770466D01*
X180071418Y-111770466D02*
X180119037Y-111722847D01*
X180119037Y-111722847D02*
X180214275Y-111675228D01*
X180214275Y-111675228D02*
X180404751Y-111627609D01*
X180404751Y-111627609D02*
X180499989Y-111579990D01*
X180499989Y-111579990D02*
X180547608Y-111532371D01*
X180547608Y-111532371D02*
X180595227Y-111437133D01*
X180595227Y-111437133D02*
X180595227Y-111341895D01*
X180595227Y-111341895D02*
X180547608Y-111246657D01*
X180547608Y-111246657D02*
X180499989Y-111199038D01*
X180499989Y-111199038D02*
X180404751Y-111151419D01*
X180404751Y-111151419D02*
X180166656Y-111151419D01*
X180166656Y-111151419D02*
X180023799Y-111199038D01*
X179595227Y-112151419D02*
X179595227Y-111151419D01*
X179595227Y-111151419D02*
X179214275Y-111151419D01*
X179214275Y-111151419D02*
X179119037Y-111199038D01*
X179119037Y-111199038D02*
X179071418Y-111246657D01*
X179071418Y-111246657D02*
X179023799Y-111341895D01*
X179023799Y-111341895D02*
X179023799Y-111484752D01*
X179023799Y-111484752D02*
X179071418Y-111579990D01*
X179071418Y-111579990D02*
X179119037Y-111627609D01*
X179119037Y-111627609D02*
X179214275Y-111675228D01*
X179214275Y-111675228D02*
X179595227Y-111675228D01*
X183285704Y-107101419D02*
X182714276Y-107101419D01*
X182999990Y-108101419D02*
X182999990Y-107101419D01*
X182380942Y-108101419D02*
X182380942Y-107101419D01*
X182380942Y-107101419D02*
X181999990Y-107101419D01*
X181999990Y-107101419D02*
X181904752Y-107149038D01*
X181904752Y-107149038D02*
X181857133Y-107196657D01*
X181857133Y-107196657D02*
X181809514Y-107291895D01*
X181809514Y-107291895D02*
X181809514Y-107434752D01*
X181809514Y-107434752D02*
X181857133Y-107529990D01*
X181857133Y-107529990D02*
X181904752Y-107577609D01*
X181904752Y-107577609D02*
X181999990Y-107625228D01*
X181999990Y-107625228D02*
X182380942Y-107625228D01*
X180857133Y-108101419D02*
X181428561Y-108101419D01*
X181142847Y-108101419D02*
X181142847Y-107101419D01*
X181142847Y-107101419D02*
X181238085Y-107244276D01*
X181238085Y-107244276D02*
X181333323Y-107339514D01*
X181333323Y-107339514D02*
X181428561Y-107387133D01*
X180637842Y-107601419D02*
X183504995Y-107601419D01*
X193363285Y-125469419D02*
X193934713Y-125469419D01*
X193648999Y-125469419D02*
X193648999Y-124469419D01*
X193648999Y-124469419D02*
X193744237Y-124612276D01*
X193744237Y-124612276D02*
X193839475Y-124707514D01*
X193839475Y-124707514D02*
X193934713Y-124755133D01*
X192934713Y-125469419D02*
X192934713Y-124469419D01*
X192363285Y-125469419D02*
X192791856Y-124897990D01*
X192363285Y-124469419D02*
X192934713Y-125040847D01*
D12*
X193232333Y-126891749D02*
X193398999Y-126653654D01*
X193518047Y-126891749D02*
X193518047Y-126391749D01*
X193518047Y-126391749D02*
X193327571Y-126391749D01*
X193327571Y-126391749D02*
X193279952Y-126415559D01*
X193279952Y-126415559D02*
X193256142Y-126439368D01*
X193256142Y-126439368D02*
X193232333Y-126486987D01*
X193232333Y-126486987D02*
X193232333Y-126558416D01*
X193232333Y-126558416D02*
X193256142Y-126606035D01*
X193256142Y-126606035D02*
X193279952Y-126629844D01*
X193279952Y-126629844D02*
X193327571Y-126653654D01*
X193327571Y-126653654D02*
X193518047Y-126653654D01*
X192779952Y-126391749D02*
X193018047Y-126391749D01*
X193018047Y-126391749D02*
X193041856Y-126629844D01*
X193041856Y-126629844D02*
X193018047Y-126606035D01*
X193018047Y-126606035D02*
X192970428Y-126582225D01*
X192970428Y-126582225D02*
X192851380Y-126582225D01*
X192851380Y-126582225D02*
X192803761Y-126606035D01*
X192803761Y-126606035D02*
X192779952Y-126629844D01*
X192779952Y-126629844D02*
X192756142Y-126677463D01*
X192756142Y-126677463D02*
X192756142Y-126796511D01*
X192756142Y-126796511D02*
X192779952Y-126844130D01*
X192779952Y-126844130D02*
X192803761Y-126867940D01*
X192803761Y-126867940D02*
X192851380Y-126891749D01*
X192851380Y-126891749D02*
X192970428Y-126891749D01*
X192970428Y-126891749D02*
X193018047Y-126867940D01*
X193018047Y-126867940D02*
X193041856Y-126844130D01*
D14*
X159000000Y-73500000D02*
X159000000Y-121500000D01*
X162500000Y-125000000D02*
X195500000Y-125000000D01*
X195500000Y-70000000D02*
X162500000Y-70000000D01*
X199000000Y-121500000D02*
X199000000Y-73500000D01*
X159000000Y-73500000D02*
G75*
G02*
X162500000Y-70000000I3500000J0D01*
G01*
X162500000Y-125000000D02*
G75*
G02*
X159000000Y-121500000I0J3500000D01*
G01*
X195500000Y-70000000D02*
G75*
G02*
X199000000Y-73500000I1J-3499999D01*
G01*
X199000000Y-121500000D02*
G75*
G02*
X195500000Y-125000000I-3499999J-1D01*
G01*
D10*
X166641400Y-139428500D02*
X166641400Y-141428500D01*
X166641400Y-141428500D02*
X167891400Y-141428500D01*
X167891400Y-139428500D02*
X166641400Y-139428500D01*
X167891400Y-141428500D02*
X167891400Y-139428500D01*
X190844200Y-142616400D02*
X190844200Y-143866400D01*
X190844200Y-143866400D02*
X192844200Y-143866400D01*
X192844200Y-142616400D02*
X190844200Y-142616400D01*
X192844200Y-143866400D02*
X192844200Y-142616400D01*
X188265700Y-143241400D02*
X188265700Y-145241400D01*
X188265700Y-145241400D02*
X189515700Y-145241400D01*
X189515700Y-143241400D02*
X188265700Y-143241400D01*
X189515700Y-145241400D02*
X189515700Y-143241400D01*
X157224000Y-143154000D02*
X157224000Y-143754000D01*
X157224000Y-143754000D02*
X158224000Y-143754000D01*
X158224000Y-139544000D02*
X158224000Y-144189000D01*
X158224000Y-143154000D02*
X157224000Y-143154000D01*
X158224000Y-144189000D02*
X158859000Y-144824000D01*
X158859000Y-144824000D02*
X160764000Y-144824000D01*
X160764000Y-139544000D02*
X158224000Y-139544000D01*
X160764000Y-141214000D02*
X161764000Y-141214000D01*
X160764000Y-144824000D02*
X160764000Y-139544000D01*
X161764000Y-140614000D02*
X160764000Y-140614000D01*
X161764000Y-141214000D02*
X161764000Y-140614000D01*
X199880000Y-92892000D02*
X199880000Y-142692000D01*
X199880000Y-142692000D02*
X204960000Y-142692000D01*
X200880000Y-91892000D02*
X199880000Y-92892000D01*
X204960000Y-91892000D02*
X200880000Y-91892000D01*
X204960000Y-142692000D02*
X204960000Y-91892000D01*
X177061400Y-111282200D02*
X177061400Y-112532200D01*
X177061400Y-112532200D02*
X179061400Y-112532200D01*
X179061400Y-111282200D02*
X177061400Y-111282200D01*
X179061400Y-112532200D02*
X179061400Y-111282200D01*
X181246400Y-143292200D02*
X181246400Y-145292200D01*
X181246400Y-145292200D02*
X182496400Y-145292200D01*
X182496400Y-143292200D02*
X181246400Y-143292200D01*
X182496400Y-145292200D02*
X182496400Y-143292200D01*
X172473794Y-119019200D02*
X172473794Y-138219200D01*
X172473794Y-119019200D02*
X190473794Y-119019200D01*
X172473794Y-138219200D02*
X190473794Y-138219200D01*
D11*
X186173794Y-134459200D02*
X186173794Y-137059200D01*
X186173794Y-137059200D02*
X188773794Y-137059200D01*
X188773794Y-134459200D02*
X186173794Y-134459200D01*
X188773794Y-137059200D02*
X188773794Y-134459200D01*
D10*
X190473794Y-119019200D02*
X190473794Y-138219200D01*
X187673794Y-135759200D02*
G75*
G02*
X187273794Y-135759200I-200000J0D01*
G01*
X187273794Y-135759200D02*
G75*
G02*
X187673794Y-135759200I200000J0D01*
G01*
D11*
X188473794Y-135759200D02*
G75*
G02*
X186473794Y-135759200I-1000000J0D01*
G01*
X186473794Y-135759200D02*
G75*
G02*
X188473794Y-135759200I1000000J0D01*
G01*
D10*
X173886400Y-138841200D02*
X173886400Y-140091200D01*
X173886400Y-140091200D02*
X175886400Y-140091200D01*
X175886400Y-138841200D02*
X173886400Y-138841200D01*
X175886400Y-140091200D02*
X175886400Y-138841200D01*
X178228900Y-142842200D02*
X178228900Y-145742200D01*
X178228900Y-145742200D02*
X179528900Y-145742200D01*
X179203900Y-142842200D02*
X178228900Y-142842200D01*
X179528900Y-143167200D02*
X179203900Y-142842200D01*
X179528900Y-145742200D02*
X179528900Y-143167200D01*
X163568000Y-140583800D02*
X163568000Y-142583800D01*
X163568000Y-142583800D02*
X164818000Y-142583800D01*
X164818000Y-140583800D02*
X163568000Y-140583800D01*
X164818000Y-142583800D02*
X164818000Y-140583800D01*
X185368200Y-142791400D02*
X185368200Y-145691400D01*
X185368200Y-145691400D02*
X186668200Y-145691400D01*
X186343200Y-142791400D02*
X185368200Y-142791400D01*
X186668200Y-143116400D02*
X186343200Y-142791400D01*
X186668200Y-145691400D02*
X186668200Y-143116400D01*
X192149000Y-126039600D02*
X192149000Y-127289600D01*
X192149000Y-127289600D02*
X194149000Y-127289600D01*
X194149000Y-126039600D02*
X192149000Y-126039600D01*
X194149000Y-127289600D02*
X194149000Y-126039600D01*
X190689600Y-114807200D02*
X193779600Y-117897200D01*
X190689600Y-117897200D02*
X193779600Y-114807200D01*
X190687400Y-111776200D02*
X193777400Y-114866200D01*
X190687400Y-114866200D02*
X193777400Y-111776200D01*
X180478800Y-108101600D02*
X183568800Y-111191600D01*
X180478800Y-111191600D02*
X183568800Y-108101600D01*
D15*
X205975958Y-144508558D02*
G75*
G02*
X203975958Y-146508658I-2000058J-42D01*
G01*
X198381400Y-92190200D02*
G75*
G02*
X200381400Y-90190200I2000000J0D01*
G01*
X205974864Y-92190158D02*
X205975958Y-144508558D01*
X169679400Y-101290400D02*
G75*
G02*
X171679400Y-99290400I2000000J0D01*
G01*
X155633209Y-144508599D02*
X155633210Y-139588499D01*
X169679400Y-135588500D02*
X169679400Y-101290400D01*
X171679400Y-99290400D02*
X196381400Y-99290400D01*
X157633210Y-137588500D02*
X167679400Y-137588500D01*
X200381400Y-90190200D02*
X203974864Y-90190200D01*
X155633210Y-139588499D02*
G75*
G02*
X157633210Y-137588510I1999990J-1D01*
G01*
X198381400Y-97290400D02*
G75*
G02*
X196381400Y-99290400I-2000000J0D01*
G01*
X169679400Y-135588500D02*
G75*
G02*
X167679400Y-137588500I-2000000J0D01*
G01*
X157633209Y-146508600D02*
G75*
G02*
X155633200Y-144508599I-9J2000000D01*
G01*
X198381400Y-97290400D02*
X198381400Y-92190200D01*
X203975958Y-146508600D02*
X157633209Y-146508600D01*
X203974864Y-90190200D02*
G75*
G02*
X205974900Y-92190158I36J-2000000D01*
G01*
M02*
