G04 #@! TF.GenerationSoftware,KiCad,Pcbnew,9.0.7*
G04 #@! TF.CreationDate,2026-02-01T23:57:30+01:00*
G04 #@! TF.ProjectId,CM5IO_top,434d3549-4f5f-4746-9f70-2e6b69636164,rev?*
G04 #@! TF.SameCoordinates,Original*
G04 #@! TF.FileFunction,Soldermask,Top*
G04 #@! TF.FilePolarity,Negative*
%FSLAX46Y46*%
G04 Gerber Fmt 4.6, Leading zero omitted, Abs format (unit mm)*
G04 Created by KiCad (PCBNEW 9.0.7) date 2026-02-01 23:57:30*
%MOMM*%
%LPD*%
G01*
G04 APERTURE LIST*
G04 Aperture macros list*
%AMRoundRect*
0 Rectangle with rounded corners*
0 $1 Rounding radius*
0 $2 $3 $4 $5 $6 $7 $8 $9 X,Y pos of 4 corners*
0 Add a 4 corners polygon primitive as box body*
4,1,4,$2,$3,$4,$5,$6,$7,$8,$9,$2,$3,0*
0 Add four circle primitives for the rounded corners*
1,1,$1+$1,$2,$3*
1,1,$1+$1,$4,$5*
1,1,$1+$1,$6,$7*
1,1,$1+$1,$8,$9*
0 Add four rect primitives between the rounded corners*
20,1,$1+$1,$2,$3,$4,$5,0*
20,1,$1+$1,$4,$5,$6,$7,0*
20,1,$1+$1,$6,$7,$8,$9,0*
20,1,$1+$1,$8,$9,$2,$3,0*%
%AMFreePoly0*
4,1,6,1.000000,0.000000,0.500000,-0.750000,-0.500000,-0.750000,-0.500000,0.750000,0.500000,0.750000,1.000000,0.000000,1.000000,0.000000,$1*%
G04 Aperture macros list end*
%ADD10C,0.650000*%
%ADD11RoundRect,0.150000X-0.425000X0.150000X-0.425000X-0.150000X0.425000X-0.150000X0.425000X0.150000X0*%
%ADD12RoundRect,0.075000X-0.500000X0.075000X-0.500000X-0.075000X0.500000X-0.075000X0.500000X0.075000X0*%
%ADD13O,2.100000X1.000000*%
%ADD14O,1.800000X1.000000*%
%ADD15RoundRect,0.200000X0.450000X-0.200000X0.450000X0.200000X-0.450000X0.200000X-0.450000X-0.200000X0*%
%ADD16O,1.300000X0.800000*%
%ADD17RoundRect,0.250000X0.450000X-0.350000X0.450000X0.350000X-0.450000X0.350000X-0.450000X-0.350000X0*%
%ADD18R,2.200000X0.600000*%
%ADD19FreePoly0,270.000000*%
%ADD20FreePoly0,90.000000*%
%ADD21RoundRect,0.218750X0.256250X-0.218750X0.256250X0.218750X-0.256250X0.218750X-0.256250X-0.218750X0*%
%ADD22RoundRect,0.150000X-0.587500X-0.150000X0.587500X-0.150000X0.587500X0.150000X-0.587500X0.150000X0*%
%ADD23RoundRect,0.250000X-0.450000X0.350000X-0.450000X-0.350000X0.450000X-0.350000X0.450000X0.350000X0*%
%ADD24RoundRect,0.200000X-0.200000X-0.450000X0.200000X-0.450000X0.200000X0.450000X-0.200000X0.450000X0*%
%ADD25O,0.800000X1.300000*%
%ADD26RoundRect,0.250000X-0.350000X-0.450000X0.350000X-0.450000X0.350000X0.450000X-0.350000X0.450000X0*%
%ADD27RoundRect,0.150000X0.587500X0.150000X-0.587500X0.150000X-0.587500X-0.150000X0.587500X-0.150000X0*%
%ADD28RoundRect,0.250000X0.300000X0.300000X-0.300000X0.300000X-0.300000X-0.300000X0.300000X-0.300000X0*%
%ADD29RoundRect,0.250000X-0.445000X0.545000X-0.445000X-0.545000X0.445000X-0.545000X0.445000X0.545000X0*%
%ADD30RoundRect,0.250000X0.475000X-0.337500X0.475000X0.337500X-0.475000X0.337500X-0.475000X-0.337500X0*%
%ADD31RoundRect,0.250001X0.507499X0.944999X-0.507499X0.944999X-0.507499X-0.944999X0.507499X-0.944999X0*%
%ADD32R,0.900000X1.000000*%
%ADD33RoundRect,0.375000X-0.375000X0.625000X-0.375000X-0.625000X0.375000X-0.625000X0.375000X0.625000X0*%
%ADD34RoundRect,0.500000X-1.400000X0.500000X-1.400000X-0.500000X1.400000X-0.500000X1.400000X0.500000X0*%
%ADD35RoundRect,0.250000X-0.337500X-0.475000X0.337500X-0.475000X0.337500X0.475000X-0.337500X0.475000X0*%
%ADD36RoundRect,0.250000X-0.300000X-0.300000X0.300000X-0.300000X0.300000X0.300000X-0.300000X0.300000X0*%
%ADD37R,1.000000X0.900000*%
%ADD38C,2.700000*%
%ADD39R,1.700000X1.700000*%
%ADD40C,1.700000*%
G04 #@! TA.AperFunction,Profile*
%ADD41C,0.050000*%
G04 #@! TD*
G04 APERTURE END LIST*
G36*
X183637400Y-117948200D02*
G01*
X182137400Y-117948200D01*
X182137400Y-122948200D01*
X183637400Y-122948200D01*
X183637400Y-117948200D01*
G37*
G36*
X186177400Y-117948200D02*
G01*
X184677400Y-117948200D01*
X184677400Y-122948200D01*
X186177400Y-122948200D01*
X186177400Y-117948200D01*
G37*
G36*
X188717400Y-117948200D02*
G01*
X187217400Y-117948200D01*
X187217400Y-122948200D01*
X188717400Y-122948200D01*
X188717400Y-117948200D01*
G37*
G36*
X178557400Y-117948200D02*
G01*
X177057400Y-117948200D01*
X177057400Y-122948200D01*
X178557400Y-122948200D01*
X178557400Y-117948200D01*
G37*
G36*
X181097400Y-117948200D02*
G01*
X179597400Y-117948200D01*
X179597400Y-122948200D01*
X181097400Y-122948200D01*
X181097400Y-117948200D01*
G37*
D10*
X176094400Y-107620200D03*
X176094400Y-113400200D03*
D11*
X177169400Y-107310200D03*
X177169400Y-108110200D03*
D12*
X177169400Y-109260200D03*
X177169400Y-110260200D03*
X177169400Y-110760200D03*
X177169400Y-111760200D03*
D11*
X177169400Y-112910200D03*
X177169400Y-113710200D03*
X177169400Y-113710200D03*
X177169400Y-112910200D03*
D12*
X177169400Y-112260200D03*
X177169400Y-111260200D03*
X177169400Y-109760200D03*
X177169400Y-108760200D03*
D11*
X177169400Y-108110200D03*
X177169400Y-107310200D03*
D13*
X176594400Y-106190200D03*
D14*
X172414400Y-106190200D03*
D13*
X176594400Y-114830200D03*
D14*
X172414400Y-114830200D03*
D15*
X195333400Y-134473200D03*
D16*
X195333400Y-133223200D03*
X195333400Y-131973200D03*
D17*
X164859500Y-141428500D03*
X164859500Y-139428500D03*
X164859500Y-145230300D03*
X164859500Y-143230300D03*
D18*
X190585400Y-137688200D03*
X190585400Y-136418200D03*
X190585400Y-135148200D03*
X190585400Y-133878200D03*
X190585400Y-132608200D03*
X190585400Y-131338200D03*
X190585400Y-130068200D03*
X190585400Y-128798200D03*
X179585400Y-132608200D03*
X179585400Y-133878200D03*
X179585400Y-135148200D03*
X179585400Y-136418200D03*
D19*
X182887400Y-118448200D03*
D20*
X182887400Y-122448200D03*
D17*
X181885400Y-107462200D03*
X181885400Y-105462200D03*
D21*
X193315400Y-106420900D03*
X193315400Y-104845900D03*
D22*
X160874000Y-143280300D03*
X160874000Y-145180300D03*
X162749000Y-144230300D03*
D23*
X173692600Y-102296600D03*
X173692600Y-104296600D03*
D24*
X196346400Y-141576200D03*
D25*
X197596400Y-141576200D03*
D26*
X172780900Y-124583200D03*
X174780900Y-124583200D03*
D27*
X162749000Y-141428500D03*
X162749000Y-139528500D03*
X160874000Y-140478500D03*
D28*
X187843400Y-101874200D03*
X185043400Y-101874200D03*
D29*
X181885400Y-109646200D03*
X181885400Y-112526200D03*
D26*
X172780900Y-137891400D03*
X174780900Y-137891400D03*
D24*
X170441400Y-141498200D03*
D25*
X171691400Y-141498200D03*
X172941400Y-141498200D03*
X174191400Y-141498200D03*
X175441400Y-141498200D03*
X176691400Y-141498200D03*
X177941400Y-141498200D03*
X179191400Y-141498200D03*
D30*
X193682400Y-129073700D03*
X193682400Y-126998700D03*
D21*
X198762400Y-128239600D03*
X198762400Y-126664600D03*
D31*
X189011400Y-106192200D03*
X185756400Y-106192200D03*
X198663400Y-106192200D03*
X195408400Y-106192200D03*
D32*
X172582400Y-132216000D03*
X176682400Y-132216000D03*
X172582400Y-133816000D03*
X176682400Y-133816000D03*
D33*
X189011400Y-109646200D03*
X186711400Y-109646200D03*
D34*
X186711400Y-115946200D03*
D33*
X184411400Y-109646200D03*
D19*
X185427400Y-118448200D03*
D20*
X185427400Y-122448200D03*
D17*
X175521400Y-120448200D03*
X175521400Y-118448200D03*
D19*
X187967400Y-118448200D03*
D20*
X187967400Y-122448200D03*
D35*
X172705900Y-126564400D03*
X174780900Y-126564400D03*
D36*
X189615400Y-101874200D03*
X192415400Y-101874200D03*
D32*
X176682400Y-130209200D03*
X172582400Y-130209200D03*
X176682400Y-128609200D03*
X172582400Y-128609200D03*
D29*
X191537400Y-109646200D03*
X191537400Y-112526200D03*
D23*
X175623000Y-102296600D03*
X175623000Y-104296600D03*
D33*
X198663400Y-109646200D03*
X196363400Y-109646200D03*
D34*
X196363400Y-115946200D03*
D33*
X194063400Y-109646200D03*
D21*
X183649400Y-106420900D03*
X183649400Y-104845900D03*
D19*
X177807400Y-118448200D03*
D20*
X177807400Y-122448200D03*
D17*
X191537400Y-107446200D03*
X191537400Y-105446200D03*
D37*
X158776100Y-140130300D03*
X158776100Y-144230300D03*
X157176100Y-140130300D03*
X157176100Y-144230300D03*
D38*
X195500000Y-121500000D03*
D19*
X180347400Y-118448200D03*
D20*
X180347400Y-122448200D03*
D24*
X183395400Y-141498200D03*
D25*
X184645400Y-141498200D03*
X185895400Y-141498200D03*
X187145400Y-141498200D03*
X188395400Y-141498200D03*
X189645400Y-141498200D03*
X190895400Y-141498200D03*
X192145400Y-141498200D03*
D35*
X172705900Y-135910200D03*
X174780900Y-135910200D03*
D39*
X201150000Y-93162000D03*
D40*
X203690000Y-93162000D03*
X201150000Y-95702000D03*
X203690000Y-95702000D03*
X201150000Y-98242000D03*
X203690000Y-98242000D03*
X201150000Y-100782000D03*
X203690000Y-100782000D03*
X201150000Y-103322000D03*
X203690000Y-103322000D03*
X201150000Y-105862000D03*
X203690000Y-105862000D03*
X201150000Y-108402000D03*
X203690000Y-108402000D03*
X201150000Y-110942000D03*
X203690000Y-110942000D03*
X201150000Y-113482000D03*
X203690000Y-113482000D03*
X201150000Y-116022000D03*
X203690000Y-116022000D03*
X201150000Y-118562000D03*
X203690000Y-118562000D03*
X201150000Y-121102000D03*
X203690000Y-121102000D03*
X201150000Y-123642000D03*
X203690000Y-123642000D03*
X201150000Y-126182000D03*
X203690000Y-126182000D03*
X201150000Y-128722000D03*
X203690000Y-128722000D03*
X201150000Y-131262000D03*
X203690000Y-131262000D03*
X201150000Y-133802000D03*
X203690000Y-133802000D03*
X201150000Y-136342000D03*
X203690000Y-136342000D03*
X201150000Y-138882000D03*
X203690000Y-138882000D03*
X201150000Y-141422000D03*
X203690000Y-141422000D03*
D41*
X205975958Y-144508558D02*
G75*
G02*
X203975958Y-146508658I-2000058J-42D01*
G01*
X198381400Y-92190200D02*
G75*
G02*
X200381400Y-90190200I2000000J0D01*
G01*
X205974864Y-92190158D02*
X205975958Y-144508558D01*
X169679400Y-101290400D02*
G75*
G02*
X171679400Y-99290400I2000000J0D01*
G01*
X155633209Y-144508599D02*
X155633210Y-139588499D01*
X169679400Y-135588500D02*
X169679400Y-101290400D01*
X171679400Y-99290400D02*
X196381400Y-99290400D01*
X157633210Y-137588500D02*
X167679400Y-137588500D01*
X200381400Y-90190200D02*
X203974864Y-90190200D01*
X155633210Y-139588499D02*
G75*
G02*
X157633210Y-137588510I1999990J-1D01*
G01*
X198381400Y-97290400D02*
G75*
G02*
X196381400Y-99290400I-2000000J0D01*
G01*
X169679400Y-135588500D02*
G75*
G02*
X167679400Y-137588500I-2000000J0D01*
G01*
X157633209Y-146508600D02*
G75*
G02*
X155633200Y-144508599I-9J2000000D01*
G01*
X198381400Y-97290400D02*
X198381400Y-92190200D01*
X203975958Y-146508600D02*
X157633209Y-146508600D01*
X203974864Y-90190200D02*
G75*
G02*
X205974900Y-92190158I36J-2000000D01*
G01*
M02*
