G04 #@! TF.GenerationSoftware,KiCad,Pcbnew,9.0.7*
G04 #@! TF.CreationDate,2026-02-01T23:57:30+01:00*
G04 #@! TF.ProjectId,CM5IO_top,434d3549-4f5f-4746-9f70-2e6b69636164,rev?*
G04 #@! TF.SameCoordinates,Original*
G04 #@! TF.FileFunction,Soldermask,Bot*
G04 #@! TF.FilePolarity,Negative*
%FSLAX46Y46*%
G04 Gerber Fmt 4.6, Leading zero omitted, Abs format (unit mm)*
G04 Created by KiCad (PCBNEW 9.0.7) date 2026-02-01 23:57:30*
%MOMM*%
%LPD*%
G01*
G04 APERTURE LIST*
G04 Aperture macros list*
%AMRoundRect*
0 Rectangle with rounded corners*
0 $1 Rounding radius*
0 $2 $3 $4 $5 $6 $7 $8 $9 X,Y pos of 4 corners*
0 Add a 4 corners polygon primitive as box body*
4,1,4,$2,$3,$4,$5,$6,$7,$8,$9,$2,$3,0*
0 Add four circle primitives for the rounded corners*
1,1,$1+$1,$2,$3*
1,1,$1+$1,$4,$5*
1,1,$1+$1,$6,$7*
1,1,$1+$1,$8,$9*
0 Add four rect primitives between the rounded corners*
20,1,$1+$1,$2,$3,$4,$5,0*
20,1,$1+$1,$4,$5,$6,$7,0*
20,1,$1+$1,$6,$7,$8,$9,0*
20,1,$1+$1,$8,$9,$2,$3,0*%
G04 Aperture macros list end*
%ADD10C,0.650000*%
%ADD11O,2.100000X1.000000*%
%ADD12O,1.800000X1.000000*%
%ADD13RoundRect,0.200000X0.450000X-0.200000X0.450000X0.200000X-0.450000X0.200000X-0.450000X-0.200000X0*%
%ADD14O,1.300000X0.800000*%
%ADD15RoundRect,0.200000X-0.200000X-0.450000X0.200000X-0.450000X0.200000X0.450000X-0.200000X0.450000X0*%
%ADD16O,0.800000X1.300000*%
%ADD17C,2.700000*%
%ADD18RoundRect,0.250000X-0.450000X0.350000X-0.450000X-0.350000X0.450000X-0.350000X0.450000X0.350000X0*%
%ADD19RoundRect,0.250000X0.350000X0.450000X-0.350000X0.450000X-0.350000X-0.450000X0.350000X-0.450000X0*%
%ADD20R,2.000000X2.000000*%
%ADD21R,1.900000X1.000000*%
%ADD22R,1.700000X1.700000*%
%ADD23C,1.700000*%
%ADD24RoundRect,0.250000X0.450000X-0.350000X0.450000X0.350000X-0.450000X0.350000X-0.450000X-0.350000X0*%
%ADD25R,1.500000X0.900000*%
%ADD26R,0.900000X1.500000*%
%ADD27C,0.600000*%
%ADD28R,3.900000X3.900000*%
%ADD29RoundRect,0.250000X-0.337500X-0.475000X0.337500X-0.475000X0.337500X0.475000X-0.337500X0.475000X0*%
%ADD30RoundRect,0.150000X0.587500X0.150000X-0.587500X0.150000X-0.587500X-0.150000X0.587500X-0.150000X0*%
%ADD31RoundRect,0.250000X-0.350000X-0.450000X0.350000X-0.450000X0.350000X0.450000X-0.350000X0.450000X0*%
G04 #@! TA.AperFunction,Profile*
%ADD32C,0.050000*%
G04 #@! TD*
G04 APERTURE END LIST*
D10*
X176094400Y-107620200D03*
X176094400Y-113400200D03*
D11*
X176594400Y-106190200D03*
D12*
X172414400Y-106190200D03*
D11*
X176594400Y-114830200D03*
D12*
X172414400Y-114830200D03*
D13*
X195333400Y-134473200D03*
D14*
X195333400Y-133223200D03*
X195333400Y-131973200D03*
D15*
X196346400Y-141576200D03*
D16*
X197596400Y-141576200D03*
D15*
X170441400Y-141498200D03*
D16*
X171691400Y-141498200D03*
X172941400Y-141498200D03*
X174191400Y-141498200D03*
X175441400Y-141498200D03*
X176691400Y-141498200D03*
X177941400Y-141498200D03*
X179191400Y-141498200D03*
D17*
X195500000Y-121500000D03*
D15*
X183395400Y-141498200D03*
D16*
X184645400Y-141498200D03*
X185895400Y-141498200D03*
X187145400Y-141498200D03*
X188395400Y-141498200D03*
X189645400Y-141498200D03*
X190895400Y-141498200D03*
X192145400Y-141498200D03*
D18*
X167266400Y-139428500D03*
X167266400Y-141428500D03*
D19*
X192844200Y-143241400D03*
X190844200Y-143241400D03*
D20*
X192234600Y-116352200D03*
D18*
X188890700Y-143241400D03*
X188890700Y-145241400D03*
D21*
X157844000Y-143454000D03*
X161144000Y-140914000D03*
D22*
X201150000Y-93162000D03*
D23*
X203690000Y-93162000D03*
X201150000Y-95702000D03*
X203690000Y-95702000D03*
X201150000Y-98242000D03*
X203690000Y-98242000D03*
X201150000Y-100782000D03*
X203690000Y-100782000D03*
X201150000Y-103322000D03*
X203690000Y-103322000D03*
X201150000Y-105862000D03*
X203690000Y-105862000D03*
X201150000Y-108402000D03*
X203690000Y-108402000D03*
X201150000Y-110942000D03*
X203690000Y-110942000D03*
X201150000Y-113482000D03*
X203690000Y-113482000D03*
X201150000Y-116022000D03*
X203690000Y-116022000D03*
X201150000Y-118562000D03*
X203690000Y-118562000D03*
X201150000Y-121102000D03*
X203690000Y-121102000D03*
X201150000Y-123642000D03*
X203690000Y-123642000D03*
X201150000Y-126182000D03*
X203690000Y-126182000D03*
X201150000Y-128722000D03*
X203690000Y-128722000D03*
X201150000Y-131262000D03*
X203690000Y-131262000D03*
X201150000Y-133802000D03*
X203690000Y-133802000D03*
X201150000Y-136342000D03*
X203690000Y-136342000D03*
X201150000Y-138882000D03*
X203690000Y-138882000D03*
X201150000Y-141422000D03*
X203690000Y-141422000D03*
D19*
X179061400Y-111907200D03*
X177061400Y-111907200D03*
D24*
X181871400Y-145292200D03*
X181871400Y-143292200D03*
D25*
X172723794Y-137029200D03*
X172723794Y-135759200D03*
X172723794Y-134489200D03*
X172723794Y-133219200D03*
X172723794Y-131949200D03*
X172723794Y-130679200D03*
X172723794Y-129409200D03*
X172723794Y-128139200D03*
X172723794Y-126869200D03*
X172723794Y-125599200D03*
X172723794Y-124329200D03*
X172723794Y-123059200D03*
X172723794Y-121789200D03*
X172723794Y-120519200D03*
D26*
X174488794Y-119269200D03*
X175758794Y-119269200D03*
X177028794Y-119269200D03*
X178298794Y-119269200D03*
X179568794Y-119269200D03*
X180838794Y-119269200D03*
X182108794Y-119269200D03*
X183378794Y-119269200D03*
X184648794Y-119269200D03*
X185918794Y-119269200D03*
X187188794Y-119269200D03*
X188458794Y-119269200D03*
D25*
X190223794Y-120519200D03*
X190223794Y-121789200D03*
X190223794Y-123059200D03*
X190223794Y-124329200D03*
X190223794Y-125599200D03*
X190223794Y-126869200D03*
X190223794Y-128139200D03*
X190223794Y-129409200D03*
X190223794Y-130679200D03*
X190223794Y-131949200D03*
X190223794Y-133219200D03*
X190223794Y-134489200D03*
X190223794Y-135759200D03*
X190223794Y-137029200D03*
D27*
X178573794Y-128609200D03*
X178573794Y-130009200D03*
X179273794Y-127909200D03*
X179273794Y-129309200D03*
X179273794Y-130709200D03*
X179973794Y-128609200D03*
D28*
X179973794Y-129309200D03*
D27*
X179973794Y-130009200D03*
X180673794Y-127909200D03*
X180673794Y-129309200D03*
X180673794Y-130709200D03*
X181373794Y-128609200D03*
X181373794Y-130009200D03*
D29*
X173848900Y-139466200D03*
X175923900Y-139466200D03*
D30*
X179816400Y-143342200D03*
X179816400Y-145242200D03*
X177941400Y-144292200D03*
D24*
X164193000Y-142583800D03*
X164193000Y-140583800D03*
D30*
X186955700Y-143291400D03*
X186955700Y-145191400D03*
X185080700Y-144241400D03*
D20*
X192232400Y-113321200D03*
X182023800Y-109646600D03*
D31*
X192149000Y-126664600D03*
X194149000Y-126664600D03*
D32*
X205975958Y-144508558D02*
G75*
G02*
X203975958Y-146508658I-2000058J-42D01*
G01*
X198381400Y-92190200D02*
G75*
G02*
X200381400Y-90190200I2000000J0D01*
G01*
X205974864Y-92190158D02*
X205975958Y-144508558D01*
X169679400Y-101290400D02*
G75*
G02*
X171679400Y-99290400I2000000J0D01*
G01*
X155633209Y-144508599D02*
X155633210Y-139588499D01*
X169679400Y-135588500D02*
X169679400Y-101290400D01*
X171679400Y-99290400D02*
X196381400Y-99290400D01*
X157633210Y-137588500D02*
X167679400Y-137588500D01*
X200381400Y-90190200D02*
X203974864Y-90190200D01*
X155633210Y-139588499D02*
G75*
G02*
X157633210Y-137588510I1999990J-1D01*
G01*
X198381400Y-97290400D02*
G75*
G02*
X196381400Y-99290400I-2000000J0D01*
G01*
X169679400Y-135588500D02*
G75*
G02*
X167679400Y-137588500I-2000000J0D01*
G01*
X157633209Y-146508600D02*
G75*
G02*
X155633200Y-144508599I-9J2000000D01*
G01*
X198381400Y-97290400D02*
X198381400Y-92190200D01*
X203975958Y-146508600D02*
X157633209Y-146508600D01*
X203974864Y-90190200D02*
G75*
G02*
X205974900Y-92190158I36J-2000000D01*
G01*
M02*
