M48
; DRILL file {KiCad 9.0.7} date 2026-02-01T23:57:33+0100
; FORMAT={-:-/ absolute / metric / decimal}
; #@! TF.CreationDate,2026-02-01T23:57:33+01:00
; #@! TF.GenerationSoftware,Kicad,Pcbnew,9.0.7
; #@! TF.FileFunction,Plated,1,2,PTH
FMAT,2
METRIC
; #@! TA.AperFunction,Plated,PTH,ComponentDrill
T1C0.200
; #@! TA.AperFunction,Plated,PTH,ViaDrill
T2C0.300
; #@! TA.AperFunction,Plated,PTH,ComponentDrill
T3C0.500
; #@! TA.AperFunction,Plated,PTH,ComponentDrill
T4C0.600
; #@! TA.AperFunction,Plated,PTH,ComponentDrill
T5C1.000
%
G90
G05
T1
X178.574Y-128.609
X178.574Y-130.009
X179.274Y-127.909
X179.274Y-129.309
X179.274Y-130.709
X179.974Y-128.609
X179.974Y-130.009
X180.674Y-127.909
X180.674Y-129.309
X180.674Y-130.709
X181.374Y-128.609
X181.374Y-130.009
T2
X157.176Y-142.256
X158.776Y-142.256
X159.519Y-141.752
X159.723Y-143.683
X159.723Y-145.765
X160.993Y-139.517
X162.72Y-138.552
X162.923Y-140.584
X163.837Y-139.466
X165.819Y-140.584
X165.996Y-142.26
X166.123Y-141.428
X168.663Y-137.942
X170.187Y-138.069
X171.305Y-126.614
X171.33Y-130.068
X171.33Y-131.719
X171.457Y-120.213
X171.457Y-121.991
X171.457Y-123.769
X171.711Y-111.272
X172.372Y-102.281
X172.727Y-139.009
X173.134Y-112.898
X173.185Y-143.073
X173.489Y-119.451
X173.693Y-101.214
X173.925Y-136.926
X174.048Y-120.619
X174.048Y-123.312
X174.048Y-127.985
X174.048Y-134.488
X174.505Y-110.618
X174.505Y-111.418
X174.607Y-129.205
X174.759Y-133.816
X175.648Y-112.161
X176.385Y-143.073
X176.791Y-123.464
X176.944Y-104.313
X177.148Y-125.599
X177.807Y-133.878
X177.807Y-135.148
X178.011Y-101.519
X178.442Y-125.623
X179.077Y-102.636
X179.191Y-139.009
X179.331Y-123.464
X179.816Y-144.292
X180.449Y-124.023
X180.449Y-125.598
X180.551Y-109.647
X181.414Y-114.219
X181.465Y-139.009
X181.49Y-141.498
X181.871Y-111.221
X181.871Y-123.464
X182.786Y-115.489
X183.395Y-108.173
X183.751Y-125.598
X183.903Y-111.221
X183.903Y-143.276
X183.954Y-101.011
X183.954Y-102.687
X184.056Y-115.895
X184.411Y-123.464
X185.764Y-145.191
X185.935Y-139.009
X186.443Y-131.338
X186.697Y-111.272
X186.697Y-114.066
X186.697Y-117.571
X186.951Y-123.464
X186.951Y-132.608
X187.586Y-133.878
X187.815Y-125.699
X187.967Y-123.515
X188.094Y-135.148
X188.272Y-108.072
X188.602Y-136.418
X188.882Y-103.449
X188.882Y-124.277
X189.11Y-137.688
X189.237Y-120.67
X189.441Y-115.895
X189.491Y-118.486
X189.644Y-111.272
X189.745Y-108.072
X190.082Y-145.241
X190.224Y-138.45
X190.304Y-104.668
X190.355Y-103.144
X190.711Y-108.427
X191.168Y-118.435
X191.269Y-114.879
X191.523Y-111.272
X191.523Y-140.228
X191.991Y-125.369
X192.031Y-124.48
X192.133Y-137.028
X192.184Y-123.591
X192.336Y-108.427
X192.539Y-106.395
X193.454Y-101.061
X193.454Y-102.738
X193.505Y-140.279
X193.555Y-137.028
X195.206Y-124.099
X195.206Y-125.877
X196.349Y-114.168
X196.4Y-117.673
X197.162Y-104.821
X197.492Y-126.665
X197.924Y-108.072
X198.077Y-101.061
X198.077Y-102.738
X198.889Y-121.051
X198.94Y-115.946
X199.397Y-108.072
X199.397Y-122.829
X199.524Y-143.53
X199.524Y-144.8
X203.461Y-143.53
X203.461Y-144.8
T3
X170.441Y-141.498
X171.691Y-141.498
X172.941Y-141.498
X174.191Y-141.498
X175.441Y-141.498
X176.691Y-141.498
X177.941Y-141.498
X179.191Y-141.498
X183.395Y-141.498
X184.645Y-141.498
X185.895Y-141.498
X187.145Y-141.498
X188.395Y-141.498
X189.645Y-141.498
X190.895Y-141.498
X192.145Y-141.498
X195.333Y-131.973
X195.333Y-133.223
X195.333Y-134.473
X196.346Y-141.576
X197.596Y-141.576
T5
X201.15Y-93.162
X201.15Y-95.702
X201.15Y-98.242
X201.15Y-100.782
X201.15Y-103.322
X201.15Y-105.862
X201.15Y-108.402
X201.15Y-110.942
X201.15Y-113.482
X201.15Y-116.022
X201.15Y-118.562
X201.15Y-121.102
X201.15Y-123.642
X201.15Y-126.182
X201.15Y-128.722
X201.15Y-131.262
X201.15Y-133.802
X201.15Y-136.342
X201.15Y-138.882
X201.15Y-141.422
X203.69Y-93.162
X203.69Y-95.702
X203.69Y-98.242
X203.69Y-100.782
X203.69Y-103.322
X203.69Y-105.862
X203.69Y-108.402
X203.69Y-110.942
X203.69Y-113.482
X203.69Y-116.022
X203.69Y-118.562
X203.69Y-121.102
X203.69Y-123.642
X203.69Y-126.182
X203.69Y-128.722
X203.69Y-131.262
X203.69Y-133.802
X203.69Y-136.342
X203.69Y-138.882
X203.69Y-141.422
T4
G00X172.814Y-106.19
M15
G01X172.014Y-106.19
M16
G05
G00X172.814Y-114.83
M15
G01X172.014Y-114.83
M16
G05
G00X177.144Y-106.19
M15
G01X176.044Y-106.19
M16
G05
G00X177.144Y-114.83
M15
G01X176.044Y-114.83
M16
G05
M30
