G04 #@! TF.GenerationSoftware,KiCad,Pcbnew,9.0.7*
G04 #@! TF.CreationDate,2026-02-01T23:57:30+01:00*
G04 #@! TF.ProjectId,CM5IO_top,434d3549-4f5f-4746-9f70-2e6b69636164,rev?*
G04 #@! TF.SameCoordinates,Original*
G04 #@! TF.FileFunction,Legend,Top*
G04 #@! TF.FilePolarity,Positive*
%FSLAX46Y46*%
G04 Gerber Fmt 4.6, Leading zero omitted, Abs format (unit mm)*
G04 Created by KiCad (PCBNEW 9.0.7) date 2026-02-01 23:57:30*
%MOMM*%
%LPD*%
G01*
G04 APERTURE LIST*
%ADD10C,0.100000*%
%ADD11C,0.200000*%
%ADD12C,0.150000*%
%ADD13C,0.254000*%
%ADD14C,0.120000*%
G04 #@! TA.AperFunction,Profile*
%ADD15C,0.050000*%
G04 #@! TD*
G04 APERTURE END LIST*
D10*
X193301400Y-104058600D02*
X193301400Y-103601400D01*
X183649400Y-104007800D02*
X183801800Y-103855400D01*
X183497000Y-103855400D02*
X183649400Y-104007800D01*
X183649400Y-104007800D02*
X183649400Y-103550600D01*
D11*
X176664400Y-124988200D02*
X176664400Y-124099200D01*
X157995400Y-139212200D02*
X158808200Y-138399400D01*
D10*
X193301400Y-103601400D02*
X194165000Y-102737800D01*
X183649400Y-103550600D02*
X182735000Y-102636200D01*
D11*
X157995400Y-139212200D02*
X158249400Y-139212200D01*
D10*
X193301400Y-104058600D02*
X193453800Y-103906200D01*
D11*
X189237400Y-124099200D02*
X189237400Y-124988200D01*
X157995400Y-139212200D02*
X157995400Y-138958200D01*
X189237400Y-124988200D02*
X176664400Y-124988200D01*
X165717000Y-138399400D02*
X158808200Y-138399400D01*
D10*
X193149000Y-103906200D02*
X193301400Y-104058600D01*
D11*
X177752161Y-100810247D02*
X177275971Y-100810247D01*
X177275971Y-100810247D02*
X177275971Y-99810247D01*
X178085495Y-100286437D02*
X178418828Y-100286437D01*
X178561685Y-100810247D02*
X178085495Y-100810247D01*
X178085495Y-100810247D02*
X178085495Y-99810247D01*
X178085495Y-99810247D02*
X178561685Y-99810247D01*
X178990257Y-100810247D02*
X178990257Y-99810247D01*
X178990257Y-99810247D02*
X179228352Y-99810247D01*
X179228352Y-99810247D02*
X179371209Y-99857866D01*
X179371209Y-99857866D02*
X179466447Y-99953104D01*
X179466447Y-99953104D02*
X179514066Y-100048342D01*
X179514066Y-100048342D02*
X179561685Y-100238818D01*
X179561685Y-100238818D02*
X179561685Y-100381675D01*
X179561685Y-100381675D02*
X179514066Y-100572151D01*
X179514066Y-100572151D02*
X179466447Y-100667389D01*
X179466447Y-100667389D02*
X179371209Y-100762628D01*
X179371209Y-100762628D02*
X179228352Y-100810247D01*
X179228352Y-100810247D02*
X178990257Y-100810247D01*
X180752162Y-100810247D02*
X180752162Y-99810247D01*
X180752162Y-99810247D02*
X181133114Y-99810247D01*
X181133114Y-99810247D02*
X181228352Y-99857866D01*
X181228352Y-99857866D02*
X181275971Y-99905485D01*
X181275971Y-99905485D02*
X181323590Y-100000723D01*
X181323590Y-100000723D02*
X181323590Y-100143580D01*
X181323590Y-100143580D02*
X181275971Y-100238818D01*
X181275971Y-100238818D02*
X181228352Y-100286437D01*
X181228352Y-100286437D02*
X181133114Y-100334056D01*
X181133114Y-100334056D02*
X180752162Y-100334056D01*
X181656924Y-99810247D02*
X181895019Y-100810247D01*
X181895019Y-100810247D02*
X182085495Y-100095961D01*
X182085495Y-100095961D02*
X182275971Y-100810247D01*
X182275971Y-100810247D02*
X182514067Y-99810247D01*
X183466447Y-100810247D02*
X183133114Y-100334056D01*
X182895019Y-100810247D02*
X182895019Y-99810247D01*
X182895019Y-99810247D02*
X183275971Y-99810247D01*
X183275971Y-99810247D02*
X183371209Y-99857866D01*
X183371209Y-99857866D02*
X183418828Y-99905485D01*
X183418828Y-99905485D02*
X183466447Y-100000723D01*
X183466447Y-100000723D02*
X183466447Y-100143580D01*
X183466447Y-100143580D02*
X183418828Y-100238818D01*
X183418828Y-100238818D02*
X183371209Y-100286437D01*
X183371209Y-100286437D02*
X183275971Y-100334056D01*
X183275971Y-100334056D02*
X182895019Y-100334056D01*
X178204543Y-101896381D02*
X178537876Y-101896381D01*
X178680733Y-102420191D02*
X178204543Y-102420191D01*
X178204543Y-102420191D02*
X178204543Y-101420191D01*
X178204543Y-101420191D02*
X178680733Y-101420191D01*
X179061686Y-102372572D02*
X179204543Y-102420191D01*
X179204543Y-102420191D02*
X179442638Y-102420191D01*
X179442638Y-102420191D02*
X179537876Y-102372572D01*
X179537876Y-102372572D02*
X179585495Y-102324952D01*
X179585495Y-102324952D02*
X179633114Y-102229714D01*
X179633114Y-102229714D02*
X179633114Y-102134476D01*
X179633114Y-102134476D02*
X179585495Y-102039238D01*
X179585495Y-102039238D02*
X179537876Y-101991619D01*
X179537876Y-101991619D02*
X179442638Y-101944000D01*
X179442638Y-101944000D02*
X179252162Y-101896381D01*
X179252162Y-101896381D02*
X179156924Y-101848762D01*
X179156924Y-101848762D02*
X179109305Y-101801143D01*
X179109305Y-101801143D02*
X179061686Y-101705905D01*
X179061686Y-101705905D02*
X179061686Y-101610667D01*
X179061686Y-101610667D02*
X179109305Y-101515429D01*
X179109305Y-101515429D02*
X179156924Y-101467810D01*
X179156924Y-101467810D02*
X179252162Y-101420191D01*
X179252162Y-101420191D02*
X179490257Y-101420191D01*
X179490257Y-101420191D02*
X179633114Y-101467810D01*
X180061686Y-102420191D02*
X180061686Y-101420191D01*
X180061686Y-101420191D02*
X180442638Y-101420191D01*
X180442638Y-101420191D02*
X180537876Y-101467810D01*
X180537876Y-101467810D02*
X180585495Y-101515429D01*
X180585495Y-101515429D02*
X180633114Y-101610667D01*
X180633114Y-101610667D02*
X180633114Y-101753524D01*
X180633114Y-101753524D02*
X180585495Y-101848762D01*
X180585495Y-101848762D02*
X180537876Y-101896381D01*
X180537876Y-101896381D02*
X180442638Y-101944000D01*
X180442638Y-101944000D02*
X180061686Y-101944000D01*
X180966448Y-101420191D02*
X181585495Y-101420191D01*
X181585495Y-101420191D02*
X181252162Y-101801143D01*
X181252162Y-101801143D02*
X181395019Y-101801143D01*
X181395019Y-101801143D02*
X181490257Y-101848762D01*
X181490257Y-101848762D02*
X181537876Y-101896381D01*
X181537876Y-101896381D02*
X181585495Y-101991619D01*
X181585495Y-101991619D02*
X181585495Y-102229714D01*
X181585495Y-102229714D02*
X181537876Y-102324952D01*
X181537876Y-102324952D02*
X181490257Y-102372572D01*
X181490257Y-102372572D02*
X181395019Y-102420191D01*
X181395019Y-102420191D02*
X181109305Y-102420191D01*
X181109305Y-102420191D02*
X181014067Y-102372572D01*
X181014067Y-102372572D02*
X180966448Y-102324952D01*
X181966448Y-101515429D02*
X182014067Y-101467810D01*
X182014067Y-101467810D02*
X182109305Y-101420191D01*
X182109305Y-101420191D02*
X182347400Y-101420191D01*
X182347400Y-101420191D02*
X182442638Y-101467810D01*
X182442638Y-101467810D02*
X182490257Y-101515429D01*
X182490257Y-101515429D02*
X182537876Y-101610667D01*
X182537876Y-101610667D02*
X182537876Y-101705905D01*
X182537876Y-101705905D02*
X182490257Y-101848762D01*
X182490257Y-101848762D02*
X181918829Y-102420191D01*
X181918829Y-102420191D02*
X182537876Y-102420191D01*
X185342162Y-123913990D02*
X185246924Y-123866371D01*
X185246924Y-123866371D02*
X185199305Y-123818752D01*
X185199305Y-123818752D02*
X185151686Y-123723514D01*
X185151686Y-123723514D02*
X185151686Y-123675895D01*
X185151686Y-123675895D02*
X185199305Y-123580657D01*
X185199305Y-123580657D02*
X185246924Y-123533038D01*
X185246924Y-123533038D02*
X185342162Y-123485419D01*
X185342162Y-123485419D02*
X185532638Y-123485419D01*
X185532638Y-123485419D02*
X185627876Y-123533038D01*
X185627876Y-123533038D02*
X185675495Y-123580657D01*
X185675495Y-123580657D02*
X185723114Y-123675895D01*
X185723114Y-123675895D02*
X185723114Y-123723514D01*
X185723114Y-123723514D02*
X185675495Y-123818752D01*
X185675495Y-123818752D02*
X185627876Y-123866371D01*
X185627876Y-123866371D02*
X185532638Y-123913990D01*
X185532638Y-123913990D02*
X185342162Y-123913990D01*
X185342162Y-123913990D02*
X185246924Y-123961609D01*
X185246924Y-123961609D02*
X185199305Y-124009228D01*
X185199305Y-124009228D02*
X185151686Y-124104466D01*
X185151686Y-124104466D02*
X185151686Y-124294942D01*
X185151686Y-124294942D02*
X185199305Y-124390180D01*
X185199305Y-124390180D02*
X185246924Y-124437800D01*
X185246924Y-124437800D02*
X185342162Y-124485419D01*
X185342162Y-124485419D02*
X185532638Y-124485419D01*
X185532638Y-124485419D02*
X185627876Y-124437800D01*
X185627876Y-124437800D02*
X185675495Y-124390180D01*
X185675495Y-124390180D02*
X185723114Y-124294942D01*
X185723114Y-124294942D02*
X185723114Y-124104466D01*
X185723114Y-124104466D02*
X185675495Y-124009228D01*
X185675495Y-124009228D02*
X185627876Y-123961609D01*
X185627876Y-123961609D02*
X185532638Y-123913990D01*
X187786923Y-124485419D02*
X187215495Y-124485419D01*
X187501209Y-124485419D02*
X187501209Y-123485419D01*
X187501209Y-123485419D02*
X187405971Y-123628276D01*
X187405971Y-123628276D02*
X187310733Y-123723514D01*
X187310733Y-123723514D02*
X187215495Y-123771133D01*
X188644066Y-123485419D02*
X188453590Y-123485419D01*
X188453590Y-123485419D02*
X188358352Y-123533038D01*
X188358352Y-123533038D02*
X188310733Y-123580657D01*
X188310733Y-123580657D02*
X188215495Y-123723514D01*
X188215495Y-123723514D02*
X188167876Y-123913990D01*
X188167876Y-123913990D02*
X188167876Y-124294942D01*
X188167876Y-124294942D02*
X188215495Y-124390180D01*
X188215495Y-124390180D02*
X188263114Y-124437800D01*
X188263114Y-124437800D02*
X188358352Y-124485419D01*
X188358352Y-124485419D02*
X188548828Y-124485419D01*
X188548828Y-124485419D02*
X188644066Y-124437800D01*
X188644066Y-124437800D02*
X188691685Y-124390180D01*
X188691685Y-124390180D02*
X188739304Y-124294942D01*
X188739304Y-124294942D02*
X188739304Y-124056847D01*
X188739304Y-124056847D02*
X188691685Y-123961609D01*
X188691685Y-123961609D02*
X188644066Y-123913990D01*
X188644066Y-123913990D02*
X188548828Y-123866371D01*
X188548828Y-123866371D02*
X188358352Y-123866371D01*
X188358352Y-123866371D02*
X188263114Y-123913990D01*
X188263114Y-123913990D02*
X188215495Y-123961609D01*
X188215495Y-123961609D02*
X188167876Y-124056847D01*
X196052263Y-127194375D02*
X195576073Y-127194375D01*
X195576073Y-127194375D02*
X195576073Y-126194375D01*
X196385597Y-126670565D02*
X196718930Y-126670565D01*
X196861787Y-127194375D02*
X196385597Y-127194375D01*
X196385597Y-127194375D02*
X196385597Y-126194375D01*
X196385597Y-126194375D02*
X196861787Y-126194375D01*
X197290359Y-127194375D02*
X197290359Y-126194375D01*
X197290359Y-126194375D02*
X197528454Y-126194375D01*
X197528454Y-126194375D02*
X197671311Y-126241994D01*
X197671311Y-126241994D02*
X197766549Y-126337232D01*
X197766549Y-126337232D02*
X197814168Y-126432470D01*
X197814168Y-126432470D02*
X197861787Y-126622946D01*
X197861787Y-126622946D02*
X197861787Y-126765803D01*
X197861787Y-126765803D02*
X197814168Y-126956279D01*
X197814168Y-126956279D02*
X197766549Y-127051517D01*
X197766549Y-127051517D02*
X197671311Y-127146756D01*
X197671311Y-127146756D02*
X197528454Y-127194375D01*
X197528454Y-127194375D02*
X197290359Y-127194375D01*
X195528454Y-128518604D02*
X196004644Y-128518604D01*
X195433216Y-128804319D02*
X195766549Y-127804319D01*
X195766549Y-127804319D02*
X196099882Y-128804319D01*
X197004644Y-128709080D02*
X196957025Y-128756700D01*
X196957025Y-128756700D02*
X196814168Y-128804319D01*
X196814168Y-128804319D02*
X196718930Y-128804319D01*
X196718930Y-128804319D02*
X196576073Y-128756700D01*
X196576073Y-128756700D02*
X196480835Y-128661461D01*
X196480835Y-128661461D02*
X196433216Y-128566223D01*
X196433216Y-128566223D02*
X196385597Y-128375747D01*
X196385597Y-128375747D02*
X196385597Y-128232890D01*
X196385597Y-128232890D02*
X196433216Y-128042414D01*
X196433216Y-128042414D02*
X196480835Y-127947176D01*
X196480835Y-127947176D02*
X196576073Y-127851938D01*
X196576073Y-127851938D02*
X196718930Y-127804319D01*
X196718930Y-127804319D02*
X196814168Y-127804319D01*
X196814168Y-127804319D02*
X196957025Y-127851938D01*
X196957025Y-127851938D02*
X197004644Y-127899557D01*
X197290359Y-127804319D02*
X197861787Y-127804319D01*
X197576073Y-128804319D02*
X197576073Y-127804319D01*
X171699619Y-133563619D02*
X171223428Y-133896952D01*
X171699619Y-134135047D02*
X170699619Y-134135047D01*
X170699619Y-134135047D02*
X170699619Y-133754095D01*
X170699619Y-133754095D02*
X170747238Y-133658857D01*
X170747238Y-133658857D02*
X170794857Y-133611238D01*
X170794857Y-133611238D02*
X170890095Y-133563619D01*
X170890095Y-133563619D02*
X171032952Y-133563619D01*
X171032952Y-133563619D02*
X171128190Y-133611238D01*
X171128190Y-133611238D02*
X171175809Y-133658857D01*
X171175809Y-133658857D02*
X171223428Y-133754095D01*
X171223428Y-133754095D02*
X171223428Y-134135047D01*
X171652000Y-133182666D02*
X171699619Y-133039809D01*
X171699619Y-133039809D02*
X171699619Y-132801714D01*
X171699619Y-132801714D02*
X171652000Y-132706476D01*
X171652000Y-132706476D02*
X171604380Y-132658857D01*
X171604380Y-132658857D02*
X171509142Y-132611238D01*
X171509142Y-132611238D02*
X171413904Y-132611238D01*
X171413904Y-132611238D02*
X171318666Y-132658857D01*
X171318666Y-132658857D02*
X171271047Y-132706476D01*
X171271047Y-132706476D02*
X171223428Y-132801714D01*
X171223428Y-132801714D02*
X171175809Y-132992190D01*
X171175809Y-132992190D02*
X171128190Y-133087428D01*
X171128190Y-133087428D02*
X171080571Y-133135047D01*
X171080571Y-133135047D02*
X170985333Y-133182666D01*
X170985333Y-133182666D02*
X170890095Y-133182666D01*
X170890095Y-133182666D02*
X170794857Y-133135047D01*
X170794857Y-133135047D02*
X170747238Y-133087428D01*
X170747238Y-133087428D02*
X170699619Y-132992190D01*
X170699619Y-132992190D02*
X170699619Y-132754095D01*
X170699619Y-132754095D02*
X170747238Y-132611238D01*
X170699619Y-132325523D02*
X170699619Y-131754095D01*
X171699619Y-132039809D02*
X170699619Y-132039809D01*
X178103114Y-124485419D02*
X177531686Y-124485419D01*
X177817400Y-124485419D02*
X177817400Y-123485419D01*
X177817400Y-123485419D02*
X177722162Y-123628276D01*
X177722162Y-123628276D02*
X177626924Y-123723514D01*
X177626924Y-123723514D02*
X177531686Y-123771133D01*
X180071686Y-123580657D02*
X180119305Y-123533038D01*
X180119305Y-123533038D02*
X180214543Y-123485419D01*
X180214543Y-123485419D02*
X180452638Y-123485419D01*
X180452638Y-123485419D02*
X180547876Y-123533038D01*
X180547876Y-123533038D02*
X180595495Y-123580657D01*
X180595495Y-123580657D02*
X180643114Y-123675895D01*
X180643114Y-123675895D02*
X180643114Y-123771133D01*
X180643114Y-123771133D02*
X180595495Y-123913990D01*
X180595495Y-123913990D02*
X180024067Y-124485419D01*
X180024067Y-124485419D02*
X180643114Y-124485419D01*
X179498519Y-126095304D02*
X179974709Y-126095304D01*
X179403281Y-126381019D02*
X179736614Y-125381019D01*
X179736614Y-125381019D02*
X180069947Y-126381019D01*
X180403281Y-126381019D02*
X180403281Y-125381019D01*
X180403281Y-125381019D02*
X180641376Y-125381019D01*
X180641376Y-125381019D02*
X180784233Y-125428638D01*
X180784233Y-125428638D02*
X180879471Y-125523876D01*
X180879471Y-125523876D02*
X180927090Y-125619114D01*
X180927090Y-125619114D02*
X180974709Y-125809590D01*
X180974709Y-125809590D02*
X180974709Y-125952447D01*
X180974709Y-125952447D02*
X180927090Y-126142923D01*
X180927090Y-126142923D02*
X180879471Y-126238161D01*
X180879471Y-126238161D02*
X180784233Y-126333400D01*
X180784233Y-126333400D02*
X180641376Y-126381019D01*
X180641376Y-126381019D02*
X180403281Y-126381019D01*
X181403281Y-126381019D02*
X181403281Y-125381019D01*
X181403281Y-125381019D02*
X181641376Y-125381019D01*
X181641376Y-125381019D02*
X181784233Y-125428638D01*
X181784233Y-125428638D02*
X181879471Y-125523876D01*
X181879471Y-125523876D02*
X181927090Y-125619114D01*
X181927090Y-125619114D02*
X181974709Y-125809590D01*
X181974709Y-125809590D02*
X181974709Y-125952447D01*
X181974709Y-125952447D02*
X181927090Y-126142923D01*
X181927090Y-126142923D02*
X181879471Y-126238161D01*
X181879471Y-126238161D02*
X181784233Y-126333400D01*
X181784233Y-126333400D02*
X181641376Y-126381019D01*
X181641376Y-126381019D02*
X181403281Y-126381019D01*
X182974709Y-126381019D02*
X182641376Y-125904828D01*
X182403281Y-126381019D02*
X182403281Y-125381019D01*
X182403281Y-125381019D02*
X182784233Y-125381019D01*
X182784233Y-125381019D02*
X182879471Y-125428638D01*
X182879471Y-125428638D02*
X182927090Y-125476257D01*
X182927090Y-125476257D02*
X182974709Y-125571495D01*
X182974709Y-125571495D02*
X182974709Y-125714352D01*
X182974709Y-125714352D02*
X182927090Y-125809590D01*
X182927090Y-125809590D02*
X182879471Y-125857209D01*
X182879471Y-125857209D02*
X182784233Y-125904828D01*
X182784233Y-125904828D02*
X182403281Y-125904828D01*
X184117567Y-126333400D02*
X184260424Y-126381019D01*
X184260424Y-126381019D02*
X184498519Y-126381019D01*
X184498519Y-126381019D02*
X184593757Y-126333400D01*
X184593757Y-126333400D02*
X184641376Y-126285780D01*
X184641376Y-126285780D02*
X184688995Y-126190542D01*
X184688995Y-126190542D02*
X184688995Y-126095304D01*
X184688995Y-126095304D02*
X184641376Y-126000066D01*
X184641376Y-126000066D02*
X184593757Y-125952447D01*
X184593757Y-125952447D02*
X184498519Y-125904828D01*
X184498519Y-125904828D02*
X184308043Y-125857209D01*
X184308043Y-125857209D02*
X184212805Y-125809590D01*
X184212805Y-125809590D02*
X184165186Y-125761971D01*
X184165186Y-125761971D02*
X184117567Y-125666733D01*
X184117567Y-125666733D02*
X184117567Y-125571495D01*
X184117567Y-125571495D02*
X184165186Y-125476257D01*
X184165186Y-125476257D02*
X184212805Y-125428638D01*
X184212805Y-125428638D02*
X184308043Y-125381019D01*
X184308043Y-125381019D02*
X184546138Y-125381019D01*
X184546138Y-125381019D02*
X184688995Y-125428638D01*
X185117567Y-125857209D02*
X185450900Y-125857209D01*
X185593757Y-126381019D02*
X185117567Y-126381019D01*
X185117567Y-126381019D02*
X185117567Y-125381019D01*
X185117567Y-125381019D02*
X185593757Y-125381019D01*
X186498519Y-126381019D02*
X186022329Y-126381019D01*
X186022329Y-126381019D02*
X186022329Y-125381019D01*
X165993552Y-138876219D02*
X165993552Y-137876219D01*
X165993552Y-137876219D02*
X166374504Y-137876219D01*
X166374504Y-137876219D02*
X166469742Y-137923838D01*
X166469742Y-137923838D02*
X166517361Y-137971457D01*
X166517361Y-137971457D02*
X166564980Y-138066695D01*
X166564980Y-138066695D02*
X166564980Y-138209552D01*
X166564980Y-138209552D02*
X166517361Y-138304790D01*
X166517361Y-138304790D02*
X166469742Y-138352409D01*
X166469742Y-138352409D02*
X166374504Y-138400028D01*
X166374504Y-138400028D02*
X165993552Y-138400028D01*
X166945933Y-138828600D02*
X167088790Y-138876219D01*
X167088790Y-138876219D02*
X167326885Y-138876219D01*
X167326885Y-138876219D02*
X167422123Y-138828600D01*
X167422123Y-138828600D02*
X167469742Y-138780980D01*
X167469742Y-138780980D02*
X167517361Y-138685742D01*
X167517361Y-138685742D02*
X167517361Y-138590504D01*
X167517361Y-138590504D02*
X167469742Y-138495266D01*
X167469742Y-138495266D02*
X167422123Y-138447647D01*
X167422123Y-138447647D02*
X167326885Y-138400028D01*
X167326885Y-138400028D02*
X167136409Y-138352409D01*
X167136409Y-138352409D02*
X167041171Y-138304790D01*
X167041171Y-138304790D02*
X166993552Y-138257171D01*
X166993552Y-138257171D02*
X166945933Y-138161933D01*
X166945933Y-138161933D02*
X166945933Y-138066695D01*
X166945933Y-138066695D02*
X166993552Y-137971457D01*
X166993552Y-137971457D02*
X167041171Y-137923838D01*
X167041171Y-137923838D02*
X167136409Y-137876219D01*
X167136409Y-137876219D02*
X167374504Y-137876219D01*
X167374504Y-137876219D02*
X167517361Y-137923838D01*
X167945933Y-137876219D02*
X167945933Y-138685742D01*
X167945933Y-138685742D02*
X167993552Y-138780980D01*
X167993552Y-138780980D02*
X168041171Y-138828600D01*
X168041171Y-138828600D02*
X168136409Y-138876219D01*
X168136409Y-138876219D02*
X168326885Y-138876219D01*
X168326885Y-138876219D02*
X168422123Y-138828600D01*
X168422123Y-138828600D02*
X168469742Y-138780980D01*
X168469742Y-138780980D02*
X168517361Y-138685742D01*
X168517361Y-138685742D02*
X168517361Y-137876219D01*
X168755457Y-138971457D02*
X169517361Y-138971457D01*
X169755457Y-138352409D02*
X170088790Y-138352409D01*
X170231647Y-138876219D02*
X169755457Y-138876219D01*
X169755457Y-138876219D02*
X169755457Y-137876219D01*
X169755457Y-137876219D02*
X170231647Y-137876219D01*
X170660219Y-138876219D02*
X170660219Y-137876219D01*
X170660219Y-137876219D02*
X171231647Y-138876219D01*
X171231647Y-138876219D02*
X171231647Y-137876219D01*
X196846073Y-132870447D02*
X196846073Y-131870447D01*
X196846073Y-131870447D02*
X197084168Y-131870447D01*
X197084168Y-131870447D02*
X197227025Y-131918066D01*
X197227025Y-131918066D02*
X197322263Y-132013304D01*
X197322263Y-132013304D02*
X197369882Y-132108542D01*
X197369882Y-132108542D02*
X197417501Y-132299018D01*
X197417501Y-132299018D02*
X197417501Y-132441875D01*
X197417501Y-132441875D02*
X197369882Y-132632351D01*
X197369882Y-132632351D02*
X197322263Y-132727589D01*
X197322263Y-132727589D02*
X197227025Y-132822828D01*
X197227025Y-132822828D02*
X197084168Y-132870447D01*
X197084168Y-132870447D02*
X196846073Y-132870447D01*
X198179406Y-132346637D02*
X198322263Y-132394256D01*
X198322263Y-132394256D02*
X198369882Y-132441875D01*
X198369882Y-132441875D02*
X198417501Y-132537113D01*
X198417501Y-132537113D02*
X198417501Y-132679970D01*
X198417501Y-132679970D02*
X198369882Y-132775208D01*
X198369882Y-132775208D02*
X198322263Y-132822828D01*
X198322263Y-132822828D02*
X198227025Y-132870447D01*
X198227025Y-132870447D02*
X197846073Y-132870447D01*
X197846073Y-132870447D02*
X197846073Y-131870447D01*
X197846073Y-131870447D02*
X198179406Y-131870447D01*
X198179406Y-131870447D02*
X198274644Y-131918066D01*
X198274644Y-131918066D02*
X198322263Y-131965685D01*
X198322263Y-131965685D02*
X198369882Y-132060923D01*
X198369882Y-132060923D02*
X198369882Y-132156161D01*
X198369882Y-132156161D02*
X198322263Y-132251399D01*
X198322263Y-132251399D02*
X198274644Y-132299018D01*
X198274644Y-132299018D02*
X198179406Y-132346637D01*
X198179406Y-132346637D02*
X197846073Y-132346637D01*
X199369882Y-131918066D02*
X199274644Y-131870447D01*
X199274644Y-131870447D02*
X199131787Y-131870447D01*
X199131787Y-131870447D02*
X198988930Y-131918066D01*
X198988930Y-131918066D02*
X198893692Y-132013304D01*
X198893692Y-132013304D02*
X198846073Y-132108542D01*
X198846073Y-132108542D02*
X198798454Y-132299018D01*
X198798454Y-132299018D02*
X198798454Y-132441875D01*
X198798454Y-132441875D02*
X198846073Y-132632351D01*
X198846073Y-132632351D02*
X198893692Y-132727589D01*
X198893692Y-132727589D02*
X198988930Y-132822828D01*
X198988930Y-132822828D02*
X199131787Y-132870447D01*
X199131787Y-132870447D02*
X199227025Y-132870447D01*
X199227025Y-132870447D02*
X199369882Y-132822828D01*
X199369882Y-132822828D02*
X199417501Y-132775208D01*
X199417501Y-132775208D02*
X199417501Y-132441875D01*
X199417501Y-132441875D02*
X199227025Y-132441875D01*
X196846073Y-133480391D02*
X196846073Y-134289914D01*
X196846073Y-134289914D02*
X196893692Y-134385152D01*
X196893692Y-134385152D02*
X196941311Y-134432772D01*
X196941311Y-134432772D02*
X197036549Y-134480391D01*
X197036549Y-134480391D02*
X197227025Y-134480391D01*
X197227025Y-134480391D02*
X197322263Y-134432772D01*
X197322263Y-134432772D02*
X197369882Y-134385152D01*
X197369882Y-134385152D02*
X197417501Y-134289914D01*
X197417501Y-134289914D02*
X197417501Y-133480391D01*
X197846073Y-134194676D02*
X198322263Y-134194676D01*
X197750835Y-134480391D02*
X198084168Y-133480391D01*
X198084168Y-133480391D02*
X198417501Y-134480391D01*
X199322263Y-134480391D02*
X198988930Y-134004200D01*
X198750835Y-134480391D02*
X198750835Y-133480391D01*
X198750835Y-133480391D02*
X199131787Y-133480391D01*
X199131787Y-133480391D02*
X199227025Y-133528010D01*
X199227025Y-133528010D02*
X199274644Y-133575629D01*
X199274644Y-133575629D02*
X199322263Y-133670867D01*
X199322263Y-133670867D02*
X199322263Y-133813724D01*
X199322263Y-133813724D02*
X199274644Y-133908962D01*
X199274644Y-133908962D02*
X199227025Y-133956581D01*
X199227025Y-133956581D02*
X199131787Y-134004200D01*
X199131787Y-134004200D02*
X198750835Y-134004200D01*
X199607978Y-133480391D02*
X200179406Y-133480391D01*
X199893692Y-134480391D02*
X199893692Y-133480391D01*
X170840209Y-139902609D02*
X171173542Y-139902609D01*
X171316399Y-140426419D02*
X170840209Y-140426419D01*
X170840209Y-140426419D02*
X170840209Y-139426419D01*
X170840209Y-139426419D02*
X171316399Y-139426419D01*
X171697352Y-140378800D02*
X171840209Y-140426419D01*
X171840209Y-140426419D02*
X172078304Y-140426419D01*
X172078304Y-140426419D02*
X172173542Y-140378800D01*
X172173542Y-140378800D02*
X172221161Y-140331180D01*
X172221161Y-140331180D02*
X172268780Y-140235942D01*
X172268780Y-140235942D02*
X172268780Y-140140704D01*
X172268780Y-140140704D02*
X172221161Y-140045466D01*
X172221161Y-140045466D02*
X172173542Y-139997847D01*
X172173542Y-139997847D02*
X172078304Y-139950228D01*
X172078304Y-139950228D02*
X171887828Y-139902609D01*
X171887828Y-139902609D02*
X171792590Y-139854990D01*
X171792590Y-139854990D02*
X171744971Y-139807371D01*
X171744971Y-139807371D02*
X171697352Y-139712133D01*
X171697352Y-139712133D02*
X171697352Y-139616895D01*
X171697352Y-139616895D02*
X171744971Y-139521657D01*
X171744971Y-139521657D02*
X171792590Y-139474038D01*
X171792590Y-139474038D02*
X171887828Y-139426419D01*
X171887828Y-139426419D02*
X172125923Y-139426419D01*
X172125923Y-139426419D02*
X172268780Y-139474038D01*
X173268780Y-140331180D02*
X173221161Y-140378800D01*
X173221161Y-140378800D02*
X173078304Y-140426419D01*
X173078304Y-140426419D02*
X172983066Y-140426419D01*
X172983066Y-140426419D02*
X172840209Y-140378800D01*
X172840209Y-140378800D02*
X172744971Y-140283561D01*
X172744971Y-140283561D02*
X172697352Y-140188323D01*
X172697352Y-140188323D02*
X172649733Y-139997847D01*
X172649733Y-139997847D02*
X172649733Y-139854990D01*
X172649733Y-139854990D02*
X172697352Y-139664514D01*
X172697352Y-139664514D02*
X172744971Y-139569276D01*
X172744971Y-139569276D02*
X172840209Y-139474038D01*
X172840209Y-139474038D02*
X172983066Y-139426419D01*
X172983066Y-139426419D02*
X173078304Y-139426419D01*
X173078304Y-139426419D02*
X173221161Y-139474038D01*
X173221161Y-139474038D02*
X173268780Y-139521657D01*
X174459257Y-140426419D02*
X174459257Y-139426419D01*
X174459257Y-139426419D02*
X174697352Y-139426419D01*
X174697352Y-139426419D02*
X174840209Y-139474038D01*
X174840209Y-139474038D02*
X174935447Y-139569276D01*
X174935447Y-139569276D02*
X174983066Y-139664514D01*
X174983066Y-139664514D02*
X175030685Y-139854990D01*
X175030685Y-139854990D02*
X175030685Y-139997847D01*
X175030685Y-139997847D02*
X174983066Y-140188323D01*
X174983066Y-140188323D02*
X174935447Y-140283561D01*
X174935447Y-140283561D02*
X174840209Y-140378800D01*
X174840209Y-140378800D02*
X174697352Y-140426419D01*
X174697352Y-140426419D02*
X174459257Y-140426419D01*
X175411638Y-140378800D02*
X175554495Y-140426419D01*
X175554495Y-140426419D02*
X175792590Y-140426419D01*
X175792590Y-140426419D02*
X175887828Y-140378800D01*
X175887828Y-140378800D02*
X175935447Y-140331180D01*
X175935447Y-140331180D02*
X175983066Y-140235942D01*
X175983066Y-140235942D02*
X175983066Y-140140704D01*
X175983066Y-140140704D02*
X175935447Y-140045466D01*
X175935447Y-140045466D02*
X175887828Y-139997847D01*
X175887828Y-139997847D02*
X175792590Y-139950228D01*
X175792590Y-139950228D02*
X175602114Y-139902609D01*
X175602114Y-139902609D02*
X175506876Y-139854990D01*
X175506876Y-139854990D02*
X175459257Y-139807371D01*
X175459257Y-139807371D02*
X175411638Y-139712133D01*
X175411638Y-139712133D02*
X175411638Y-139616895D01*
X175411638Y-139616895D02*
X175459257Y-139521657D01*
X175459257Y-139521657D02*
X175506876Y-139474038D01*
X175506876Y-139474038D02*
X175602114Y-139426419D01*
X175602114Y-139426419D02*
X175840209Y-139426419D01*
X175840209Y-139426419D02*
X175983066Y-139474038D01*
X176411638Y-140426419D02*
X176411638Y-139426419D01*
X176411638Y-139902609D02*
X176983066Y-139902609D01*
X176983066Y-140426419D02*
X176983066Y-139426419D01*
X177649733Y-139426419D02*
X177840209Y-139426419D01*
X177840209Y-139426419D02*
X177935447Y-139474038D01*
X177935447Y-139474038D02*
X178030685Y-139569276D01*
X178030685Y-139569276D02*
X178078304Y-139759752D01*
X178078304Y-139759752D02*
X178078304Y-140093085D01*
X178078304Y-140093085D02*
X178030685Y-140283561D01*
X178030685Y-140283561D02*
X177935447Y-140378800D01*
X177935447Y-140378800D02*
X177840209Y-140426419D01*
X177840209Y-140426419D02*
X177649733Y-140426419D01*
X177649733Y-140426419D02*
X177554495Y-140378800D01*
X177554495Y-140378800D02*
X177459257Y-140283561D01*
X177459257Y-140283561D02*
X177411638Y-140093085D01*
X177411638Y-140093085D02*
X177411638Y-139759752D01*
X177411638Y-139759752D02*
X177459257Y-139569276D01*
X177459257Y-139569276D02*
X177554495Y-139474038D01*
X177554495Y-139474038D02*
X177649733Y-139426419D01*
X178364019Y-139426419D02*
X178935447Y-139426419D01*
X178649733Y-140426419D02*
X178649733Y-139426419D01*
X183087876Y-123818752D02*
X183087876Y-124485419D01*
X182849781Y-123437800D02*
X182611686Y-124152085D01*
X182611686Y-124152085D02*
X183230733Y-124152085D01*
X184621342Y-139902609D02*
X184288009Y-139902609D01*
X184288009Y-140426419D02*
X184288009Y-139426419D01*
X184288009Y-139426419D02*
X184764199Y-139426419D01*
X185716580Y-140331180D02*
X185668961Y-140378800D01*
X185668961Y-140378800D02*
X185526104Y-140426419D01*
X185526104Y-140426419D02*
X185430866Y-140426419D01*
X185430866Y-140426419D02*
X185288009Y-140378800D01*
X185288009Y-140378800D02*
X185192771Y-140283561D01*
X185192771Y-140283561D02*
X185145152Y-140188323D01*
X185145152Y-140188323D02*
X185097533Y-139997847D01*
X185097533Y-139997847D02*
X185097533Y-139854990D01*
X185097533Y-139854990D02*
X185145152Y-139664514D01*
X185145152Y-139664514D02*
X185192771Y-139569276D01*
X185192771Y-139569276D02*
X185288009Y-139474038D01*
X185288009Y-139474038D02*
X185430866Y-139426419D01*
X185430866Y-139426419D02*
X185526104Y-139426419D01*
X185526104Y-139426419D02*
X185668961Y-139474038D01*
X185668961Y-139474038D02*
X185716580Y-139521657D01*
X186907057Y-140426419D02*
X186907057Y-139426419D01*
X186907057Y-139426419D02*
X187145152Y-139426419D01*
X187145152Y-139426419D02*
X187288009Y-139474038D01*
X187288009Y-139474038D02*
X187383247Y-139569276D01*
X187383247Y-139569276D02*
X187430866Y-139664514D01*
X187430866Y-139664514D02*
X187478485Y-139854990D01*
X187478485Y-139854990D02*
X187478485Y-139997847D01*
X187478485Y-139997847D02*
X187430866Y-140188323D01*
X187430866Y-140188323D02*
X187383247Y-140283561D01*
X187383247Y-140283561D02*
X187288009Y-140378800D01*
X187288009Y-140378800D02*
X187145152Y-140426419D01*
X187145152Y-140426419D02*
X186907057Y-140426419D01*
X187859438Y-140378800D02*
X188002295Y-140426419D01*
X188002295Y-140426419D02*
X188240390Y-140426419D01*
X188240390Y-140426419D02*
X188335628Y-140378800D01*
X188335628Y-140378800D02*
X188383247Y-140331180D01*
X188383247Y-140331180D02*
X188430866Y-140235942D01*
X188430866Y-140235942D02*
X188430866Y-140140704D01*
X188430866Y-140140704D02*
X188383247Y-140045466D01*
X188383247Y-140045466D02*
X188335628Y-139997847D01*
X188335628Y-139997847D02*
X188240390Y-139950228D01*
X188240390Y-139950228D02*
X188049914Y-139902609D01*
X188049914Y-139902609D02*
X187954676Y-139854990D01*
X187954676Y-139854990D02*
X187907057Y-139807371D01*
X187907057Y-139807371D02*
X187859438Y-139712133D01*
X187859438Y-139712133D02*
X187859438Y-139616895D01*
X187859438Y-139616895D02*
X187907057Y-139521657D01*
X187907057Y-139521657D02*
X187954676Y-139474038D01*
X187954676Y-139474038D02*
X188049914Y-139426419D01*
X188049914Y-139426419D02*
X188288009Y-139426419D01*
X188288009Y-139426419D02*
X188430866Y-139474038D01*
X188859438Y-140426419D02*
X188859438Y-139426419D01*
X188859438Y-139902609D02*
X189430866Y-139902609D01*
X189430866Y-140426419D02*
X189430866Y-139426419D01*
X190097533Y-139426419D02*
X190288009Y-139426419D01*
X190288009Y-139426419D02*
X190383247Y-139474038D01*
X190383247Y-139474038D02*
X190478485Y-139569276D01*
X190478485Y-139569276D02*
X190526104Y-139759752D01*
X190526104Y-139759752D02*
X190526104Y-140093085D01*
X190526104Y-140093085D02*
X190478485Y-140283561D01*
X190478485Y-140283561D02*
X190383247Y-140378800D01*
X190383247Y-140378800D02*
X190288009Y-140426419D01*
X190288009Y-140426419D02*
X190097533Y-140426419D01*
X190097533Y-140426419D02*
X190002295Y-140378800D01*
X190002295Y-140378800D02*
X189907057Y-140283561D01*
X189907057Y-140283561D02*
X189859438Y-140093085D01*
X189859438Y-140093085D02*
X189859438Y-139759752D01*
X189859438Y-139759752D02*
X189907057Y-139569276D01*
X189907057Y-139569276D02*
X190002295Y-139474038D01*
X190002295Y-139474038D02*
X190097533Y-139426419D01*
X190811819Y-139426419D02*
X191383247Y-139426419D01*
X191097533Y-140426419D02*
X191097533Y-139426419D01*
X196614257Y-140004209D02*
X196280924Y-140004209D01*
X196280924Y-140528019D02*
X196280924Y-139528019D01*
X196280924Y-139528019D02*
X196757114Y-139528019D01*
X197709495Y-140432780D02*
X197661876Y-140480400D01*
X197661876Y-140480400D02*
X197519019Y-140528019D01*
X197519019Y-140528019D02*
X197423781Y-140528019D01*
X197423781Y-140528019D02*
X197280924Y-140480400D01*
X197280924Y-140480400D02*
X197185686Y-140385161D01*
X197185686Y-140385161D02*
X197138067Y-140289923D01*
X197138067Y-140289923D02*
X197090448Y-140099447D01*
X197090448Y-140099447D02*
X197090448Y-139956590D01*
X197090448Y-139956590D02*
X197138067Y-139766114D01*
X197138067Y-139766114D02*
X197185686Y-139670876D01*
X197185686Y-139670876D02*
X197280924Y-139575638D01*
X197280924Y-139575638D02*
X197423781Y-139528019D01*
X197423781Y-139528019D02*
X197519019Y-139528019D01*
X197519019Y-139528019D02*
X197661876Y-139575638D01*
X197661876Y-139575638D02*
X197709495Y-139623257D01*
X171175809Y-130766342D02*
X171223428Y-130623485D01*
X171223428Y-130623485D02*
X171271047Y-130575866D01*
X171271047Y-130575866D02*
X171366285Y-130528247D01*
X171366285Y-130528247D02*
X171509142Y-130528247D01*
X171509142Y-130528247D02*
X171604380Y-130575866D01*
X171604380Y-130575866D02*
X171652000Y-130623485D01*
X171652000Y-130623485D02*
X171699619Y-130718723D01*
X171699619Y-130718723D02*
X171699619Y-131099675D01*
X171699619Y-131099675D02*
X170699619Y-131099675D01*
X170699619Y-131099675D02*
X170699619Y-130766342D01*
X170699619Y-130766342D02*
X170747238Y-130671104D01*
X170747238Y-130671104D02*
X170794857Y-130623485D01*
X170794857Y-130623485D02*
X170890095Y-130575866D01*
X170890095Y-130575866D02*
X170985333Y-130575866D01*
X170985333Y-130575866D02*
X171080571Y-130623485D01*
X171080571Y-130623485D02*
X171128190Y-130671104D01*
X171128190Y-130671104D02*
X171175809Y-130766342D01*
X171175809Y-130766342D02*
X171175809Y-131099675D01*
X170699619Y-129909199D02*
X170699619Y-129718723D01*
X170699619Y-129718723D02*
X170747238Y-129623485D01*
X170747238Y-129623485D02*
X170842476Y-129528247D01*
X170842476Y-129528247D02*
X171032952Y-129480628D01*
X171032952Y-129480628D02*
X171366285Y-129480628D01*
X171366285Y-129480628D02*
X171556761Y-129528247D01*
X171556761Y-129528247D02*
X171652000Y-129623485D01*
X171652000Y-129623485D02*
X171699619Y-129718723D01*
X171699619Y-129718723D02*
X171699619Y-129909199D01*
X171699619Y-129909199D02*
X171652000Y-130004437D01*
X171652000Y-130004437D02*
X171556761Y-130099675D01*
X171556761Y-130099675D02*
X171366285Y-130147294D01*
X171366285Y-130147294D02*
X171032952Y-130147294D01*
X171032952Y-130147294D02*
X170842476Y-130099675D01*
X170842476Y-130099675D02*
X170747238Y-130004437D01*
X170747238Y-130004437D02*
X170699619Y-129909199D01*
X170699619Y-128861580D02*
X170699619Y-128671104D01*
X170699619Y-128671104D02*
X170747238Y-128575866D01*
X170747238Y-128575866D02*
X170842476Y-128480628D01*
X170842476Y-128480628D02*
X171032952Y-128433009D01*
X171032952Y-128433009D02*
X171366285Y-128433009D01*
X171366285Y-128433009D02*
X171556761Y-128480628D01*
X171556761Y-128480628D02*
X171652000Y-128575866D01*
X171652000Y-128575866D02*
X171699619Y-128671104D01*
X171699619Y-128671104D02*
X171699619Y-128861580D01*
X171699619Y-128861580D02*
X171652000Y-128956818D01*
X171652000Y-128956818D02*
X171556761Y-129052056D01*
X171556761Y-129052056D02*
X171366285Y-129099675D01*
X171366285Y-129099675D02*
X171032952Y-129099675D01*
X171032952Y-129099675D02*
X170842476Y-129052056D01*
X170842476Y-129052056D02*
X170747238Y-128956818D01*
X170747238Y-128956818D02*
X170699619Y-128861580D01*
X170699619Y-128147294D02*
X170699619Y-127575866D01*
X171699619Y-127861580D02*
X170699619Y-127861580D01*
X193957361Y-100911847D02*
X193481171Y-100911847D01*
X193481171Y-100911847D02*
X193481171Y-99911847D01*
X194290695Y-100388037D02*
X194624028Y-100388037D01*
X194766885Y-100911847D02*
X194290695Y-100911847D01*
X194290695Y-100911847D02*
X194290695Y-99911847D01*
X194290695Y-99911847D02*
X194766885Y-99911847D01*
X195195457Y-100911847D02*
X195195457Y-99911847D01*
X195195457Y-99911847D02*
X195433552Y-99911847D01*
X195433552Y-99911847D02*
X195576409Y-99959466D01*
X195576409Y-99959466D02*
X195671647Y-100054704D01*
X195671647Y-100054704D02*
X195719266Y-100149942D01*
X195719266Y-100149942D02*
X195766885Y-100340418D01*
X195766885Y-100340418D02*
X195766885Y-100483275D01*
X195766885Y-100483275D02*
X195719266Y-100673751D01*
X195719266Y-100673751D02*
X195671647Y-100768989D01*
X195671647Y-100768989D02*
X195576409Y-100864228D01*
X195576409Y-100864228D02*
X195433552Y-100911847D01*
X195433552Y-100911847D02*
X195195457Y-100911847D01*
X196957362Y-100911847D02*
X196957362Y-99911847D01*
X196957362Y-99911847D02*
X197338314Y-99911847D01*
X197338314Y-99911847D02*
X197433552Y-99959466D01*
X197433552Y-99959466D02*
X197481171Y-100007085D01*
X197481171Y-100007085D02*
X197528790Y-100102323D01*
X197528790Y-100102323D02*
X197528790Y-100245180D01*
X197528790Y-100245180D02*
X197481171Y-100340418D01*
X197481171Y-100340418D02*
X197433552Y-100388037D01*
X197433552Y-100388037D02*
X197338314Y-100435656D01*
X197338314Y-100435656D02*
X196957362Y-100435656D01*
X197862124Y-99911847D02*
X198100219Y-100911847D01*
X198100219Y-100911847D02*
X198290695Y-100197561D01*
X198290695Y-100197561D02*
X198481171Y-100911847D01*
X198481171Y-100911847D02*
X198719267Y-99911847D01*
X199671647Y-100911847D02*
X199338314Y-100435656D01*
X199100219Y-100911847D02*
X199100219Y-99911847D01*
X199100219Y-99911847D02*
X199481171Y-99911847D01*
X199481171Y-99911847D02*
X199576409Y-99959466D01*
X199576409Y-99959466D02*
X199624028Y-100007085D01*
X199624028Y-100007085D02*
X199671647Y-100102323D01*
X199671647Y-100102323D02*
X199671647Y-100245180D01*
X199671647Y-100245180D02*
X199624028Y-100340418D01*
X199624028Y-100340418D02*
X199576409Y-100388037D01*
X199576409Y-100388037D02*
X199481171Y-100435656D01*
X199481171Y-100435656D02*
X199100219Y-100435656D01*
X193885933Y-102474172D02*
X194028790Y-102521791D01*
X194028790Y-102521791D02*
X194266885Y-102521791D01*
X194266885Y-102521791D02*
X194362123Y-102474172D01*
X194362123Y-102474172D02*
X194409742Y-102426552D01*
X194409742Y-102426552D02*
X194457361Y-102331314D01*
X194457361Y-102331314D02*
X194457361Y-102236076D01*
X194457361Y-102236076D02*
X194409742Y-102140838D01*
X194409742Y-102140838D02*
X194362123Y-102093219D01*
X194362123Y-102093219D02*
X194266885Y-102045600D01*
X194266885Y-102045600D02*
X194076409Y-101997981D01*
X194076409Y-101997981D02*
X193981171Y-101950362D01*
X193981171Y-101950362D02*
X193933552Y-101902743D01*
X193933552Y-101902743D02*
X193885933Y-101807505D01*
X193885933Y-101807505D02*
X193885933Y-101712267D01*
X193885933Y-101712267D02*
X193933552Y-101617029D01*
X193933552Y-101617029D02*
X193981171Y-101569410D01*
X193981171Y-101569410D02*
X194076409Y-101521791D01*
X194076409Y-101521791D02*
X194314504Y-101521791D01*
X194314504Y-101521791D02*
X194457361Y-101569410D01*
X194790695Y-101521791D02*
X195457361Y-102521791D01*
X195457361Y-101521791D02*
X194790695Y-102521791D01*
X196362123Y-102521791D02*
X195790695Y-102521791D01*
X196076409Y-102521791D02*
X196076409Y-101521791D01*
X196076409Y-101521791D02*
X195981171Y-101664648D01*
X195981171Y-101664648D02*
X195885933Y-101759886D01*
X195885933Y-101759886D02*
X195790695Y-101807505D01*
X196743076Y-101617029D02*
X196790695Y-101569410D01*
X196790695Y-101569410D02*
X196885933Y-101521791D01*
X196885933Y-101521791D02*
X197124028Y-101521791D01*
X197124028Y-101521791D02*
X197219266Y-101569410D01*
X197219266Y-101569410D02*
X197266885Y-101617029D01*
X197266885Y-101617029D02*
X197314504Y-101712267D01*
X197314504Y-101712267D02*
X197314504Y-101807505D01*
X197314504Y-101807505D02*
X197266885Y-101950362D01*
X197266885Y-101950362D02*
X196695457Y-102521791D01*
X196695457Y-102521791D02*
X197314504Y-102521791D01*
X198171647Y-101521791D02*
X197981171Y-101521791D01*
X197981171Y-101521791D02*
X197885933Y-101569410D01*
X197885933Y-101569410D02*
X197838314Y-101617029D01*
X197838314Y-101617029D02*
X197743076Y-101759886D01*
X197743076Y-101759886D02*
X197695457Y-101950362D01*
X197695457Y-101950362D02*
X197695457Y-102331314D01*
X197695457Y-102331314D02*
X197743076Y-102426552D01*
X197743076Y-102426552D02*
X197790695Y-102474172D01*
X197790695Y-102474172D02*
X197885933Y-102521791D01*
X197885933Y-102521791D02*
X198076409Y-102521791D01*
X198076409Y-102521791D02*
X198171647Y-102474172D01*
X198171647Y-102474172D02*
X198219266Y-102426552D01*
X198219266Y-102426552D02*
X198266885Y-102331314D01*
X198266885Y-102331314D02*
X198266885Y-102093219D01*
X198266885Y-102093219D02*
X198219266Y-101997981D01*
X198219266Y-101997981D02*
X198171647Y-101950362D01*
X198171647Y-101950362D02*
X198076409Y-101902743D01*
X198076409Y-101902743D02*
X197885933Y-101902743D01*
X197885933Y-101902743D02*
X197790695Y-101950362D01*
X197790695Y-101950362D02*
X197743076Y-101997981D01*
X197743076Y-101997981D02*
X197695457Y-102093219D01*
X198647838Y-101617029D02*
X198695457Y-101569410D01*
X198695457Y-101569410D02*
X198790695Y-101521791D01*
X198790695Y-101521791D02*
X199028790Y-101521791D01*
X199028790Y-101521791D02*
X199124028Y-101569410D01*
X199124028Y-101569410D02*
X199171647Y-101617029D01*
X199171647Y-101617029D02*
X199219266Y-101712267D01*
X199219266Y-101712267D02*
X199219266Y-101807505D01*
X199219266Y-101807505D02*
X199171647Y-101950362D01*
X199171647Y-101950362D02*
X198600219Y-102521791D01*
X198600219Y-102521791D02*
X199219266Y-102521791D01*
D12*
X170616066Y-103818219D02*
X170616066Y-104532504D01*
X170616066Y-104532504D02*
X170568447Y-104675361D01*
X170568447Y-104675361D02*
X170473209Y-104770600D01*
X170473209Y-104770600D02*
X170330352Y-104818219D01*
X170330352Y-104818219D02*
X170235114Y-104818219D01*
X171616066Y-104818219D02*
X171044638Y-104818219D01*
X171330352Y-104818219D02*
X171330352Y-103818219D01*
X171330352Y-103818219D02*
X171235114Y-103961076D01*
X171235114Y-103961076D02*
X171139876Y-104056314D01*
X171139876Y-104056314D02*
X171044638Y-104103933D01*
X194619066Y-136508019D02*
X194619066Y-137222304D01*
X194619066Y-137222304D02*
X194571447Y-137365161D01*
X194571447Y-137365161D02*
X194476209Y-137460400D01*
X194476209Y-137460400D02*
X194333352Y-137508019D01*
X194333352Y-137508019D02*
X194238114Y-137508019D01*
X195523828Y-136841352D02*
X195523828Y-137508019D01*
X195285733Y-136460400D02*
X195047638Y-137174685D01*
X195047638Y-137174685D02*
X195666685Y-137174685D01*
X166496542Y-140886219D02*
X166163209Y-140410028D01*
X165925114Y-140886219D02*
X165925114Y-139886219D01*
X165925114Y-139886219D02*
X166306066Y-139886219D01*
X166306066Y-139886219D02*
X166401304Y-139933838D01*
X166401304Y-139933838D02*
X166448923Y-139981457D01*
X166448923Y-139981457D02*
X166496542Y-140076695D01*
X166496542Y-140076695D02*
X166496542Y-140219552D01*
X166496542Y-140219552D02*
X166448923Y-140314790D01*
X166448923Y-140314790D02*
X166401304Y-140362409D01*
X166401304Y-140362409D02*
X166306066Y-140410028D01*
X166306066Y-140410028D02*
X165925114Y-140410028D01*
X167448923Y-140886219D02*
X166877495Y-140886219D01*
X167163209Y-140886219D02*
X167163209Y-139886219D01*
X167163209Y-139886219D02*
X167067971Y-140029076D01*
X167067971Y-140029076D02*
X166972733Y-140124314D01*
X166972733Y-140124314D02*
X166877495Y-140171933D01*
X168306066Y-140219552D02*
X168306066Y-140886219D01*
X168067971Y-139838600D02*
X167829876Y-140552885D01*
X167829876Y-140552885D02*
X168448923Y-140552885D01*
X166502642Y-144685119D02*
X166169309Y-144208928D01*
X165931214Y-144685119D02*
X165931214Y-143685119D01*
X165931214Y-143685119D02*
X166312166Y-143685119D01*
X166312166Y-143685119D02*
X166407404Y-143732738D01*
X166407404Y-143732738D02*
X166455023Y-143780357D01*
X166455023Y-143780357D02*
X166502642Y-143875595D01*
X166502642Y-143875595D02*
X166502642Y-144018452D01*
X166502642Y-144018452D02*
X166455023Y-144113690D01*
X166455023Y-144113690D02*
X166407404Y-144161309D01*
X166407404Y-144161309D02*
X166312166Y-144208928D01*
X166312166Y-144208928D02*
X165931214Y-144208928D01*
X167455023Y-144685119D02*
X166883595Y-144685119D01*
X167169309Y-144685119D02*
X167169309Y-143685119D01*
X167169309Y-143685119D02*
X167074071Y-143827976D01*
X167074071Y-143827976D02*
X166978833Y-143923214D01*
X166978833Y-143923214D02*
X166883595Y-143970833D01*
X168359785Y-143685119D02*
X167883595Y-143685119D01*
X167883595Y-143685119D02*
X167835976Y-144161309D01*
X167835976Y-144161309D02*
X167883595Y-144113690D01*
X167883595Y-144113690D02*
X167978833Y-144066071D01*
X167978833Y-144066071D02*
X168216928Y-144066071D01*
X168216928Y-144066071D02*
X168312166Y-144113690D01*
X168312166Y-144113690D02*
X168359785Y-144161309D01*
X168359785Y-144161309D02*
X168407404Y-144256547D01*
X168407404Y-144256547D02*
X168407404Y-144494642D01*
X168407404Y-144494642D02*
X168359785Y-144589880D01*
X168359785Y-144589880D02*
X168312166Y-144637500D01*
X168312166Y-144637500D02*
X168216928Y-144685119D01*
X168216928Y-144685119D02*
X167978833Y-144685119D01*
X167978833Y-144685119D02*
X167883595Y-144637500D01*
X167883595Y-144637500D02*
X167835976Y-144589880D01*
D13*
X184117780Y-132502518D02*
X184117780Y-133530613D01*
X184117780Y-133530613D02*
X184178257Y-133651565D01*
X184178257Y-133651565D02*
X184238733Y-133712042D01*
X184238733Y-133712042D02*
X184359685Y-133772518D01*
X184359685Y-133772518D02*
X184601590Y-133772518D01*
X184601590Y-133772518D02*
X184722542Y-133712042D01*
X184722542Y-133712042D02*
X184783019Y-133651565D01*
X184783019Y-133651565D02*
X184843495Y-133530613D01*
X184843495Y-133530613D02*
X184843495Y-132502518D01*
X185387780Y-132623470D02*
X185448256Y-132562994D01*
X185448256Y-132562994D02*
X185569209Y-132502518D01*
X185569209Y-132502518D02*
X185871590Y-132502518D01*
X185871590Y-132502518D02*
X185992542Y-132562994D01*
X185992542Y-132562994D02*
X186053018Y-132623470D01*
X186053018Y-132623470D02*
X186113495Y-132744422D01*
X186113495Y-132744422D02*
X186113495Y-132865375D01*
X186113495Y-132865375D02*
X186053018Y-133046803D01*
X186053018Y-133046803D02*
X185327304Y-133772518D01*
X185327304Y-133772518D02*
X186113495Y-133772518D01*
D12*
X181718733Y-104361019D02*
X181385400Y-103884828D01*
X181147305Y-104361019D02*
X181147305Y-103361019D01*
X181147305Y-103361019D02*
X181528257Y-103361019D01*
X181528257Y-103361019D02*
X181623495Y-103408638D01*
X181623495Y-103408638D02*
X181671114Y-103456257D01*
X181671114Y-103456257D02*
X181718733Y-103551495D01*
X181718733Y-103551495D02*
X181718733Y-103694352D01*
X181718733Y-103694352D02*
X181671114Y-103789590D01*
X181671114Y-103789590D02*
X181623495Y-103837209D01*
X181623495Y-103837209D02*
X181528257Y-103884828D01*
X181528257Y-103884828D02*
X181147305Y-103884828D01*
X182575876Y-103361019D02*
X182385400Y-103361019D01*
X182385400Y-103361019D02*
X182290162Y-103408638D01*
X182290162Y-103408638D02*
X182242543Y-103456257D01*
X182242543Y-103456257D02*
X182147305Y-103599114D01*
X182147305Y-103599114D02*
X182099686Y-103789590D01*
X182099686Y-103789590D02*
X182099686Y-104170542D01*
X182099686Y-104170542D02*
X182147305Y-104265780D01*
X182147305Y-104265780D02*
X182194924Y-104313400D01*
X182194924Y-104313400D02*
X182290162Y-104361019D01*
X182290162Y-104361019D02*
X182480638Y-104361019D01*
X182480638Y-104361019D02*
X182575876Y-104313400D01*
X182575876Y-104313400D02*
X182623495Y-104265780D01*
X182623495Y-104265780D02*
X182671114Y-104170542D01*
X182671114Y-104170542D02*
X182671114Y-103932447D01*
X182671114Y-103932447D02*
X182623495Y-103837209D01*
X182623495Y-103837209D02*
X182575876Y-103789590D01*
X182575876Y-103789590D02*
X182480638Y-103741971D01*
X182480638Y-103741971D02*
X182290162Y-103741971D01*
X182290162Y-103741971D02*
X182194924Y-103789590D01*
X182194924Y-103789590D02*
X182147305Y-103837209D01*
X182147305Y-103837209D02*
X182099686Y-103932447D01*
X192577305Y-108272619D02*
X192577305Y-107272619D01*
X192577305Y-107272619D02*
X192815400Y-107272619D01*
X192815400Y-107272619D02*
X192958257Y-107320238D01*
X192958257Y-107320238D02*
X193053495Y-107415476D01*
X193053495Y-107415476D02*
X193101114Y-107510714D01*
X193101114Y-107510714D02*
X193148733Y-107701190D01*
X193148733Y-107701190D02*
X193148733Y-107844047D01*
X193148733Y-107844047D02*
X193101114Y-108034523D01*
X193101114Y-108034523D02*
X193053495Y-108129761D01*
X193053495Y-108129761D02*
X192958257Y-108225000D01*
X192958257Y-108225000D02*
X192815400Y-108272619D01*
X192815400Y-108272619D02*
X192577305Y-108272619D01*
X194053495Y-107272619D02*
X193577305Y-107272619D01*
X193577305Y-107272619D02*
X193529686Y-107748809D01*
X193529686Y-107748809D02*
X193577305Y-107701190D01*
X193577305Y-107701190D02*
X193672543Y-107653571D01*
X193672543Y-107653571D02*
X193910638Y-107653571D01*
X193910638Y-107653571D02*
X194005876Y-107701190D01*
X194005876Y-107701190D02*
X194053495Y-107748809D01*
X194053495Y-107748809D02*
X194101114Y-107844047D01*
X194101114Y-107844047D02*
X194101114Y-108082142D01*
X194101114Y-108082142D02*
X194053495Y-108177380D01*
X194053495Y-108177380D02*
X194005876Y-108225000D01*
X194005876Y-108225000D02*
X193910638Y-108272619D01*
X193910638Y-108272619D02*
X193672543Y-108272619D01*
X193672543Y-108272619D02*
X193577305Y-108225000D01*
X193577305Y-108225000D02*
X193529686Y-108177380D01*
D10*
X160320309Y-142193285D02*
X160244119Y-142155190D01*
X160244119Y-142155190D02*
X160167928Y-142079000D01*
X160167928Y-142079000D02*
X160053642Y-141964714D01*
X160053642Y-141964714D02*
X159977452Y-141926619D01*
X159977452Y-141926619D02*
X159901261Y-141926619D01*
X159939357Y-142117095D02*
X159863166Y-142079000D01*
X159863166Y-142079000D02*
X159786976Y-142002809D01*
X159786976Y-142002809D02*
X159748880Y-141850428D01*
X159748880Y-141850428D02*
X159748880Y-141583761D01*
X159748880Y-141583761D02*
X159786976Y-141431380D01*
X159786976Y-141431380D02*
X159863166Y-141355190D01*
X159863166Y-141355190D02*
X159939357Y-141317095D01*
X159939357Y-141317095D02*
X160091738Y-141317095D01*
X160091738Y-141317095D02*
X160167928Y-141355190D01*
X160167928Y-141355190D02*
X160244119Y-141431380D01*
X160244119Y-141431380D02*
X160282214Y-141583761D01*
X160282214Y-141583761D02*
X160282214Y-141850428D01*
X160282214Y-141850428D02*
X160244119Y-142002809D01*
X160244119Y-142002809D02*
X160167928Y-142079000D01*
X160167928Y-142079000D02*
X160091738Y-142117095D01*
X160091738Y-142117095D02*
X159939357Y-142117095D01*
X160967928Y-141583761D02*
X160967928Y-142117095D01*
X160777452Y-141279000D02*
X160586975Y-141850428D01*
X160586975Y-141850428D02*
X161082214Y-141850428D01*
D12*
X173525933Y-101363819D02*
X173192600Y-100887628D01*
X172954505Y-101363819D02*
X172954505Y-100363819D01*
X172954505Y-100363819D02*
X173335457Y-100363819D01*
X173335457Y-100363819D02*
X173430695Y-100411438D01*
X173430695Y-100411438D02*
X173478314Y-100459057D01*
X173478314Y-100459057D02*
X173525933Y-100554295D01*
X173525933Y-100554295D02*
X173525933Y-100697152D01*
X173525933Y-100697152D02*
X173478314Y-100792390D01*
X173478314Y-100792390D02*
X173430695Y-100840009D01*
X173430695Y-100840009D02*
X173335457Y-100887628D01*
X173335457Y-100887628D02*
X172954505Y-100887628D01*
X174097362Y-100792390D02*
X174002124Y-100744771D01*
X174002124Y-100744771D02*
X173954505Y-100697152D01*
X173954505Y-100697152D02*
X173906886Y-100601914D01*
X173906886Y-100601914D02*
X173906886Y-100554295D01*
X173906886Y-100554295D02*
X173954505Y-100459057D01*
X173954505Y-100459057D02*
X174002124Y-100411438D01*
X174002124Y-100411438D02*
X174097362Y-100363819D01*
X174097362Y-100363819D02*
X174287838Y-100363819D01*
X174287838Y-100363819D02*
X174383076Y-100411438D01*
X174383076Y-100411438D02*
X174430695Y-100459057D01*
X174430695Y-100459057D02*
X174478314Y-100554295D01*
X174478314Y-100554295D02*
X174478314Y-100601914D01*
X174478314Y-100601914D02*
X174430695Y-100697152D01*
X174430695Y-100697152D02*
X174383076Y-100744771D01*
X174383076Y-100744771D02*
X174287838Y-100792390D01*
X174287838Y-100792390D02*
X174097362Y-100792390D01*
X174097362Y-100792390D02*
X174002124Y-100840009D01*
X174002124Y-100840009D02*
X173954505Y-100887628D01*
X173954505Y-100887628D02*
X173906886Y-100982866D01*
X173906886Y-100982866D02*
X173906886Y-101173342D01*
X173906886Y-101173342D02*
X173954505Y-101268580D01*
X173954505Y-101268580D02*
X174002124Y-101316200D01*
X174002124Y-101316200D02*
X174097362Y-101363819D01*
X174097362Y-101363819D02*
X174287838Y-101363819D01*
X174287838Y-101363819D02*
X174383076Y-101316200D01*
X174383076Y-101316200D02*
X174430695Y-101268580D01*
X174430695Y-101268580D02*
X174478314Y-101173342D01*
X174478314Y-101173342D02*
X174478314Y-100982866D01*
X174478314Y-100982866D02*
X174430695Y-100887628D01*
X174430695Y-100887628D02*
X174383076Y-100840009D01*
X174383076Y-100840009D02*
X174287838Y-100792390D01*
X196426219Y-145465533D02*
X197140504Y-145465533D01*
X197140504Y-145465533D02*
X197283361Y-145513152D01*
X197283361Y-145513152D02*
X197378600Y-145608390D01*
X197378600Y-145608390D02*
X197426219Y-145751247D01*
X197426219Y-145751247D02*
X197426219Y-145846485D01*
X196426219Y-145084580D02*
X196426219Y-144417914D01*
X196426219Y-144417914D02*
X197426219Y-144846485D01*
X174491133Y-123512619D02*
X174157800Y-123036428D01*
X173919705Y-123512619D02*
X173919705Y-122512619D01*
X173919705Y-122512619D02*
X174300657Y-122512619D01*
X174300657Y-122512619D02*
X174395895Y-122560238D01*
X174395895Y-122560238D02*
X174443514Y-122607857D01*
X174443514Y-122607857D02*
X174491133Y-122703095D01*
X174491133Y-122703095D02*
X174491133Y-122845952D01*
X174491133Y-122845952D02*
X174443514Y-122941190D01*
X174443514Y-122941190D02*
X174395895Y-122988809D01*
X174395895Y-122988809D02*
X174300657Y-123036428D01*
X174300657Y-123036428D02*
X173919705Y-123036428D01*
X175348276Y-122845952D02*
X175348276Y-123512619D01*
X175110181Y-122465000D02*
X174872086Y-123179285D01*
X174872086Y-123179285D02*
X175491133Y-123179285D01*
D10*
X163150309Y-143336285D02*
X163074119Y-143298190D01*
X163074119Y-143298190D02*
X162997928Y-143222000D01*
X162997928Y-143222000D02*
X162883642Y-143107714D01*
X162883642Y-143107714D02*
X162807452Y-143069619D01*
X162807452Y-143069619D02*
X162731261Y-143069619D01*
X162769357Y-143260095D02*
X162693166Y-143222000D01*
X162693166Y-143222000D02*
X162616976Y-143145809D01*
X162616976Y-143145809D02*
X162578880Y-142993428D01*
X162578880Y-142993428D02*
X162578880Y-142726761D01*
X162578880Y-142726761D02*
X162616976Y-142574380D01*
X162616976Y-142574380D02*
X162693166Y-142498190D01*
X162693166Y-142498190D02*
X162769357Y-142460095D01*
X162769357Y-142460095D02*
X162921738Y-142460095D01*
X162921738Y-142460095D02*
X162997928Y-142498190D01*
X162997928Y-142498190D02*
X163074119Y-142574380D01*
X163074119Y-142574380D02*
X163112214Y-142726761D01*
X163112214Y-142726761D02*
X163112214Y-142993428D01*
X163112214Y-142993428D02*
X163074119Y-143145809D01*
X163074119Y-143145809D02*
X162997928Y-143222000D01*
X162997928Y-143222000D02*
X162921738Y-143260095D01*
X162921738Y-143260095D02*
X162769357Y-143260095D01*
X163378880Y-142460095D02*
X163874118Y-142460095D01*
X163874118Y-142460095D02*
X163607452Y-142764857D01*
X163607452Y-142764857D02*
X163721737Y-142764857D01*
X163721737Y-142764857D02*
X163797928Y-142802952D01*
X163797928Y-142802952D02*
X163836023Y-142841047D01*
X163836023Y-142841047D02*
X163874118Y-142917238D01*
X163874118Y-142917238D02*
X163874118Y-143107714D01*
X163874118Y-143107714D02*
X163836023Y-143183904D01*
X163836023Y-143183904D02*
X163797928Y-143222000D01*
X163797928Y-143222000D02*
X163721737Y-143260095D01*
X163721737Y-143260095D02*
X163493166Y-143260095D01*
X163493166Y-143260095D02*
X163416975Y-143222000D01*
X163416975Y-143222000D02*
X163378880Y-143183904D01*
D12*
X185705305Y-100551019D02*
X185705305Y-99551019D01*
X185705305Y-99551019D02*
X185943400Y-99551019D01*
X185943400Y-99551019D02*
X186086257Y-99598638D01*
X186086257Y-99598638D02*
X186181495Y-99693876D01*
X186181495Y-99693876D02*
X186229114Y-99789114D01*
X186229114Y-99789114D02*
X186276733Y-99979590D01*
X186276733Y-99979590D02*
X186276733Y-100122447D01*
X186276733Y-100122447D02*
X186229114Y-100312923D01*
X186229114Y-100312923D02*
X186181495Y-100408161D01*
X186181495Y-100408161D02*
X186086257Y-100503400D01*
X186086257Y-100503400D02*
X185943400Y-100551019D01*
X185943400Y-100551019D02*
X185705305Y-100551019D01*
X186657686Y-99646257D02*
X186705305Y-99598638D01*
X186705305Y-99598638D02*
X186800543Y-99551019D01*
X186800543Y-99551019D02*
X187038638Y-99551019D01*
X187038638Y-99551019D02*
X187133876Y-99598638D01*
X187133876Y-99598638D02*
X187181495Y-99646257D01*
X187181495Y-99646257D02*
X187229114Y-99741495D01*
X187229114Y-99741495D02*
X187229114Y-99836733D01*
X187229114Y-99836733D02*
X187181495Y-99979590D01*
X187181495Y-99979590D02*
X186610067Y-100551019D01*
X186610067Y-100551019D02*
X187229114Y-100551019D01*
X181718733Y-114578180D02*
X181671114Y-114625800D01*
X181671114Y-114625800D02*
X181528257Y-114673419D01*
X181528257Y-114673419D02*
X181433019Y-114673419D01*
X181433019Y-114673419D02*
X181290162Y-114625800D01*
X181290162Y-114625800D02*
X181194924Y-114530561D01*
X181194924Y-114530561D02*
X181147305Y-114435323D01*
X181147305Y-114435323D02*
X181099686Y-114244847D01*
X181099686Y-114244847D02*
X181099686Y-114101990D01*
X181099686Y-114101990D02*
X181147305Y-113911514D01*
X181147305Y-113911514D02*
X181194924Y-113816276D01*
X181194924Y-113816276D02*
X181290162Y-113721038D01*
X181290162Y-113721038D02*
X181433019Y-113673419D01*
X181433019Y-113673419D02*
X181528257Y-113673419D01*
X181528257Y-113673419D02*
X181671114Y-113721038D01*
X181671114Y-113721038D02*
X181718733Y-113768657D01*
X182623495Y-113673419D02*
X182147305Y-113673419D01*
X182147305Y-113673419D02*
X182099686Y-114149609D01*
X182099686Y-114149609D02*
X182147305Y-114101990D01*
X182147305Y-114101990D02*
X182242543Y-114054371D01*
X182242543Y-114054371D02*
X182480638Y-114054371D01*
X182480638Y-114054371D02*
X182575876Y-114101990D01*
X182575876Y-114101990D02*
X182623495Y-114149609D01*
X182623495Y-114149609D02*
X182671114Y-114244847D01*
X182671114Y-114244847D02*
X182671114Y-114482942D01*
X182671114Y-114482942D02*
X182623495Y-114578180D01*
X182623495Y-114578180D02*
X182575876Y-114625800D01*
X182575876Y-114625800D02*
X182480638Y-114673419D01*
X182480638Y-114673419D02*
X182242543Y-114673419D01*
X182242543Y-114673419D02*
X182147305Y-114625800D01*
X182147305Y-114625800D02*
X182099686Y-114578180D01*
X176319933Y-138346219D02*
X175986600Y-137870028D01*
X175748505Y-138346219D02*
X175748505Y-137346219D01*
X175748505Y-137346219D02*
X176129457Y-137346219D01*
X176129457Y-137346219D02*
X176224695Y-137393838D01*
X176224695Y-137393838D02*
X176272314Y-137441457D01*
X176272314Y-137441457D02*
X176319933Y-137536695D01*
X176319933Y-137536695D02*
X176319933Y-137679552D01*
X176319933Y-137679552D02*
X176272314Y-137774790D01*
X176272314Y-137774790D02*
X176224695Y-137822409D01*
X176224695Y-137822409D02*
X176129457Y-137870028D01*
X176129457Y-137870028D02*
X175748505Y-137870028D01*
X176653267Y-137346219D02*
X177272314Y-137346219D01*
X177272314Y-137346219D02*
X176938981Y-137727171D01*
X176938981Y-137727171D02*
X177081838Y-137727171D01*
X177081838Y-137727171D02*
X177177076Y-137774790D01*
X177177076Y-137774790D02*
X177224695Y-137822409D01*
X177224695Y-137822409D02*
X177272314Y-137917647D01*
X177272314Y-137917647D02*
X177272314Y-138155742D01*
X177272314Y-138155742D02*
X177224695Y-138250980D01*
X177224695Y-138250980D02*
X177177076Y-138298600D01*
X177177076Y-138298600D02*
X177081838Y-138346219D01*
X177081838Y-138346219D02*
X176796124Y-138346219D01*
X176796124Y-138346219D02*
X176700886Y-138298600D01*
X176700886Y-138298600D02*
X176653267Y-138250980D01*
X174271219Y-145355723D02*
X174985504Y-145355723D01*
X174985504Y-145355723D02*
X175128361Y-145403342D01*
X175128361Y-145403342D02*
X175223600Y-145498580D01*
X175223600Y-145498580D02*
X175271219Y-145641437D01*
X175271219Y-145641437D02*
X175271219Y-145736675D01*
X175271219Y-144355723D02*
X175271219Y-144927151D01*
X175271219Y-144641437D02*
X174271219Y-144641437D01*
X174271219Y-144641437D02*
X174414076Y-144736675D01*
X174414076Y-144736675D02*
X174509314Y-144831913D01*
X174509314Y-144831913D02*
X174556933Y-144927151D01*
X174271219Y-143736675D02*
X174271219Y-143641437D01*
X174271219Y-143641437D02*
X174318838Y-143546199D01*
X174318838Y-143546199D02*
X174366457Y-143498580D01*
X174366457Y-143498580D02*
X174461695Y-143450961D01*
X174461695Y-143450961D02*
X174652171Y-143403342D01*
X174652171Y-143403342D02*
X174890266Y-143403342D01*
X174890266Y-143403342D02*
X175080742Y-143450961D01*
X175080742Y-143450961D02*
X175175980Y-143498580D01*
X175175980Y-143498580D02*
X175223600Y-143546199D01*
X175223600Y-143546199D02*
X175271219Y-143641437D01*
X175271219Y-143641437D02*
X175271219Y-143736675D01*
X175271219Y-143736675D02*
X175223600Y-143831913D01*
X175223600Y-143831913D02*
X175175980Y-143879532D01*
X175175980Y-143879532D02*
X175080742Y-143927151D01*
X175080742Y-143927151D02*
X174890266Y-143974770D01*
X174890266Y-143974770D02*
X174652171Y-143974770D01*
X174652171Y-143974770D02*
X174461695Y-143927151D01*
X174461695Y-143927151D02*
X174366457Y-143879532D01*
X174366457Y-143879532D02*
X174318838Y-143831913D01*
X174318838Y-143831913D02*
X174271219Y-143736675D01*
X193515733Y-125982780D02*
X193468114Y-126030400D01*
X193468114Y-126030400D02*
X193325257Y-126078019D01*
X193325257Y-126078019D02*
X193230019Y-126078019D01*
X193230019Y-126078019D02*
X193087162Y-126030400D01*
X193087162Y-126030400D02*
X192991924Y-125935161D01*
X192991924Y-125935161D02*
X192944305Y-125839923D01*
X192944305Y-125839923D02*
X192896686Y-125649447D01*
X192896686Y-125649447D02*
X192896686Y-125506590D01*
X192896686Y-125506590D02*
X192944305Y-125316114D01*
X192944305Y-125316114D02*
X192991924Y-125220876D01*
X192991924Y-125220876D02*
X193087162Y-125125638D01*
X193087162Y-125125638D02*
X193230019Y-125078019D01*
X193230019Y-125078019D02*
X193325257Y-125078019D01*
X193325257Y-125078019D02*
X193468114Y-125125638D01*
X193468114Y-125125638D02*
X193515733Y-125173257D01*
X194087162Y-125506590D02*
X193991924Y-125458971D01*
X193991924Y-125458971D02*
X193944305Y-125411352D01*
X193944305Y-125411352D02*
X193896686Y-125316114D01*
X193896686Y-125316114D02*
X193896686Y-125268495D01*
X193896686Y-125268495D02*
X193944305Y-125173257D01*
X193944305Y-125173257D02*
X193991924Y-125125638D01*
X193991924Y-125125638D02*
X194087162Y-125078019D01*
X194087162Y-125078019D02*
X194277638Y-125078019D01*
X194277638Y-125078019D02*
X194372876Y-125125638D01*
X194372876Y-125125638D02*
X194420495Y-125173257D01*
X194420495Y-125173257D02*
X194468114Y-125268495D01*
X194468114Y-125268495D02*
X194468114Y-125316114D01*
X194468114Y-125316114D02*
X194420495Y-125411352D01*
X194420495Y-125411352D02*
X194372876Y-125458971D01*
X194372876Y-125458971D02*
X194277638Y-125506590D01*
X194277638Y-125506590D02*
X194087162Y-125506590D01*
X194087162Y-125506590D02*
X193991924Y-125554209D01*
X193991924Y-125554209D02*
X193944305Y-125601828D01*
X193944305Y-125601828D02*
X193896686Y-125697066D01*
X193896686Y-125697066D02*
X193896686Y-125887542D01*
X193896686Y-125887542D02*
X193944305Y-125982780D01*
X193944305Y-125982780D02*
X193991924Y-126030400D01*
X193991924Y-126030400D02*
X194087162Y-126078019D01*
X194087162Y-126078019D02*
X194277638Y-126078019D01*
X194277638Y-126078019D02*
X194372876Y-126030400D01*
X194372876Y-126030400D02*
X194420495Y-125982780D01*
X194420495Y-125982780D02*
X194468114Y-125887542D01*
X194468114Y-125887542D02*
X194468114Y-125697066D01*
X194468114Y-125697066D02*
X194420495Y-125601828D01*
X194420495Y-125601828D02*
X194372876Y-125554209D01*
X194372876Y-125554209D02*
X194277638Y-125506590D01*
X198024305Y-125835319D02*
X198024305Y-124835319D01*
X198024305Y-124835319D02*
X198262400Y-124835319D01*
X198262400Y-124835319D02*
X198405257Y-124882938D01*
X198405257Y-124882938D02*
X198500495Y-124978176D01*
X198500495Y-124978176D02*
X198548114Y-125073414D01*
X198548114Y-125073414D02*
X198595733Y-125263890D01*
X198595733Y-125263890D02*
X198595733Y-125406747D01*
X198595733Y-125406747D02*
X198548114Y-125597223D01*
X198548114Y-125597223D02*
X198500495Y-125692461D01*
X198500495Y-125692461D02*
X198405257Y-125787700D01*
X198405257Y-125787700D02*
X198262400Y-125835319D01*
X198262400Y-125835319D02*
X198024305Y-125835319D01*
X199452876Y-125168652D02*
X199452876Y-125835319D01*
X199214781Y-124787700D02*
X198976686Y-125501985D01*
X198976686Y-125501985D02*
X199595733Y-125501985D01*
X187217233Y-104316580D02*
X187169614Y-104364200D01*
X187169614Y-104364200D02*
X187026757Y-104411819D01*
X187026757Y-104411819D02*
X186931519Y-104411819D01*
X186931519Y-104411819D02*
X186788662Y-104364200D01*
X186788662Y-104364200D02*
X186693424Y-104268961D01*
X186693424Y-104268961D02*
X186645805Y-104173723D01*
X186645805Y-104173723D02*
X186598186Y-103983247D01*
X186598186Y-103983247D02*
X186598186Y-103840390D01*
X186598186Y-103840390D02*
X186645805Y-103649914D01*
X186645805Y-103649914D02*
X186693424Y-103554676D01*
X186693424Y-103554676D02*
X186788662Y-103459438D01*
X186788662Y-103459438D02*
X186931519Y-103411819D01*
X186931519Y-103411819D02*
X187026757Y-103411819D01*
X187026757Y-103411819D02*
X187169614Y-103459438D01*
X187169614Y-103459438D02*
X187217233Y-103507057D01*
X187550567Y-103411819D02*
X188169614Y-103411819D01*
X188169614Y-103411819D02*
X187836281Y-103792771D01*
X187836281Y-103792771D02*
X187979138Y-103792771D01*
X187979138Y-103792771D02*
X188074376Y-103840390D01*
X188074376Y-103840390D02*
X188121995Y-103888009D01*
X188121995Y-103888009D02*
X188169614Y-103983247D01*
X188169614Y-103983247D02*
X188169614Y-104221342D01*
X188169614Y-104221342D02*
X188121995Y-104316580D01*
X188121995Y-104316580D02*
X188074376Y-104364200D01*
X188074376Y-104364200D02*
X187979138Y-104411819D01*
X187979138Y-104411819D02*
X187693424Y-104411819D01*
X187693424Y-104411819D02*
X187598186Y-104364200D01*
X187598186Y-104364200D02*
X187550567Y-104316580D01*
X196869233Y-104265780D02*
X196821614Y-104313400D01*
X196821614Y-104313400D02*
X196678757Y-104361019D01*
X196678757Y-104361019D02*
X196583519Y-104361019D01*
X196583519Y-104361019D02*
X196440662Y-104313400D01*
X196440662Y-104313400D02*
X196345424Y-104218161D01*
X196345424Y-104218161D02*
X196297805Y-104122923D01*
X196297805Y-104122923D02*
X196250186Y-103932447D01*
X196250186Y-103932447D02*
X196250186Y-103789590D01*
X196250186Y-103789590D02*
X196297805Y-103599114D01*
X196297805Y-103599114D02*
X196345424Y-103503876D01*
X196345424Y-103503876D02*
X196440662Y-103408638D01*
X196440662Y-103408638D02*
X196583519Y-103361019D01*
X196583519Y-103361019D02*
X196678757Y-103361019D01*
X196678757Y-103361019D02*
X196821614Y-103408638D01*
X196821614Y-103408638D02*
X196869233Y-103456257D01*
X197726376Y-103694352D02*
X197726376Y-104361019D01*
X197488281Y-103313400D02*
X197250186Y-104027685D01*
X197250186Y-104027685D02*
X197869233Y-104027685D01*
X173299067Y-133423200D02*
X173441924Y-133470819D01*
X173441924Y-133470819D02*
X173680019Y-133470819D01*
X173680019Y-133470819D02*
X173775257Y-133423200D01*
X173775257Y-133423200D02*
X173822876Y-133375580D01*
X173822876Y-133375580D02*
X173870495Y-133280342D01*
X173870495Y-133280342D02*
X173870495Y-133185104D01*
X173870495Y-133185104D02*
X173822876Y-133089866D01*
X173822876Y-133089866D02*
X173775257Y-133042247D01*
X173775257Y-133042247D02*
X173680019Y-132994628D01*
X173680019Y-132994628D02*
X173489543Y-132947009D01*
X173489543Y-132947009D02*
X173394305Y-132899390D01*
X173394305Y-132899390D02*
X173346686Y-132851771D01*
X173346686Y-132851771D02*
X173299067Y-132756533D01*
X173299067Y-132756533D02*
X173299067Y-132661295D01*
X173299067Y-132661295D02*
X173346686Y-132566057D01*
X173346686Y-132566057D02*
X173394305Y-132518438D01*
X173394305Y-132518438D02*
X173489543Y-132470819D01*
X173489543Y-132470819D02*
X173727638Y-132470819D01*
X173727638Y-132470819D02*
X173870495Y-132518438D01*
X174203829Y-132470819D02*
X174441924Y-133470819D01*
X174441924Y-133470819D02*
X174632400Y-132756533D01*
X174632400Y-132756533D02*
X174822876Y-133470819D01*
X174822876Y-133470819D02*
X175060972Y-132470819D01*
X175965733Y-133470819D02*
X175394305Y-133470819D01*
X175680019Y-133470819D02*
X175680019Y-132470819D01*
X175680019Y-132470819D02*
X175584781Y-132613676D01*
X175584781Y-132613676D02*
X175489543Y-132708914D01*
X175489543Y-132708914D02*
X175394305Y-132756533D01*
X185949495Y-112251019D02*
X185949495Y-113060542D01*
X185949495Y-113060542D02*
X185997114Y-113155780D01*
X185997114Y-113155780D02*
X186044733Y-113203400D01*
X186044733Y-113203400D02*
X186139971Y-113251019D01*
X186139971Y-113251019D02*
X186330447Y-113251019D01*
X186330447Y-113251019D02*
X186425685Y-113203400D01*
X186425685Y-113203400D02*
X186473304Y-113155780D01*
X186473304Y-113155780D02*
X186520923Y-113060542D01*
X186520923Y-113060542D02*
X186520923Y-112251019D01*
X186901876Y-112251019D02*
X187520923Y-112251019D01*
X187520923Y-112251019D02*
X187187590Y-112631971D01*
X187187590Y-112631971D02*
X187330447Y-112631971D01*
X187330447Y-112631971D02*
X187425685Y-112679590D01*
X187425685Y-112679590D02*
X187473304Y-112727209D01*
X187473304Y-112727209D02*
X187520923Y-112822447D01*
X187520923Y-112822447D02*
X187520923Y-113060542D01*
X187520923Y-113060542D02*
X187473304Y-113155780D01*
X187473304Y-113155780D02*
X187425685Y-113203400D01*
X187425685Y-113203400D02*
X187330447Y-113251019D01*
X187330447Y-113251019D02*
X187044733Y-113251019D01*
X187044733Y-113251019D02*
X186949495Y-113203400D01*
X186949495Y-113203400D02*
X186901876Y-113155780D01*
X175354733Y-117442019D02*
X175021400Y-116965828D01*
X174783305Y-117442019D02*
X174783305Y-116442019D01*
X174783305Y-116442019D02*
X175164257Y-116442019D01*
X175164257Y-116442019D02*
X175259495Y-116489638D01*
X175259495Y-116489638D02*
X175307114Y-116537257D01*
X175307114Y-116537257D02*
X175354733Y-116632495D01*
X175354733Y-116632495D02*
X175354733Y-116775352D01*
X175354733Y-116775352D02*
X175307114Y-116870590D01*
X175307114Y-116870590D02*
X175259495Y-116918209D01*
X175259495Y-116918209D02*
X175164257Y-116965828D01*
X175164257Y-116965828D02*
X174783305Y-116965828D01*
X176307114Y-117442019D02*
X175735686Y-117442019D01*
X176021400Y-117442019D02*
X176021400Y-116442019D01*
X176021400Y-116442019D02*
X175926162Y-116584876D01*
X175926162Y-116584876D02*
X175830924Y-116680114D01*
X175830924Y-116680114D02*
X175735686Y-116727733D01*
X176370733Y-126923980D02*
X176323114Y-126971600D01*
X176323114Y-126971600D02*
X176180257Y-127019219D01*
X176180257Y-127019219D02*
X176085019Y-127019219D01*
X176085019Y-127019219D02*
X175942162Y-126971600D01*
X175942162Y-126971600D02*
X175846924Y-126876361D01*
X175846924Y-126876361D02*
X175799305Y-126781123D01*
X175799305Y-126781123D02*
X175751686Y-126590647D01*
X175751686Y-126590647D02*
X175751686Y-126447790D01*
X175751686Y-126447790D02*
X175799305Y-126257314D01*
X175799305Y-126257314D02*
X175846924Y-126162076D01*
X175846924Y-126162076D02*
X175942162Y-126066838D01*
X175942162Y-126066838D02*
X176085019Y-126019219D01*
X176085019Y-126019219D02*
X176180257Y-126019219D01*
X176180257Y-126019219D02*
X176323114Y-126066838D01*
X176323114Y-126066838D02*
X176370733Y-126114457D01*
X176751686Y-126114457D02*
X176799305Y-126066838D01*
X176799305Y-126066838D02*
X176894543Y-126019219D01*
X176894543Y-126019219D02*
X177132638Y-126019219D01*
X177132638Y-126019219D02*
X177227876Y-126066838D01*
X177227876Y-126066838D02*
X177275495Y-126114457D01*
X177275495Y-126114457D02*
X177323114Y-126209695D01*
X177323114Y-126209695D02*
X177323114Y-126304933D01*
X177323114Y-126304933D02*
X177275495Y-126447790D01*
X177275495Y-126447790D02*
X176704067Y-127019219D01*
X176704067Y-127019219D02*
X177323114Y-127019219D01*
X190277305Y-100551019D02*
X190277305Y-99551019D01*
X190277305Y-99551019D02*
X190515400Y-99551019D01*
X190515400Y-99551019D02*
X190658257Y-99598638D01*
X190658257Y-99598638D02*
X190753495Y-99693876D01*
X190753495Y-99693876D02*
X190801114Y-99789114D01*
X190801114Y-99789114D02*
X190848733Y-99979590D01*
X190848733Y-99979590D02*
X190848733Y-100122447D01*
X190848733Y-100122447D02*
X190801114Y-100312923D01*
X190801114Y-100312923D02*
X190753495Y-100408161D01*
X190753495Y-100408161D02*
X190658257Y-100503400D01*
X190658257Y-100503400D02*
X190515400Y-100551019D01*
X190515400Y-100551019D02*
X190277305Y-100551019D01*
X191801114Y-100551019D02*
X191229686Y-100551019D01*
X191515400Y-100551019D02*
X191515400Y-99551019D01*
X191515400Y-99551019D02*
X191420162Y-99693876D01*
X191420162Y-99693876D02*
X191324924Y-99789114D01*
X191324924Y-99789114D02*
X191229686Y-99836733D01*
X173299067Y-129816400D02*
X173441924Y-129864019D01*
X173441924Y-129864019D02*
X173680019Y-129864019D01*
X173680019Y-129864019D02*
X173775257Y-129816400D01*
X173775257Y-129816400D02*
X173822876Y-129768780D01*
X173822876Y-129768780D02*
X173870495Y-129673542D01*
X173870495Y-129673542D02*
X173870495Y-129578304D01*
X173870495Y-129578304D02*
X173822876Y-129483066D01*
X173822876Y-129483066D02*
X173775257Y-129435447D01*
X173775257Y-129435447D02*
X173680019Y-129387828D01*
X173680019Y-129387828D02*
X173489543Y-129340209D01*
X173489543Y-129340209D02*
X173394305Y-129292590D01*
X173394305Y-129292590D02*
X173346686Y-129244971D01*
X173346686Y-129244971D02*
X173299067Y-129149733D01*
X173299067Y-129149733D02*
X173299067Y-129054495D01*
X173299067Y-129054495D02*
X173346686Y-128959257D01*
X173346686Y-128959257D02*
X173394305Y-128911638D01*
X173394305Y-128911638D02*
X173489543Y-128864019D01*
X173489543Y-128864019D02*
X173727638Y-128864019D01*
X173727638Y-128864019D02*
X173870495Y-128911638D01*
X174203829Y-128864019D02*
X174441924Y-129864019D01*
X174441924Y-129864019D02*
X174632400Y-129149733D01*
X174632400Y-129149733D02*
X174822876Y-129864019D01*
X174822876Y-129864019D02*
X175060972Y-128864019D01*
X175394305Y-128959257D02*
X175441924Y-128911638D01*
X175441924Y-128911638D02*
X175537162Y-128864019D01*
X175537162Y-128864019D02*
X175775257Y-128864019D01*
X175775257Y-128864019D02*
X175870495Y-128911638D01*
X175870495Y-128911638D02*
X175918114Y-128959257D01*
X175918114Y-128959257D02*
X175965733Y-129054495D01*
X175965733Y-129054495D02*
X175965733Y-129149733D01*
X175965733Y-129149733D02*
X175918114Y-129292590D01*
X175918114Y-129292590D02*
X175346686Y-129864019D01*
X175346686Y-129864019D02*
X175965733Y-129864019D01*
X191370733Y-114578180D02*
X191323114Y-114625800D01*
X191323114Y-114625800D02*
X191180257Y-114673419D01*
X191180257Y-114673419D02*
X191085019Y-114673419D01*
X191085019Y-114673419D02*
X190942162Y-114625800D01*
X190942162Y-114625800D02*
X190846924Y-114530561D01*
X190846924Y-114530561D02*
X190799305Y-114435323D01*
X190799305Y-114435323D02*
X190751686Y-114244847D01*
X190751686Y-114244847D02*
X190751686Y-114101990D01*
X190751686Y-114101990D02*
X190799305Y-113911514D01*
X190799305Y-113911514D02*
X190846924Y-113816276D01*
X190846924Y-113816276D02*
X190942162Y-113721038D01*
X190942162Y-113721038D02*
X191085019Y-113673419D01*
X191085019Y-113673419D02*
X191180257Y-113673419D01*
X191180257Y-113673419D02*
X191323114Y-113721038D01*
X191323114Y-113721038D02*
X191370733Y-113768657D01*
X192227876Y-113673419D02*
X192037400Y-113673419D01*
X192037400Y-113673419D02*
X191942162Y-113721038D01*
X191942162Y-113721038D02*
X191894543Y-113768657D01*
X191894543Y-113768657D02*
X191799305Y-113911514D01*
X191799305Y-113911514D02*
X191751686Y-114101990D01*
X191751686Y-114101990D02*
X191751686Y-114482942D01*
X191751686Y-114482942D02*
X191799305Y-114578180D01*
X191799305Y-114578180D02*
X191846924Y-114625800D01*
X191846924Y-114625800D02*
X191942162Y-114673419D01*
X191942162Y-114673419D02*
X192132638Y-114673419D01*
X192132638Y-114673419D02*
X192227876Y-114625800D01*
X192227876Y-114625800D02*
X192275495Y-114578180D01*
X192275495Y-114578180D02*
X192323114Y-114482942D01*
X192323114Y-114482942D02*
X192323114Y-114244847D01*
X192323114Y-114244847D02*
X192275495Y-114149609D01*
X192275495Y-114149609D02*
X192227876Y-114101990D01*
X192227876Y-114101990D02*
X192132638Y-114054371D01*
X192132638Y-114054371D02*
X191942162Y-114054371D01*
X191942162Y-114054371D02*
X191846924Y-114101990D01*
X191846924Y-114101990D02*
X191799305Y-114149609D01*
X191799305Y-114149609D02*
X191751686Y-114244847D01*
X175456333Y-101363819D02*
X175123000Y-100887628D01*
X174884905Y-101363819D02*
X174884905Y-100363819D01*
X174884905Y-100363819D02*
X175265857Y-100363819D01*
X175265857Y-100363819D02*
X175361095Y-100411438D01*
X175361095Y-100411438D02*
X175408714Y-100459057D01*
X175408714Y-100459057D02*
X175456333Y-100554295D01*
X175456333Y-100554295D02*
X175456333Y-100697152D01*
X175456333Y-100697152D02*
X175408714Y-100792390D01*
X175408714Y-100792390D02*
X175361095Y-100840009D01*
X175361095Y-100840009D02*
X175265857Y-100887628D01*
X175265857Y-100887628D02*
X174884905Y-100887628D01*
X175837286Y-100459057D02*
X175884905Y-100411438D01*
X175884905Y-100411438D02*
X175980143Y-100363819D01*
X175980143Y-100363819D02*
X176218238Y-100363819D01*
X176218238Y-100363819D02*
X176313476Y-100411438D01*
X176313476Y-100411438D02*
X176361095Y-100459057D01*
X176361095Y-100459057D02*
X176408714Y-100554295D01*
X176408714Y-100554295D02*
X176408714Y-100649533D01*
X176408714Y-100649533D02*
X176361095Y-100792390D01*
X176361095Y-100792390D02*
X175789667Y-101363819D01*
X175789667Y-101363819D02*
X176408714Y-101363819D01*
X195601495Y-112251019D02*
X195601495Y-113060542D01*
X195601495Y-113060542D02*
X195649114Y-113155780D01*
X195649114Y-113155780D02*
X195696733Y-113203400D01*
X195696733Y-113203400D02*
X195791971Y-113251019D01*
X195791971Y-113251019D02*
X195982447Y-113251019D01*
X195982447Y-113251019D02*
X196077685Y-113203400D01*
X196077685Y-113203400D02*
X196125304Y-113155780D01*
X196125304Y-113155780D02*
X196172923Y-113060542D01*
X196172923Y-113060542D02*
X196172923Y-112251019D01*
X197077685Y-112584352D02*
X197077685Y-113251019D01*
X196839590Y-112203400D02*
X196601495Y-112917685D01*
X196601495Y-112917685D02*
X197220542Y-112917685D01*
X182948105Y-108265919D02*
X182948105Y-107265919D01*
X182948105Y-107265919D02*
X183186200Y-107265919D01*
X183186200Y-107265919D02*
X183329057Y-107313538D01*
X183329057Y-107313538D02*
X183424295Y-107408776D01*
X183424295Y-107408776D02*
X183471914Y-107504014D01*
X183471914Y-107504014D02*
X183519533Y-107694490D01*
X183519533Y-107694490D02*
X183519533Y-107837347D01*
X183519533Y-107837347D02*
X183471914Y-108027823D01*
X183471914Y-108027823D02*
X183424295Y-108123061D01*
X183424295Y-108123061D02*
X183329057Y-108218300D01*
X183329057Y-108218300D02*
X183186200Y-108265919D01*
X183186200Y-108265919D02*
X182948105Y-108265919D01*
X183852867Y-107265919D02*
X184471914Y-107265919D01*
X184471914Y-107265919D02*
X184138581Y-107646871D01*
X184138581Y-107646871D02*
X184281438Y-107646871D01*
X184281438Y-107646871D02*
X184376676Y-107694490D01*
X184376676Y-107694490D02*
X184424295Y-107742109D01*
X184424295Y-107742109D02*
X184471914Y-107837347D01*
X184471914Y-107837347D02*
X184471914Y-108075442D01*
X184471914Y-108075442D02*
X184424295Y-108170680D01*
X184424295Y-108170680D02*
X184376676Y-108218300D01*
X184376676Y-108218300D02*
X184281438Y-108265919D01*
X184281438Y-108265919D02*
X183995724Y-108265919D01*
X183995724Y-108265919D02*
X183900486Y-108218300D01*
X183900486Y-108218300D02*
X183852867Y-108170680D01*
X191370733Y-104361019D02*
X191037400Y-103884828D01*
X190799305Y-104361019D02*
X190799305Y-103361019D01*
X190799305Y-103361019D02*
X191180257Y-103361019D01*
X191180257Y-103361019D02*
X191275495Y-103408638D01*
X191275495Y-103408638D02*
X191323114Y-103456257D01*
X191323114Y-103456257D02*
X191370733Y-103551495D01*
X191370733Y-103551495D02*
X191370733Y-103694352D01*
X191370733Y-103694352D02*
X191323114Y-103789590D01*
X191323114Y-103789590D02*
X191275495Y-103837209D01*
X191275495Y-103837209D02*
X191180257Y-103884828D01*
X191180257Y-103884828D02*
X190799305Y-103884828D01*
X191846924Y-104361019D02*
X192037400Y-104361019D01*
X192037400Y-104361019D02*
X192132638Y-104313400D01*
X192132638Y-104313400D02*
X192180257Y-104265780D01*
X192180257Y-104265780D02*
X192275495Y-104122923D01*
X192275495Y-104122923D02*
X192323114Y-103932447D01*
X192323114Y-103932447D02*
X192323114Y-103551495D01*
X192323114Y-103551495D02*
X192275495Y-103456257D01*
X192275495Y-103456257D02*
X192227876Y-103408638D01*
X192227876Y-103408638D02*
X192132638Y-103361019D01*
X192132638Y-103361019D02*
X191942162Y-103361019D01*
X191942162Y-103361019D02*
X191846924Y-103408638D01*
X191846924Y-103408638D02*
X191799305Y-103456257D01*
X191799305Y-103456257D02*
X191751686Y-103551495D01*
X191751686Y-103551495D02*
X191751686Y-103789590D01*
X191751686Y-103789590D02*
X191799305Y-103884828D01*
X191799305Y-103884828D02*
X191846924Y-103932447D01*
X191846924Y-103932447D02*
X191942162Y-103980066D01*
X191942162Y-103980066D02*
X192132638Y-103980066D01*
X192132638Y-103980066D02*
X192227876Y-103932447D01*
X192227876Y-103932447D02*
X192275495Y-103884828D01*
X192275495Y-103884828D02*
X192323114Y-103789590D01*
X156642767Y-145867800D02*
X156785624Y-145915419D01*
X156785624Y-145915419D02*
X157023719Y-145915419D01*
X157023719Y-145915419D02*
X157118957Y-145867800D01*
X157118957Y-145867800D02*
X157166576Y-145820180D01*
X157166576Y-145820180D02*
X157214195Y-145724942D01*
X157214195Y-145724942D02*
X157214195Y-145629704D01*
X157214195Y-145629704D02*
X157166576Y-145534466D01*
X157166576Y-145534466D02*
X157118957Y-145486847D01*
X157118957Y-145486847D02*
X157023719Y-145439228D01*
X157023719Y-145439228D02*
X156833243Y-145391609D01*
X156833243Y-145391609D02*
X156738005Y-145343990D01*
X156738005Y-145343990D02*
X156690386Y-145296371D01*
X156690386Y-145296371D02*
X156642767Y-145201133D01*
X156642767Y-145201133D02*
X156642767Y-145105895D01*
X156642767Y-145105895D02*
X156690386Y-145010657D01*
X156690386Y-145010657D02*
X156738005Y-144963038D01*
X156738005Y-144963038D02*
X156833243Y-144915419D01*
X156833243Y-144915419D02*
X157071338Y-144915419D01*
X157071338Y-144915419D02*
X157214195Y-144963038D01*
X157547529Y-144915419D02*
X157785624Y-145915419D01*
X157785624Y-145915419D02*
X157976100Y-145201133D01*
X157976100Y-145201133D02*
X158166576Y-145915419D01*
X158166576Y-145915419D02*
X158404672Y-144915419D01*
X158690386Y-144915419D02*
X159309433Y-144915419D01*
X159309433Y-144915419D02*
X158976100Y-145296371D01*
X158976100Y-145296371D02*
X159118957Y-145296371D01*
X159118957Y-145296371D02*
X159214195Y-145343990D01*
X159214195Y-145343990D02*
X159261814Y-145391609D01*
X159261814Y-145391609D02*
X159309433Y-145486847D01*
X159309433Y-145486847D02*
X159309433Y-145724942D01*
X159309433Y-145724942D02*
X159261814Y-145820180D01*
X159261814Y-145820180D02*
X159214195Y-145867800D01*
X159214195Y-145867800D02*
X159118957Y-145915419D01*
X159118957Y-145915419D02*
X158833243Y-145915419D01*
X158833243Y-145915419D02*
X158738005Y-145867800D01*
X158738005Y-145867800D02*
X158690386Y-145820180D01*
X187220219Y-145387533D02*
X187934504Y-145387533D01*
X187934504Y-145387533D02*
X188077361Y-145435152D01*
X188077361Y-145435152D02*
X188172600Y-145530390D01*
X188172600Y-145530390D02*
X188220219Y-145673247D01*
X188220219Y-145673247D02*
X188220219Y-145768485D01*
X188220219Y-144863723D02*
X188220219Y-144673247D01*
X188220219Y-144673247D02*
X188172600Y-144578009D01*
X188172600Y-144578009D02*
X188124980Y-144530390D01*
X188124980Y-144530390D02*
X187982123Y-144435152D01*
X187982123Y-144435152D02*
X187791647Y-144387533D01*
X187791647Y-144387533D02*
X187410695Y-144387533D01*
X187410695Y-144387533D02*
X187315457Y-144435152D01*
X187315457Y-144435152D02*
X187267838Y-144482771D01*
X187267838Y-144482771D02*
X187220219Y-144578009D01*
X187220219Y-144578009D02*
X187220219Y-144768485D01*
X187220219Y-144768485D02*
X187267838Y-144863723D01*
X187267838Y-144863723D02*
X187315457Y-144911342D01*
X187315457Y-144911342D02*
X187410695Y-144958961D01*
X187410695Y-144958961D02*
X187648790Y-144958961D01*
X187648790Y-144958961D02*
X187744028Y-144911342D01*
X187744028Y-144911342D02*
X187791647Y-144863723D01*
X187791647Y-144863723D02*
X187839266Y-144768485D01*
X187839266Y-144768485D02*
X187839266Y-144578009D01*
X187839266Y-144578009D02*
X187791647Y-144482771D01*
X187791647Y-144482771D02*
X187744028Y-144435152D01*
X187744028Y-144435152D02*
X187648790Y-144387533D01*
X176370733Y-136269780D02*
X176323114Y-136317400D01*
X176323114Y-136317400D02*
X176180257Y-136365019D01*
X176180257Y-136365019D02*
X176085019Y-136365019D01*
X176085019Y-136365019D02*
X175942162Y-136317400D01*
X175942162Y-136317400D02*
X175846924Y-136222161D01*
X175846924Y-136222161D02*
X175799305Y-136126923D01*
X175799305Y-136126923D02*
X175751686Y-135936447D01*
X175751686Y-135936447D02*
X175751686Y-135793590D01*
X175751686Y-135793590D02*
X175799305Y-135603114D01*
X175799305Y-135603114D02*
X175846924Y-135507876D01*
X175846924Y-135507876D02*
X175942162Y-135412638D01*
X175942162Y-135412638D02*
X176085019Y-135365019D01*
X176085019Y-135365019D02*
X176180257Y-135365019D01*
X176180257Y-135365019D02*
X176323114Y-135412638D01*
X176323114Y-135412638D02*
X176370733Y-135460257D01*
X177323114Y-136365019D02*
X176751686Y-136365019D01*
X177037400Y-136365019D02*
X177037400Y-135365019D01*
X177037400Y-135365019D02*
X176942162Y-135507876D01*
X176942162Y-135507876D02*
X176846924Y-135603114D01*
X176846924Y-135603114D02*
X176751686Y-135650733D01*
D14*
X173589400Y-105840200D02*
X175289400Y-105840200D01*
X173589400Y-115180200D02*
X175289400Y-115180200D01*
X193173400Y-130363200D02*
X193173400Y-136083200D01*
X193173400Y-136083200D02*
X196593400Y-136083200D01*
X193683400Y-130873200D02*
X193683400Y-133223200D01*
X193683400Y-135573200D02*
X193683400Y-133223200D01*
X194533400Y-130673200D02*
X194533400Y-130873200D01*
X194533400Y-130873200D02*
X193683400Y-130873200D01*
X194533400Y-135573200D02*
X193683400Y-135573200D01*
X194533400Y-135773200D02*
X194533400Y-135573200D01*
X195333400Y-130673200D02*
X194533400Y-130673200D01*
X195333400Y-130873200D02*
X195333400Y-130673200D01*
X195333400Y-135573200D02*
X195333400Y-135773200D01*
X195333400Y-135773200D02*
X194533400Y-135773200D01*
X196083400Y-130873200D02*
X195333400Y-130873200D01*
X196083400Y-133223200D02*
X196083400Y-130873200D01*
X196083400Y-133223200D02*
X196083400Y-135573200D01*
X196083400Y-135573200D02*
X195333400Y-135573200D01*
X196593400Y-130363200D02*
X193173400Y-130363200D01*
X196593400Y-136083200D02*
X196593400Y-130363200D01*
X196883400Y-136373200D02*
X195883400Y-136373200D01*
X196883400Y-136373200D02*
X196883400Y-135373200D01*
X164124500Y-140655564D02*
X164124500Y-140201436D01*
X165594500Y-140655564D02*
X165594500Y-140201436D01*
X164124500Y-144457364D02*
X164124500Y-144003236D01*
X165594500Y-144457364D02*
X165594500Y-144003236D01*
D11*
X179585400Y-127378200D02*
X190585400Y-127378200D01*
X179585400Y-131688200D02*
X179585400Y-127378200D01*
X179585400Y-139018200D02*
X179585400Y-137688200D01*
X190585400Y-127378200D02*
X190585400Y-127688200D01*
X190585400Y-138688200D02*
X190585400Y-139018200D01*
X190585400Y-139018200D02*
X179585400Y-139018200D01*
D10*
X192185400Y-137688200D02*
X192185400Y-137688200D01*
X192285400Y-137688200D02*
X192285400Y-137688200D01*
X192185400Y-137688200D02*
G75*
G02*
X192285400Y-137688200I50000J0D01*
G01*
X192285400Y-137688200D02*
G75*
G02*
X192185400Y-137688200I-50000J0D01*
G01*
D14*
X181387400Y-118748200D02*
X181387400Y-119348200D01*
X181387400Y-119348200D02*
X181687400Y-119048200D01*
X181687400Y-119048200D02*
X181387400Y-118748200D01*
X181937400Y-117698200D02*
X183887400Y-117698200D01*
X181937400Y-123198200D02*
X181937400Y-117698200D01*
X183887400Y-117698200D02*
X183887400Y-123198200D01*
X183887400Y-123198200D02*
X181937400Y-123198200D01*
X181150400Y-106689264D02*
X181150400Y-106235136D01*
X182620400Y-106689264D02*
X182620400Y-106235136D01*
X192580400Y-104833400D02*
X192580400Y-107118400D01*
X192580400Y-107118400D02*
X194050400Y-107118400D01*
X194050400Y-107118400D02*
X194050400Y-104833400D01*
X161811500Y-142670300D02*
X161161500Y-142670300D01*
X161811500Y-142670300D02*
X162461500Y-142670300D01*
X161811500Y-145790300D02*
X161161500Y-145790300D01*
X161811500Y-145790300D02*
X162461500Y-145790300D01*
X160649000Y-142720300D02*
X160409000Y-142390300D01*
X160889000Y-142390300D01*
X160649000Y-142720300D01*
G36*
X160649000Y-142720300D02*
G01*
X160409000Y-142390300D01*
X160889000Y-142390300D01*
X160649000Y-142720300D01*
G37*
X172957600Y-103069536D02*
X172957600Y-103523664D01*
X174427600Y-103069536D02*
X174427600Y-103523664D01*
X194736400Y-140416200D02*
X194736400Y-146136200D01*
X194736400Y-146136200D02*
X196971400Y-146136200D01*
X195806400Y-140416200D02*
X194736400Y-140416200D01*
X195806400Y-140716200D02*
X195806400Y-140416200D01*
X196096400Y-140126200D02*
X195596400Y-140126200D01*
X196096400Y-140426200D02*
X196096400Y-140126200D01*
X196971400Y-140716200D02*
X195806400Y-140716200D01*
X196971400Y-140716200D02*
X198136400Y-140716200D01*
X198136400Y-140416200D02*
X199206400Y-140416200D01*
X198136400Y-140716200D02*
X198136400Y-140416200D01*
X199206400Y-140416200D02*
X199206400Y-146136200D01*
X199206400Y-146136200D02*
X196971400Y-146136200D01*
X173553836Y-123848200D02*
X174007964Y-123848200D01*
X173553836Y-125318200D02*
X174007964Y-125318200D01*
X161811500Y-138918500D02*
X161161500Y-138918500D01*
X161811500Y-138918500D02*
X162461500Y-138918500D01*
X161811500Y-142038500D02*
X161161500Y-142038500D01*
X161811500Y-142038500D02*
X162461500Y-142038500D01*
X163214000Y-142318500D02*
X162734000Y-142318500D01*
X162974000Y-141988500D01*
X163214000Y-142318500D01*
G36*
X163214000Y-142318500D02*
G01*
X162734000Y-142318500D01*
X162974000Y-141988500D01*
X163214000Y-142318500D01*
G37*
X188653400Y-100874200D02*
X184793400Y-100874200D01*
X188653400Y-102874200D02*
X184793400Y-102874200D01*
X188653400Y-102874200D02*
X188653400Y-100874200D01*
X180930400Y-108591200D02*
X180930400Y-112686200D01*
X182840400Y-108591200D02*
X180930400Y-108591200D01*
X182840400Y-112686200D02*
X182840400Y-108591200D01*
X173553836Y-137156400D02*
X174007964Y-137156400D01*
X173553836Y-138626400D02*
X174007964Y-138626400D01*
X168831400Y-140338200D02*
X168831400Y-146058200D01*
X168831400Y-146058200D02*
X174816400Y-146058200D01*
X169901400Y-140338200D02*
X168831400Y-140338200D01*
X169901400Y-140638200D02*
X169901400Y-140338200D01*
X170191400Y-140048200D02*
X169691400Y-140048200D01*
X170191400Y-140348200D02*
X170191400Y-140048200D01*
X174816400Y-140638200D02*
X169901400Y-140638200D01*
X174816400Y-140638200D02*
X179731400Y-140638200D01*
X179731400Y-140338200D02*
X180801400Y-140338200D01*
X179731400Y-140638200D02*
X179731400Y-140338200D01*
X180801400Y-140338200D02*
X180801400Y-146058200D01*
X180801400Y-146058200D02*
X174816400Y-146058200D01*
X192947400Y-128297452D02*
X192947400Y-127774948D01*
X194417400Y-128297452D02*
X194417400Y-127774948D01*
X198027400Y-126652100D02*
X198027400Y-128937100D01*
X198027400Y-128937100D02*
X199497400Y-128937100D01*
X199497400Y-128937100D02*
X199497400Y-126652100D01*
X185633900Y-107702200D02*
X190028900Y-107702200D01*
X190028900Y-104682200D02*
X185633900Y-104682200D01*
X190028900Y-107702200D02*
X190028900Y-104682200D01*
X195285900Y-107702200D02*
X199680900Y-107702200D01*
X199680900Y-104682200D02*
X195285900Y-104682200D01*
X199680900Y-107702200D02*
X199680900Y-104682200D01*
X172432400Y-133066000D02*
X172432400Y-132966000D01*
X172432400Y-134566000D02*
X176832400Y-134566000D01*
X176832400Y-131466000D02*
X172432400Y-131466000D01*
X176832400Y-133066000D02*
X176832400Y-132966000D01*
X183301400Y-110946200D02*
X183301400Y-114706200D01*
X183301400Y-114706200D02*
X184561400Y-114706200D01*
X190121400Y-110946200D02*
X190121400Y-114706200D01*
X190121400Y-114706200D02*
X188861400Y-114706200D01*
X190351400Y-109906200D02*
X190021400Y-109666200D01*
X190351400Y-109426200D01*
X190351400Y-109906200D01*
G36*
X190351400Y-109906200D02*
G01*
X190021400Y-109666200D01*
X190351400Y-109426200D01*
X190351400Y-109906200D01*
G37*
X183927400Y-118748200D02*
X183927400Y-119348200D01*
X183927400Y-119348200D02*
X184227400Y-119048200D01*
X184227400Y-119048200D02*
X183927400Y-118748200D01*
X184477400Y-117698200D02*
X186427400Y-117698200D01*
X184477400Y-123198200D02*
X184477400Y-117698200D01*
X186427400Y-117698200D02*
X186427400Y-123198200D01*
X186427400Y-123198200D02*
X184477400Y-123198200D01*
X174786400Y-119675264D02*
X174786400Y-119221136D01*
X176256400Y-119675264D02*
X176256400Y-119221136D01*
X186467400Y-118748200D02*
X186467400Y-119348200D01*
X186467400Y-119348200D02*
X186767400Y-119048200D01*
X186767400Y-119048200D02*
X186467400Y-118748200D01*
X187017400Y-117698200D02*
X188967400Y-117698200D01*
X187017400Y-123198200D02*
X187017400Y-117698200D01*
X188967400Y-117698200D02*
X188967400Y-123198200D01*
X188967400Y-123198200D02*
X187017400Y-123198200D01*
X173482148Y-125829400D02*
X174004652Y-125829400D01*
X173482148Y-127299400D02*
X174004652Y-127299400D01*
X188805400Y-100874200D02*
X188805400Y-102874200D01*
X188805400Y-100874200D02*
X192665400Y-100874200D01*
X188805400Y-102874200D02*
X192665400Y-102874200D01*
X172432400Y-129359200D02*
X172432400Y-129459200D01*
X172432400Y-130959200D02*
X176832400Y-130959200D01*
X176832400Y-127859200D02*
X172432400Y-127859200D01*
X176832400Y-129359200D02*
X176832400Y-129459200D01*
X190582400Y-108591200D02*
X190582400Y-112686200D01*
X192492400Y-108591200D02*
X190582400Y-108591200D01*
X192492400Y-112686200D02*
X192492400Y-108591200D01*
X174888000Y-103069536D02*
X174888000Y-103523664D01*
X176358000Y-103069536D02*
X176358000Y-103523664D01*
X192953400Y-110946200D02*
X192953400Y-114706200D01*
X192953400Y-114706200D02*
X194213400Y-114706200D01*
X199773400Y-110946200D02*
X199773400Y-114706200D01*
X199773400Y-114706200D02*
X198513400Y-114706200D01*
X200003400Y-109906200D02*
X199673400Y-109666200D01*
X200003400Y-109426200D01*
X200003400Y-109906200D01*
G36*
X200003400Y-109906200D02*
G01*
X199673400Y-109666200D01*
X200003400Y-109426200D01*
X200003400Y-109906200D01*
G37*
X182914400Y-104833400D02*
X182914400Y-107118400D01*
X182914400Y-107118400D02*
X184384400Y-107118400D01*
X184384400Y-107118400D02*
X184384400Y-104833400D01*
X176307400Y-118748200D02*
X176307400Y-119348200D01*
X176307400Y-119348200D02*
X176607400Y-119048200D01*
X176607400Y-119048200D02*
X176307400Y-118748200D01*
X176857400Y-117698200D02*
X178807400Y-117698200D01*
X176857400Y-123198200D02*
X176857400Y-117698200D01*
X178807400Y-117698200D02*
X178807400Y-123198200D01*
X178807400Y-123198200D02*
X176857400Y-123198200D01*
X190802400Y-106673264D02*
X190802400Y-106219136D01*
X192272400Y-106673264D02*
X192272400Y-106219136D01*
X156426100Y-139980300D02*
X156426100Y-144380300D01*
X157926100Y-139980300D02*
X158026100Y-139980300D01*
X157926100Y-144380300D02*
X158026100Y-144380300D01*
X159526100Y-144380300D02*
X159526100Y-139980300D01*
X178847400Y-118748200D02*
X178847400Y-119348200D01*
X178847400Y-119348200D02*
X179147400Y-119048200D01*
X179147400Y-119048200D02*
X178847400Y-118748200D01*
X179397400Y-117698200D02*
X181347400Y-117698200D01*
X179397400Y-123198200D02*
X179397400Y-117698200D01*
X181347400Y-117698200D02*
X181347400Y-123198200D01*
X181347400Y-123198200D02*
X179397400Y-123198200D01*
X181785400Y-140338200D02*
X181785400Y-146058200D01*
X181785400Y-146058200D02*
X187770400Y-146058200D01*
X182855400Y-140338200D02*
X181785400Y-140338200D01*
X182855400Y-140638200D02*
X182855400Y-140338200D01*
X183145400Y-140048200D02*
X182645400Y-140048200D01*
X183145400Y-140348200D02*
X183145400Y-140048200D01*
X187770400Y-140638200D02*
X182855400Y-140638200D01*
X187770400Y-140638200D02*
X192685400Y-140638200D01*
X192685400Y-140338200D02*
X193755400Y-140338200D01*
X192685400Y-140638200D02*
X192685400Y-140338200D01*
X193755400Y-140338200D02*
X193755400Y-146058200D01*
X193755400Y-146058200D02*
X187770400Y-146058200D01*
X173482148Y-135175200D02*
X174004652Y-135175200D01*
X173482148Y-136645200D02*
X174004652Y-136645200D01*
D15*
X205975958Y-144508558D02*
G75*
G02*
X203975958Y-146508658I-2000058J-42D01*
G01*
X198381400Y-92190200D02*
G75*
G02*
X200381400Y-90190200I2000000J0D01*
G01*
X205974864Y-92190158D02*
X205975958Y-144508558D01*
X169679400Y-101290400D02*
G75*
G02*
X171679400Y-99290400I2000000J0D01*
G01*
X155633209Y-144508599D02*
X155633210Y-139588499D01*
X169679400Y-135588500D02*
X169679400Y-101290400D01*
X171679400Y-99290400D02*
X196381400Y-99290400D01*
X157633210Y-137588500D02*
X167679400Y-137588500D01*
X200381400Y-90190200D02*
X203974864Y-90190200D01*
X155633210Y-139588499D02*
G75*
G02*
X157633210Y-137588510I1999990J-1D01*
G01*
X198381400Y-97290400D02*
G75*
G02*
X196381400Y-99290400I-2000000J0D01*
G01*
X169679400Y-135588500D02*
G75*
G02*
X167679400Y-137588500I-2000000J0D01*
G01*
X157633209Y-146508600D02*
G75*
G02*
X155633200Y-144508599I-9J2000000D01*
G01*
X198381400Y-97290400D02*
X198381400Y-92190200D01*
X203975958Y-146508600D02*
X157633209Y-146508600D01*
X203974864Y-90190200D02*
G75*
G02*
X205974900Y-92190158I36J-2000000D01*
G01*
M02*
