G04 #@! TF.GenerationSoftware,KiCad,Pcbnew,9.0.7*
G04 #@! TF.CreationDate,2026-02-01T23:57:30+01:00*
G04 #@! TF.ProjectId,CM5IO_top,434d3549-4f5f-4746-9f70-2e6b69636164,rev?*
G04 #@! TF.SameCoordinates,Original*
G04 #@! TF.FileFunction,Other,User*
%FSLAX46Y46*%
G04 Gerber Fmt 4.6, Leading zero omitted, Abs format (unit mm)*
G04 Created by KiCad (PCBNEW 9.0.7) date 2026-02-01 23:57:30*
%MOMM*%
%LPD*%
G01*
G04 APERTURE LIST*
%ADD10C,0.050000*%
G04 #@! TA.AperFunction,Profile*
%ADD11C,0.050000*%
G04 #@! TD*
G04 APERTURE END LIST*
D10*
X166316400Y-138578500D02*
X166316400Y-142278500D01*
X166316400Y-142278500D02*
X168216400Y-142278500D01*
X168216400Y-138578500D02*
X166316400Y-138578500D01*
X168216400Y-142278500D02*
X168216400Y-138578500D01*
X189994200Y-142291400D02*
X189994200Y-144191400D01*
X189994200Y-144191400D02*
X193694200Y-144191400D01*
X193694200Y-142291400D02*
X189994200Y-142291400D01*
X193694200Y-144191400D02*
X193694200Y-142291400D01*
X190734600Y-117852200D02*
X190734600Y-114852200D01*
X190734600Y-117852200D02*
X193734600Y-117852200D01*
X193734600Y-114852200D02*
X190734600Y-114852200D01*
X193734600Y-114852200D02*
X193734600Y-117852200D01*
X187940700Y-142391400D02*
X187940700Y-146091400D01*
X187940700Y-146091400D02*
X189840700Y-146091400D01*
X189840700Y-142391400D02*
X187940700Y-142391400D01*
X189840700Y-146091400D02*
X189840700Y-142391400D01*
X156394000Y-139034000D02*
X156394000Y-145384000D01*
X156394000Y-145384000D02*
X162594000Y-145384000D01*
X162594000Y-139034000D02*
X156394000Y-139034000D01*
X162594000Y-145384000D02*
X162594000Y-139034000D01*
X199390000Y-91362000D02*
X199390000Y-143162000D01*
X199390000Y-143162000D02*
X205490000Y-143162000D01*
X205490000Y-91362000D02*
X199390000Y-91362000D01*
X205490000Y-143162000D02*
X205490000Y-91362000D01*
X176211400Y-110957200D02*
X176211400Y-112857200D01*
X176211400Y-112857200D02*
X179911400Y-112857200D01*
X179911400Y-110957200D02*
X176211400Y-110957200D01*
X179911400Y-112857200D02*
X179911400Y-110957200D01*
X180921400Y-142442200D02*
X180921400Y-146142200D01*
X180921400Y-146142200D02*
X182821400Y-146142200D01*
X182821400Y-142442200D02*
X180921400Y-142442200D01*
X182821400Y-146142200D02*
X182821400Y-142442200D01*
X171723794Y-118319200D02*
X171723794Y-138469200D01*
X171723794Y-118319200D02*
X191223794Y-118319200D01*
X191223794Y-138469200D02*
X171723794Y-138469200D01*
X191223794Y-138469200D02*
X191223794Y-118319200D01*
X173006400Y-138486200D02*
X173006400Y-140446200D01*
X173006400Y-140446200D02*
X176766400Y-140446200D01*
X176766400Y-138486200D02*
X173006400Y-138486200D01*
X176766400Y-140446200D02*
X176766400Y-138486200D01*
X176948900Y-143742200D02*
X176948900Y-144842200D01*
X176948900Y-144842200D02*
X177978900Y-144842200D01*
X177978900Y-142592200D02*
X177978900Y-143742200D01*
X177978900Y-143742200D02*
X176948900Y-143742200D01*
X177978900Y-144842200D02*
X177978900Y-145992200D01*
X177978900Y-145992200D02*
X179778900Y-145992200D01*
X179778900Y-142592200D02*
X177978900Y-142592200D01*
X179778900Y-142792200D02*
X179778900Y-142592200D01*
X179778900Y-145792200D02*
X180808900Y-145792200D01*
X179778900Y-145992200D02*
X179778900Y-145792200D01*
X180808900Y-142792200D02*
X179778900Y-142792200D01*
X180808900Y-145792200D02*
X180808900Y-142792200D01*
X163243000Y-139733800D02*
X163243000Y-143433800D01*
X163243000Y-143433800D02*
X165143000Y-143433800D01*
X165143000Y-139733800D02*
X163243000Y-139733800D01*
X165143000Y-143433800D02*
X165143000Y-139733800D01*
X184088200Y-143691400D02*
X184088200Y-144791400D01*
X184088200Y-144791400D02*
X185118200Y-144791400D01*
X185118200Y-142541400D02*
X185118200Y-143691400D01*
X185118200Y-143691400D02*
X184088200Y-143691400D01*
X185118200Y-144791400D02*
X185118200Y-145941400D01*
X185118200Y-145941400D02*
X186918200Y-145941400D01*
X186918200Y-142541400D02*
X185118200Y-142541400D01*
X186918200Y-142741400D02*
X186918200Y-142541400D01*
X186918200Y-145741400D02*
X187948200Y-145741400D01*
X186918200Y-145941400D02*
X186918200Y-145741400D01*
X187948200Y-142741400D02*
X186918200Y-142741400D01*
X187948200Y-145741400D02*
X187948200Y-142741400D01*
X190732400Y-114821200D02*
X190732400Y-111821200D01*
X190732400Y-114821200D02*
X193732400Y-114821200D01*
X193732400Y-111821200D02*
X190732400Y-111821200D01*
X193732400Y-111821200D02*
X193732400Y-114821200D01*
X180523800Y-111146600D02*
X180523800Y-108146600D01*
X180523800Y-111146600D02*
X183523800Y-111146600D01*
X183523800Y-108146600D02*
X180523800Y-108146600D01*
X183523800Y-108146600D02*
X183523800Y-111146600D01*
X191299000Y-125714600D02*
X191299000Y-127614600D01*
X191299000Y-127614600D02*
X194999000Y-127614600D01*
X194999000Y-125714600D02*
X191299000Y-125714600D01*
X194999000Y-127614600D02*
X194999000Y-125714600D01*
D11*
X205975958Y-144508558D02*
G75*
G02*
X203975958Y-146508658I-2000058J-42D01*
G01*
X198381400Y-92190200D02*
G75*
G02*
X200381400Y-90190200I2000000J0D01*
G01*
X205974864Y-92190158D02*
X205975958Y-144508558D01*
X169679400Y-101290400D02*
G75*
G02*
X171679400Y-99290400I2000000J0D01*
G01*
X155633209Y-144508599D02*
X155633210Y-139588499D01*
X169679400Y-135588500D02*
X169679400Y-101290400D01*
X171679400Y-99290400D02*
X196381400Y-99290400D01*
X157633210Y-137588500D02*
X167679400Y-137588500D01*
X200381400Y-90190200D02*
X203974864Y-90190200D01*
X155633210Y-139588499D02*
G75*
G02*
X157633210Y-137588510I1999990J-1D01*
G01*
X198381400Y-97290400D02*
G75*
G02*
X196381400Y-99290400I-2000000J0D01*
G01*
X169679400Y-135588500D02*
G75*
G02*
X167679400Y-137588500I-2000000J0D01*
G01*
X157633209Y-146508600D02*
G75*
G02*
X155633200Y-144508599I-9J2000000D01*
G01*
X198381400Y-97290400D02*
X198381400Y-92190200D01*
X203975958Y-146508600D02*
X157633209Y-146508600D01*
X203974864Y-90190200D02*
G75*
G02*
X205974900Y-92190158I36J-2000000D01*
G01*
M02*
