G04 #@! TF.GenerationSoftware,KiCad,Pcbnew,9.0.7*
G04 #@! TF.CreationDate,2026-02-01T23:57:30+01:00*
G04 #@! TF.ProjectId,CM5IO_top,434d3549-4f5f-4746-9f70-2e6b69636164,rev?*
G04 #@! TF.SameCoordinates,Original*
G04 #@! TF.FileFunction,AssemblyDrawing,Top*
%FSLAX46Y46*%
G04 Gerber Fmt 4.6, Leading zero omitted, Abs format (unit mm)*
G04 Created by KiCad (PCBNEW 9.0.7) date 2026-02-01 23:57:30*
%MOMM*%
%LPD*%
G01*
G04 APERTURE LIST*
%ADD10C,0.050000*%
%ADD11C,0.150000*%
%ADD12C,0.080000*%
%ADD13C,0.254000*%
%ADD14C,0.060000*%
%ADD15C,0.120000*%
%ADD16C,0.130000*%
%ADD17C,0.100000*%
G04 #@! TA.AperFunction,Profile*
%ADD18C,0.050000*%
G04 #@! TD*
G04 APERTURE END LIST*
D10*
X164860000Y-68524000D02*
G75*
G02*
X166860000Y-70524000I0J-2000000D01*
G01*
X190863000Y-80046323D02*
G75*
G02*
X190277223Y-81460545I-2000100J23D01*
G01*
X205976000Y-70524000D02*
X205976000Y-144502000D01*
X174387677Y-84526000D02*
G75*
G02*
X172973455Y-83940223I23J2000100D01*
G01*
X203976000Y-68524000D02*
G75*
G02*
X205976000Y-70524000I0J-2000000D01*
G01*
X167445787Y-78412537D02*
G75*
G02*
X166859984Y-76998323I1414213J1414237D01*
G01*
X187797537Y-83940213D02*
X190277214Y-81460536D01*
X146286000Y-144502000D02*
X146286000Y-70524000D01*
X148286000Y-68524000D02*
X164860000Y-68524000D01*
X148286000Y-146502000D02*
G75*
G02*
X146286000Y-144502000I0J2000000D01*
G01*
X167445787Y-78412537D02*
X172973464Y-83940214D01*
X205976000Y-144502000D02*
G75*
G02*
X203976000Y-146502000I-2000000J0D01*
G01*
X166860000Y-70524000D02*
X166860000Y-76998323D01*
X190863000Y-70524000D02*
G75*
G02*
X192863000Y-68524000I2000000J0D01*
G01*
X203976000Y-146502000D02*
X148286000Y-146502000D01*
X190863000Y-80046323D02*
X190863000Y-70524000D01*
X174387677Y-84526000D02*
X186383323Y-84526000D01*
X192863000Y-68524000D02*
X203976000Y-68524000D01*
X146286000Y-70524000D02*
G75*
G02*
X148286000Y-68524000I2000000J0D01*
G01*
X187797537Y-83940213D02*
G75*
G02*
X186383323Y-84526016I-1414237J1414213D01*
G01*
D11*
X169034580Y-100819723D02*
X168225057Y-100819723D01*
X168225057Y-100819723D02*
X168129819Y-100867342D01*
X168129819Y-100867342D02*
X168082200Y-100914961D01*
X168082200Y-100914961D02*
X168034580Y-101010199D01*
X168034580Y-101010199D02*
X168034580Y-101200675D01*
X168034580Y-101200675D02*
X168082200Y-101295913D01*
X168082200Y-101295913D02*
X168129819Y-101343532D01*
X168129819Y-101343532D02*
X168225057Y-101391151D01*
X168225057Y-101391151D02*
X169034580Y-101391151D01*
X168082200Y-101819723D02*
X168034580Y-101962580D01*
X168034580Y-101962580D02*
X168034580Y-102200675D01*
X168034580Y-102200675D02*
X168082200Y-102295913D01*
X168082200Y-102295913D02*
X168129819Y-102343532D01*
X168129819Y-102343532D02*
X168225057Y-102391151D01*
X168225057Y-102391151D02*
X168320295Y-102391151D01*
X168320295Y-102391151D02*
X168415533Y-102343532D01*
X168415533Y-102343532D02*
X168463152Y-102295913D01*
X168463152Y-102295913D02*
X168510771Y-102200675D01*
X168510771Y-102200675D02*
X168558390Y-102010199D01*
X168558390Y-102010199D02*
X168606009Y-101914961D01*
X168606009Y-101914961D02*
X168653628Y-101867342D01*
X168653628Y-101867342D02*
X168748866Y-101819723D01*
X168748866Y-101819723D02*
X168844104Y-101819723D01*
X168844104Y-101819723D02*
X168939342Y-101867342D01*
X168939342Y-101867342D02*
X168986961Y-101914961D01*
X168986961Y-101914961D02*
X169034580Y-102010199D01*
X169034580Y-102010199D02*
X169034580Y-102248294D01*
X169034580Y-102248294D02*
X168986961Y-102391151D01*
X168558390Y-103153056D02*
X168510771Y-103295913D01*
X168510771Y-103295913D02*
X168463152Y-103343532D01*
X168463152Y-103343532D02*
X168367914Y-103391151D01*
X168367914Y-103391151D02*
X168225057Y-103391151D01*
X168225057Y-103391151D02*
X168129819Y-103343532D01*
X168129819Y-103343532D02*
X168082200Y-103295913D01*
X168082200Y-103295913D02*
X168034580Y-103200675D01*
X168034580Y-103200675D02*
X168034580Y-102819723D01*
X168034580Y-102819723D02*
X169034580Y-102819723D01*
X169034580Y-102819723D02*
X169034580Y-103153056D01*
X169034580Y-103153056D02*
X168986961Y-103248294D01*
X168986961Y-103248294D02*
X168939342Y-103295913D01*
X168939342Y-103295913D02*
X168844104Y-103343532D01*
X168844104Y-103343532D02*
X168748866Y-103343532D01*
X168748866Y-103343532D02*
X168653628Y-103295913D01*
X168653628Y-103295913D02*
X168606009Y-103248294D01*
X168606009Y-103248294D02*
X168558390Y-103153056D01*
X168558390Y-103153056D02*
X168558390Y-102819723D01*
X167939342Y-103581628D02*
X167939342Y-104343532D01*
X168129819Y-105153056D02*
X168082200Y-105105437D01*
X168082200Y-105105437D02*
X168034580Y-104962580D01*
X168034580Y-104962580D02*
X168034580Y-104867342D01*
X168034580Y-104867342D02*
X168082200Y-104724485D01*
X168082200Y-104724485D02*
X168177438Y-104629247D01*
X168177438Y-104629247D02*
X168272676Y-104581628D01*
X168272676Y-104581628D02*
X168463152Y-104534009D01*
X168463152Y-104534009D02*
X168606009Y-104534009D01*
X168606009Y-104534009D02*
X168796485Y-104581628D01*
X168796485Y-104581628D02*
X168891723Y-104629247D01*
X168891723Y-104629247D02*
X168986961Y-104724485D01*
X168986961Y-104724485D02*
X169034580Y-104867342D01*
X169034580Y-104867342D02*
X169034580Y-104962580D01*
X169034580Y-104962580D02*
X168986961Y-105105437D01*
X168986961Y-105105437D02*
X168939342Y-105153056D01*
X167939342Y-105343533D02*
X167939342Y-106105437D01*
X168034580Y-106914961D02*
X168510771Y-106581628D01*
X168034580Y-106343533D02*
X169034580Y-106343533D01*
X169034580Y-106343533D02*
X169034580Y-106724485D01*
X169034580Y-106724485D02*
X168986961Y-106819723D01*
X168986961Y-106819723D02*
X168939342Y-106867342D01*
X168939342Y-106867342D02*
X168844104Y-106914961D01*
X168844104Y-106914961D02*
X168701247Y-106914961D01*
X168701247Y-106914961D02*
X168606009Y-106867342D01*
X168606009Y-106867342D02*
X168558390Y-106819723D01*
X168558390Y-106819723D02*
X168510771Y-106724485D01*
X168510771Y-106724485D02*
X168510771Y-106343533D01*
X168082200Y-107724485D02*
X168034580Y-107629247D01*
X168034580Y-107629247D02*
X168034580Y-107438771D01*
X168034580Y-107438771D02*
X168082200Y-107343533D01*
X168082200Y-107343533D02*
X168177438Y-107295914D01*
X168177438Y-107295914D02*
X168558390Y-107295914D01*
X168558390Y-107295914D02*
X168653628Y-107343533D01*
X168653628Y-107343533D02*
X168701247Y-107438771D01*
X168701247Y-107438771D02*
X168701247Y-107629247D01*
X168701247Y-107629247D02*
X168653628Y-107724485D01*
X168653628Y-107724485D02*
X168558390Y-107772104D01*
X168558390Y-107772104D02*
X168463152Y-107772104D01*
X168463152Y-107772104D02*
X168367914Y-107295914D01*
X168082200Y-108629247D02*
X168034580Y-108534009D01*
X168034580Y-108534009D02*
X168034580Y-108343533D01*
X168034580Y-108343533D02*
X168082200Y-108248295D01*
X168082200Y-108248295D02*
X168129819Y-108200676D01*
X168129819Y-108200676D02*
X168225057Y-108153057D01*
X168225057Y-108153057D02*
X168510771Y-108153057D01*
X168510771Y-108153057D02*
X168606009Y-108200676D01*
X168606009Y-108200676D02*
X168653628Y-108248295D01*
X168653628Y-108248295D02*
X168701247Y-108343533D01*
X168701247Y-108343533D02*
X168701247Y-108534009D01*
X168701247Y-108534009D02*
X168653628Y-108629247D01*
X168082200Y-109438771D02*
X168034580Y-109343533D01*
X168034580Y-109343533D02*
X168034580Y-109153057D01*
X168034580Y-109153057D02*
X168082200Y-109057819D01*
X168082200Y-109057819D02*
X168177438Y-109010200D01*
X168177438Y-109010200D02*
X168558390Y-109010200D01*
X168558390Y-109010200D02*
X168653628Y-109057819D01*
X168653628Y-109057819D02*
X168701247Y-109153057D01*
X168701247Y-109153057D02*
X168701247Y-109343533D01*
X168701247Y-109343533D02*
X168653628Y-109438771D01*
X168653628Y-109438771D02*
X168558390Y-109486390D01*
X168558390Y-109486390D02*
X168463152Y-109486390D01*
X168463152Y-109486390D02*
X168367914Y-109010200D01*
X168701247Y-109914962D02*
X167701247Y-109914962D01*
X168653628Y-109914962D02*
X168701247Y-110010200D01*
X168701247Y-110010200D02*
X168701247Y-110200676D01*
X168701247Y-110200676D02*
X168653628Y-110295914D01*
X168653628Y-110295914D02*
X168606009Y-110343533D01*
X168606009Y-110343533D02*
X168510771Y-110391152D01*
X168510771Y-110391152D02*
X168225057Y-110391152D01*
X168225057Y-110391152D02*
X168129819Y-110343533D01*
X168129819Y-110343533D02*
X168082200Y-110295914D01*
X168082200Y-110295914D02*
X168034580Y-110200676D01*
X168034580Y-110200676D02*
X168034580Y-110010200D01*
X168034580Y-110010200D02*
X168082200Y-109914962D01*
X168701247Y-110676867D02*
X168701247Y-111057819D01*
X169034580Y-110819724D02*
X168177438Y-110819724D01*
X168177438Y-110819724D02*
X168082200Y-110867343D01*
X168082200Y-110867343D02*
X168034580Y-110962581D01*
X168034580Y-110962581D02*
X168034580Y-111057819D01*
X168034580Y-111819724D02*
X168558390Y-111819724D01*
X168558390Y-111819724D02*
X168653628Y-111772105D01*
X168653628Y-111772105D02*
X168701247Y-111676867D01*
X168701247Y-111676867D02*
X168701247Y-111486391D01*
X168701247Y-111486391D02*
X168653628Y-111391153D01*
X168082200Y-111819724D02*
X168034580Y-111724486D01*
X168034580Y-111724486D02*
X168034580Y-111486391D01*
X168034580Y-111486391D02*
X168082200Y-111391153D01*
X168082200Y-111391153D02*
X168177438Y-111343534D01*
X168177438Y-111343534D02*
X168272676Y-111343534D01*
X168272676Y-111343534D02*
X168367914Y-111391153D01*
X168367914Y-111391153D02*
X168415533Y-111486391D01*
X168415533Y-111486391D02*
X168415533Y-111724486D01*
X168415533Y-111724486D02*
X168463152Y-111819724D01*
X168082200Y-112724486D02*
X168034580Y-112629248D01*
X168034580Y-112629248D02*
X168034580Y-112438772D01*
X168034580Y-112438772D02*
X168082200Y-112343534D01*
X168082200Y-112343534D02*
X168129819Y-112295915D01*
X168129819Y-112295915D02*
X168225057Y-112248296D01*
X168225057Y-112248296D02*
X168510771Y-112248296D01*
X168510771Y-112248296D02*
X168606009Y-112295915D01*
X168606009Y-112295915D02*
X168653628Y-112343534D01*
X168653628Y-112343534D02*
X168701247Y-112438772D01*
X168701247Y-112438772D02*
X168701247Y-112629248D01*
X168701247Y-112629248D02*
X168653628Y-112724486D01*
X168034580Y-113295915D02*
X168082200Y-113200677D01*
X168082200Y-113200677D02*
X168177438Y-113153058D01*
X168177438Y-113153058D02*
X169034580Y-113153058D01*
X168082200Y-114057820D02*
X168034580Y-113962582D01*
X168034580Y-113962582D02*
X168034580Y-113772106D01*
X168034580Y-113772106D02*
X168082200Y-113676868D01*
X168082200Y-113676868D02*
X168177438Y-113629249D01*
X168177438Y-113629249D02*
X168558390Y-113629249D01*
X168558390Y-113629249D02*
X168653628Y-113676868D01*
X168653628Y-113676868D02*
X168701247Y-113772106D01*
X168701247Y-113772106D02*
X168701247Y-113962582D01*
X168701247Y-113962582D02*
X168653628Y-114057820D01*
X168653628Y-114057820D02*
X168558390Y-114105439D01*
X168558390Y-114105439D02*
X168463152Y-114105439D01*
X168463152Y-114105439D02*
X168367914Y-113629249D01*
X167939342Y-114295916D02*
X167939342Y-115057820D01*
X169034580Y-115295916D02*
X168225057Y-115295916D01*
X168225057Y-115295916D02*
X168129819Y-115343535D01*
X168129819Y-115343535D02*
X168082200Y-115391154D01*
X168082200Y-115391154D02*
X168034580Y-115486392D01*
X168034580Y-115486392D02*
X168034580Y-115676868D01*
X168034580Y-115676868D02*
X168082200Y-115772106D01*
X168082200Y-115772106D02*
X168129819Y-115819725D01*
X168129819Y-115819725D02*
X168225057Y-115867344D01*
X168225057Y-115867344D02*
X169034580Y-115867344D01*
X168082200Y-116295916D02*
X168034580Y-116438773D01*
X168034580Y-116438773D02*
X168034580Y-116676868D01*
X168034580Y-116676868D02*
X168082200Y-116772106D01*
X168082200Y-116772106D02*
X168129819Y-116819725D01*
X168129819Y-116819725D02*
X168225057Y-116867344D01*
X168225057Y-116867344D02*
X168320295Y-116867344D01*
X168320295Y-116867344D02*
X168415533Y-116819725D01*
X168415533Y-116819725D02*
X168463152Y-116772106D01*
X168463152Y-116772106D02*
X168510771Y-116676868D01*
X168510771Y-116676868D02*
X168558390Y-116486392D01*
X168558390Y-116486392D02*
X168606009Y-116391154D01*
X168606009Y-116391154D02*
X168653628Y-116343535D01*
X168653628Y-116343535D02*
X168748866Y-116295916D01*
X168748866Y-116295916D02*
X168844104Y-116295916D01*
X168844104Y-116295916D02*
X168939342Y-116343535D01*
X168939342Y-116343535D02*
X168986961Y-116391154D01*
X168986961Y-116391154D02*
X169034580Y-116486392D01*
X169034580Y-116486392D02*
X169034580Y-116724487D01*
X169034580Y-116724487D02*
X168986961Y-116867344D01*
X168558390Y-117629249D02*
X168510771Y-117772106D01*
X168510771Y-117772106D02*
X168463152Y-117819725D01*
X168463152Y-117819725D02*
X168367914Y-117867344D01*
X168367914Y-117867344D02*
X168225057Y-117867344D01*
X168225057Y-117867344D02*
X168129819Y-117819725D01*
X168129819Y-117819725D02*
X168082200Y-117772106D01*
X168082200Y-117772106D02*
X168034580Y-117676868D01*
X168034580Y-117676868D02*
X168034580Y-117295916D01*
X168034580Y-117295916D02*
X169034580Y-117295916D01*
X169034580Y-117295916D02*
X169034580Y-117629249D01*
X169034580Y-117629249D02*
X168986961Y-117724487D01*
X168986961Y-117724487D02*
X168939342Y-117772106D01*
X168939342Y-117772106D02*
X168844104Y-117819725D01*
X168844104Y-117819725D02*
X168748866Y-117819725D01*
X168748866Y-117819725D02*
X168653628Y-117772106D01*
X168653628Y-117772106D02*
X168606009Y-117724487D01*
X168606009Y-117724487D02*
X168558390Y-117629249D01*
X168558390Y-117629249D02*
X168558390Y-117295916D01*
X168939342Y-118248297D02*
X168986961Y-118295916D01*
X168986961Y-118295916D02*
X169034580Y-118391154D01*
X169034580Y-118391154D02*
X169034580Y-118629249D01*
X169034580Y-118629249D02*
X168986961Y-118724487D01*
X168986961Y-118724487D02*
X168939342Y-118772106D01*
X168939342Y-118772106D02*
X168844104Y-118819725D01*
X168844104Y-118819725D02*
X168748866Y-118819725D01*
X168748866Y-118819725D02*
X168606009Y-118772106D01*
X168606009Y-118772106D02*
X168034580Y-118200678D01*
X168034580Y-118200678D02*
X168034580Y-118819725D01*
X168129819Y-119248297D02*
X168082200Y-119295916D01*
X168082200Y-119295916D02*
X168034580Y-119248297D01*
X168034580Y-119248297D02*
X168082200Y-119200678D01*
X168082200Y-119200678D02*
X168129819Y-119248297D01*
X168129819Y-119248297D02*
X168034580Y-119248297D01*
X169034580Y-119914963D02*
X169034580Y-120010201D01*
X169034580Y-120010201D02*
X168986961Y-120105439D01*
X168986961Y-120105439D02*
X168939342Y-120153058D01*
X168939342Y-120153058D02*
X168844104Y-120200677D01*
X168844104Y-120200677D02*
X168653628Y-120248296D01*
X168653628Y-120248296D02*
X168415533Y-120248296D01*
X168415533Y-120248296D02*
X168225057Y-120200677D01*
X168225057Y-120200677D02*
X168129819Y-120153058D01*
X168129819Y-120153058D02*
X168082200Y-120105439D01*
X168082200Y-120105439D02*
X168034580Y-120010201D01*
X168034580Y-120010201D02*
X168034580Y-119914963D01*
X168034580Y-119914963D02*
X168082200Y-119819725D01*
X168082200Y-119819725D02*
X168129819Y-119772106D01*
X168129819Y-119772106D02*
X168225057Y-119724487D01*
X168225057Y-119724487D02*
X168415533Y-119676868D01*
X168415533Y-119676868D02*
X168653628Y-119676868D01*
X168653628Y-119676868D02*
X168844104Y-119724487D01*
X168844104Y-119724487D02*
X168939342Y-119772106D01*
X168939342Y-119772106D02*
X168986961Y-119819725D01*
X168986961Y-119819725D02*
X169034580Y-119914963D01*
X174034580Y-110176866D02*
X173320295Y-110176866D01*
X173320295Y-110176866D02*
X173177438Y-110129247D01*
X173177438Y-110129247D02*
X173082200Y-110034009D01*
X173082200Y-110034009D02*
X173034580Y-109891152D01*
X173034580Y-109891152D02*
X173034580Y-109795914D01*
X173034580Y-111176866D02*
X173034580Y-110605438D01*
X173034580Y-110891152D02*
X174034580Y-110891152D01*
X174034580Y-110891152D02*
X173891723Y-110795914D01*
X173891723Y-110795914D02*
X173796485Y-110700676D01*
X173796485Y-110700676D02*
X173748866Y-110605438D01*
X197138219Y-138985105D02*
X197852504Y-138985105D01*
X197852504Y-138985105D02*
X197995361Y-139032724D01*
X197995361Y-139032724D02*
X198090600Y-139127962D01*
X198090600Y-139127962D02*
X198138219Y-139270819D01*
X198138219Y-139270819D02*
X198138219Y-139366057D01*
X198233457Y-138747010D02*
X198233457Y-137985105D01*
X197614409Y-137747009D02*
X197614409Y-137413676D01*
X198138219Y-137270819D02*
X198138219Y-137747009D01*
X198138219Y-137747009D02*
X197138219Y-137747009D01*
X197138219Y-137747009D02*
X197138219Y-137270819D01*
X198090600Y-136889866D02*
X198138219Y-136747009D01*
X198138219Y-136747009D02*
X198138219Y-136508914D01*
X198138219Y-136508914D02*
X198090600Y-136413676D01*
X198090600Y-136413676D02*
X198042980Y-136366057D01*
X198042980Y-136366057D02*
X197947742Y-136318438D01*
X197947742Y-136318438D02*
X197852504Y-136318438D01*
X197852504Y-136318438D02*
X197757266Y-136366057D01*
X197757266Y-136366057D02*
X197709647Y-136413676D01*
X197709647Y-136413676D02*
X197662028Y-136508914D01*
X197662028Y-136508914D02*
X197614409Y-136699390D01*
X197614409Y-136699390D02*
X197566790Y-136794628D01*
X197566790Y-136794628D02*
X197519171Y-136842247D01*
X197519171Y-136842247D02*
X197423933Y-136889866D01*
X197423933Y-136889866D02*
X197328695Y-136889866D01*
X197328695Y-136889866D02*
X197233457Y-136842247D01*
X197233457Y-136842247D02*
X197185838Y-136794628D01*
X197185838Y-136794628D02*
X197138219Y-136699390D01*
X197138219Y-136699390D02*
X197138219Y-136461295D01*
X197138219Y-136461295D02*
X197185838Y-136318438D01*
X198138219Y-135889866D02*
X197138219Y-135889866D01*
X197138219Y-135889866D02*
X197138219Y-135508914D01*
X197138219Y-135508914D02*
X197185838Y-135413676D01*
X197185838Y-135413676D02*
X197233457Y-135366057D01*
X197233457Y-135366057D02*
X197328695Y-135318438D01*
X197328695Y-135318438D02*
X197471552Y-135318438D01*
X197471552Y-135318438D02*
X197566790Y-135366057D01*
X197566790Y-135366057D02*
X197614409Y-135413676D01*
X197614409Y-135413676D02*
X197662028Y-135508914D01*
X197662028Y-135508914D02*
X197662028Y-135889866D01*
X198233457Y-135127962D02*
X198233457Y-134366057D01*
X198138219Y-134127961D02*
X197138219Y-134127961D01*
X197138219Y-134127961D02*
X197138219Y-133889866D01*
X197138219Y-133889866D02*
X197185838Y-133747009D01*
X197185838Y-133747009D02*
X197281076Y-133651771D01*
X197281076Y-133651771D02*
X197376314Y-133604152D01*
X197376314Y-133604152D02*
X197566790Y-133556533D01*
X197566790Y-133556533D02*
X197709647Y-133556533D01*
X197709647Y-133556533D02*
X197900123Y-133604152D01*
X197900123Y-133604152D02*
X197995361Y-133651771D01*
X197995361Y-133651771D02*
X198090600Y-133747009D01*
X198090600Y-133747009D02*
X198138219Y-133889866D01*
X198138219Y-133889866D02*
X198138219Y-134127961D01*
X197614409Y-132794628D02*
X197662028Y-132651771D01*
X197662028Y-132651771D02*
X197709647Y-132604152D01*
X197709647Y-132604152D02*
X197804885Y-132556533D01*
X197804885Y-132556533D02*
X197947742Y-132556533D01*
X197947742Y-132556533D02*
X198042980Y-132604152D01*
X198042980Y-132604152D02*
X198090600Y-132651771D01*
X198090600Y-132651771D02*
X198138219Y-132747009D01*
X198138219Y-132747009D02*
X198138219Y-133127961D01*
X198138219Y-133127961D02*
X197138219Y-133127961D01*
X197138219Y-133127961D02*
X197138219Y-132794628D01*
X197138219Y-132794628D02*
X197185838Y-132699390D01*
X197185838Y-132699390D02*
X197233457Y-132651771D01*
X197233457Y-132651771D02*
X197328695Y-132604152D01*
X197328695Y-132604152D02*
X197423933Y-132604152D01*
X197423933Y-132604152D02*
X197519171Y-132651771D01*
X197519171Y-132651771D02*
X197566790Y-132699390D01*
X197566790Y-132699390D02*
X197614409Y-132794628D01*
X197614409Y-132794628D02*
X197614409Y-133127961D01*
X197185838Y-131604152D02*
X197138219Y-131699390D01*
X197138219Y-131699390D02*
X197138219Y-131842247D01*
X197138219Y-131842247D02*
X197185838Y-131985104D01*
X197185838Y-131985104D02*
X197281076Y-132080342D01*
X197281076Y-132080342D02*
X197376314Y-132127961D01*
X197376314Y-132127961D02*
X197566790Y-132175580D01*
X197566790Y-132175580D02*
X197709647Y-132175580D01*
X197709647Y-132175580D02*
X197900123Y-132127961D01*
X197900123Y-132127961D02*
X197995361Y-132080342D01*
X197995361Y-132080342D02*
X198090600Y-131985104D01*
X198090600Y-131985104D02*
X198138219Y-131842247D01*
X198138219Y-131842247D02*
X198138219Y-131747009D01*
X198138219Y-131747009D02*
X198090600Y-131604152D01*
X198090600Y-131604152D02*
X198042980Y-131556533D01*
X198042980Y-131556533D02*
X197709647Y-131556533D01*
X197709647Y-131556533D02*
X197709647Y-131747009D01*
X198233457Y-131366057D02*
X198233457Y-130604152D01*
X197138219Y-130366056D02*
X197947742Y-130366056D01*
X197947742Y-130366056D02*
X198042980Y-130318437D01*
X198042980Y-130318437D02*
X198090600Y-130270818D01*
X198090600Y-130270818D02*
X198138219Y-130175580D01*
X198138219Y-130175580D02*
X198138219Y-129985104D01*
X198138219Y-129985104D02*
X198090600Y-129889866D01*
X198090600Y-129889866D02*
X198042980Y-129842247D01*
X198042980Y-129842247D02*
X197947742Y-129794628D01*
X197947742Y-129794628D02*
X197138219Y-129794628D01*
X197852504Y-129366056D02*
X197852504Y-128889866D01*
X198138219Y-129461294D02*
X197138219Y-129127961D01*
X197138219Y-129127961D02*
X198138219Y-128794628D01*
X198138219Y-127889866D02*
X197662028Y-128223199D01*
X198138219Y-128461294D02*
X197138219Y-128461294D01*
X197138219Y-128461294D02*
X197138219Y-128080342D01*
X197138219Y-128080342D02*
X197185838Y-127985104D01*
X197185838Y-127985104D02*
X197233457Y-127937485D01*
X197233457Y-127937485D02*
X197328695Y-127889866D01*
X197328695Y-127889866D02*
X197471552Y-127889866D01*
X197471552Y-127889866D02*
X197566790Y-127937485D01*
X197566790Y-127937485D02*
X197614409Y-127985104D01*
X197614409Y-127985104D02*
X197662028Y-128080342D01*
X197662028Y-128080342D02*
X197662028Y-128461294D01*
X197138219Y-127604151D02*
X197138219Y-127032723D01*
X198138219Y-127318437D02*
X197138219Y-127318437D01*
X193438219Y-133556533D02*
X194152504Y-133556533D01*
X194152504Y-133556533D02*
X194295361Y-133604152D01*
X194295361Y-133604152D02*
X194390600Y-133699390D01*
X194390600Y-133699390D02*
X194438219Y-133842247D01*
X194438219Y-133842247D02*
X194438219Y-133937485D01*
X193771552Y-132651771D02*
X194438219Y-132651771D01*
X193390600Y-132889866D02*
X194104885Y-133127961D01*
X194104885Y-133127961D02*
X194104885Y-132508914D01*
X166964319Y-141118976D02*
X166964319Y-141690404D01*
X166964319Y-141404690D02*
X165964319Y-141404690D01*
X165964319Y-141404690D02*
X166107176Y-141499928D01*
X166107176Y-141499928D02*
X166202414Y-141595166D01*
X166202414Y-141595166D02*
X166250033Y-141690404D01*
X165964319Y-140499928D02*
X165964319Y-140404690D01*
X165964319Y-140404690D02*
X166011938Y-140309452D01*
X166011938Y-140309452D02*
X166059557Y-140261833D01*
X166059557Y-140261833D02*
X166154795Y-140214214D01*
X166154795Y-140214214D02*
X166345271Y-140166595D01*
X166345271Y-140166595D02*
X166583366Y-140166595D01*
X166583366Y-140166595D02*
X166773842Y-140214214D01*
X166773842Y-140214214D02*
X166869080Y-140261833D01*
X166869080Y-140261833D02*
X166916700Y-140309452D01*
X166916700Y-140309452D02*
X166964319Y-140404690D01*
X166964319Y-140404690D02*
X166964319Y-140499928D01*
X166964319Y-140499928D02*
X166916700Y-140595166D01*
X166916700Y-140595166D02*
X166869080Y-140642785D01*
X166869080Y-140642785D02*
X166773842Y-140690404D01*
X166773842Y-140690404D02*
X166583366Y-140738023D01*
X166583366Y-140738023D02*
X166345271Y-140738023D01*
X166345271Y-140738023D02*
X166154795Y-140690404D01*
X166154795Y-140690404D02*
X166059557Y-140642785D01*
X166059557Y-140642785D02*
X166011938Y-140595166D01*
X166011938Y-140595166D02*
X165964319Y-140499928D01*
X166964319Y-139738023D02*
X165964319Y-139738023D01*
X166964319Y-139166595D02*
X166392890Y-139595166D01*
X165964319Y-139166595D02*
X166535747Y-139738023D01*
D12*
X165086649Y-140749928D02*
X164848554Y-140916594D01*
X165086649Y-141035642D02*
X164586649Y-141035642D01*
X164586649Y-141035642D02*
X164586649Y-140845166D01*
X164586649Y-140845166D02*
X164610459Y-140797547D01*
X164610459Y-140797547D02*
X164634268Y-140773737D01*
X164634268Y-140773737D02*
X164681887Y-140749928D01*
X164681887Y-140749928D02*
X164753316Y-140749928D01*
X164753316Y-140749928D02*
X164800935Y-140773737D01*
X164800935Y-140773737D02*
X164824744Y-140797547D01*
X164824744Y-140797547D02*
X164848554Y-140845166D01*
X164848554Y-140845166D02*
X164848554Y-141035642D01*
X165086649Y-140273737D02*
X165086649Y-140559451D01*
X165086649Y-140416594D02*
X164586649Y-140416594D01*
X164586649Y-140416594D02*
X164658078Y-140464213D01*
X164658078Y-140464213D02*
X164705697Y-140511832D01*
X164705697Y-140511832D02*
X164729506Y-140559451D01*
X164753316Y-139845166D02*
X165086649Y-139845166D01*
X164562840Y-139964214D02*
X164919982Y-140083261D01*
X164919982Y-140083261D02*
X164919982Y-139773738D01*
D11*
X166964319Y-144444585D02*
X166964319Y-145016013D01*
X166964319Y-144730299D02*
X165964319Y-144730299D01*
X165964319Y-144730299D02*
X166107176Y-144825537D01*
X166107176Y-144825537D02*
X166202414Y-144920775D01*
X166202414Y-144920775D02*
X166250033Y-145016013D01*
X166964319Y-144016013D02*
X165964319Y-144016013D01*
X166964319Y-143444585D02*
X166392890Y-143873156D01*
X165964319Y-143444585D02*
X166535747Y-144016013D01*
D12*
X165086649Y-144551728D02*
X164848554Y-144718394D01*
X165086649Y-144837442D02*
X164586649Y-144837442D01*
X164586649Y-144837442D02*
X164586649Y-144646966D01*
X164586649Y-144646966D02*
X164610459Y-144599347D01*
X164610459Y-144599347D02*
X164634268Y-144575537D01*
X164634268Y-144575537D02*
X164681887Y-144551728D01*
X164681887Y-144551728D02*
X164753316Y-144551728D01*
X164753316Y-144551728D02*
X164800935Y-144575537D01*
X164800935Y-144575537D02*
X164824744Y-144599347D01*
X164824744Y-144599347D02*
X164848554Y-144646966D01*
X164848554Y-144646966D02*
X164848554Y-144837442D01*
X165086649Y-144075537D02*
X165086649Y-144361251D01*
X165086649Y-144218394D02*
X164586649Y-144218394D01*
X164586649Y-144218394D02*
X164658078Y-144266013D01*
X164658078Y-144266013D02*
X164705697Y-144313632D01*
X164705697Y-144313632D02*
X164729506Y-144361251D01*
X164586649Y-143623157D02*
X164586649Y-143861252D01*
X164586649Y-143861252D02*
X164824744Y-143885061D01*
X164824744Y-143885061D02*
X164800935Y-143861252D01*
X164800935Y-143861252D02*
X164777125Y-143813633D01*
X164777125Y-143813633D02*
X164777125Y-143694585D01*
X164777125Y-143694585D02*
X164800935Y-143646966D01*
X164800935Y-143646966D02*
X164824744Y-143623157D01*
X164824744Y-143623157D02*
X164872363Y-143599347D01*
X164872363Y-143599347D02*
X164991411Y-143599347D01*
X164991411Y-143599347D02*
X165039030Y-143623157D01*
X165039030Y-143623157D02*
X165062840Y-143646966D01*
X165062840Y-143646966D02*
X165086649Y-143694585D01*
X165086649Y-143694585D02*
X165086649Y-143813633D01*
X165086649Y-143813633D02*
X165062840Y-143861252D01*
X165062840Y-143861252D02*
X165039030Y-143885061D01*
D13*
X184389718Y-134165819D02*
X185417813Y-134165819D01*
X185417813Y-134165819D02*
X185538765Y-134105342D01*
X185538765Y-134105342D02*
X185599242Y-134044866D01*
X185599242Y-134044866D02*
X185659718Y-133923914D01*
X185659718Y-133923914D02*
X185659718Y-133682009D01*
X185659718Y-133682009D02*
X185599242Y-133561057D01*
X185599242Y-133561057D02*
X185538765Y-133500580D01*
X185538765Y-133500580D02*
X185417813Y-133440104D01*
X185417813Y-133440104D02*
X184389718Y-133440104D01*
X184510670Y-132895819D02*
X184450194Y-132835343D01*
X184450194Y-132835343D02*
X184389718Y-132714390D01*
X184389718Y-132714390D02*
X184389718Y-132412009D01*
X184389718Y-132412009D02*
X184450194Y-132291057D01*
X184450194Y-132291057D02*
X184510670Y-132230581D01*
X184510670Y-132230581D02*
X184631622Y-132170104D01*
X184631622Y-132170104D02*
X184752575Y-132170104D01*
X184752575Y-132170104D02*
X184934003Y-132230581D01*
X184934003Y-132230581D02*
X185659718Y-132956295D01*
X185659718Y-132956295D02*
X185659718Y-132170104D01*
D11*
X181131504Y-123387485D02*
X181131504Y-122911295D01*
X181417219Y-123482723D02*
X180417219Y-123149390D01*
X180417219Y-123149390D02*
X181417219Y-122816057D01*
X181417219Y-122482723D02*
X180417219Y-122482723D01*
X180417219Y-122482723D02*
X180417219Y-122244628D01*
X180417219Y-122244628D02*
X180464838Y-122101771D01*
X180464838Y-122101771D02*
X180560076Y-122006533D01*
X180560076Y-122006533D02*
X180655314Y-121958914D01*
X180655314Y-121958914D02*
X180845790Y-121911295D01*
X180845790Y-121911295D02*
X180988647Y-121911295D01*
X180988647Y-121911295D02*
X181179123Y-121958914D01*
X181179123Y-121958914D02*
X181274361Y-122006533D01*
X181274361Y-122006533D02*
X181369600Y-122101771D01*
X181369600Y-122101771D02*
X181417219Y-122244628D01*
X181417219Y-122244628D02*
X181417219Y-122482723D01*
X181417219Y-121482723D02*
X180417219Y-121482723D01*
X180417219Y-121482723D02*
X180417219Y-121244628D01*
X180417219Y-121244628D02*
X180464838Y-121101771D01*
X180464838Y-121101771D02*
X180560076Y-121006533D01*
X180560076Y-121006533D02*
X180655314Y-120958914D01*
X180655314Y-120958914D02*
X180845790Y-120911295D01*
X180845790Y-120911295D02*
X180988647Y-120911295D01*
X180988647Y-120911295D02*
X181179123Y-120958914D01*
X181179123Y-120958914D02*
X181274361Y-121006533D01*
X181274361Y-121006533D02*
X181369600Y-121101771D01*
X181369600Y-121101771D02*
X181417219Y-121244628D01*
X181417219Y-121244628D02*
X181417219Y-121482723D01*
X181417219Y-119911295D02*
X180941028Y-120244628D01*
X181417219Y-120482723D02*
X180417219Y-120482723D01*
X180417219Y-120482723D02*
X180417219Y-120101771D01*
X180417219Y-120101771D02*
X180464838Y-120006533D01*
X180464838Y-120006533D02*
X180512457Y-119958914D01*
X180512457Y-119958914D02*
X180607695Y-119911295D01*
X180607695Y-119911295D02*
X180750552Y-119911295D01*
X180750552Y-119911295D02*
X180845790Y-119958914D01*
X180845790Y-119958914D02*
X180893409Y-120006533D01*
X180893409Y-120006533D02*
X180941028Y-120101771D01*
X180941028Y-120101771D02*
X180941028Y-120482723D01*
X180750552Y-119054152D02*
X181417219Y-119054152D01*
X180369600Y-119292247D02*
X181083885Y-119530342D01*
X181083885Y-119530342D02*
X181083885Y-118911295D01*
X183990219Y-106676485D02*
X183990219Y-107247913D01*
X183990219Y-106962199D02*
X182990219Y-106962199D01*
X182990219Y-106962199D02*
X183133076Y-107057437D01*
X183133076Y-107057437D02*
X183228314Y-107152675D01*
X183228314Y-107152675D02*
X183275933Y-107247913D01*
X183990219Y-106247913D02*
X182990219Y-106247913D01*
X183990219Y-105676485D02*
X183418790Y-106105056D01*
X182990219Y-105676485D02*
X183561647Y-106247913D01*
D12*
X182112549Y-106545533D02*
X181874454Y-106712199D01*
X182112549Y-106831247D02*
X181612549Y-106831247D01*
X181612549Y-106831247D02*
X181612549Y-106640771D01*
X181612549Y-106640771D02*
X181636359Y-106593152D01*
X181636359Y-106593152D02*
X181660168Y-106569342D01*
X181660168Y-106569342D02*
X181707787Y-106545533D01*
X181707787Y-106545533D02*
X181779216Y-106545533D01*
X181779216Y-106545533D02*
X181826835Y-106569342D01*
X181826835Y-106569342D02*
X181850644Y-106593152D01*
X181850644Y-106593152D02*
X181874454Y-106640771D01*
X181874454Y-106640771D02*
X181874454Y-106831247D01*
X181612549Y-106116961D02*
X181612549Y-106212199D01*
X181612549Y-106212199D02*
X181636359Y-106259818D01*
X181636359Y-106259818D02*
X181660168Y-106283628D01*
X181660168Y-106283628D02*
X181731597Y-106331247D01*
X181731597Y-106331247D02*
X181826835Y-106355056D01*
X181826835Y-106355056D02*
X182017311Y-106355056D01*
X182017311Y-106355056D02*
X182064930Y-106331247D01*
X182064930Y-106331247D02*
X182088740Y-106307437D01*
X182088740Y-106307437D02*
X182112549Y-106259818D01*
X182112549Y-106259818D02*
X182112549Y-106164580D01*
X182112549Y-106164580D02*
X182088740Y-106116961D01*
X182088740Y-106116961D02*
X182064930Y-106093152D01*
X182064930Y-106093152D02*
X182017311Y-106069342D01*
X182017311Y-106069342D02*
X181898263Y-106069342D01*
X181898263Y-106069342D02*
X181850644Y-106093152D01*
X181850644Y-106093152D02*
X181826835Y-106116961D01*
X181826835Y-106116961D02*
X181803025Y-106164580D01*
X181803025Y-106164580D02*
X181803025Y-106259818D01*
X181803025Y-106259818D02*
X181826835Y-106307437D01*
X181826835Y-106307437D02*
X181850644Y-106331247D01*
X181850644Y-106331247D02*
X181898263Y-106355056D01*
D11*
X195200219Y-108038162D02*
X195200219Y-108514352D01*
X195200219Y-108514352D02*
X194200219Y-108514352D01*
X194676409Y-107704828D02*
X194676409Y-107371495D01*
X195200219Y-107228638D02*
X195200219Y-107704828D01*
X195200219Y-107704828D02*
X194200219Y-107704828D01*
X194200219Y-107704828D02*
X194200219Y-107228638D01*
X195200219Y-106800066D02*
X194200219Y-106800066D01*
X194200219Y-106800066D02*
X194200219Y-106561971D01*
X194200219Y-106561971D02*
X194247838Y-106419114D01*
X194247838Y-106419114D02*
X194343076Y-106323876D01*
X194343076Y-106323876D02*
X194438314Y-106276257D01*
X194438314Y-106276257D02*
X194628790Y-106228638D01*
X194628790Y-106228638D02*
X194771647Y-106228638D01*
X194771647Y-106228638D02*
X194962123Y-106276257D01*
X194962123Y-106276257D02*
X195057361Y-106323876D01*
X195057361Y-106323876D02*
X195152600Y-106419114D01*
X195152600Y-106419114D02*
X195200219Y-106561971D01*
X195200219Y-106561971D02*
X195200219Y-106800066D01*
X195200219Y-104466733D02*
X194724028Y-104800066D01*
X195200219Y-105038161D02*
X194200219Y-105038161D01*
X194200219Y-105038161D02*
X194200219Y-104657209D01*
X194200219Y-104657209D02*
X194247838Y-104561971D01*
X194247838Y-104561971D02*
X194295457Y-104514352D01*
X194295457Y-104514352D02*
X194390695Y-104466733D01*
X194390695Y-104466733D02*
X194533552Y-104466733D01*
X194533552Y-104466733D02*
X194628790Y-104514352D01*
X194628790Y-104514352D02*
X194676409Y-104561971D01*
X194676409Y-104561971D02*
X194724028Y-104657209D01*
X194724028Y-104657209D02*
X194724028Y-105038161D01*
X195152600Y-103657209D02*
X195200219Y-103752447D01*
X195200219Y-103752447D02*
X195200219Y-103942923D01*
X195200219Y-103942923D02*
X195152600Y-104038161D01*
X195152600Y-104038161D02*
X195057361Y-104085780D01*
X195057361Y-104085780D02*
X194676409Y-104085780D01*
X194676409Y-104085780D02*
X194581171Y-104038161D01*
X194581171Y-104038161D02*
X194533552Y-103942923D01*
X194533552Y-103942923D02*
X194533552Y-103752447D01*
X194533552Y-103752447D02*
X194581171Y-103657209D01*
X194581171Y-103657209D02*
X194676409Y-103609590D01*
X194676409Y-103609590D02*
X194771647Y-103609590D01*
X194771647Y-103609590D02*
X194866885Y-104085780D01*
X195200219Y-102752447D02*
X194200219Y-102752447D01*
X195152600Y-102752447D02*
X195200219Y-102847685D01*
X195200219Y-102847685D02*
X195200219Y-103038161D01*
X195200219Y-103038161D02*
X195152600Y-103133399D01*
X195152600Y-103133399D02*
X195104980Y-103181018D01*
X195104980Y-103181018D02*
X195009742Y-103228637D01*
X195009742Y-103228637D02*
X194724028Y-103228637D01*
X194724028Y-103228637D02*
X194628790Y-103181018D01*
X194628790Y-103181018D02*
X194581171Y-103133399D01*
X194581171Y-103133399D02*
X194533552Y-103038161D01*
X194533552Y-103038161D02*
X194533552Y-102847685D01*
X194533552Y-102847685D02*
X194581171Y-102752447D01*
D14*
X193497327Y-105928637D02*
X193097327Y-105928637D01*
X193097327Y-105928637D02*
X193097327Y-105833399D01*
X193097327Y-105833399D02*
X193116375Y-105776256D01*
X193116375Y-105776256D02*
X193154470Y-105738161D01*
X193154470Y-105738161D02*
X193192565Y-105719114D01*
X193192565Y-105719114D02*
X193268756Y-105700066D01*
X193268756Y-105700066D02*
X193325899Y-105700066D01*
X193325899Y-105700066D02*
X193402089Y-105719114D01*
X193402089Y-105719114D02*
X193440184Y-105738161D01*
X193440184Y-105738161D02*
X193478280Y-105776256D01*
X193478280Y-105776256D02*
X193497327Y-105833399D01*
X193497327Y-105833399D02*
X193497327Y-105928637D01*
X193097327Y-105338161D02*
X193097327Y-105528637D01*
X193097327Y-105528637D02*
X193287803Y-105547685D01*
X193287803Y-105547685D02*
X193268756Y-105528637D01*
X193268756Y-105528637D02*
X193249708Y-105490542D01*
X193249708Y-105490542D02*
X193249708Y-105395304D01*
X193249708Y-105395304D02*
X193268756Y-105357209D01*
X193268756Y-105357209D02*
X193287803Y-105338161D01*
X193287803Y-105338161D02*
X193325899Y-105319114D01*
X193325899Y-105319114D02*
X193421137Y-105319114D01*
X193421137Y-105319114D02*
X193459232Y-105338161D01*
X193459232Y-105338161D02*
X193478280Y-105357209D01*
X193478280Y-105357209D02*
X193497327Y-105395304D01*
X193497327Y-105395304D02*
X193497327Y-105490542D01*
X193497327Y-105490542D02*
X193478280Y-105528637D01*
X193478280Y-105528637D02*
X193459232Y-105547685D01*
D11*
X158716262Y-146799404D02*
X159192452Y-146799404D01*
X158621024Y-147085119D02*
X158954357Y-146085119D01*
X158954357Y-146085119D02*
X159287690Y-147085119D01*
X159811500Y-146085119D02*
X160001976Y-146085119D01*
X160001976Y-146085119D02*
X160097214Y-146132738D01*
X160097214Y-146132738D02*
X160192452Y-146227976D01*
X160192452Y-146227976D02*
X160240071Y-146418452D01*
X160240071Y-146418452D02*
X160240071Y-146751785D01*
X160240071Y-146751785D02*
X160192452Y-146942261D01*
X160192452Y-146942261D02*
X160097214Y-147037500D01*
X160097214Y-147037500D02*
X160001976Y-147085119D01*
X160001976Y-147085119D02*
X159811500Y-147085119D01*
X159811500Y-147085119D02*
X159716262Y-147037500D01*
X159716262Y-147037500D02*
X159621024Y-146942261D01*
X159621024Y-146942261D02*
X159573405Y-146751785D01*
X159573405Y-146751785D02*
X159573405Y-146418452D01*
X159573405Y-146418452D02*
X159621024Y-146227976D01*
X159621024Y-146227976D02*
X159716262Y-146132738D01*
X159716262Y-146132738D02*
X159811500Y-146085119D01*
X160573405Y-146085119D02*
X161192452Y-146085119D01*
X161192452Y-146085119D02*
X160859119Y-146466071D01*
X160859119Y-146466071D02*
X161001976Y-146466071D01*
X161001976Y-146466071D02*
X161097214Y-146513690D01*
X161097214Y-146513690D02*
X161144833Y-146561309D01*
X161144833Y-146561309D02*
X161192452Y-146656547D01*
X161192452Y-146656547D02*
X161192452Y-146894642D01*
X161192452Y-146894642D02*
X161144833Y-146989880D01*
X161144833Y-146989880D02*
X161097214Y-147037500D01*
X161097214Y-147037500D02*
X161001976Y-147085119D01*
X161001976Y-147085119D02*
X160716262Y-147085119D01*
X160716262Y-147085119D02*
X160621024Y-147037500D01*
X160621024Y-147037500D02*
X160573405Y-146989880D01*
X162049595Y-146418452D02*
X162049595Y-147085119D01*
X161811500Y-146037500D02*
X161573405Y-146751785D01*
X161573405Y-146751785D02*
X162192452Y-146751785D01*
X162763881Y-146085119D02*
X162859119Y-146085119D01*
X162859119Y-146085119D02*
X162954357Y-146132738D01*
X162954357Y-146132738D02*
X163001976Y-146180357D01*
X163001976Y-146180357D02*
X163049595Y-146275595D01*
X163049595Y-146275595D02*
X163097214Y-146466071D01*
X163097214Y-146466071D02*
X163097214Y-146704166D01*
X163097214Y-146704166D02*
X163049595Y-146894642D01*
X163049595Y-146894642D02*
X163001976Y-146989880D01*
X163001976Y-146989880D02*
X162954357Y-147037500D01*
X162954357Y-147037500D02*
X162859119Y-147085119D01*
X162859119Y-147085119D02*
X162763881Y-147085119D01*
X162763881Y-147085119D02*
X162668643Y-147037500D01*
X162668643Y-147037500D02*
X162621024Y-146989880D01*
X162621024Y-146989880D02*
X162573405Y-146894642D01*
X162573405Y-146894642D02*
X162525786Y-146704166D01*
X162525786Y-146704166D02*
X162525786Y-146466071D01*
X162525786Y-146466071D02*
X162573405Y-146275595D01*
X162573405Y-146275595D02*
X162621024Y-146180357D01*
X162621024Y-146180357D02*
X162668643Y-146132738D01*
X162668643Y-146132738D02*
X162763881Y-146085119D01*
X164049595Y-147085119D02*
X163478167Y-147085119D01*
X163763881Y-147085119D02*
X163763881Y-146085119D01*
X163763881Y-146085119D02*
X163668643Y-146227976D01*
X163668643Y-146227976D02*
X163573405Y-146323214D01*
X163573405Y-146323214D02*
X163478167Y-146370833D01*
X164430548Y-146799404D02*
X164906738Y-146799404D01*
X164335310Y-147085119D02*
X164668643Y-146085119D01*
X164668643Y-146085119D02*
X165001976Y-147085119D01*
D10*
X161781023Y-144406214D02*
X161750547Y-144390976D01*
X161750547Y-144390976D02*
X161720071Y-144360500D01*
X161720071Y-144360500D02*
X161674357Y-144314785D01*
X161674357Y-144314785D02*
X161643880Y-144299547D01*
X161643880Y-144299547D02*
X161613404Y-144299547D01*
X161628642Y-144375738D02*
X161598166Y-144360500D01*
X161598166Y-144360500D02*
X161567690Y-144330023D01*
X161567690Y-144330023D02*
X161552452Y-144269071D01*
X161552452Y-144269071D02*
X161552452Y-144162404D01*
X161552452Y-144162404D02*
X161567690Y-144101452D01*
X161567690Y-144101452D02*
X161598166Y-144070976D01*
X161598166Y-144070976D02*
X161628642Y-144055738D01*
X161628642Y-144055738D02*
X161689595Y-144055738D01*
X161689595Y-144055738D02*
X161720071Y-144070976D01*
X161720071Y-144070976D02*
X161750547Y-144101452D01*
X161750547Y-144101452D02*
X161765785Y-144162404D01*
X161765785Y-144162404D02*
X161765785Y-144269071D01*
X161765785Y-144269071D02*
X161750547Y-144330023D01*
X161750547Y-144330023D02*
X161720071Y-144360500D01*
X161720071Y-144360500D02*
X161689595Y-144375738D01*
X161689595Y-144375738D02*
X161628642Y-144375738D01*
X162040071Y-144162404D02*
X162040071Y-144375738D01*
X161963880Y-144040500D02*
X161887690Y-144269071D01*
X161887690Y-144269071D02*
X162085785Y-144269071D01*
D11*
X171497419Y-105701361D02*
X171497419Y-106177551D01*
X171497419Y-106177551D02*
X171973609Y-106225170D01*
X171973609Y-106225170D02*
X171925990Y-106177551D01*
X171925990Y-106177551D02*
X171878371Y-106082313D01*
X171878371Y-106082313D02*
X171878371Y-105844218D01*
X171878371Y-105844218D02*
X171925990Y-105748980D01*
X171925990Y-105748980D02*
X171973609Y-105701361D01*
X171973609Y-105701361D02*
X172068847Y-105653742D01*
X172068847Y-105653742D02*
X172306942Y-105653742D01*
X172306942Y-105653742D02*
X172402180Y-105701361D01*
X172402180Y-105701361D02*
X172449800Y-105748980D01*
X172449800Y-105748980D02*
X172497419Y-105844218D01*
X172497419Y-105844218D02*
X172497419Y-106082313D01*
X172497419Y-106082313D02*
X172449800Y-106177551D01*
X172449800Y-106177551D02*
X172402180Y-106225170D01*
X172402180Y-105225170D02*
X172449800Y-105177551D01*
X172449800Y-105177551D02*
X172497419Y-105225170D01*
X172497419Y-105225170D02*
X172449800Y-105272789D01*
X172449800Y-105272789D02*
X172402180Y-105225170D01*
X172402180Y-105225170D02*
X172497419Y-105225170D01*
X172497419Y-104225171D02*
X172497419Y-104796599D01*
X172497419Y-104510885D02*
X171497419Y-104510885D01*
X171497419Y-104510885D02*
X171640276Y-104606123D01*
X171640276Y-104606123D02*
X171735514Y-104701361D01*
X171735514Y-104701361D02*
X171783133Y-104796599D01*
X172497419Y-103796599D02*
X171497419Y-103796599D01*
X172497419Y-103225171D02*
X171925990Y-103653742D01*
X171497419Y-103225171D02*
X172068847Y-103796599D01*
X172497419Y-101510885D02*
X172497419Y-102082313D01*
X172497419Y-101796599D02*
X171497419Y-101796599D01*
X171497419Y-101796599D02*
X171640276Y-101891837D01*
X171640276Y-101891837D02*
X171735514Y-101987075D01*
X171735514Y-101987075D02*
X171783133Y-102082313D01*
X172497419Y-101129932D02*
X171497419Y-100368028D01*
X171497419Y-100987075D02*
X171545038Y-100891837D01*
X171545038Y-100891837D02*
X171640276Y-100844218D01*
X171640276Y-100844218D02*
X171735514Y-100891837D01*
X171735514Y-100891837D02*
X171783133Y-100987075D01*
X171783133Y-100987075D02*
X171735514Y-101082313D01*
X171735514Y-101082313D02*
X171640276Y-101129932D01*
X171640276Y-101129932D02*
X171545038Y-101082313D01*
X171545038Y-101082313D02*
X171497419Y-100987075D01*
X172449800Y-100415647D02*
X172354561Y-100368028D01*
X172354561Y-100368028D02*
X172259323Y-100415647D01*
X172259323Y-100415647D02*
X172211704Y-100510885D01*
X172211704Y-100510885D02*
X172259323Y-100606123D01*
X172259323Y-100606123D02*
X172354561Y-100653742D01*
X172354561Y-100653742D02*
X172449800Y-100606123D01*
X172449800Y-100606123D02*
X172497419Y-100510885D01*
X172497419Y-100510885D02*
X172449800Y-100415647D01*
D12*
X173919749Y-103379933D02*
X173681654Y-103546599D01*
X173919749Y-103665647D02*
X173419749Y-103665647D01*
X173419749Y-103665647D02*
X173419749Y-103475171D01*
X173419749Y-103475171D02*
X173443559Y-103427552D01*
X173443559Y-103427552D02*
X173467368Y-103403742D01*
X173467368Y-103403742D02*
X173514987Y-103379933D01*
X173514987Y-103379933D02*
X173586416Y-103379933D01*
X173586416Y-103379933D02*
X173634035Y-103403742D01*
X173634035Y-103403742D02*
X173657844Y-103427552D01*
X173657844Y-103427552D02*
X173681654Y-103475171D01*
X173681654Y-103475171D02*
X173681654Y-103665647D01*
X173634035Y-103094218D02*
X173610225Y-103141837D01*
X173610225Y-103141837D02*
X173586416Y-103165647D01*
X173586416Y-103165647D02*
X173538797Y-103189456D01*
X173538797Y-103189456D02*
X173514987Y-103189456D01*
X173514987Y-103189456D02*
X173467368Y-103165647D01*
X173467368Y-103165647D02*
X173443559Y-103141837D01*
X173443559Y-103141837D02*
X173419749Y-103094218D01*
X173419749Y-103094218D02*
X173419749Y-102998980D01*
X173419749Y-102998980D02*
X173443559Y-102951361D01*
X173443559Y-102951361D02*
X173467368Y-102927552D01*
X173467368Y-102927552D02*
X173514987Y-102903742D01*
X173514987Y-102903742D02*
X173538797Y-102903742D01*
X173538797Y-102903742D02*
X173586416Y-102927552D01*
X173586416Y-102927552D02*
X173610225Y-102951361D01*
X173610225Y-102951361D02*
X173634035Y-102998980D01*
X173634035Y-102998980D02*
X173634035Y-103094218D01*
X173634035Y-103094218D02*
X173657844Y-103141837D01*
X173657844Y-103141837D02*
X173681654Y-103165647D01*
X173681654Y-103165647D02*
X173729273Y-103189456D01*
X173729273Y-103189456D02*
X173824511Y-103189456D01*
X173824511Y-103189456D02*
X173872130Y-103165647D01*
X173872130Y-103165647D02*
X173895940Y-103141837D01*
X173895940Y-103141837D02*
X173919749Y-103094218D01*
X173919749Y-103094218D02*
X173919749Y-102998980D01*
X173919749Y-102998980D02*
X173895940Y-102951361D01*
X173895940Y-102951361D02*
X173872130Y-102927552D01*
X173872130Y-102927552D02*
X173824511Y-102903742D01*
X173824511Y-102903742D02*
X173729273Y-102903742D01*
X173729273Y-102903742D02*
X173681654Y-102927552D01*
X173681654Y-102927552D02*
X173657844Y-102951361D01*
X173657844Y-102951361D02*
X173634035Y-102998980D01*
D11*
X193585447Y-146681019D02*
X193585447Y-147395304D01*
X193585447Y-147395304D02*
X193537828Y-147538161D01*
X193537828Y-147538161D02*
X193442590Y-147633400D01*
X193442590Y-147633400D02*
X193299733Y-147681019D01*
X193299733Y-147681019D02*
X193204495Y-147681019D01*
X193823543Y-147776257D02*
X194585447Y-147776257D01*
X195156876Y-147157209D02*
X194823543Y-147157209D01*
X194823543Y-147681019D02*
X194823543Y-146681019D01*
X194823543Y-146681019D02*
X195299733Y-146681019D01*
X196252114Y-147585780D02*
X196204495Y-147633400D01*
X196204495Y-147633400D02*
X196061638Y-147681019D01*
X196061638Y-147681019D02*
X195966400Y-147681019D01*
X195966400Y-147681019D02*
X195823543Y-147633400D01*
X195823543Y-147633400D02*
X195728305Y-147538161D01*
X195728305Y-147538161D02*
X195680686Y-147442923D01*
X195680686Y-147442923D02*
X195633067Y-147252447D01*
X195633067Y-147252447D02*
X195633067Y-147109590D01*
X195633067Y-147109590D02*
X195680686Y-146919114D01*
X195680686Y-146919114D02*
X195728305Y-146823876D01*
X195728305Y-146823876D02*
X195823543Y-146728638D01*
X195823543Y-146728638D02*
X195966400Y-146681019D01*
X195966400Y-146681019D02*
X196061638Y-146681019D01*
X196061638Y-146681019D02*
X196204495Y-146728638D01*
X196204495Y-146728638D02*
X196252114Y-146776257D01*
X196442591Y-147776257D02*
X197204495Y-147776257D01*
X197442591Y-146681019D02*
X197442591Y-147490542D01*
X197442591Y-147490542D02*
X197490210Y-147585780D01*
X197490210Y-147585780D02*
X197537829Y-147633400D01*
X197537829Y-147633400D02*
X197633067Y-147681019D01*
X197633067Y-147681019D02*
X197823543Y-147681019D01*
X197823543Y-147681019D02*
X197918781Y-147633400D01*
X197918781Y-147633400D02*
X197966400Y-147585780D01*
X197966400Y-147585780D02*
X198014019Y-147490542D01*
X198014019Y-147490542D02*
X198014019Y-146681019D01*
X198442591Y-147395304D02*
X198918781Y-147395304D01*
X198347353Y-147681019D02*
X198680686Y-146681019D01*
X198680686Y-146681019D02*
X199014019Y-147681019D01*
X199918781Y-147681019D02*
X199585448Y-147204828D01*
X199347353Y-147681019D02*
X199347353Y-146681019D01*
X199347353Y-146681019D02*
X199728305Y-146681019D01*
X199728305Y-146681019D02*
X199823543Y-146728638D01*
X199823543Y-146728638D02*
X199871162Y-146776257D01*
X199871162Y-146776257D02*
X199918781Y-146871495D01*
X199918781Y-146871495D02*
X199918781Y-147014352D01*
X199918781Y-147014352D02*
X199871162Y-147109590D01*
X199871162Y-147109590D02*
X199823543Y-147157209D01*
X199823543Y-147157209D02*
X199728305Y-147204828D01*
X199728305Y-147204828D02*
X199347353Y-147204828D01*
X200204496Y-146681019D02*
X200775924Y-146681019D01*
X200490210Y-147681019D02*
X200490210Y-146681019D01*
X196633066Y-144781019D02*
X196633066Y-145495304D01*
X196633066Y-145495304D02*
X196585447Y-145638161D01*
X196585447Y-145638161D02*
X196490209Y-145733400D01*
X196490209Y-145733400D02*
X196347352Y-145781019D01*
X196347352Y-145781019D02*
X196252114Y-145781019D01*
X197014019Y-144781019D02*
X197680685Y-144781019D01*
X197680685Y-144781019D02*
X197252114Y-145781019D01*
X173566614Y-126688019D02*
X172995186Y-126688019D01*
X173280900Y-126688019D02*
X173280900Y-125688019D01*
X173280900Y-125688019D02*
X173185662Y-125830876D01*
X173185662Y-125830876D02*
X173090424Y-125926114D01*
X173090424Y-125926114D02*
X172995186Y-125973733D01*
X173995186Y-126688019D02*
X173995186Y-125688019D01*
X174566614Y-126688019D02*
X174138043Y-126116590D01*
X174566614Y-125688019D02*
X173995186Y-126259447D01*
D12*
X173697566Y-124810349D02*
X173530900Y-124572254D01*
X173411852Y-124810349D02*
X173411852Y-124310349D01*
X173411852Y-124310349D02*
X173602328Y-124310349D01*
X173602328Y-124310349D02*
X173649947Y-124334159D01*
X173649947Y-124334159D02*
X173673757Y-124357968D01*
X173673757Y-124357968D02*
X173697566Y-124405587D01*
X173697566Y-124405587D02*
X173697566Y-124477016D01*
X173697566Y-124477016D02*
X173673757Y-124524635D01*
X173673757Y-124524635D02*
X173649947Y-124548444D01*
X173649947Y-124548444D02*
X173602328Y-124572254D01*
X173602328Y-124572254D02*
X173411852Y-124572254D01*
X174126138Y-124477016D02*
X174126138Y-124810349D01*
X174007090Y-124286540D02*
X173888043Y-124643682D01*
X173888043Y-124643682D02*
X174197566Y-124643682D01*
D11*
X158430547Y-138628557D02*
X158335309Y-138580938D01*
X158335309Y-138580938D02*
X158240071Y-138485700D01*
X158240071Y-138485700D02*
X158097214Y-138342842D01*
X158097214Y-138342842D02*
X158001976Y-138295223D01*
X158001976Y-138295223D02*
X157906738Y-138295223D01*
X157954357Y-138533319D02*
X157859119Y-138485700D01*
X157859119Y-138485700D02*
X157763881Y-138390461D01*
X157763881Y-138390461D02*
X157716262Y-138199985D01*
X157716262Y-138199985D02*
X157716262Y-137866652D01*
X157716262Y-137866652D02*
X157763881Y-137676176D01*
X157763881Y-137676176D02*
X157859119Y-137580938D01*
X157859119Y-137580938D02*
X157954357Y-137533319D01*
X157954357Y-137533319D02*
X158144833Y-137533319D01*
X158144833Y-137533319D02*
X158240071Y-137580938D01*
X158240071Y-137580938D02*
X158335309Y-137676176D01*
X158335309Y-137676176D02*
X158382928Y-137866652D01*
X158382928Y-137866652D02*
X158382928Y-138199985D01*
X158382928Y-138199985D02*
X158335309Y-138390461D01*
X158335309Y-138390461D02*
X158240071Y-138485700D01*
X158240071Y-138485700D02*
X158144833Y-138533319D01*
X158144833Y-138533319D02*
X157954357Y-138533319D01*
X158573405Y-138628557D02*
X159335309Y-138628557D01*
X159573405Y-138533319D02*
X159573405Y-137533319D01*
X159573405Y-137533319D02*
X160144833Y-138533319D01*
X160144833Y-138533319D02*
X160144833Y-137533319D01*
X160621024Y-138533319D02*
X160621024Y-137533319D01*
X160621024Y-137533319D02*
X161001976Y-137533319D01*
X161001976Y-137533319D02*
X161097214Y-137580938D01*
X161097214Y-137580938D02*
X161144833Y-137628557D01*
X161144833Y-137628557D02*
X161192452Y-137723795D01*
X161192452Y-137723795D02*
X161192452Y-137866652D01*
X161192452Y-137866652D02*
X161144833Y-137961890D01*
X161144833Y-137961890D02*
X161097214Y-138009509D01*
X161097214Y-138009509D02*
X161001976Y-138057128D01*
X161001976Y-138057128D02*
X160621024Y-138057128D01*
X161621024Y-138533319D02*
X161621024Y-137533319D01*
X161621024Y-137533319D02*
X162192452Y-138533319D01*
X162192452Y-138533319D02*
X162192452Y-137533319D01*
X162430548Y-138628557D02*
X163192452Y-138628557D01*
X163763881Y-138009509D02*
X163906738Y-138057128D01*
X163906738Y-138057128D02*
X163954357Y-138104747D01*
X163954357Y-138104747D02*
X164001976Y-138199985D01*
X164001976Y-138199985D02*
X164001976Y-138342842D01*
X164001976Y-138342842D02*
X163954357Y-138438080D01*
X163954357Y-138438080D02*
X163906738Y-138485700D01*
X163906738Y-138485700D02*
X163811500Y-138533319D01*
X163811500Y-138533319D02*
X163430548Y-138533319D01*
X163430548Y-138533319D02*
X163430548Y-137533319D01*
X163430548Y-137533319D02*
X163763881Y-137533319D01*
X163763881Y-137533319D02*
X163859119Y-137580938D01*
X163859119Y-137580938D02*
X163906738Y-137628557D01*
X163906738Y-137628557D02*
X163954357Y-137723795D01*
X163954357Y-137723795D02*
X163954357Y-137819033D01*
X163954357Y-137819033D02*
X163906738Y-137914271D01*
X163906738Y-137914271D02*
X163859119Y-137961890D01*
X163859119Y-137961890D02*
X163763881Y-138009509D01*
X163763881Y-138009509D02*
X163430548Y-138009509D01*
X164430548Y-138009509D02*
X164763881Y-138009509D01*
X164906738Y-138533319D02*
X164430548Y-138533319D01*
X164430548Y-138533319D02*
X164430548Y-137533319D01*
X164430548Y-137533319D02*
X164906738Y-137533319D01*
X165906738Y-138438080D02*
X165859119Y-138485700D01*
X165859119Y-138485700D02*
X165716262Y-138533319D01*
X165716262Y-138533319D02*
X165621024Y-138533319D01*
X165621024Y-138533319D02*
X165478167Y-138485700D01*
X165478167Y-138485700D02*
X165382929Y-138390461D01*
X165382929Y-138390461D02*
X165335310Y-138295223D01*
X165335310Y-138295223D02*
X165287691Y-138104747D01*
X165287691Y-138104747D02*
X165287691Y-137961890D01*
X165287691Y-137961890D02*
X165335310Y-137771414D01*
X165335310Y-137771414D02*
X165382929Y-137676176D01*
X165382929Y-137676176D02*
X165478167Y-137580938D01*
X165478167Y-137580938D02*
X165621024Y-137533319D01*
X165621024Y-137533319D02*
X165716262Y-137533319D01*
X165716262Y-137533319D02*
X165859119Y-137580938D01*
X165859119Y-137580938D02*
X165906738Y-137628557D01*
D10*
X161781023Y-140654414D02*
X161750547Y-140639176D01*
X161750547Y-140639176D02*
X161720071Y-140608700D01*
X161720071Y-140608700D02*
X161674357Y-140562985D01*
X161674357Y-140562985D02*
X161643880Y-140547747D01*
X161643880Y-140547747D02*
X161613404Y-140547747D01*
X161628642Y-140623938D02*
X161598166Y-140608700D01*
X161598166Y-140608700D02*
X161567690Y-140578223D01*
X161567690Y-140578223D02*
X161552452Y-140517271D01*
X161552452Y-140517271D02*
X161552452Y-140410604D01*
X161552452Y-140410604D02*
X161567690Y-140349652D01*
X161567690Y-140349652D02*
X161598166Y-140319176D01*
X161598166Y-140319176D02*
X161628642Y-140303938D01*
X161628642Y-140303938D02*
X161689595Y-140303938D01*
X161689595Y-140303938D02*
X161720071Y-140319176D01*
X161720071Y-140319176D02*
X161750547Y-140349652D01*
X161750547Y-140349652D02*
X161765785Y-140410604D01*
X161765785Y-140410604D02*
X161765785Y-140517271D01*
X161765785Y-140517271D02*
X161750547Y-140578223D01*
X161750547Y-140578223D02*
X161720071Y-140608700D01*
X161720071Y-140608700D02*
X161689595Y-140623938D01*
X161689595Y-140623938D02*
X161628642Y-140623938D01*
X161872452Y-140303938D02*
X162070547Y-140303938D01*
X162070547Y-140303938D02*
X161963880Y-140425842D01*
X161963880Y-140425842D02*
X162009595Y-140425842D01*
X162009595Y-140425842D02*
X162040071Y-140441080D01*
X162040071Y-140441080D02*
X162055309Y-140456319D01*
X162055309Y-140456319D02*
X162070547Y-140486795D01*
X162070547Y-140486795D02*
X162070547Y-140562985D01*
X162070547Y-140562985D02*
X162055309Y-140593461D01*
X162055309Y-140593461D02*
X162040071Y-140608700D01*
X162040071Y-140608700D02*
X162009595Y-140623938D01*
X162009595Y-140623938D02*
X161918166Y-140623938D01*
X161918166Y-140623938D02*
X161887690Y-140608700D01*
X161887690Y-140608700D02*
X161872452Y-140593461D01*
D11*
X182371971Y-100229019D02*
X182371971Y-99229019D01*
X182371971Y-99229019D02*
X182705304Y-99943304D01*
X182705304Y-99943304D02*
X183038637Y-99229019D01*
X183038637Y-99229019D02*
X183038637Y-100229019D01*
X183848161Y-99705209D02*
X183991018Y-99752828D01*
X183991018Y-99752828D02*
X184038637Y-99800447D01*
X184038637Y-99800447D02*
X184086256Y-99895685D01*
X184086256Y-99895685D02*
X184086256Y-100038542D01*
X184086256Y-100038542D02*
X184038637Y-100133780D01*
X184038637Y-100133780D02*
X183991018Y-100181400D01*
X183991018Y-100181400D02*
X183895780Y-100229019D01*
X183895780Y-100229019D02*
X183514828Y-100229019D01*
X183514828Y-100229019D02*
X183514828Y-99229019D01*
X183514828Y-99229019D02*
X183848161Y-99229019D01*
X183848161Y-99229019D02*
X183943399Y-99276638D01*
X183943399Y-99276638D02*
X183991018Y-99324257D01*
X183991018Y-99324257D02*
X184038637Y-99419495D01*
X184038637Y-99419495D02*
X184038637Y-99514733D01*
X184038637Y-99514733D02*
X183991018Y-99609971D01*
X183991018Y-99609971D02*
X183943399Y-99657590D01*
X183943399Y-99657590D02*
X183848161Y-99705209D01*
X183848161Y-99705209D02*
X183514828Y-99705209D01*
X185086256Y-100229019D02*
X184752923Y-99752828D01*
X184514828Y-100229019D02*
X184514828Y-99229019D01*
X184514828Y-99229019D02*
X184895780Y-99229019D01*
X184895780Y-99229019D02*
X184991018Y-99276638D01*
X184991018Y-99276638D02*
X185038637Y-99324257D01*
X185038637Y-99324257D02*
X185086256Y-99419495D01*
X185086256Y-99419495D02*
X185086256Y-99562352D01*
X185086256Y-99562352D02*
X185038637Y-99657590D01*
X185038637Y-99657590D02*
X184991018Y-99705209D01*
X184991018Y-99705209D02*
X184895780Y-99752828D01*
X184895780Y-99752828D02*
X184514828Y-99752828D01*
X186038637Y-100229019D02*
X185467209Y-100229019D01*
X185752923Y-100229019D02*
X185752923Y-99229019D01*
X185752923Y-99229019D02*
X185657685Y-99371876D01*
X185657685Y-99371876D02*
X185562447Y-99467114D01*
X185562447Y-99467114D02*
X185467209Y-99514733D01*
X186657685Y-99229019D02*
X186752923Y-99229019D01*
X186752923Y-99229019D02*
X186848161Y-99276638D01*
X186848161Y-99276638D02*
X186895780Y-99324257D01*
X186895780Y-99324257D02*
X186943399Y-99419495D01*
X186943399Y-99419495D02*
X186991018Y-99609971D01*
X186991018Y-99609971D02*
X186991018Y-99848066D01*
X186991018Y-99848066D02*
X186943399Y-100038542D01*
X186943399Y-100038542D02*
X186895780Y-100133780D01*
X186895780Y-100133780D02*
X186848161Y-100181400D01*
X186848161Y-100181400D02*
X186752923Y-100229019D01*
X186752923Y-100229019D02*
X186657685Y-100229019D01*
X186657685Y-100229019D02*
X186562447Y-100181400D01*
X186562447Y-100181400D02*
X186514828Y-100133780D01*
X186514828Y-100133780D02*
X186467209Y-100038542D01*
X186467209Y-100038542D02*
X186419590Y-99848066D01*
X186419590Y-99848066D02*
X186419590Y-99609971D01*
X186419590Y-99609971D02*
X186467209Y-99419495D01*
X186467209Y-99419495D02*
X186514828Y-99324257D01*
X186514828Y-99324257D02*
X186562447Y-99276638D01*
X186562447Y-99276638D02*
X186657685Y-99229019D01*
X187371971Y-99324257D02*
X187419590Y-99276638D01*
X187419590Y-99276638D02*
X187514828Y-99229019D01*
X187514828Y-99229019D02*
X187752923Y-99229019D01*
X187752923Y-99229019D02*
X187848161Y-99276638D01*
X187848161Y-99276638D02*
X187895780Y-99324257D01*
X187895780Y-99324257D02*
X187943399Y-99419495D01*
X187943399Y-99419495D02*
X187943399Y-99514733D01*
X187943399Y-99514733D02*
X187895780Y-99657590D01*
X187895780Y-99657590D02*
X187324352Y-100229019D01*
X187324352Y-100229019D02*
X187943399Y-100229019D01*
X188562447Y-99229019D02*
X188657685Y-99229019D01*
X188657685Y-99229019D02*
X188752923Y-99276638D01*
X188752923Y-99276638D02*
X188800542Y-99324257D01*
X188800542Y-99324257D02*
X188848161Y-99419495D01*
X188848161Y-99419495D02*
X188895780Y-99609971D01*
X188895780Y-99609971D02*
X188895780Y-99848066D01*
X188895780Y-99848066D02*
X188848161Y-100038542D01*
X188848161Y-100038542D02*
X188800542Y-100133780D01*
X188800542Y-100133780D02*
X188752923Y-100181400D01*
X188752923Y-100181400D02*
X188657685Y-100229019D01*
X188657685Y-100229019D02*
X188562447Y-100229019D01*
X188562447Y-100229019D02*
X188467209Y-100181400D01*
X188467209Y-100181400D02*
X188419590Y-100133780D01*
X188419590Y-100133780D02*
X188371971Y-100038542D01*
X188371971Y-100038542D02*
X188324352Y-99848066D01*
X188324352Y-99848066D02*
X188324352Y-99609971D01*
X188324352Y-99609971D02*
X188371971Y-99419495D01*
X188371971Y-99419495D02*
X188419590Y-99324257D01*
X188419590Y-99324257D02*
X188467209Y-99276638D01*
X188467209Y-99276638D02*
X188562447Y-99229019D01*
X189181495Y-99229019D02*
X189514828Y-100229019D01*
X189514828Y-100229019D02*
X189848161Y-99229019D01*
X190657685Y-100229019D02*
X190181495Y-100229019D01*
X190181495Y-100229019D02*
X190181495Y-99229019D01*
X185832305Y-104234019D02*
X185832305Y-103234019D01*
X185832305Y-103234019D02*
X186070400Y-103234019D01*
X186070400Y-103234019D02*
X186213257Y-103281638D01*
X186213257Y-103281638D02*
X186308495Y-103376876D01*
X186308495Y-103376876D02*
X186356114Y-103472114D01*
X186356114Y-103472114D02*
X186403733Y-103662590D01*
X186403733Y-103662590D02*
X186403733Y-103805447D01*
X186403733Y-103805447D02*
X186356114Y-103995923D01*
X186356114Y-103995923D02*
X186308495Y-104091161D01*
X186308495Y-104091161D02*
X186213257Y-104186400D01*
X186213257Y-104186400D02*
X186070400Y-104234019D01*
X186070400Y-104234019D02*
X185832305Y-104234019D01*
X186784686Y-103329257D02*
X186832305Y-103281638D01*
X186832305Y-103281638D02*
X186927543Y-103234019D01*
X186927543Y-103234019D02*
X187165638Y-103234019D01*
X187165638Y-103234019D02*
X187260876Y-103281638D01*
X187260876Y-103281638D02*
X187308495Y-103329257D01*
X187308495Y-103329257D02*
X187356114Y-103424495D01*
X187356114Y-103424495D02*
X187356114Y-103519733D01*
X187356114Y-103519733D02*
X187308495Y-103662590D01*
X187308495Y-103662590D02*
X186737067Y-104234019D01*
X186737067Y-104234019D02*
X187356114Y-104234019D01*
X179923552Y-114205247D02*
X180590219Y-114205247D01*
X179542600Y-114443342D02*
X180256885Y-114681437D01*
X180256885Y-114681437D02*
X180256885Y-114062390D01*
X180494980Y-113681437D02*
X180542600Y-113633818D01*
X180542600Y-113633818D02*
X180590219Y-113681437D01*
X180590219Y-113681437D02*
X180542600Y-113729056D01*
X180542600Y-113729056D02*
X180494980Y-113681437D01*
X180494980Y-113681437D02*
X180590219Y-113681437D01*
X179590219Y-113300485D02*
X179590219Y-112633819D01*
X179590219Y-112633819D02*
X180590219Y-113062390D01*
X179923552Y-111824295D02*
X180590219Y-111824295D01*
X179923552Y-112252866D02*
X180447361Y-112252866D01*
X180447361Y-112252866D02*
X180542600Y-112205247D01*
X180542600Y-112205247D02*
X180590219Y-112110009D01*
X180590219Y-112110009D02*
X180590219Y-111967152D01*
X180590219Y-111967152D02*
X180542600Y-111871914D01*
X180542600Y-111871914D02*
X180494980Y-111824295D01*
X180066409Y-111014771D02*
X180066409Y-111348104D01*
X180590219Y-111348104D02*
X179590219Y-111348104D01*
X179590219Y-111348104D02*
X179590219Y-110871914D01*
X180590219Y-109205247D02*
X180590219Y-109776675D01*
X180590219Y-109490961D02*
X179590219Y-109490961D01*
X179590219Y-109490961D02*
X179733076Y-109586199D01*
X179733076Y-109586199D02*
X179828314Y-109681437D01*
X179828314Y-109681437D02*
X179875933Y-109776675D01*
X179590219Y-108586199D02*
X179590219Y-108490961D01*
X179590219Y-108490961D02*
X179637838Y-108395723D01*
X179637838Y-108395723D02*
X179685457Y-108348104D01*
X179685457Y-108348104D02*
X179780695Y-108300485D01*
X179780695Y-108300485D02*
X179971171Y-108252866D01*
X179971171Y-108252866D02*
X180209266Y-108252866D01*
X180209266Y-108252866D02*
X180399742Y-108300485D01*
X180399742Y-108300485D02*
X180494980Y-108348104D01*
X180494980Y-108348104D02*
X180542600Y-108395723D01*
X180542600Y-108395723D02*
X180590219Y-108490961D01*
X180590219Y-108490961D02*
X180590219Y-108586199D01*
X180590219Y-108586199D02*
X180542600Y-108681437D01*
X180542600Y-108681437D02*
X180494980Y-108729056D01*
X180494980Y-108729056D02*
X180399742Y-108776675D01*
X180399742Y-108776675D02*
X180209266Y-108824294D01*
X180209266Y-108824294D02*
X179971171Y-108824294D01*
X179971171Y-108824294D02*
X179780695Y-108776675D01*
X179780695Y-108776675D02*
X179685457Y-108729056D01*
X179685457Y-108729056D02*
X179637838Y-108681437D01*
X179637838Y-108681437D02*
X179590219Y-108586199D01*
X179923552Y-107919532D02*
X180590219Y-107681437D01*
X180590219Y-107681437D02*
X179923552Y-107443342D01*
D15*
X182173064Y-111219532D02*
X182211160Y-111257628D01*
X182211160Y-111257628D02*
X182249255Y-111371913D01*
X182249255Y-111371913D02*
X182249255Y-111448104D01*
X182249255Y-111448104D02*
X182211160Y-111562390D01*
X182211160Y-111562390D02*
X182134969Y-111638580D01*
X182134969Y-111638580D02*
X182058779Y-111676675D01*
X182058779Y-111676675D02*
X181906398Y-111714771D01*
X181906398Y-111714771D02*
X181792112Y-111714771D01*
X181792112Y-111714771D02*
X181639731Y-111676675D01*
X181639731Y-111676675D02*
X181563540Y-111638580D01*
X181563540Y-111638580D02*
X181487350Y-111562390D01*
X181487350Y-111562390D02*
X181449255Y-111448104D01*
X181449255Y-111448104D02*
X181449255Y-111371913D01*
X181449255Y-111371913D02*
X181487350Y-111257628D01*
X181487350Y-111257628D02*
X181525445Y-111219532D01*
X181449255Y-110495723D02*
X181449255Y-110876675D01*
X181449255Y-110876675D02*
X181830207Y-110914771D01*
X181830207Y-110914771D02*
X181792112Y-110876675D01*
X181792112Y-110876675D02*
X181754017Y-110800485D01*
X181754017Y-110800485D02*
X181754017Y-110610009D01*
X181754017Y-110610009D02*
X181792112Y-110533818D01*
X181792112Y-110533818D02*
X181830207Y-110495723D01*
X181830207Y-110495723D02*
X181906398Y-110457628D01*
X181906398Y-110457628D02*
X182096874Y-110457628D01*
X182096874Y-110457628D02*
X182173064Y-110495723D01*
X182173064Y-110495723D02*
X182211160Y-110533818D01*
X182211160Y-110533818D02*
X182249255Y-110610009D01*
X182249255Y-110610009D02*
X182249255Y-110800485D01*
X182249255Y-110800485D02*
X182211160Y-110876675D01*
X182211160Y-110876675D02*
X182173064Y-110914771D01*
D11*
X173566614Y-139996219D02*
X172995186Y-139996219D01*
X173280900Y-139996219D02*
X173280900Y-138996219D01*
X173280900Y-138996219D02*
X173185662Y-139139076D01*
X173185662Y-139139076D02*
X173090424Y-139234314D01*
X173090424Y-139234314D02*
X172995186Y-139281933D01*
X173995186Y-139996219D02*
X173995186Y-138996219D01*
X174566614Y-139996219D02*
X174138043Y-139424790D01*
X174566614Y-138996219D02*
X173995186Y-139567647D01*
D12*
X173697566Y-138118549D02*
X173530900Y-137880454D01*
X173411852Y-138118549D02*
X173411852Y-137618549D01*
X173411852Y-137618549D02*
X173602328Y-137618549D01*
X173602328Y-137618549D02*
X173649947Y-137642359D01*
X173649947Y-137642359D02*
X173673757Y-137666168D01*
X173673757Y-137666168D02*
X173697566Y-137713787D01*
X173697566Y-137713787D02*
X173697566Y-137785216D01*
X173697566Y-137785216D02*
X173673757Y-137832835D01*
X173673757Y-137832835D02*
X173649947Y-137856644D01*
X173649947Y-137856644D02*
X173602328Y-137880454D01*
X173602328Y-137880454D02*
X173411852Y-137880454D01*
X173864233Y-137618549D02*
X174173757Y-137618549D01*
X174173757Y-137618549D02*
X174007090Y-137809025D01*
X174007090Y-137809025D02*
X174078519Y-137809025D01*
X174078519Y-137809025D02*
X174126138Y-137832835D01*
X174126138Y-137832835D02*
X174149947Y-137856644D01*
X174149947Y-137856644D02*
X174173757Y-137904263D01*
X174173757Y-137904263D02*
X174173757Y-138023311D01*
X174173757Y-138023311D02*
X174149947Y-138070930D01*
X174149947Y-138070930D02*
X174126138Y-138094740D01*
X174126138Y-138094740D02*
X174078519Y-138118549D01*
X174078519Y-138118549D02*
X173935662Y-138118549D01*
X173935662Y-138118549D02*
X173888043Y-138094740D01*
X173888043Y-138094740D02*
X173864233Y-138070930D01*
D11*
X169678542Y-146603019D02*
X169678542Y-147317304D01*
X169678542Y-147317304D02*
X169630923Y-147460161D01*
X169630923Y-147460161D02*
X169535685Y-147555400D01*
X169535685Y-147555400D02*
X169392828Y-147603019D01*
X169392828Y-147603019D02*
X169297590Y-147603019D01*
X169916638Y-147698257D02*
X170678542Y-147698257D01*
X170916638Y-147603019D02*
X170916638Y-146603019D01*
X170916638Y-146603019D02*
X171154733Y-146603019D01*
X171154733Y-146603019D02*
X171297590Y-146650638D01*
X171297590Y-146650638D02*
X171392828Y-146745876D01*
X171392828Y-146745876D02*
X171440447Y-146841114D01*
X171440447Y-146841114D02*
X171488066Y-147031590D01*
X171488066Y-147031590D02*
X171488066Y-147174447D01*
X171488066Y-147174447D02*
X171440447Y-147364923D01*
X171440447Y-147364923D02*
X171392828Y-147460161D01*
X171392828Y-147460161D02*
X171297590Y-147555400D01*
X171297590Y-147555400D02*
X171154733Y-147603019D01*
X171154733Y-147603019D02*
X170916638Y-147603019D01*
X171869019Y-147555400D02*
X172011876Y-147603019D01*
X172011876Y-147603019D02*
X172249971Y-147603019D01*
X172249971Y-147603019D02*
X172345209Y-147555400D01*
X172345209Y-147555400D02*
X172392828Y-147507780D01*
X172392828Y-147507780D02*
X172440447Y-147412542D01*
X172440447Y-147412542D02*
X172440447Y-147317304D01*
X172440447Y-147317304D02*
X172392828Y-147222066D01*
X172392828Y-147222066D02*
X172345209Y-147174447D01*
X172345209Y-147174447D02*
X172249971Y-147126828D01*
X172249971Y-147126828D02*
X172059495Y-147079209D01*
X172059495Y-147079209D02*
X171964257Y-147031590D01*
X171964257Y-147031590D02*
X171916638Y-146983971D01*
X171916638Y-146983971D02*
X171869019Y-146888733D01*
X171869019Y-146888733D02*
X171869019Y-146793495D01*
X171869019Y-146793495D02*
X171916638Y-146698257D01*
X171916638Y-146698257D02*
X171964257Y-146650638D01*
X171964257Y-146650638D02*
X172059495Y-146603019D01*
X172059495Y-146603019D02*
X172297590Y-146603019D01*
X172297590Y-146603019D02*
X172440447Y-146650638D01*
X172869019Y-147603019D02*
X172869019Y-146603019D01*
X173297590Y-147603019D02*
X173297590Y-147079209D01*
X173297590Y-147079209D02*
X173249971Y-146983971D01*
X173249971Y-146983971D02*
X173154733Y-146936352D01*
X173154733Y-146936352D02*
X173011876Y-146936352D01*
X173011876Y-146936352D02*
X172916638Y-146983971D01*
X172916638Y-146983971D02*
X172869019Y-147031590D01*
X173916638Y-147603019D02*
X173821400Y-147555400D01*
X173821400Y-147555400D02*
X173773781Y-147507780D01*
X173773781Y-147507780D02*
X173726162Y-147412542D01*
X173726162Y-147412542D02*
X173726162Y-147126828D01*
X173726162Y-147126828D02*
X173773781Y-147031590D01*
X173773781Y-147031590D02*
X173821400Y-146983971D01*
X173821400Y-146983971D02*
X173916638Y-146936352D01*
X173916638Y-146936352D02*
X174059495Y-146936352D01*
X174059495Y-146936352D02*
X174154733Y-146983971D01*
X174154733Y-146983971D02*
X174202352Y-147031590D01*
X174202352Y-147031590D02*
X174249971Y-147126828D01*
X174249971Y-147126828D02*
X174249971Y-147412542D01*
X174249971Y-147412542D02*
X174202352Y-147507780D01*
X174202352Y-147507780D02*
X174154733Y-147555400D01*
X174154733Y-147555400D02*
X174059495Y-147603019D01*
X174059495Y-147603019D02*
X173916638Y-147603019D01*
X174535686Y-146936352D02*
X174916638Y-146936352D01*
X174678543Y-146603019D02*
X174678543Y-147460161D01*
X174678543Y-147460161D02*
X174726162Y-147555400D01*
X174726162Y-147555400D02*
X174821400Y-147603019D01*
X174821400Y-147603019D02*
X174916638Y-147603019D01*
X175678543Y-146603019D02*
X175488067Y-146603019D01*
X175488067Y-146603019D02*
X175392829Y-146650638D01*
X175392829Y-146650638D02*
X175345210Y-146698257D01*
X175345210Y-146698257D02*
X175249972Y-146841114D01*
X175249972Y-146841114D02*
X175202353Y-147031590D01*
X175202353Y-147031590D02*
X175202353Y-147412542D01*
X175202353Y-147412542D02*
X175249972Y-147507780D01*
X175249972Y-147507780D02*
X175297591Y-147555400D01*
X175297591Y-147555400D02*
X175392829Y-147603019D01*
X175392829Y-147603019D02*
X175583305Y-147603019D01*
X175583305Y-147603019D02*
X175678543Y-147555400D01*
X175678543Y-147555400D02*
X175726162Y-147507780D01*
X175726162Y-147507780D02*
X175773781Y-147412542D01*
X175773781Y-147412542D02*
X175773781Y-147174447D01*
X175773781Y-147174447D02*
X175726162Y-147079209D01*
X175726162Y-147079209D02*
X175678543Y-147031590D01*
X175678543Y-147031590D02*
X175583305Y-146983971D01*
X175583305Y-146983971D02*
X175392829Y-146983971D01*
X175392829Y-146983971D02*
X175297591Y-147031590D01*
X175297591Y-147031590D02*
X175249972Y-147079209D01*
X175249972Y-147079209D02*
X175202353Y-147174447D01*
X176392829Y-146603019D02*
X176488067Y-146603019D01*
X176488067Y-146603019D02*
X176583305Y-146650638D01*
X176583305Y-146650638D02*
X176630924Y-146698257D01*
X176630924Y-146698257D02*
X176678543Y-146793495D01*
X176678543Y-146793495D02*
X176726162Y-146983971D01*
X176726162Y-146983971D02*
X176726162Y-147222066D01*
X176726162Y-147222066D02*
X176678543Y-147412542D01*
X176678543Y-147412542D02*
X176630924Y-147507780D01*
X176630924Y-147507780D02*
X176583305Y-147555400D01*
X176583305Y-147555400D02*
X176488067Y-147603019D01*
X176488067Y-147603019D02*
X176392829Y-147603019D01*
X176392829Y-147603019D02*
X176297591Y-147555400D01*
X176297591Y-147555400D02*
X176249972Y-147507780D01*
X176249972Y-147507780D02*
X176202353Y-147412542D01*
X176202353Y-147412542D02*
X176154734Y-147222066D01*
X176154734Y-147222066D02*
X176154734Y-146983971D01*
X176154734Y-146983971D02*
X176202353Y-146793495D01*
X176202353Y-146793495D02*
X176249972Y-146698257D01*
X176249972Y-146698257D02*
X176297591Y-146650638D01*
X176297591Y-146650638D02*
X176392829Y-146603019D01*
X177345210Y-146603019D02*
X177440448Y-146603019D01*
X177440448Y-146603019D02*
X177535686Y-146650638D01*
X177535686Y-146650638D02*
X177583305Y-146698257D01*
X177583305Y-146698257D02*
X177630924Y-146793495D01*
X177630924Y-146793495D02*
X177678543Y-146983971D01*
X177678543Y-146983971D02*
X177678543Y-147222066D01*
X177678543Y-147222066D02*
X177630924Y-147412542D01*
X177630924Y-147412542D02*
X177583305Y-147507780D01*
X177583305Y-147507780D02*
X177535686Y-147555400D01*
X177535686Y-147555400D02*
X177440448Y-147603019D01*
X177440448Y-147603019D02*
X177345210Y-147603019D01*
X177345210Y-147603019D02*
X177249972Y-147555400D01*
X177249972Y-147555400D02*
X177202353Y-147507780D01*
X177202353Y-147507780D02*
X177154734Y-147412542D01*
X177154734Y-147412542D02*
X177107115Y-147222066D01*
X177107115Y-147222066D02*
X177107115Y-146983971D01*
X177107115Y-146983971D02*
X177154734Y-146793495D01*
X177154734Y-146793495D02*
X177202353Y-146698257D01*
X177202353Y-146698257D02*
X177249972Y-146650638D01*
X177249972Y-146650638D02*
X177345210Y-146603019D01*
X177869020Y-147698257D02*
X178630924Y-147698257D01*
X179202353Y-147079209D02*
X178869020Y-147079209D01*
X178869020Y-147603019D02*
X178869020Y-146603019D01*
X178869020Y-146603019D02*
X179345210Y-146603019D01*
X180297591Y-147507780D02*
X180249972Y-147555400D01*
X180249972Y-147555400D02*
X180107115Y-147603019D01*
X180107115Y-147603019D02*
X180011877Y-147603019D01*
X180011877Y-147603019D02*
X179869020Y-147555400D01*
X179869020Y-147555400D02*
X179773782Y-147460161D01*
X179773782Y-147460161D02*
X179726163Y-147364923D01*
X179726163Y-147364923D02*
X179678544Y-147174447D01*
X179678544Y-147174447D02*
X179678544Y-147031590D01*
X179678544Y-147031590D02*
X179726163Y-146841114D01*
X179726163Y-146841114D02*
X179773782Y-146745876D01*
X179773782Y-146745876D02*
X179869020Y-146650638D01*
X179869020Y-146650638D02*
X180011877Y-146603019D01*
X180011877Y-146603019D02*
X180107115Y-146603019D01*
X180107115Y-146603019D02*
X180249972Y-146650638D01*
X180249972Y-146650638D02*
X180297591Y-146698257D01*
X174011876Y-144703019D02*
X174011876Y-145417304D01*
X174011876Y-145417304D02*
X173964257Y-145560161D01*
X173964257Y-145560161D02*
X173869019Y-145655400D01*
X173869019Y-145655400D02*
X173726162Y-145703019D01*
X173726162Y-145703019D02*
X173630924Y-145703019D01*
X175011876Y-145703019D02*
X174440448Y-145703019D01*
X174726162Y-145703019D02*
X174726162Y-144703019D01*
X174726162Y-144703019D02*
X174630924Y-144845876D01*
X174630924Y-144845876D02*
X174535686Y-144941114D01*
X174535686Y-144941114D02*
X174440448Y-144988733D01*
X175630924Y-144703019D02*
X175726162Y-144703019D01*
X175726162Y-144703019D02*
X175821400Y-144750638D01*
X175821400Y-144750638D02*
X175869019Y-144798257D01*
X175869019Y-144798257D02*
X175916638Y-144893495D01*
X175916638Y-144893495D02*
X175964257Y-145083971D01*
X175964257Y-145083971D02*
X175964257Y-145322066D01*
X175964257Y-145322066D02*
X175916638Y-145512542D01*
X175916638Y-145512542D02*
X175869019Y-145607780D01*
X175869019Y-145607780D02*
X175821400Y-145655400D01*
X175821400Y-145655400D02*
X175726162Y-145703019D01*
X175726162Y-145703019D02*
X175630924Y-145703019D01*
X175630924Y-145703019D02*
X175535686Y-145655400D01*
X175535686Y-145655400D02*
X175488067Y-145607780D01*
X175488067Y-145607780D02*
X175440448Y-145512542D01*
X175440448Y-145512542D02*
X175392829Y-145322066D01*
X175392829Y-145322066D02*
X175392829Y-145083971D01*
X175392829Y-145083971D02*
X175440448Y-144893495D01*
X175440448Y-144893495D02*
X175488067Y-144798257D01*
X175488067Y-144798257D02*
X175535686Y-144750638D01*
X175535686Y-144750638D02*
X175630924Y-144703019D01*
X195150552Y-129679057D02*
X195817219Y-129679057D01*
X194769600Y-129917152D02*
X195483885Y-130155247D01*
X195483885Y-130155247D02*
X195483885Y-129536200D01*
X194817219Y-129250485D02*
X194817219Y-128583819D01*
X194817219Y-128583819D02*
X195817219Y-129012390D01*
X194817219Y-128012390D02*
X194817219Y-127917152D01*
X194817219Y-127917152D02*
X194864838Y-127821914D01*
X194864838Y-127821914D02*
X194912457Y-127774295D01*
X194912457Y-127774295D02*
X195007695Y-127726676D01*
X195007695Y-127726676D02*
X195198171Y-127679057D01*
X195198171Y-127679057D02*
X195436266Y-127679057D01*
X195436266Y-127679057D02*
X195626742Y-127726676D01*
X195626742Y-127726676D02*
X195721980Y-127774295D01*
X195721980Y-127774295D02*
X195769600Y-127821914D01*
X195769600Y-127821914D02*
X195817219Y-127917152D01*
X195817219Y-127917152D02*
X195817219Y-128012390D01*
X195817219Y-128012390D02*
X195769600Y-128107628D01*
X195769600Y-128107628D02*
X195721980Y-128155247D01*
X195721980Y-128155247D02*
X195626742Y-128202866D01*
X195626742Y-128202866D02*
X195436266Y-128250485D01*
X195436266Y-128250485D02*
X195198171Y-128250485D01*
X195198171Y-128250485D02*
X195007695Y-128202866D01*
X195007695Y-128202866D02*
X194912457Y-128155247D01*
X194912457Y-128155247D02*
X194864838Y-128107628D01*
X194864838Y-128107628D02*
X194817219Y-128012390D01*
X195150552Y-127250485D02*
X195817219Y-127250485D01*
X195245790Y-127250485D02*
X195198171Y-127202866D01*
X195198171Y-127202866D02*
X195150552Y-127107628D01*
X195150552Y-127107628D02*
X195150552Y-126964771D01*
X195150552Y-126964771D02*
X195198171Y-126869533D01*
X195198171Y-126869533D02*
X195293409Y-126821914D01*
X195293409Y-126821914D02*
X195817219Y-126821914D01*
X195293409Y-126012390D02*
X195293409Y-126345723D01*
X195817219Y-126345723D02*
X194817219Y-126345723D01*
X194817219Y-126345723D02*
X194817219Y-125869533D01*
D12*
X193861930Y-128119533D02*
X193885740Y-128143342D01*
X193885740Y-128143342D02*
X193909549Y-128214771D01*
X193909549Y-128214771D02*
X193909549Y-128262390D01*
X193909549Y-128262390D02*
X193885740Y-128333818D01*
X193885740Y-128333818D02*
X193838120Y-128381437D01*
X193838120Y-128381437D02*
X193790501Y-128405247D01*
X193790501Y-128405247D02*
X193695263Y-128429056D01*
X193695263Y-128429056D02*
X193623835Y-128429056D01*
X193623835Y-128429056D02*
X193528597Y-128405247D01*
X193528597Y-128405247D02*
X193480978Y-128381437D01*
X193480978Y-128381437D02*
X193433359Y-128333818D01*
X193433359Y-128333818D02*
X193409549Y-128262390D01*
X193409549Y-128262390D02*
X193409549Y-128214771D01*
X193409549Y-128214771D02*
X193433359Y-128143342D01*
X193433359Y-128143342D02*
X193457168Y-128119533D01*
X193623835Y-127833818D02*
X193600025Y-127881437D01*
X193600025Y-127881437D02*
X193576216Y-127905247D01*
X193576216Y-127905247D02*
X193528597Y-127929056D01*
X193528597Y-127929056D02*
X193504787Y-127929056D01*
X193504787Y-127929056D02*
X193457168Y-127905247D01*
X193457168Y-127905247D02*
X193433359Y-127881437D01*
X193433359Y-127881437D02*
X193409549Y-127833818D01*
X193409549Y-127833818D02*
X193409549Y-127738580D01*
X193409549Y-127738580D02*
X193433359Y-127690961D01*
X193433359Y-127690961D02*
X193457168Y-127667152D01*
X193457168Y-127667152D02*
X193504787Y-127643342D01*
X193504787Y-127643342D02*
X193528597Y-127643342D01*
X193528597Y-127643342D02*
X193576216Y-127667152D01*
X193576216Y-127667152D02*
X193600025Y-127690961D01*
X193600025Y-127690961D02*
X193623835Y-127738580D01*
X193623835Y-127738580D02*
X193623835Y-127833818D01*
X193623835Y-127833818D02*
X193647644Y-127881437D01*
X193647644Y-127881437D02*
X193671454Y-127905247D01*
X193671454Y-127905247D02*
X193719073Y-127929056D01*
X193719073Y-127929056D02*
X193814311Y-127929056D01*
X193814311Y-127929056D02*
X193861930Y-127905247D01*
X193861930Y-127905247D02*
X193885740Y-127881437D01*
X193885740Y-127881437D02*
X193909549Y-127833818D01*
X193909549Y-127833818D02*
X193909549Y-127738580D01*
X193909549Y-127738580D02*
X193885740Y-127690961D01*
X193885740Y-127690961D02*
X193861930Y-127667152D01*
X193861930Y-127667152D02*
X193814311Y-127643342D01*
X193814311Y-127643342D02*
X193719073Y-127643342D01*
X193719073Y-127643342D02*
X193671454Y-127667152D01*
X193671454Y-127667152D02*
X193647644Y-127690961D01*
X193647644Y-127690961D02*
X193623835Y-127738580D01*
D11*
X200647219Y-130594957D02*
X200647219Y-131071147D01*
X200647219Y-131071147D02*
X199647219Y-131071147D01*
X200123409Y-130261623D02*
X200123409Y-129928290D01*
X200647219Y-129785433D02*
X200647219Y-130261623D01*
X200647219Y-130261623D02*
X199647219Y-130261623D01*
X199647219Y-130261623D02*
X199647219Y-129785433D01*
X200647219Y-129356861D02*
X199647219Y-129356861D01*
X199647219Y-129356861D02*
X199647219Y-129118766D01*
X199647219Y-129118766D02*
X199694838Y-128975909D01*
X199694838Y-128975909D02*
X199790076Y-128880671D01*
X199790076Y-128880671D02*
X199885314Y-128833052D01*
X199885314Y-128833052D02*
X200075790Y-128785433D01*
X200075790Y-128785433D02*
X200218647Y-128785433D01*
X200218647Y-128785433D02*
X200409123Y-128833052D01*
X200409123Y-128833052D02*
X200504361Y-128880671D01*
X200504361Y-128880671D02*
X200599600Y-128975909D01*
X200599600Y-128975909D02*
X200647219Y-129118766D01*
X200647219Y-129118766D02*
X200647219Y-129356861D01*
X199694838Y-127071147D02*
X199647219Y-127166385D01*
X199647219Y-127166385D02*
X199647219Y-127309242D01*
X199647219Y-127309242D02*
X199694838Y-127452099D01*
X199694838Y-127452099D02*
X199790076Y-127547337D01*
X199790076Y-127547337D02*
X199885314Y-127594956D01*
X199885314Y-127594956D02*
X200075790Y-127642575D01*
X200075790Y-127642575D02*
X200218647Y-127642575D01*
X200218647Y-127642575D02*
X200409123Y-127594956D01*
X200409123Y-127594956D02*
X200504361Y-127547337D01*
X200504361Y-127547337D02*
X200599600Y-127452099D01*
X200599600Y-127452099D02*
X200647219Y-127309242D01*
X200647219Y-127309242D02*
X200647219Y-127214004D01*
X200647219Y-127214004D02*
X200599600Y-127071147D01*
X200599600Y-127071147D02*
X200551980Y-127023528D01*
X200551980Y-127023528D02*
X200218647Y-127023528D01*
X200218647Y-127023528D02*
X200218647Y-127214004D01*
X200647219Y-126594956D02*
X199980552Y-126594956D01*
X200171028Y-126594956D02*
X200075790Y-126547337D01*
X200075790Y-126547337D02*
X200028171Y-126499718D01*
X200028171Y-126499718D02*
X199980552Y-126404480D01*
X199980552Y-126404480D02*
X199980552Y-126309242D01*
X200599600Y-125594956D02*
X200647219Y-125690194D01*
X200647219Y-125690194D02*
X200647219Y-125880670D01*
X200647219Y-125880670D02*
X200599600Y-125975908D01*
X200599600Y-125975908D02*
X200504361Y-126023527D01*
X200504361Y-126023527D02*
X200123409Y-126023527D01*
X200123409Y-126023527D02*
X200028171Y-125975908D01*
X200028171Y-125975908D02*
X199980552Y-125880670D01*
X199980552Y-125880670D02*
X199980552Y-125690194D01*
X199980552Y-125690194D02*
X200028171Y-125594956D01*
X200028171Y-125594956D02*
X200123409Y-125547337D01*
X200123409Y-125547337D02*
X200218647Y-125547337D01*
X200218647Y-125547337D02*
X200313885Y-126023527D01*
X200599600Y-124737813D02*
X200647219Y-124833051D01*
X200647219Y-124833051D02*
X200647219Y-125023527D01*
X200647219Y-125023527D02*
X200599600Y-125118765D01*
X200599600Y-125118765D02*
X200504361Y-125166384D01*
X200504361Y-125166384D02*
X200123409Y-125166384D01*
X200123409Y-125166384D02*
X200028171Y-125118765D01*
X200028171Y-125118765D02*
X199980552Y-125023527D01*
X199980552Y-125023527D02*
X199980552Y-124833051D01*
X199980552Y-124833051D02*
X200028171Y-124737813D01*
X200028171Y-124737813D02*
X200123409Y-124690194D01*
X200123409Y-124690194D02*
X200218647Y-124690194D01*
X200218647Y-124690194D02*
X200313885Y-125166384D01*
X199980552Y-124261622D02*
X200647219Y-124261622D01*
X200075790Y-124261622D02*
X200028171Y-124214003D01*
X200028171Y-124214003D02*
X199980552Y-124118765D01*
X199980552Y-124118765D02*
X199980552Y-123975908D01*
X199980552Y-123975908D02*
X200028171Y-123880670D01*
X200028171Y-123880670D02*
X200123409Y-123833051D01*
X200123409Y-123833051D02*
X200647219Y-123833051D01*
D14*
X198944327Y-127747337D02*
X198544327Y-127747337D01*
X198544327Y-127747337D02*
X198544327Y-127652099D01*
X198544327Y-127652099D02*
X198563375Y-127594956D01*
X198563375Y-127594956D02*
X198601470Y-127556861D01*
X198601470Y-127556861D02*
X198639565Y-127537814D01*
X198639565Y-127537814D02*
X198715756Y-127518766D01*
X198715756Y-127518766D02*
X198772899Y-127518766D01*
X198772899Y-127518766D02*
X198849089Y-127537814D01*
X198849089Y-127537814D02*
X198887184Y-127556861D01*
X198887184Y-127556861D02*
X198925280Y-127594956D01*
X198925280Y-127594956D02*
X198944327Y-127652099D01*
X198944327Y-127652099D02*
X198944327Y-127747337D01*
X198677660Y-127175909D02*
X198944327Y-127175909D01*
X198525280Y-127271147D02*
X198810994Y-127366385D01*
X198810994Y-127366385D02*
X198810994Y-127118766D01*
D11*
X184264852Y-103630352D02*
X184264852Y-104297019D01*
X184026757Y-103249400D02*
X183788662Y-103963685D01*
X183788662Y-103963685D02*
X184407709Y-103963685D01*
X184788662Y-104201780D02*
X184836281Y-104249400D01*
X184836281Y-104249400D02*
X184788662Y-104297019D01*
X184788662Y-104297019D02*
X184741043Y-104249400D01*
X184741043Y-104249400D02*
X184788662Y-104201780D01*
X184788662Y-104201780D02*
X184788662Y-104297019D01*
X185169614Y-103297019D02*
X185836280Y-103297019D01*
X185836280Y-103297019D02*
X185407709Y-104297019D01*
X186645804Y-103630352D02*
X186645804Y-104297019D01*
X186217233Y-103630352D02*
X186217233Y-104154161D01*
X186217233Y-104154161D02*
X186264852Y-104249400D01*
X186264852Y-104249400D02*
X186360090Y-104297019D01*
X186360090Y-104297019D02*
X186502947Y-104297019D01*
X186502947Y-104297019D02*
X186598185Y-104249400D01*
X186598185Y-104249400D02*
X186645804Y-104201780D01*
X187455328Y-103773209D02*
X187121995Y-103773209D01*
X187121995Y-104297019D02*
X187121995Y-103297019D01*
X187121995Y-103297019D02*
X187598185Y-103297019D01*
X188645805Y-103297019D02*
X189264852Y-103297019D01*
X189264852Y-103297019D02*
X188931519Y-103677971D01*
X188931519Y-103677971D02*
X189074376Y-103677971D01*
X189074376Y-103677971D02*
X189169614Y-103725590D01*
X189169614Y-103725590D02*
X189217233Y-103773209D01*
X189217233Y-103773209D02*
X189264852Y-103868447D01*
X189264852Y-103868447D02*
X189264852Y-104106542D01*
X189264852Y-104106542D02*
X189217233Y-104201780D01*
X189217233Y-104201780D02*
X189169614Y-104249400D01*
X189169614Y-104249400D02*
X189074376Y-104297019D01*
X189074376Y-104297019D02*
X188788662Y-104297019D01*
X188788662Y-104297019D02*
X188693424Y-104249400D01*
X188693424Y-104249400D02*
X188645805Y-104201780D01*
X190169614Y-103297019D02*
X189693424Y-103297019D01*
X189693424Y-103297019D02*
X189645805Y-103773209D01*
X189645805Y-103773209D02*
X189693424Y-103725590D01*
X189693424Y-103725590D02*
X189788662Y-103677971D01*
X189788662Y-103677971D02*
X190026757Y-103677971D01*
X190026757Y-103677971D02*
X190121995Y-103725590D01*
X190121995Y-103725590D02*
X190169614Y-103773209D01*
X190169614Y-103773209D02*
X190217233Y-103868447D01*
X190217233Y-103868447D02*
X190217233Y-104106542D01*
X190217233Y-104106542D02*
X190169614Y-104201780D01*
X190169614Y-104201780D02*
X190121995Y-104249400D01*
X190121995Y-104249400D02*
X190026757Y-104297019D01*
X190026757Y-104297019D02*
X189788662Y-104297019D01*
X189788662Y-104297019D02*
X189693424Y-104249400D01*
X189693424Y-104249400D02*
X189645805Y-104201780D01*
X190550567Y-103630352D02*
X190788662Y-104297019D01*
X190788662Y-104297019D02*
X191026757Y-103630352D01*
D16*
X187237233Y-106508736D02*
X187195329Y-106550641D01*
X187195329Y-106550641D02*
X187069614Y-106592545D01*
X187069614Y-106592545D02*
X186985805Y-106592545D01*
X186985805Y-106592545D02*
X186860091Y-106550641D01*
X186860091Y-106550641D02*
X186776281Y-106466831D01*
X186776281Y-106466831D02*
X186734376Y-106383021D01*
X186734376Y-106383021D02*
X186692472Y-106215402D01*
X186692472Y-106215402D02*
X186692472Y-106089688D01*
X186692472Y-106089688D02*
X186734376Y-105922069D01*
X186734376Y-105922069D02*
X186776281Y-105838260D01*
X186776281Y-105838260D02*
X186860091Y-105754450D01*
X186860091Y-105754450D02*
X186985805Y-105712545D01*
X186985805Y-105712545D02*
X187069614Y-105712545D01*
X187069614Y-105712545D02*
X187195329Y-105754450D01*
X187195329Y-105754450D02*
X187237233Y-105796355D01*
X187530567Y-105712545D02*
X188075329Y-105712545D01*
X188075329Y-105712545D02*
X187781995Y-106047783D01*
X187781995Y-106047783D02*
X187907710Y-106047783D01*
X187907710Y-106047783D02*
X187991519Y-106089688D01*
X187991519Y-106089688D02*
X188033424Y-106131593D01*
X188033424Y-106131593D02*
X188075329Y-106215402D01*
X188075329Y-106215402D02*
X188075329Y-106424926D01*
X188075329Y-106424926D02*
X188033424Y-106508736D01*
X188033424Y-106508736D02*
X187991519Y-106550641D01*
X187991519Y-106550641D02*
X187907710Y-106592545D01*
X187907710Y-106592545D02*
X187656281Y-106592545D01*
X187656281Y-106592545D02*
X187572472Y-106550641D01*
X187572472Y-106550641D02*
X187530567Y-106508736D01*
D11*
X193916852Y-103630352D02*
X193916852Y-104297019D01*
X193678757Y-103249400D02*
X193440662Y-103963685D01*
X193440662Y-103963685D02*
X194059709Y-103963685D01*
X194440662Y-104201780D02*
X194488281Y-104249400D01*
X194488281Y-104249400D02*
X194440662Y-104297019D01*
X194440662Y-104297019D02*
X194393043Y-104249400D01*
X194393043Y-104249400D02*
X194440662Y-104201780D01*
X194440662Y-104201780D02*
X194440662Y-104297019D01*
X194821614Y-103297019D02*
X195488280Y-103297019D01*
X195488280Y-103297019D02*
X195059709Y-104297019D01*
X196297804Y-103630352D02*
X196297804Y-104297019D01*
X195869233Y-103630352D02*
X195869233Y-104154161D01*
X195869233Y-104154161D02*
X195916852Y-104249400D01*
X195916852Y-104249400D02*
X196012090Y-104297019D01*
X196012090Y-104297019D02*
X196154947Y-104297019D01*
X196154947Y-104297019D02*
X196250185Y-104249400D01*
X196250185Y-104249400D02*
X196297804Y-104201780D01*
X197107328Y-103773209D02*
X196773995Y-103773209D01*
X196773995Y-104297019D02*
X196773995Y-103297019D01*
X196773995Y-103297019D02*
X197250185Y-103297019D01*
X198297805Y-103297019D02*
X198916852Y-103297019D01*
X198916852Y-103297019D02*
X198583519Y-103677971D01*
X198583519Y-103677971D02*
X198726376Y-103677971D01*
X198726376Y-103677971D02*
X198821614Y-103725590D01*
X198821614Y-103725590D02*
X198869233Y-103773209D01*
X198869233Y-103773209D02*
X198916852Y-103868447D01*
X198916852Y-103868447D02*
X198916852Y-104106542D01*
X198916852Y-104106542D02*
X198869233Y-104201780D01*
X198869233Y-104201780D02*
X198821614Y-104249400D01*
X198821614Y-104249400D02*
X198726376Y-104297019D01*
X198726376Y-104297019D02*
X198440662Y-104297019D01*
X198440662Y-104297019D02*
X198345424Y-104249400D01*
X198345424Y-104249400D02*
X198297805Y-104201780D01*
X199821614Y-103297019D02*
X199345424Y-103297019D01*
X199345424Y-103297019D02*
X199297805Y-103773209D01*
X199297805Y-103773209D02*
X199345424Y-103725590D01*
X199345424Y-103725590D02*
X199440662Y-103677971D01*
X199440662Y-103677971D02*
X199678757Y-103677971D01*
X199678757Y-103677971D02*
X199773995Y-103725590D01*
X199773995Y-103725590D02*
X199821614Y-103773209D01*
X199821614Y-103773209D02*
X199869233Y-103868447D01*
X199869233Y-103868447D02*
X199869233Y-104106542D01*
X199869233Y-104106542D02*
X199821614Y-104201780D01*
X199821614Y-104201780D02*
X199773995Y-104249400D01*
X199773995Y-104249400D02*
X199678757Y-104297019D01*
X199678757Y-104297019D02*
X199440662Y-104297019D01*
X199440662Y-104297019D02*
X199345424Y-104249400D01*
X199345424Y-104249400D02*
X199297805Y-104201780D01*
X200202567Y-103630352D02*
X200440662Y-104297019D01*
X200440662Y-104297019D02*
X200678757Y-103630352D01*
D16*
X196889233Y-106508736D02*
X196847329Y-106550641D01*
X196847329Y-106550641D02*
X196721614Y-106592545D01*
X196721614Y-106592545D02*
X196637805Y-106592545D01*
X196637805Y-106592545D02*
X196512091Y-106550641D01*
X196512091Y-106550641D02*
X196428281Y-106466831D01*
X196428281Y-106466831D02*
X196386376Y-106383021D01*
X196386376Y-106383021D02*
X196344472Y-106215402D01*
X196344472Y-106215402D02*
X196344472Y-106089688D01*
X196344472Y-106089688D02*
X196386376Y-105922069D01*
X196386376Y-105922069D02*
X196428281Y-105838260D01*
X196428281Y-105838260D02*
X196512091Y-105754450D01*
X196512091Y-105754450D02*
X196637805Y-105712545D01*
X196637805Y-105712545D02*
X196721614Y-105712545D01*
X196721614Y-105712545D02*
X196847329Y-105754450D01*
X196847329Y-105754450D02*
X196889233Y-105796355D01*
X197643519Y-106005879D02*
X197643519Y-106592545D01*
X197433995Y-105670641D02*
X197224472Y-106299212D01*
X197224472Y-106299212D02*
X197769233Y-106299212D01*
D11*
X171132400Y-135973200D02*
X171275257Y-136020819D01*
X171275257Y-136020819D02*
X171513352Y-136020819D01*
X171513352Y-136020819D02*
X171608590Y-135973200D01*
X171608590Y-135973200D02*
X171656209Y-135925580D01*
X171656209Y-135925580D02*
X171703828Y-135830342D01*
X171703828Y-135830342D02*
X171703828Y-135735104D01*
X171703828Y-135735104D02*
X171656209Y-135639866D01*
X171656209Y-135639866D02*
X171608590Y-135592247D01*
X171608590Y-135592247D02*
X171513352Y-135544628D01*
X171513352Y-135544628D02*
X171322876Y-135497009D01*
X171322876Y-135497009D02*
X171227638Y-135449390D01*
X171227638Y-135449390D02*
X171180019Y-135401771D01*
X171180019Y-135401771D02*
X171132400Y-135306533D01*
X171132400Y-135306533D02*
X171132400Y-135211295D01*
X171132400Y-135211295D02*
X171180019Y-135116057D01*
X171180019Y-135116057D02*
X171227638Y-135068438D01*
X171227638Y-135068438D02*
X171322876Y-135020819D01*
X171322876Y-135020819D02*
X171560971Y-135020819D01*
X171560971Y-135020819D02*
X171703828Y-135068438D01*
X172037162Y-135020819D02*
X172275257Y-136020819D01*
X172275257Y-136020819D02*
X172465733Y-135306533D01*
X172465733Y-135306533D02*
X172656209Y-136020819D01*
X172656209Y-136020819D02*
X172894305Y-135020819D01*
X173037162Y-136116057D02*
X173799066Y-136116057D01*
X174608590Y-136020819D02*
X174275257Y-135544628D01*
X174037162Y-136020819D02*
X174037162Y-135020819D01*
X174037162Y-135020819D02*
X174418114Y-135020819D01*
X174418114Y-135020819D02*
X174513352Y-135068438D01*
X174513352Y-135068438D02*
X174560971Y-135116057D01*
X174560971Y-135116057D02*
X174608590Y-135211295D01*
X174608590Y-135211295D02*
X174608590Y-135354152D01*
X174608590Y-135354152D02*
X174560971Y-135449390D01*
X174560971Y-135449390D02*
X174513352Y-135497009D01*
X174513352Y-135497009D02*
X174418114Y-135544628D01*
X174418114Y-135544628D02*
X174037162Y-135544628D01*
X175037162Y-135497009D02*
X175370495Y-135497009D01*
X175513352Y-136020819D02*
X175037162Y-136020819D01*
X175037162Y-136020819D02*
X175037162Y-135020819D01*
X175037162Y-135020819D02*
X175513352Y-135020819D01*
X175894305Y-135973200D02*
X176037162Y-136020819D01*
X176037162Y-136020819D02*
X176275257Y-136020819D01*
X176275257Y-136020819D02*
X176370495Y-135973200D01*
X176370495Y-135973200D02*
X176418114Y-135925580D01*
X176418114Y-135925580D02*
X176465733Y-135830342D01*
X176465733Y-135830342D02*
X176465733Y-135735104D01*
X176465733Y-135735104D02*
X176418114Y-135639866D01*
X176418114Y-135639866D02*
X176370495Y-135592247D01*
X176370495Y-135592247D02*
X176275257Y-135544628D01*
X176275257Y-135544628D02*
X176084781Y-135497009D01*
X176084781Y-135497009D02*
X175989543Y-135449390D01*
X175989543Y-135449390D02*
X175941924Y-135401771D01*
X175941924Y-135401771D02*
X175894305Y-135306533D01*
X175894305Y-135306533D02*
X175894305Y-135211295D01*
X175894305Y-135211295D02*
X175941924Y-135116057D01*
X175941924Y-135116057D02*
X175989543Y-135068438D01*
X175989543Y-135068438D02*
X176084781Y-135020819D01*
X176084781Y-135020819D02*
X176322876Y-135020819D01*
X176322876Y-135020819D02*
X176465733Y-135068438D01*
X176894305Y-135497009D02*
X177227638Y-135497009D01*
X177370495Y-136020819D02*
X176894305Y-136020819D01*
X176894305Y-136020819D02*
X176894305Y-135020819D01*
X176894305Y-135020819D02*
X177370495Y-135020819D01*
X177656210Y-135020819D02*
X178227638Y-135020819D01*
X177941924Y-136020819D02*
X177941924Y-135020819D01*
X173299067Y-130973200D02*
X173441924Y-131020819D01*
X173441924Y-131020819D02*
X173680019Y-131020819D01*
X173680019Y-131020819D02*
X173775257Y-130973200D01*
X173775257Y-130973200D02*
X173822876Y-130925580D01*
X173822876Y-130925580D02*
X173870495Y-130830342D01*
X173870495Y-130830342D02*
X173870495Y-130735104D01*
X173870495Y-130735104D02*
X173822876Y-130639866D01*
X173822876Y-130639866D02*
X173775257Y-130592247D01*
X173775257Y-130592247D02*
X173680019Y-130544628D01*
X173680019Y-130544628D02*
X173489543Y-130497009D01*
X173489543Y-130497009D02*
X173394305Y-130449390D01*
X173394305Y-130449390D02*
X173346686Y-130401771D01*
X173346686Y-130401771D02*
X173299067Y-130306533D01*
X173299067Y-130306533D02*
X173299067Y-130211295D01*
X173299067Y-130211295D02*
X173346686Y-130116057D01*
X173346686Y-130116057D02*
X173394305Y-130068438D01*
X173394305Y-130068438D02*
X173489543Y-130020819D01*
X173489543Y-130020819D02*
X173727638Y-130020819D01*
X173727638Y-130020819D02*
X173870495Y-130068438D01*
X174203829Y-130020819D02*
X174441924Y-131020819D01*
X174441924Y-131020819D02*
X174632400Y-130306533D01*
X174632400Y-130306533D02*
X174822876Y-131020819D01*
X174822876Y-131020819D02*
X175060972Y-130020819D01*
X175965733Y-131020819D02*
X175394305Y-131020819D01*
X175680019Y-131020819D02*
X175680019Y-130020819D01*
X175680019Y-130020819D02*
X175584781Y-130163676D01*
X175584781Y-130163676D02*
X175489543Y-130258914D01*
X175489543Y-130258914D02*
X175394305Y-130306533D01*
X182380504Y-117962866D02*
X182380504Y-117486676D01*
X182666219Y-118058104D02*
X181666219Y-117724771D01*
X181666219Y-117724771D02*
X182666219Y-117391438D01*
X182666219Y-117058104D02*
X181666219Y-117058104D01*
X181666219Y-117058104D02*
X181666219Y-116677152D01*
X181666219Y-116677152D02*
X181713838Y-116581914D01*
X181713838Y-116581914D02*
X181761457Y-116534295D01*
X181761457Y-116534295D02*
X181856695Y-116486676D01*
X181856695Y-116486676D02*
X181999552Y-116486676D01*
X181999552Y-116486676D02*
X182094790Y-116534295D01*
X182094790Y-116534295D02*
X182142409Y-116581914D01*
X182142409Y-116581914D02*
X182190028Y-116677152D01*
X182190028Y-116677152D02*
X182190028Y-117058104D01*
X181666219Y-116153342D02*
X181666219Y-115486676D01*
X181666219Y-115486676D02*
X182666219Y-115915247D01*
X181666219Y-115200961D02*
X181666219Y-114581914D01*
X181666219Y-114581914D02*
X182047171Y-114915247D01*
X182047171Y-114915247D02*
X182047171Y-114772390D01*
X182047171Y-114772390D02*
X182094790Y-114677152D01*
X182094790Y-114677152D02*
X182142409Y-114629533D01*
X182142409Y-114629533D02*
X182237647Y-114581914D01*
X182237647Y-114581914D02*
X182475742Y-114581914D01*
X182475742Y-114581914D02*
X182570980Y-114629533D01*
X182570980Y-114629533D02*
X182618600Y-114677152D01*
X182618600Y-114677152D02*
X182666219Y-114772390D01*
X182666219Y-114772390D02*
X182666219Y-115058104D01*
X182666219Y-115058104D02*
X182618600Y-115153342D01*
X182618600Y-115153342D02*
X182570980Y-115200961D01*
X181666219Y-113724771D02*
X181666219Y-113915247D01*
X181666219Y-113915247D02*
X181713838Y-114010485D01*
X181713838Y-114010485D02*
X181761457Y-114058104D01*
X181761457Y-114058104D02*
X181904314Y-114153342D01*
X181904314Y-114153342D02*
X182094790Y-114200961D01*
X182094790Y-114200961D02*
X182475742Y-114200961D01*
X182475742Y-114200961D02*
X182570980Y-114153342D01*
X182570980Y-114153342D02*
X182618600Y-114105723D01*
X182618600Y-114105723D02*
X182666219Y-114010485D01*
X182666219Y-114010485D02*
X182666219Y-113820009D01*
X182666219Y-113820009D02*
X182618600Y-113724771D01*
X182618600Y-113724771D02*
X182570980Y-113677152D01*
X182570980Y-113677152D02*
X182475742Y-113629533D01*
X182475742Y-113629533D02*
X182237647Y-113629533D01*
X182237647Y-113629533D02*
X182142409Y-113677152D01*
X182142409Y-113677152D02*
X182094790Y-113724771D01*
X182094790Y-113724771D02*
X182047171Y-113820009D01*
X182047171Y-113820009D02*
X182047171Y-114010485D01*
X182047171Y-114010485D02*
X182094790Y-114105723D01*
X182094790Y-114105723D02*
X182142409Y-114153342D01*
X182142409Y-114153342D02*
X182237647Y-114200961D01*
X182666219Y-112677152D02*
X182666219Y-113248580D01*
X182666219Y-112962866D02*
X181666219Y-112962866D01*
X181666219Y-112962866D02*
X181809076Y-113058104D01*
X181809076Y-113058104D02*
X181904314Y-113153342D01*
X181904314Y-113153342D02*
X181951933Y-113248580D01*
X182570980Y-111677152D02*
X182618600Y-111724771D01*
X182618600Y-111724771D02*
X182666219Y-111867628D01*
X182666219Y-111867628D02*
X182666219Y-111962866D01*
X182666219Y-111962866D02*
X182618600Y-112105723D01*
X182618600Y-112105723D02*
X182523361Y-112200961D01*
X182523361Y-112200961D02*
X182428123Y-112248580D01*
X182428123Y-112248580D02*
X182237647Y-112296199D01*
X182237647Y-112296199D02*
X182094790Y-112296199D01*
X182094790Y-112296199D02*
X181904314Y-112248580D01*
X181904314Y-112248580D02*
X181809076Y-112200961D01*
X181809076Y-112200961D02*
X181713838Y-112105723D01*
X181713838Y-112105723D02*
X181666219Y-111962866D01*
X181666219Y-111962866D02*
X181666219Y-111867628D01*
X181666219Y-111867628D02*
X181713838Y-111724771D01*
X181713838Y-111724771D02*
X181761457Y-111677152D01*
X182285266Y-111248580D02*
X182285266Y-110486676D01*
X181666219Y-110105723D02*
X181666219Y-109486676D01*
X181666219Y-109486676D02*
X182047171Y-109820009D01*
X182047171Y-109820009D02*
X182047171Y-109677152D01*
X182047171Y-109677152D02*
X182094790Y-109581914D01*
X182094790Y-109581914D02*
X182142409Y-109534295D01*
X182142409Y-109534295D02*
X182237647Y-109486676D01*
X182237647Y-109486676D02*
X182475742Y-109486676D01*
X182475742Y-109486676D02*
X182570980Y-109534295D01*
X182570980Y-109534295D02*
X182618600Y-109581914D01*
X182618600Y-109581914D02*
X182666219Y-109677152D01*
X182666219Y-109677152D02*
X182666219Y-109962866D01*
X182666219Y-109962866D02*
X182618600Y-110058104D01*
X182618600Y-110058104D02*
X182570980Y-110105723D01*
X181666219Y-109153342D02*
X181666219Y-108534295D01*
X181666219Y-108534295D02*
X182047171Y-108867628D01*
X182047171Y-108867628D02*
X182047171Y-108724771D01*
X182047171Y-108724771D02*
X182094790Y-108629533D01*
X182094790Y-108629533D02*
X182142409Y-108581914D01*
X182142409Y-108581914D02*
X182237647Y-108534295D01*
X182237647Y-108534295D02*
X182475742Y-108534295D01*
X182475742Y-108534295D02*
X182570980Y-108581914D01*
X182570980Y-108581914D02*
X182618600Y-108629533D01*
X182618600Y-108629533D02*
X182666219Y-108724771D01*
X182666219Y-108724771D02*
X182666219Y-109010485D01*
X182666219Y-109010485D02*
X182618600Y-109105723D01*
X182618600Y-109105723D02*
X182570980Y-109153342D01*
X182142409Y-108105723D02*
X182142409Y-107772390D01*
X182666219Y-107629533D02*
X182666219Y-108105723D01*
X182666219Y-108105723D02*
X181666219Y-108105723D01*
X181666219Y-108105723D02*
X181666219Y-107629533D01*
D15*
X186101876Y-112360055D02*
X186101876Y-113007674D01*
X186101876Y-113007674D02*
X186139971Y-113083864D01*
X186139971Y-113083864D02*
X186178066Y-113121960D01*
X186178066Y-113121960D02*
X186254257Y-113160055D01*
X186254257Y-113160055D02*
X186406638Y-113160055D01*
X186406638Y-113160055D02*
X186482828Y-113121960D01*
X186482828Y-113121960D02*
X186520923Y-113083864D01*
X186520923Y-113083864D02*
X186559019Y-113007674D01*
X186559019Y-113007674D02*
X186559019Y-112360055D01*
X186863780Y-112360055D02*
X187359018Y-112360055D01*
X187359018Y-112360055D02*
X187092352Y-112664817D01*
X187092352Y-112664817D02*
X187206637Y-112664817D01*
X187206637Y-112664817D02*
X187282828Y-112702912D01*
X187282828Y-112702912D02*
X187320923Y-112741007D01*
X187320923Y-112741007D02*
X187359018Y-112817198D01*
X187359018Y-112817198D02*
X187359018Y-113007674D01*
X187359018Y-113007674D02*
X187320923Y-113083864D01*
X187320923Y-113083864D02*
X187282828Y-113121960D01*
X187282828Y-113121960D02*
X187206637Y-113160055D01*
X187206637Y-113160055D02*
X186978066Y-113160055D01*
X186978066Y-113160055D02*
X186901875Y-113121960D01*
X186901875Y-113121960D02*
X186863780Y-113083864D01*
D11*
X183671504Y-123387485D02*
X183671504Y-122911295D01*
X183957219Y-123482723D02*
X182957219Y-123149390D01*
X182957219Y-123149390D02*
X183957219Y-122816057D01*
X183957219Y-122482723D02*
X182957219Y-122482723D01*
X182957219Y-122482723D02*
X182957219Y-122244628D01*
X182957219Y-122244628D02*
X183004838Y-122101771D01*
X183004838Y-122101771D02*
X183100076Y-122006533D01*
X183100076Y-122006533D02*
X183195314Y-121958914D01*
X183195314Y-121958914D02*
X183385790Y-121911295D01*
X183385790Y-121911295D02*
X183528647Y-121911295D01*
X183528647Y-121911295D02*
X183719123Y-121958914D01*
X183719123Y-121958914D02*
X183814361Y-122006533D01*
X183814361Y-122006533D02*
X183909600Y-122101771D01*
X183909600Y-122101771D02*
X183957219Y-122244628D01*
X183957219Y-122244628D02*
X183957219Y-122482723D01*
X183957219Y-121482723D02*
X182957219Y-121482723D01*
X182957219Y-121482723D02*
X182957219Y-121244628D01*
X182957219Y-121244628D02*
X183004838Y-121101771D01*
X183004838Y-121101771D02*
X183100076Y-121006533D01*
X183100076Y-121006533D02*
X183195314Y-120958914D01*
X183195314Y-120958914D02*
X183385790Y-120911295D01*
X183385790Y-120911295D02*
X183528647Y-120911295D01*
X183528647Y-120911295D02*
X183719123Y-120958914D01*
X183719123Y-120958914D02*
X183814361Y-121006533D01*
X183814361Y-121006533D02*
X183909600Y-121101771D01*
X183909600Y-121101771D02*
X183957219Y-121244628D01*
X183957219Y-121244628D02*
X183957219Y-121482723D01*
X183957219Y-119911295D02*
X183481028Y-120244628D01*
X183957219Y-120482723D02*
X182957219Y-120482723D01*
X182957219Y-120482723D02*
X182957219Y-120101771D01*
X182957219Y-120101771D02*
X183004838Y-120006533D01*
X183004838Y-120006533D02*
X183052457Y-119958914D01*
X183052457Y-119958914D02*
X183147695Y-119911295D01*
X183147695Y-119911295D02*
X183290552Y-119911295D01*
X183290552Y-119911295D02*
X183385790Y-119958914D01*
X183385790Y-119958914D02*
X183433409Y-120006533D01*
X183433409Y-120006533D02*
X183481028Y-120101771D01*
X183481028Y-120101771D02*
X183481028Y-120482723D01*
X183385790Y-119339866D02*
X183338171Y-119435104D01*
X183338171Y-119435104D02*
X183290552Y-119482723D01*
X183290552Y-119482723D02*
X183195314Y-119530342D01*
X183195314Y-119530342D02*
X183147695Y-119530342D01*
X183147695Y-119530342D02*
X183052457Y-119482723D01*
X183052457Y-119482723D02*
X183004838Y-119435104D01*
X183004838Y-119435104D02*
X182957219Y-119339866D01*
X182957219Y-119339866D02*
X182957219Y-119149390D01*
X182957219Y-119149390D02*
X183004838Y-119054152D01*
X183004838Y-119054152D02*
X183052457Y-119006533D01*
X183052457Y-119006533D02*
X183147695Y-118958914D01*
X183147695Y-118958914D02*
X183195314Y-118958914D01*
X183195314Y-118958914D02*
X183290552Y-119006533D01*
X183290552Y-119006533D02*
X183338171Y-119054152D01*
X183338171Y-119054152D02*
X183385790Y-119149390D01*
X183385790Y-119149390D02*
X183385790Y-119339866D01*
X183385790Y-119339866D02*
X183433409Y-119435104D01*
X183433409Y-119435104D02*
X183481028Y-119482723D01*
X183481028Y-119482723D02*
X183576266Y-119530342D01*
X183576266Y-119530342D02*
X183766742Y-119530342D01*
X183766742Y-119530342D02*
X183861980Y-119482723D01*
X183861980Y-119482723D02*
X183909600Y-119435104D01*
X183909600Y-119435104D02*
X183957219Y-119339866D01*
X183957219Y-119339866D02*
X183957219Y-119149390D01*
X183957219Y-119149390D02*
X183909600Y-119054152D01*
X183909600Y-119054152D02*
X183861980Y-119006533D01*
X183861980Y-119006533D02*
X183766742Y-118958914D01*
X183766742Y-118958914D02*
X183576266Y-118958914D01*
X183576266Y-118958914D02*
X183481028Y-119006533D01*
X183481028Y-119006533D02*
X183433409Y-119054152D01*
X183433409Y-119054152D02*
X183385790Y-119149390D01*
X177626219Y-119662485D02*
X177626219Y-120233913D01*
X177626219Y-119948199D02*
X176626219Y-119948199D01*
X176626219Y-119948199D02*
X176769076Y-120043437D01*
X176769076Y-120043437D02*
X176864314Y-120138675D01*
X176864314Y-120138675D02*
X176911933Y-120233913D01*
X177626219Y-119233913D02*
X176626219Y-119233913D01*
X177626219Y-118662485D02*
X177054790Y-119091056D01*
X176626219Y-118662485D02*
X177197647Y-119233913D01*
D12*
X175748549Y-119531533D02*
X175510454Y-119698199D01*
X175748549Y-119817247D02*
X175248549Y-119817247D01*
X175248549Y-119817247D02*
X175248549Y-119626771D01*
X175248549Y-119626771D02*
X175272359Y-119579152D01*
X175272359Y-119579152D02*
X175296168Y-119555342D01*
X175296168Y-119555342D02*
X175343787Y-119531533D01*
X175343787Y-119531533D02*
X175415216Y-119531533D01*
X175415216Y-119531533D02*
X175462835Y-119555342D01*
X175462835Y-119555342D02*
X175486644Y-119579152D01*
X175486644Y-119579152D02*
X175510454Y-119626771D01*
X175510454Y-119626771D02*
X175510454Y-119817247D01*
X175748549Y-119055342D02*
X175748549Y-119341056D01*
X175748549Y-119198199D02*
X175248549Y-119198199D01*
X175248549Y-119198199D02*
X175319978Y-119245818D01*
X175319978Y-119245818D02*
X175367597Y-119293437D01*
X175367597Y-119293437D02*
X175391406Y-119341056D01*
D11*
X186211504Y-123863675D02*
X186211504Y-123387485D01*
X186497219Y-123958913D02*
X185497219Y-123625580D01*
X185497219Y-123625580D02*
X186497219Y-123292247D01*
X186497219Y-122958913D02*
X185497219Y-122958913D01*
X185497219Y-122958913D02*
X185497219Y-122720818D01*
X185497219Y-122720818D02*
X185544838Y-122577961D01*
X185544838Y-122577961D02*
X185640076Y-122482723D01*
X185640076Y-122482723D02*
X185735314Y-122435104D01*
X185735314Y-122435104D02*
X185925790Y-122387485D01*
X185925790Y-122387485D02*
X186068647Y-122387485D01*
X186068647Y-122387485D02*
X186259123Y-122435104D01*
X186259123Y-122435104D02*
X186354361Y-122482723D01*
X186354361Y-122482723D02*
X186449600Y-122577961D01*
X186449600Y-122577961D02*
X186497219Y-122720818D01*
X186497219Y-122720818D02*
X186497219Y-122958913D01*
X186497219Y-121958913D02*
X185497219Y-121958913D01*
X185497219Y-121958913D02*
X185497219Y-121720818D01*
X185497219Y-121720818D02*
X185544838Y-121577961D01*
X185544838Y-121577961D02*
X185640076Y-121482723D01*
X185640076Y-121482723D02*
X185735314Y-121435104D01*
X185735314Y-121435104D02*
X185925790Y-121387485D01*
X185925790Y-121387485D02*
X186068647Y-121387485D01*
X186068647Y-121387485D02*
X186259123Y-121435104D01*
X186259123Y-121435104D02*
X186354361Y-121482723D01*
X186354361Y-121482723D02*
X186449600Y-121577961D01*
X186449600Y-121577961D02*
X186497219Y-121720818D01*
X186497219Y-121720818D02*
X186497219Y-121958913D01*
X186497219Y-120387485D02*
X186021028Y-120720818D01*
X186497219Y-120958913D02*
X185497219Y-120958913D01*
X185497219Y-120958913D02*
X185497219Y-120577961D01*
X185497219Y-120577961D02*
X185544838Y-120482723D01*
X185544838Y-120482723D02*
X185592457Y-120435104D01*
X185592457Y-120435104D02*
X185687695Y-120387485D01*
X185687695Y-120387485D02*
X185830552Y-120387485D01*
X185830552Y-120387485D02*
X185925790Y-120435104D01*
X185925790Y-120435104D02*
X185973409Y-120482723D01*
X185973409Y-120482723D02*
X186021028Y-120577961D01*
X186021028Y-120577961D02*
X186021028Y-120958913D01*
X186497219Y-119435104D02*
X186497219Y-120006532D01*
X186497219Y-119720818D02*
X185497219Y-119720818D01*
X185497219Y-119720818D02*
X185640076Y-119816056D01*
X185640076Y-119816056D02*
X185735314Y-119911294D01*
X185735314Y-119911294D02*
X185782933Y-120006532D01*
X185497219Y-118577961D02*
X185497219Y-118768437D01*
X185497219Y-118768437D02*
X185544838Y-118863675D01*
X185544838Y-118863675D02*
X185592457Y-118911294D01*
X185592457Y-118911294D02*
X185735314Y-119006532D01*
X185735314Y-119006532D02*
X185925790Y-119054151D01*
X185925790Y-119054151D02*
X186306742Y-119054151D01*
X186306742Y-119054151D02*
X186401980Y-119006532D01*
X186401980Y-119006532D02*
X186449600Y-118958913D01*
X186449600Y-118958913D02*
X186497219Y-118863675D01*
X186497219Y-118863675D02*
X186497219Y-118673199D01*
X186497219Y-118673199D02*
X186449600Y-118577961D01*
X186449600Y-118577961D02*
X186401980Y-118530342D01*
X186401980Y-118530342D02*
X186306742Y-118482723D01*
X186306742Y-118482723D02*
X186068647Y-118482723D01*
X186068647Y-118482723D02*
X185973409Y-118530342D01*
X185973409Y-118530342D02*
X185925790Y-118577961D01*
X185925790Y-118577961D02*
X185878171Y-118673199D01*
X185878171Y-118673199D02*
X185878171Y-118863675D01*
X185878171Y-118863675D02*
X185925790Y-118958913D01*
X185925790Y-118958913D02*
X185973409Y-119006532D01*
X185973409Y-119006532D02*
X186068647Y-119054151D01*
X172100542Y-128032552D02*
X172100542Y-128699219D01*
X171862447Y-127651600D02*
X171624352Y-128365885D01*
X171624352Y-128365885D02*
X172243399Y-128365885D01*
X172529114Y-127699219D02*
X173195780Y-127699219D01*
X173195780Y-127699219D02*
X172767209Y-128699219D01*
X173767209Y-127699219D02*
X173862447Y-127699219D01*
X173862447Y-127699219D02*
X173957685Y-127746838D01*
X173957685Y-127746838D02*
X174005304Y-127794457D01*
X174005304Y-127794457D02*
X174052923Y-127889695D01*
X174052923Y-127889695D02*
X174100542Y-128080171D01*
X174100542Y-128080171D02*
X174100542Y-128318266D01*
X174100542Y-128318266D02*
X174052923Y-128508742D01*
X174052923Y-128508742D02*
X174005304Y-128603980D01*
X174005304Y-128603980D02*
X173957685Y-128651600D01*
X173957685Y-128651600D02*
X173862447Y-128699219D01*
X173862447Y-128699219D02*
X173767209Y-128699219D01*
X173767209Y-128699219D02*
X173671971Y-128651600D01*
X173671971Y-128651600D02*
X173624352Y-128603980D01*
X173624352Y-128603980D02*
X173576733Y-128508742D01*
X173576733Y-128508742D02*
X173529114Y-128318266D01*
X173529114Y-128318266D02*
X173529114Y-128080171D01*
X173529114Y-128080171D02*
X173576733Y-127889695D01*
X173576733Y-127889695D02*
X173624352Y-127794457D01*
X173624352Y-127794457D02*
X173671971Y-127746838D01*
X173671971Y-127746838D02*
X173767209Y-127699219D01*
X174529114Y-128032552D02*
X174529114Y-128699219D01*
X174529114Y-128127790D02*
X174576733Y-128080171D01*
X174576733Y-128080171D02*
X174671971Y-128032552D01*
X174671971Y-128032552D02*
X174814828Y-128032552D01*
X174814828Y-128032552D02*
X174910066Y-128080171D01*
X174910066Y-128080171D02*
X174957685Y-128175409D01*
X174957685Y-128175409D02*
X174957685Y-128699219D01*
X175767209Y-128175409D02*
X175433876Y-128175409D01*
X175433876Y-128699219D02*
X175433876Y-127699219D01*
X175433876Y-127699219D02*
X175910066Y-127699219D01*
D12*
X173660066Y-126743930D02*
X173636257Y-126767740D01*
X173636257Y-126767740D02*
X173564828Y-126791549D01*
X173564828Y-126791549D02*
X173517209Y-126791549D01*
X173517209Y-126791549D02*
X173445781Y-126767740D01*
X173445781Y-126767740D02*
X173398162Y-126720120D01*
X173398162Y-126720120D02*
X173374352Y-126672501D01*
X173374352Y-126672501D02*
X173350543Y-126577263D01*
X173350543Y-126577263D02*
X173350543Y-126505835D01*
X173350543Y-126505835D02*
X173374352Y-126410597D01*
X173374352Y-126410597D02*
X173398162Y-126362978D01*
X173398162Y-126362978D02*
X173445781Y-126315359D01*
X173445781Y-126315359D02*
X173517209Y-126291549D01*
X173517209Y-126291549D02*
X173564828Y-126291549D01*
X173564828Y-126291549D02*
X173636257Y-126315359D01*
X173636257Y-126315359D02*
X173660066Y-126339168D01*
X173850543Y-126339168D02*
X173874352Y-126315359D01*
X173874352Y-126315359D02*
X173921971Y-126291549D01*
X173921971Y-126291549D02*
X174041019Y-126291549D01*
X174041019Y-126291549D02*
X174088638Y-126315359D01*
X174088638Y-126315359D02*
X174112447Y-126339168D01*
X174112447Y-126339168D02*
X174136257Y-126386787D01*
X174136257Y-126386787D02*
X174136257Y-126434406D01*
X174136257Y-126434406D02*
X174112447Y-126505835D01*
X174112447Y-126505835D02*
X173826733Y-126791549D01*
X173826733Y-126791549D02*
X174136257Y-126791549D01*
D11*
X186943971Y-104429019D02*
X186943971Y-103429019D01*
X186943971Y-103429019D02*
X187277304Y-104143304D01*
X187277304Y-104143304D02*
X187610637Y-103429019D01*
X187610637Y-103429019D02*
X187610637Y-104429019D01*
X188420161Y-103905209D02*
X188563018Y-103952828D01*
X188563018Y-103952828D02*
X188610637Y-104000447D01*
X188610637Y-104000447D02*
X188658256Y-104095685D01*
X188658256Y-104095685D02*
X188658256Y-104238542D01*
X188658256Y-104238542D02*
X188610637Y-104333780D01*
X188610637Y-104333780D02*
X188563018Y-104381400D01*
X188563018Y-104381400D02*
X188467780Y-104429019D01*
X188467780Y-104429019D02*
X188086828Y-104429019D01*
X188086828Y-104429019D02*
X188086828Y-103429019D01*
X188086828Y-103429019D02*
X188420161Y-103429019D01*
X188420161Y-103429019D02*
X188515399Y-103476638D01*
X188515399Y-103476638D02*
X188563018Y-103524257D01*
X188563018Y-103524257D02*
X188610637Y-103619495D01*
X188610637Y-103619495D02*
X188610637Y-103714733D01*
X188610637Y-103714733D02*
X188563018Y-103809971D01*
X188563018Y-103809971D02*
X188515399Y-103857590D01*
X188515399Y-103857590D02*
X188420161Y-103905209D01*
X188420161Y-103905209D02*
X188086828Y-103905209D01*
X189658256Y-104429019D02*
X189324923Y-103952828D01*
X189086828Y-104429019D02*
X189086828Y-103429019D01*
X189086828Y-103429019D02*
X189467780Y-103429019D01*
X189467780Y-103429019D02*
X189563018Y-103476638D01*
X189563018Y-103476638D02*
X189610637Y-103524257D01*
X189610637Y-103524257D02*
X189658256Y-103619495D01*
X189658256Y-103619495D02*
X189658256Y-103762352D01*
X189658256Y-103762352D02*
X189610637Y-103857590D01*
X189610637Y-103857590D02*
X189563018Y-103905209D01*
X189563018Y-103905209D02*
X189467780Y-103952828D01*
X189467780Y-103952828D02*
X189086828Y-103952828D01*
X190610637Y-104429019D02*
X190039209Y-104429019D01*
X190324923Y-104429019D02*
X190324923Y-103429019D01*
X190324923Y-103429019D02*
X190229685Y-103571876D01*
X190229685Y-103571876D02*
X190134447Y-103667114D01*
X190134447Y-103667114D02*
X190039209Y-103714733D01*
X191229685Y-103429019D02*
X191324923Y-103429019D01*
X191324923Y-103429019D02*
X191420161Y-103476638D01*
X191420161Y-103476638D02*
X191467780Y-103524257D01*
X191467780Y-103524257D02*
X191515399Y-103619495D01*
X191515399Y-103619495D02*
X191563018Y-103809971D01*
X191563018Y-103809971D02*
X191563018Y-104048066D01*
X191563018Y-104048066D02*
X191515399Y-104238542D01*
X191515399Y-104238542D02*
X191467780Y-104333780D01*
X191467780Y-104333780D02*
X191420161Y-104381400D01*
X191420161Y-104381400D02*
X191324923Y-104429019D01*
X191324923Y-104429019D02*
X191229685Y-104429019D01*
X191229685Y-104429019D02*
X191134447Y-104381400D01*
X191134447Y-104381400D02*
X191086828Y-104333780D01*
X191086828Y-104333780D02*
X191039209Y-104238542D01*
X191039209Y-104238542D02*
X190991590Y-104048066D01*
X190991590Y-104048066D02*
X190991590Y-103809971D01*
X190991590Y-103809971D02*
X191039209Y-103619495D01*
X191039209Y-103619495D02*
X191086828Y-103524257D01*
X191086828Y-103524257D02*
X191134447Y-103476638D01*
X191134447Y-103476638D02*
X191229685Y-103429019D01*
X191943971Y-103524257D02*
X191991590Y-103476638D01*
X191991590Y-103476638D02*
X192086828Y-103429019D01*
X192086828Y-103429019D02*
X192324923Y-103429019D01*
X192324923Y-103429019D02*
X192420161Y-103476638D01*
X192420161Y-103476638D02*
X192467780Y-103524257D01*
X192467780Y-103524257D02*
X192515399Y-103619495D01*
X192515399Y-103619495D02*
X192515399Y-103714733D01*
X192515399Y-103714733D02*
X192467780Y-103857590D01*
X192467780Y-103857590D02*
X191896352Y-104429019D01*
X191896352Y-104429019D02*
X192515399Y-104429019D01*
X193134447Y-103429019D02*
X193229685Y-103429019D01*
X193229685Y-103429019D02*
X193324923Y-103476638D01*
X193324923Y-103476638D02*
X193372542Y-103524257D01*
X193372542Y-103524257D02*
X193420161Y-103619495D01*
X193420161Y-103619495D02*
X193467780Y-103809971D01*
X193467780Y-103809971D02*
X193467780Y-104048066D01*
X193467780Y-104048066D02*
X193420161Y-104238542D01*
X193420161Y-104238542D02*
X193372542Y-104333780D01*
X193372542Y-104333780D02*
X193324923Y-104381400D01*
X193324923Y-104381400D02*
X193229685Y-104429019D01*
X193229685Y-104429019D02*
X193134447Y-104429019D01*
X193134447Y-104429019D02*
X193039209Y-104381400D01*
X193039209Y-104381400D02*
X192991590Y-104333780D01*
X192991590Y-104333780D02*
X192943971Y-104238542D01*
X192943971Y-104238542D02*
X192896352Y-104048066D01*
X192896352Y-104048066D02*
X192896352Y-103809971D01*
X192896352Y-103809971D02*
X192943971Y-103619495D01*
X192943971Y-103619495D02*
X192991590Y-103524257D01*
X192991590Y-103524257D02*
X193039209Y-103476638D01*
X193039209Y-103476638D02*
X193134447Y-103429019D01*
X193753495Y-103429019D02*
X194086828Y-104429019D01*
X194086828Y-104429019D02*
X194420161Y-103429019D01*
X195229685Y-104429019D02*
X194753495Y-104429019D01*
X194753495Y-104429019D02*
X194753495Y-103429019D01*
X190150305Y-100424019D02*
X190150305Y-99424019D01*
X190150305Y-99424019D02*
X190388400Y-99424019D01*
X190388400Y-99424019D02*
X190531257Y-99471638D01*
X190531257Y-99471638D02*
X190626495Y-99566876D01*
X190626495Y-99566876D02*
X190674114Y-99662114D01*
X190674114Y-99662114D02*
X190721733Y-99852590D01*
X190721733Y-99852590D02*
X190721733Y-99995447D01*
X190721733Y-99995447D02*
X190674114Y-100185923D01*
X190674114Y-100185923D02*
X190626495Y-100281161D01*
X190626495Y-100281161D02*
X190531257Y-100376400D01*
X190531257Y-100376400D02*
X190388400Y-100424019D01*
X190388400Y-100424019D02*
X190150305Y-100424019D01*
X191674114Y-100424019D02*
X191102686Y-100424019D01*
X191388400Y-100424019D02*
X191388400Y-99424019D01*
X191388400Y-99424019D02*
X191293162Y-99566876D01*
X191293162Y-99566876D02*
X191197924Y-99662114D01*
X191197924Y-99662114D02*
X191102686Y-99709733D01*
X171465733Y-127266400D02*
X171608590Y-127314019D01*
X171608590Y-127314019D02*
X171846685Y-127314019D01*
X171846685Y-127314019D02*
X171941923Y-127266400D01*
X171941923Y-127266400D02*
X171989542Y-127218780D01*
X171989542Y-127218780D02*
X172037161Y-127123542D01*
X172037161Y-127123542D02*
X172037161Y-127028304D01*
X172037161Y-127028304D02*
X171989542Y-126933066D01*
X171989542Y-126933066D02*
X171941923Y-126885447D01*
X171941923Y-126885447D02*
X171846685Y-126837828D01*
X171846685Y-126837828D02*
X171656209Y-126790209D01*
X171656209Y-126790209D02*
X171560971Y-126742590D01*
X171560971Y-126742590D02*
X171513352Y-126694971D01*
X171513352Y-126694971D02*
X171465733Y-126599733D01*
X171465733Y-126599733D02*
X171465733Y-126504495D01*
X171465733Y-126504495D02*
X171513352Y-126409257D01*
X171513352Y-126409257D02*
X171560971Y-126361638D01*
X171560971Y-126361638D02*
X171656209Y-126314019D01*
X171656209Y-126314019D02*
X171894304Y-126314019D01*
X171894304Y-126314019D02*
X172037161Y-126361638D01*
X172370495Y-126314019D02*
X172608590Y-127314019D01*
X172608590Y-127314019D02*
X172799066Y-126599733D01*
X172799066Y-126599733D02*
X172989542Y-127314019D01*
X172989542Y-127314019D02*
X173227638Y-126314019D01*
X173370495Y-127409257D02*
X174132399Y-127409257D01*
X174703828Y-126790209D02*
X174846685Y-126837828D01*
X174846685Y-126837828D02*
X174894304Y-126885447D01*
X174894304Y-126885447D02*
X174941923Y-126980685D01*
X174941923Y-126980685D02*
X174941923Y-127123542D01*
X174941923Y-127123542D02*
X174894304Y-127218780D01*
X174894304Y-127218780D02*
X174846685Y-127266400D01*
X174846685Y-127266400D02*
X174751447Y-127314019D01*
X174751447Y-127314019D02*
X174370495Y-127314019D01*
X174370495Y-127314019D02*
X174370495Y-126314019D01*
X174370495Y-126314019D02*
X174703828Y-126314019D01*
X174703828Y-126314019D02*
X174799066Y-126361638D01*
X174799066Y-126361638D02*
X174846685Y-126409257D01*
X174846685Y-126409257D02*
X174894304Y-126504495D01*
X174894304Y-126504495D02*
X174894304Y-126599733D01*
X174894304Y-126599733D02*
X174846685Y-126694971D01*
X174846685Y-126694971D02*
X174799066Y-126742590D01*
X174799066Y-126742590D02*
X174703828Y-126790209D01*
X174703828Y-126790209D02*
X174370495Y-126790209D01*
X175560971Y-126314019D02*
X175751447Y-126314019D01*
X175751447Y-126314019D02*
X175846685Y-126361638D01*
X175846685Y-126361638D02*
X175941923Y-126456876D01*
X175941923Y-126456876D02*
X175989542Y-126647352D01*
X175989542Y-126647352D02*
X175989542Y-126980685D01*
X175989542Y-126980685D02*
X175941923Y-127171161D01*
X175941923Y-127171161D02*
X175846685Y-127266400D01*
X175846685Y-127266400D02*
X175751447Y-127314019D01*
X175751447Y-127314019D02*
X175560971Y-127314019D01*
X175560971Y-127314019D02*
X175465733Y-127266400D01*
X175465733Y-127266400D02*
X175370495Y-127171161D01*
X175370495Y-127171161D02*
X175322876Y-126980685D01*
X175322876Y-126980685D02*
X175322876Y-126647352D01*
X175322876Y-126647352D02*
X175370495Y-126456876D01*
X175370495Y-126456876D02*
X175465733Y-126361638D01*
X175465733Y-126361638D02*
X175560971Y-126314019D01*
X176608590Y-126314019D02*
X176799066Y-126314019D01*
X176799066Y-126314019D02*
X176894304Y-126361638D01*
X176894304Y-126361638D02*
X176989542Y-126456876D01*
X176989542Y-126456876D02*
X177037161Y-126647352D01*
X177037161Y-126647352D02*
X177037161Y-126980685D01*
X177037161Y-126980685D02*
X176989542Y-127171161D01*
X176989542Y-127171161D02*
X176894304Y-127266400D01*
X176894304Y-127266400D02*
X176799066Y-127314019D01*
X176799066Y-127314019D02*
X176608590Y-127314019D01*
X176608590Y-127314019D02*
X176513352Y-127266400D01*
X176513352Y-127266400D02*
X176418114Y-127171161D01*
X176418114Y-127171161D02*
X176370495Y-126980685D01*
X176370495Y-126980685D02*
X176370495Y-126647352D01*
X176370495Y-126647352D02*
X176418114Y-126456876D01*
X176418114Y-126456876D02*
X176513352Y-126361638D01*
X176513352Y-126361638D02*
X176608590Y-126314019D01*
X177322876Y-126314019D02*
X177894304Y-126314019D01*
X177608590Y-127314019D02*
X177608590Y-126314019D01*
X173299067Y-132266400D02*
X173441924Y-132314019D01*
X173441924Y-132314019D02*
X173680019Y-132314019D01*
X173680019Y-132314019D02*
X173775257Y-132266400D01*
X173775257Y-132266400D02*
X173822876Y-132218780D01*
X173822876Y-132218780D02*
X173870495Y-132123542D01*
X173870495Y-132123542D02*
X173870495Y-132028304D01*
X173870495Y-132028304D02*
X173822876Y-131933066D01*
X173822876Y-131933066D02*
X173775257Y-131885447D01*
X173775257Y-131885447D02*
X173680019Y-131837828D01*
X173680019Y-131837828D02*
X173489543Y-131790209D01*
X173489543Y-131790209D02*
X173394305Y-131742590D01*
X173394305Y-131742590D02*
X173346686Y-131694971D01*
X173346686Y-131694971D02*
X173299067Y-131599733D01*
X173299067Y-131599733D02*
X173299067Y-131504495D01*
X173299067Y-131504495D02*
X173346686Y-131409257D01*
X173346686Y-131409257D02*
X173394305Y-131361638D01*
X173394305Y-131361638D02*
X173489543Y-131314019D01*
X173489543Y-131314019D02*
X173727638Y-131314019D01*
X173727638Y-131314019D02*
X173870495Y-131361638D01*
X174203829Y-131314019D02*
X174441924Y-132314019D01*
X174441924Y-132314019D02*
X174632400Y-131599733D01*
X174632400Y-131599733D02*
X174822876Y-132314019D01*
X174822876Y-132314019D02*
X175060972Y-131314019D01*
X175394305Y-131409257D02*
X175441924Y-131361638D01*
X175441924Y-131361638D02*
X175537162Y-131314019D01*
X175537162Y-131314019D02*
X175775257Y-131314019D01*
X175775257Y-131314019D02*
X175870495Y-131361638D01*
X175870495Y-131361638D02*
X175918114Y-131409257D01*
X175918114Y-131409257D02*
X175965733Y-131504495D01*
X175965733Y-131504495D02*
X175965733Y-131599733D01*
X175965733Y-131599733D02*
X175918114Y-131742590D01*
X175918114Y-131742590D02*
X175346686Y-132314019D01*
X175346686Y-132314019D02*
X175965733Y-132314019D01*
X189575552Y-114205247D02*
X190242219Y-114205247D01*
X189194600Y-114443342D02*
X189908885Y-114681437D01*
X189908885Y-114681437D02*
X189908885Y-114062390D01*
X190146980Y-113681437D02*
X190194600Y-113633818D01*
X190194600Y-113633818D02*
X190242219Y-113681437D01*
X190242219Y-113681437D02*
X190194600Y-113729056D01*
X190194600Y-113729056D02*
X190146980Y-113681437D01*
X190146980Y-113681437D02*
X190242219Y-113681437D01*
X189242219Y-113300485D02*
X189242219Y-112633819D01*
X189242219Y-112633819D02*
X190242219Y-113062390D01*
X189575552Y-111824295D02*
X190242219Y-111824295D01*
X189575552Y-112252866D02*
X190099361Y-112252866D01*
X190099361Y-112252866D02*
X190194600Y-112205247D01*
X190194600Y-112205247D02*
X190242219Y-112110009D01*
X190242219Y-112110009D02*
X190242219Y-111967152D01*
X190242219Y-111967152D02*
X190194600Y-111871914D01*
X190194600Y-111871914D02*
X190146980Y-111824295D01*
X189718409Y-111014771D02*
X189718409Y-111348104D01*
X190242219Y-111348104D02*
X189242219Y-111348104D01*
X189242219Y-111348104D02*
X189242219Y-110871914D01*
X190242219Y-109205247D02*
X190242219Y-109776675D01*
X190242219Y-109490961D02*
X189242219Y-109490961D01*
X189242219Y-109490961D02*
X189385076Y-109586199D01*
X189385076Y-109586199D02*
X189480314Y-109681437D01*
X189480314Y-109681437D02*
X189527933Y-109776675D01*
X189242219Y-108586199D02*
X189242219Y-108490961D01*
X189242219Y-108490961D02*
X189289838Y-108395723D01*
X189289838Y-108395723D02*
X189337457Y-108348104D01*
X189337457Y-108348104D02*
X189432695Y-108300485D01*
X189432695Y-108300485D02*
X189623171Y-108252866D01*
X189623171Y-108252866D02*
X189861266Y-108252866D01*
X189861266Y-108252866D02*
X190051742Y-108300485D01*
X190051742Y-108300485D02*
X190146980Y-108348104D01*
X190146980Y-108348104D02*
X190194600Y-108395723D01*
X190194600Y-108395723D02*
X190242219Y-108490961D01*
X190242219Y-108490961D02*
X190242219Y-108586199D01*
X190242219Y-108586199D02*
X190194600Y-108681437D01*
X190194600Y-108681437D02*
X190146980Y-108729056D01*
X190146980Y-108729056D02*
X190051742Y-108776675D01*
X190051742Y-108776675D02*
X189861266Y-108824294D01*
X189861266Y-108824294D02*
X189623171Y-108824294D01*
X189623171Y-108824294D02*
X189432695Y-108776675D01*
X189432695Y-108776675D02*
X189337457Y-108729056D01*
X189337457Y-108729056D02*
X189289838Y-108681437D01*
X189289838Y-108681437D02*
X189242219Y-108586199D01*
X189575552Y-107919532D02*
X190242219Y-107681437D01*
X190242219Y-107681437D02*
X189575552Y-107443342D01*
D15*
X191825064Y-111219532D02*
X191863160Y-111257628D01*
X191863160Y-111257628D02*
X191901255Y-111371913D01*
X191901255Y-111371913D02*
X191901255Y-111448104D01*
X191901255Y-111448104D02*
X191863160Y-111562390D01*
X191863160Y-111562390D02*
X191786969Y-111638580D01*
X191786969Y-111638580D02*
X191710779Y-111676675D01*
X191710779Y-111676675D02*
X191558398Y-111714771D01*
X191558398Y-111714771D02*
X191444112Y-111714771D01*
X191444112Y-111714771D02*
X191291731Y-111676675D01*
X191291731Y-111676675D02*
X191215540Y-111638580D01*
X191215540Y-111638580D02*
X191139350Y-111562390D01*
X191139350Y-111562390D02*
X191101255Y-111448104D01*
X191101255Y-111448104D02*
X191101255Y-111371913D01*
X191101255Y-111371913D02*
X191139350Y-111257628D01*
X191139350Y-111257628D02*
X191177445Y-111219532D01*
X191101255Y-110533818D02*
X191101255Y-110686199D01*
X191101255Y-110686199D02*
X191139350Y-110762390D01*
X191139350Y-110762390D02*
X191177445Y-110800485D01*
X191177445Y-110800485D02*
X191291731Y-110876675D01*
X191291731Y-110876675D02*
X191444112Y-110914771D01*
X191444112Y-110914771D02*
X191748874Y-110914771D01*
X191748874Y-110914771D02*
X191825064Y-110876675D01*
X191825064Y-110876675D02*
X191863160Y-110838580D01*
X191863160Y-110838580D02*
X191901255Y-110762390D01*
X191901255Y-110762390D02*
X191901255Y-110610009D01*
X191901255Y-110610009D02*
X191863160Y-110533818D01*
X191863160Y-110533818D02*
X191825064Y-110495723D01*
X191825064Y-110495723D02*
X191748874Y-110457628D01*
X191748874Y-110457628D02*
X191558398Y-110457628D01*
X191558398Y-110457628D02*
X191482207Y-110495723D01*
X191482207Y-110495723D02*
X191444112Y-110533818D01*
X191444112Y-110533818D02*
X191406017Y-110610009D01*
X191406017Y-110610009D02*
X191406017Y-110762390D01*
X191406017Y-110762390D02*
X191444112Y-110838580D01*
X191444112Y-110838580D02*
X191482207Y-110876675D01*
X191482207Y-110876675D02*
X191558398Y-110914771D01*
D11*
X173649057Y-106209170D02*
X173601438Y-106161551D01*
X173601438Y-106161551D02*
X173553819Y-106066313D01*
X173553819Y-106066313D02*
X173553819Y-105828218D01*
X173553819Y-105828218D02*
X173601438Y-105732980D01*
X173601438Y-105732980D02*
X173649057Y-105685361D01*
X173649057Y-105685361D02*
X173744295Y-105637742D01*
X173744295Y-105637742D02*
X173839533Y-105637742D01*
X173839533Y-105637742D02*
X173982390Y-105685361D01*
X173982390Y-105685361D02*
X174553819Y-106256789D01*
X174553819Y-106256789D02*
X174553819Y-105637742D01*
X174458580Y-105209170D02*
X174506200Y-105161551D01*
X174506200Y-105161551D02*
X174553819Y-105209170D01*
X174553819Y-105209170D02*
X174506200Y-105256789D01*
X174506200Y-105256789D02*
X174458580Y-105209170D01*
X174458580Y-105209170D02*
X174553819Y-105209170D01*
X173649057Y-104780599D02*
X173601438Y-104732980D01*
X173601438Y-104732980D02*
X173553819Y-104637742D01*
X173553819Y-104637742D02*
X173553819Y-104399647D01*
X173553819Y-104399647D02*
X173601438Y-104304409D01*
X173601438Y-104304409D02*
X173649057Y-104256790D01*
X173649057Y-104256790D02*
X173744295Y-104209171D01*
X173744295Y-104209171D02*
X173839533Y-104209171D01*
X173839533Y-104209171D02*
X173982390Y-104256790D01*
X173982390Y-104256790D02*
X174553819Y-104828218D01*
X174553819Y-104828218D02*
X174553819Y-104209171D01*
X174553819Y-103780599D02*
X173553819Y-103780599D01*
X174553819Y-103209171D02*
X173982390Y-103637742D01*
X173553819Y-103209171D02*
X174125247Y-103780599D01*
X174553819Y-101494885D02*
X174553819Y-102066313D01*
X174553819Y-101780599D02*
X173553819Y-101780599D01*
X173553819Y-101780599D02*
X173696676Y-101875837D01*
X173696676Y-101875837D02*
X173791914Y-101971075D01*
X173791914Y-101971075D02*
X173839533Y-102066313D01*
X174553819Y-101113932D02*
X173553819Y-100352028D01*
X173553819Y-100971075D02*
X173601438Y-100875837D01*
X173601438Y-100875837D02*
X173696676Y-100828218D01*
X173696676Y-100828218D02*
X173791914Y-100875837D01*
X173791914Y-100875837D02*
X173839533Y-100971075D01*
X173839533Y-100971075D02*
X173791914Y-101066313D01*
X173791914Y-101066313D02*
X173696676Y-101113932D01*
X173696676Y-101113932D02*
X173601438Y-101066313D01*
X173601438Y-101066313D02*
X173553819Y-100971075D01*
X174506200Y-100399647D02*
X174410961Y-100352028D01*
X174410961Y-100352028D02*
X174315723Y-100399647D01*
X174315723Y-100399647D02*
X174268104Y-100494885D01*
X174268104Y-100494885D02*
X174315723Y-100590123D01*
X174315723Y-100590123D02*
X174410961Y-100637742D01*
X174410961Y-100637742D02*
X174506200Y-100590123D01*
X174506200Y-100590123D02*
X174553819Y-100494885D01*
X174553819Y-100494885D02*
X174506200Y-100399647D01*
D12*
X175850149Y-103379933D02*
X175612054Y-103546599D01*
X175850149Y-103665647D02*
X175350149Y-103665647D01*
X175350149Y-103665647D02*
X175350149Y-103475171D01*
X175350149Y-103475171D02*
X175373959Y-103427552D01*
X175373959Y-103427552D02*
X175397768Y-103403742D01*
X175397768Y-103403742D02*
X175445387Y-103379933D01*
X175445387Y-103379933D02*
X175516816Y-103379933D01*
X175516816Y-103379933D02*
X175564435Y-103403742D01*
X175564435Y-103403742D02*
X175588244Y-103427552D01*
X175588244Y-103427552D02*
X175612054Y-103475171D01*
X175612054Y-103475171D02*
X175612054Y-103665647D01*
X175397768Y-103189456D02*
X175373959Y-103165647D01*
X175373959Y-103165647D02*
X175350149Y-103118028D01*
X175350149Y-103118028D02*
X175350149Y-102998980D01*
X175350149Y-102998980D02*
X175373959Y-102951361D01*
X175373959Y-102951361D02*
X175397768Y-102927552D01*
X175397768Y-102927552D02*
X175445387Y-102903742D01*
X175445387Y-102903742D02*
X175493006Y-102903742D01*
X175493006Y-102903742D02*
X175564435Y-102927552D01*
X175564435Y-102927552D02*
X175850149Y-103213266D01*
X175850149Y-103213266D02*
X175850149Y-102903742D01*
D11*
X192032504Y-117962866D02*
X192032504Y-117486676D01*
X192318219Y-118058104D02*
X191318219Y-117724771D01*
X191318219Y-117724771D02*
X192318219Y-117391438D01*
X192318219Y-117058104D02*
X191318219Y-117058104D01*
X191318219Y-117058104D02*
X191318219Y-116677152D01*
X191318219Y-116677152D02*
X191365838Y-116581914D01*
X191365838Y-116581914D02*
X191413457Y-116534295D01*
X191413457Y-116534295D02*
X191508695Y-116486676D01*
X191508695Y-116486676D02*
X191651552Y-116486676D01*
X191651552Y-116486676D02*
X191746790Y-116534295D01*
X191746790Y-116534295D02*
X191794409Y-116581914D01*
X191794409Y-116581914D02*
X191842028Y-116677152D01*
X191842028Y-116677152D02*
X191842028Y-117058104D01*
X191318219Y-116153342D02*
X191318219Y-115486676D01*
X191318219Y-115486676D02*
X192318219Y-115915247D01*
X191318219Y-115200961D02*
X191318219Y-114581914D01*
X191318219Y-114581914D02*
X191699171Y-114915247D01*
X191699171Y-114915247D02*
X191699171Y-114772390D01*
X191699171Y-114772390D02*
X191746790Y-114677152D01*
X191746790Y-114677152D02*
X191794409Y-114629533D01*
X191794409Y-114629533D02*
X191889647Y-114581914D01*
X191889647Y-114581914D02*
X192127742Y-114581914D01*
X192127742Y-114581914D02*
X192222980Y-114629533D01*
X192222980Y-114629533D02*
X192270600Y-114677152D01*
X192270600Y-114677152D02*
X192318219Y-114772390D01*
X192318219Y-114772390D02*
X192318219Y-115058104D01*
X192318219Y-115058104D02*
X192270600Y-115153342D01*
X192270600Y-115153342D02*
X192222980Y-115200961D01*
X191318219Y-113724771D02*
X191318219Y-113915247D01*
X191318219Y-113915247D02*
X191365838Y-114010485D01*
X191365838Y-114010485D02*
X191413457Y-114058104D01*
X191413457Y-114058104D02*
X191556314Y-114153342D01*
X191556314Y-114153342D02*
X191746790Y-114200961D01*
X191746790Y-114200961D02*
X192127742Y-114200961D01*
X192127742Y-114200961D02*
X192222980Y-114153342D01*
X192222980Y-114153342D02*
X192270600Y-114105723D01*
X192270600Y-114105723D02*
X192318219Y-114010485D01*
X192318219Y-114010485D02*
X192318219Y-113820009D01*
X192318219Y-113820009D02*
X192270600Y-113724771D01*
X192270600Y-113724771D02*
X192222980Y-113677152D01*
X192222980Y-113677152D02*
X192127742Y-113629533D01*
X192127742Y-113629533D02*
X191889647Y-113629533D01*
X191889647Y-113629533D02*
X191794409Y-113677152D01*
X191794409Y-113677152D02*
X191746790Y-113724771D01*
X191746790Y-113724771D02*
X191699171Y-113820009D01*
X191699171Y-113820009D02*
X191699171Y-114010485D01*
X191699171Y-114010485D02*
X191746790Y-114105723D01*
X191746790Y-114105723D02*
X191794409Y-114153342D01*
X191794409Y-114153342D02*
X191889647Y-114200961D01*
X192318219Y-112677152D02*
X192318219Y-113248580D01*
X192318219Y-112962866D02*
X191318219Y-112962866D01*
X191318219Y-112962866D02*
X191461076Y-113058104D01*
X191461076Y-113058104D02*
X191556314Y-113153342D01*
X191556314Y-113153342D02*
X191603933Y-113248580D01*
X192222980Y-111677152D02*
X192270600Y-111724771D01*
X192270600Y-111724771D02*
X192318219Y-111867628D01*
X192318219Y-111867628D02*
X192318219Y-111962866D01*
X192318219Y-111962866D02*
X192270600Y-112105723D01*
X192270600Y-112105723D02*
X192175361Y-112200961D01*
X192175361Y-112200961D02*
X192080123Y-112248580D01*
X192080123Y-112248580D02*
X191889647Y-112296199D01*
X191889647Y-112296199D02*
X191746790Y-112296199D01*
X191746790Y-112296199D02*
X191556314Y-112248580D01*
X191556314Y-112248580D02*
X191461076Y-112200961D01*
X191461076Y-112200961D02*
X191365838Y-112105723D01*
X191365838Y-112105723D02*
X191318219Y-111962866D01*
X191318219Y-111962866D02*
X191318219Y-111867628D01*
X191318219Y-111867628D02*
X191365838Y-111724771D01*
X191365838Y-111724771D02*
X191413457Y-111677152D01*
X191937266Y-111248580D02*
X191937266Y-110486676D01*
X191318219Y-110105723D02*
X191318219Y-109486676D01*
X191318219Y-109486676D02*
X191699171Y-109820009D01*
X191699171Y-109820009D02*
X191699171Y-109677152D01*
X191699171Y-109677152D02*
X191746790Y-109581914D01*
X191746790Y-109581914D02*
X191794409Y-109534295D01*
X191794409Y-109534295D02*
X191889647Y-109486676D01*
X191889647Y-109486676D02*
X192127742Y-109486676D01*
X192127742Y-109486676D02*
X192222980Y-109534295D01*
X192222980Y-109534295D02*
X192270600Y-109581914D01*
X192270600Y-109581914D02*
X192318219Y-109677152D01*
X192318219Y-109677152D02*
X192318219Y-109962866D01*
X192318219Y-109962866D02*
X192270600Y-110058104D01*
X192270600Y-110058104D02*
X192222980Y-110105723D01*
X191318219Y-109153342D02*
X191318219Y-108534295D01*
X191318219Y-108534295D02*
X191699171Y-108867628D01*
X191699171Y-108867628D02*
X191699171Y-108724771D01*
X191699171Y-108724771D02*
X191746790Y-108629533D01*
X191746790Y-108629533D02*
X191794409Y-108581914D01*
X191794409Y-108581914D02*
X191889647Y-108534295D01*
X191889647Y-108534295D02*
X192127742Y-108534295D01*
X192127742Y-108534295D02*
X192222980Y-108581914D01*
X192222980Y-108581914D02*
X192270600Y-108629533D01*
X192270600Y-108629533D02*
X192318219Y-108724771D01*
X192318219Y-108724771D02*
X192318219Y-109010485D01*
X192318219Y-109010485D02*
X192270600Y-109105723D01*
X192270600Y-109105723D02*
X192222980Y-109153342D01*
X191794409Y-108105723D02*
X191794409Y-107772390D01*
X192318219Y-107629533D02*
X192318219Y-108105723D01*
X192318219Y-108105723D02*
X191318219Y-108105723D01*
X191318219Y-108105723D02*
X191318219Y-107629533D01*
D15*
X195753876Y-112360055D02*
X195753876Y-113007674D01*
X195753876Y-113007674D02*
X195791971Y-113083864D01*
X195791971Y-113083864D02*
X195830066Y-113121960D01*
X195830066Y-113121960D02*
X195906257Y-113160055D01*
X195906257Y-113160055D02*
X196058638Y-113160055D01*
X196058638Y-113160055D02*
X196134828Y-113121960D01*
X196134828Y-113121960D02*
X196172923Y-113083864D01*
X196172923Y-113083864D02*
X196211019Y-113007674D01*
X196211019Y-113007674D02*
X196211019Y-112360055D01*
X196934828Y-112626721D02*
X196934828Y-113160055D01*
X196744352Y-112321960D02*
X196553875Y-112893388D01*
X196553875Y-112893388D02*
X197049114Y-112893388D01*
D11*
X185534219Y-108038162D02*
X185534219Y-108514352D01*
X185534219Y-108514352D02*
X184534219Y-108514352D01*
X185010409Y-107704828D02*
X185010409Y-107371495D01*
X185534219Y-107228638D02*
X185534219Y-107704828D01*
X185534219Y-107704828D02*
X184534219Y-107704828D01*
X184534219Y-107704828D02*
X184534219Y-107228638D01*
X185534219Y-106800066D02*
X184534219Y-106800066D01*
X184534219Y-106800066D02*
X184534219Y-106561971D01*
X184534219Y-106561971D02*
X184581838Y-106419114D01*
X184581838Y-106419114D02*
X184677076Y-106323876D01*
X184677076Y-106323876D02*
X184772314Y-106276257D01*
X184772314Y-106276257D02*
X184962790Y-106228638D01*
X184962790Y-106228638D02*
X185105647Y-106228638D01*
X185105647Y-106228638D02*
X185296123Y-106276257D01*
X185296123Y-106276257D02*
X185391361Y-106323876D01*
X185391361Y-106323876D02*
X185486600Y-106419114D01*
X185486600Y-106419114D02*
X185534219Y-106561971D01*
X185534219Y-106561971D02*
X185534219Y-106800066D01*
X185534219Y-104466733D02*
X185058028Y-104800066D01*
X185534219Y-105038161D02*
X184534219Y-105038161D01*
X184534219Y-105038161D02*
X184534219Y-104657209D01*
X184534219Y-104657209D02*
X184581838Y-104561971D01*
X184581838Y-104561971D02*
X184629457Y-104514352D01*
X184629457Y-104514352D02*
X184724695Y-104466733D01*
X184724695Y-104466733D02*
X184867552Y-104466733D01*
X184867552Y-104466733D02*
X184962790Y-104514352D01*
X184962790Y-104514352D02*
X185010409Y-104561971D01*
X185010409Y-104561971D02*
X185058028Y-104657209D01*
X185058028Y-104657209D02*
X185058028Y-105038161D01*
X185486600Y-103657209D02*
X185534219Y-103752447D01*
X185534219Y-103752447D02*
X185534219Y-103942923D01*
X185534219Y-103942923D02*
X185486600Y-104038161D01*
X185486600Y-104038161D02*
X185391361Y-104085780D01*
X185391361Y-104085780D02*
X185010409Y-104085780D01*
X185010409Y-104085780D02*
X184915171Y-104038161D01*
X184915171Y-104038161D02*
X184867552Y-103942923D01*
X184867552Y-103942923D02*
X184867552Y-103752447D01*
X184867552Y-103752447D02*
X184915171Y-103657209D01*
X184915171Y-103657209D02*
X185010409Y-103609590D01*
X185010409Y-103609590D02*
X185105647Y-103609590D01*
X185105647Y-103609590D02*
X185200885Y-104085780D01*
X185534219Y-102752447D02*
X184534219Y-102752447D01*
X185486600Y-102752447D02*
X185534219Y-102847685D01*
X185534219Y-102847685D02*
X185534219Y-103038161D01*
X185534219Y-103038161D02*
X185486600Y-103133399D01*
X185486600Y-103133399D02*
X185438980Y-103181018D01*
X185438980Y-103181018D02*
X185343742Y-103228637D01*
X185343742Y-103228637D02*
X185058028Y-103228637D01*
X185058028Y-103228637D02*
X184962790Y-103181018D01*
X184962790Y-103181018D02*
X184915171Y-103133399D01*
X184915171Y-103133399D02*
X184867552Y-103038161D01*
X184867552Y-103038161D02*
X184867552Y-102847685D01*
X184867552Y-102847685D02*
X184915171Y-102752447D01*
D14*
X183831327Y-105928637D02*
X183431327Y-105928637D01*
X183431327Y-105928637D02*
X183431327Y-105833399D01*
X183431327Y-105833399D02*
X183450375Y-105776256D01*
X183450375Y-105776256D02*
X183488470Y-105738161D01*
X183488470Y-105738161D02*
X183526565Y-105719114D01*
X183526565Y-105719114D02*
X183602756Y-105700066D01*
X183602756Y-105700066D02*
X183659899Y-105700066D01*
X183659899Y-105700066D02*
X183736089Y-105719114D01*
X183736089Y-105719114D02*
X183774184Y-105738161D01*
X183774184Y-105738161D02*
X183812280Y-105776256D01*
X183812280Y-105776256D02*
X183831327Y-105833399D01*
X183831327Y-105833399D02*
X183831327Y-105928637D01*
X183431327Y-105566733D02*
X183431327Y-105319114D01*
X183431327Y-105319114D02*
X183583708Y-105452447D01*
X183583708Y-105452447D02*
X183583708Y-105395304D01*
X183583708Y-105395304D02*
X183602756Y-105357209D01*
X183602756Y-105357209D02*
X183621803Y-105338161D01*
X183621803Y-105338161D02*
X183659899Y-105319114D01*
X183659899Y-105319114D02*
X183755137Y-105319114D01*
X183755137Y-105319114D02*
X183793232Y-105338161D01*
X183793232Y-105338161D02*
X183812280Y-105357209D01*
X183812280Y-105357209D02*
X183831327Y-105395304D01*
X183831327Y-105395304D02*
X183831327Y-105509590D01*
X183831327Y-105509590D02*
X183812280Y-105547685D01*
X183812280Y-105547685D02*
X183793232Y-105566733D01*
D11*
X176051504Y-123387485D02*
X176051504Y-122911295D01*
X176337219Y-123482723D02*
X175337219Y-123149390D01*
X175337219Y-123149390D02*
X176337219Y-122816057D01*
X176337219Y-122482723D02*
X175337219Y-122482723D01*
X175337219Y-122482723D02*
X175337219Y-122244628D01*
X175337219Y-122244628D02*
X175384838Y-122101771D01*
X175384838Y-122101771D02*
X175480076Y-122006533D01*
X175480076Y-122006533D02*
X175575314Y-121958914D01*
X175575314Y-121958914D02*
X175765790Y-121911295D01*
X175765790Y-121911295D02*
X175908647Y-121911295D01*
X175908647Y-121911295D02*
X176099123Y-121958914D01*
X176099123Y-121958914D02*
X176194361Y-122006533D01*
X176194361Y-122006533D02*
X176289600Y-122101771D01*
X176289600Y-122101771D02*
X176337219Y-122244628D01*
X176337219Y-122244628D02*
X176337219Y-122482723D01*
X176337219Y-121482723D02*
X175337219Y-121482723D01*
X175337219Y-121482723D02*
X175337219Y-121244628D01*
X175337219Y-121244628D02*
X175384838Y-121101771D01*
X175384838Y-121101771D02*
X175480076Y-121006533D01*
X175480076Y-121006533D02*
X175575314Y-120958914D01*
X175575314Y-120958914D02*
X175765790Y-120911295D01*
X175765790Y-120911295D02*
X175908647Y-120911295D01*
X175908647Y-120911295D02*
X176099123Y-120958914D01*
X176099123Y-120958914D02*
X176194361Y-121006533D01*
X176194361Y-121006533D02*
X176289600Y-121101771D01*
X176289600Y-121101771D02*
X176337219Y-121244628D01*
X176337219Y-121244628D02*
X176337219Y-121482723D01*
X176337219Y-119911295D02*
X175861028Y-120244628D01*
X176337219Y-120482723D02*
X175337219Y-120482723D01*
X175337219Y-120482723D02*
X175337219Y-120101771D01*
X175337219Y-120101771D02*
X175384838Y-120006533D01*
X175384838Y-120006533D02*
X175432457Y-119958914D01*
X175432457Y-119958914D02*
X175527695Y-119911295D01*
X175527695Y-119911295D02*
X175670552Y-119911295D01*
X175670552Y-119911295D02*
X175765790Y-119958914D01*
X175765790Y-119958914D02*
X175813409Y-120006533D01*
X175813409Y-120006533D02*
X175861028Y-120101771D01*
X175861028Y-120101771D02*
X175861028Y-120482723D01*
X176337219Y-118958914D02*
X176337219Y-119530342D01*
X176337219Y-119244628D02*
X175337219Y-119244628D01*
X175337219Y-119244628D02*
X175480076Y-119339866D01*
X175480076Y-119339866D02*
X175575314Y-119435104D01*
X175575314Y-119435104D02*
X175622933Y-119530342D01*
X193642219Y-106660485D02*
X193642219Y-107231913D01*
X193642219Y-106946199D02*
X192642219Y-106946199D01*
X192642219Y-106946199D02*
X192785076Y-107041437D01*
X192785076Y-107041437D02*
X192880314Y-107136675D01*
X192880314Y-107136675D02*
X192927933Y-107231913D01*
X193642219Y-106231913D02*
X192642219Y-106231913D01*
X193642219Y-105660485D02*
X193070790Y-106089056D01*
X192642219Y-105660485D02*
X193213647Y-106231913D01*
D12*
X191764549Y-106529533D02*
X191526454Y-106696199D01*
X191764549Y-106815247D02*
X191264549Y-106815247D01*
X191264549Y-106815247D02*
X191264549Y-106624771D01*
X191264549Y-106624771D02*
X191288359Y-106577152D01*
X191288359Y-106577152D02*
X191312168Y-106553342D01*
X191312168Y-106553342D02*
X191359787Y-106529533D01*
X191359787Y-106529533D02*
X191431216Y-106529533D01*
X191431216Y-106529533D02*
X191478835Y-106553342D01*
X191478835Y-106553342D02*
X191502644Y-106577152D01*
X191502644Y-106577152D02*
X191526454Y-106624771D01*
X191526454Y-106624771D02*
X191526454Y-106815247D01*
X191764549Y-106291437D02*
X191764549Y-106196199D01*
X191764549Y-106196199D02*
X191740740Y-106148580D01*
X191740740Y-106148580D02*
X191716930Y-106124771D01*
X191716930Y-106124771D02*
X191645501Y-106077152D01*
X191645501Y-106077152D02*
X191550263Y-106053342D01*
X191550263Y-106053342D02*
X191359787Y-106053342D01*
X191359787Y-106053342D02*
X191312168Y-106077152D01*
X191312168Y-106077152D02*
X191288359Y-106100961D01*
X191288359Y-106100961D02*
X191264549Y-106148580D01*
X191264549Y-106148580D02*
X191264549Y-106243818D01*
X191264549Y-106243818D02*
X191288359Y-106291437D01*
X191288359Y-106291437D02*
X191312168Y-106315247D01*
X191312168Y-106315247D02*
X191359787Y-106339056D01*
X191359787Y-106339056D02*
X191478835Y-106339056D01*
X191478835Y-106339056D02*
X191526454Y-106315247D01*
X191526454Y-106315247D02*
X191550263Y-106291437D01*
X191550263Y-106291437D02*
X191574073Y-106243818D01*
X191574073Y-106243818D02*
X191574073Y-106148580D01*
X191574073Y-106148580D02*
X191550263Y-106100961D01*
X191550263Y-106100961D02*
X191526454Y-106077152D01*
X191526454Y-106077152D02*
X191478835Y-106053342D01*
D11*
X155357109Y-145966014D02*
X155357109Y-146299347D01*
X155880919Y-146299347D02*
X154880919Y-146299347D01*
X154880919Y-146299347D02*
X154880919Y-145823157D01*
X154880919Y-145251728D02*
X154880919Y-145061252D01*
X154880919Y-145061252D02*
X154928538Y-144966014D01*
X154928538Y-144966014D02*
X155023776Y-144870776D01*
X155023776Y-144870776D02*
X155214252Y-144823157D01*
X155214252Y-144823157D02*
X155547585Y-144823157D01*
X155547585Y-144823157D02*
X155738061Y-144870776D01*
X155738061Y-144870776D02*
X155833300Y-144966014D01*
X155833300Y-144966014D02*
X155880919Y-145061252D01*
X155880919Y-145061252D02*
X155880919Y-145251728D01*
X155880919Y-145251728D02*
X155833300Y-145346966D01*
X155833300Y-145346966D02*
X155738061Y-145442204D01*
X155738061Y-145442204D02*
X155547585Y-145489823D01*
X155547585Y-145489823D02*
X155214252Y-145489823D01*
X155214252Y-145489823D02*
X155023776Y-145442204D01*
X155023776Y-145442204D02*
X154928538Y-145346966D01*
X154928538Y-145346966D02*
X154880919Y-145251728D01*
X155880919Y-143823157D02*
X155404728Y-144156490D01*
X155880919Y-144394585D02*
X154880919Y-144394585D01*
X154880919Y-144394585D02*
X154880919Y-144013633D01*
X154880919Y-144013633D02*
X154928538Y-143918395D01*
X154928538Y-143918395D02*
X154976157Y-143870776D01*
X154976157Y-143870776D02*
X155071395Y-143823157D01*
X155071395Y-143823157D02*
X155214252Y-143823157D01*
X155214252Y-143823157D02*
X155309490Y-143870776D01*
X155309490Y-143870776D02*
X155357109Y-143918395D01*
X155357109Y-143918395D02*
X155404728Y-144013633D01*
X155404728Y-144013633D02*
X155404728Y-144394585D01*
X155785680Y-142823157D02*
X155833300Y-142870776D01*
X155833300Y-142870776D02*
X155880919Y-143013633D01*
X155880919Y-143013633D02*
X155880919Y-143108871D01*
X155880919Y-143108871D02*
X155833300Y-143251728D01*
X155833300Y-143251728D02*
X155738061Y-143346966D01*
X155738061Y-143346966D02*
X155642823Y-143394585D01*
X155642823Y-143394585D02*
X155452347Y-143442204D01*
X155452347Y-143442204D02*
X155309490Y-143442204D01*
X155309490Y-143442204D02*
X155119014Y-143394585D01*
X155119014Y-143394585D02*
X155023776Y-143346966D01*
X155023776Y-143346966D02*
X154928538Y-143251728D01*
X154928538Y-143251728D02*
X154880919Y-143108871D01*
X154880919Y-143108871D02*
X154880919Y-143013633D01*
X154880919Y-143013633D02*
X154928538Y-142870776D01*
X154928538Y-142870776D02*
X154976157Y-142823157D01*
X155357109Y-142394585D02*
X155357109Y-142061252D01*
X155880919Y-141918395D02*
X155880919Y-142394585D01*
X155880919Y-142394585D02*
X154880919Y-142394585D01*
X154880919Y-142394585D02*
X154880919Y-141918395D01*
X155976157Y-141727919D02*
X155976157Y-140966014D01*
X155880919Y-140727918D02*
X154880919Y-140727918D01*
X154880919Y-140727918D02*
X154880919Y-140346966D01*
X154880919Y-140346966D02*
X154928538Y-140251728D01*
X154928538Y-140251728D02*
X154976157Y-140204109D01*
X154976157Y-140204109D02*
X155071395Y-140156490D01*
X155071395Y-140156490D02*
X155214252Y-140156490D01*
X155214252Y-140156490D02*
X155309490Y-140204109D01*
X155309490Y-140204109D02*
X155357109Y-140251728D01*
X155357109Y-140251728D02*
X155404728Y-140346966D01*
X155404728Y-140346966D02*
X155404728Y-140727918D01*
X154880919Y-139823156D02*
X155880919Y-139585061D01*
X155880919Y-139585061D02*
X155166633Y-139394585D01*
X155166633Y-139394585D02*
X155880919Y-139204109D01*
X155880919Y-139204109D02*
X154880919Y-138966014D01*
X155880919Y-138013633D02*
X155404728Y-138346966D01*
X155880919Y-138585061D02*
X154880919Y-138585061D01*
X154880919Y-138585061D02*
X154880919Y-138204109D01*
X154880919Y-138204109D02*
X154928538Y-138108871D01*
X154928538Y-138108871D02*
X154976157Y-138061252D01*
X154976157Y-138061252D02*
X155071395Y-138013633D01*
X155071395Y-138013633D02*
X155214252Y-138013633D01*
X155214252Y-138013633D02*
X155309490Y-138061252D01*
X155309490Y-138061252D02*
X155357109Y-138108871D01*
X155357109Y-138108871D02*
X155404728Y-138204109D01*
X155404728Y-138204109D02*
X155404728Y-138585061D01*
X160833300Y-143513632D02*
X160880919Y-143370775D01*
X160880919Y-143370775D02*
X160880919Y-143132680D01*
X160880919Y-143132680D02*
X160833300Y-143037442D01*
X160833300Y-143037442D02*
X160785680Y-142989823D01*
X160785680Y-142989823D02*
X160690442Y-142942204D01*
X160690442Y-142942204D02*
X160595204Y-142942204D01*
X160595204Y-142942204D02*
X160499966Y-142989823D01*
X160499966Y-142989823D02*
X160452347Y-143037442D01*
X160452347Y-143037442D02*
X160404728Y-143132680D01*
X160404728Y-143132680D02*
X160357109Y-143323156D01*
X160357109Y-143323156D02*
X160309490Y-143418394D01*
X160309490Y-143418394D02*
X160261871Y-143466013D01*
X160261871Y-143466013D02*
X160166633Y-143513632D01*
X160166633Y-143513632D02*
X160071395Y-143513632D01*
X160071395Y-143513632D02*
X159976157Y-143466013D01*
X159976157Y-143466013D02*
X159928538Y-143418394D01*
X159928538Y-143418394D02*
X159880919Y-143323156D01*
X159880919Y-143323156D02*
X159880919Y-143085061D01*
X159880919Y-143085061D02*
X159928538Y-142942204D01*
X159880919Y-142608870D02*
X160880919Y-142370775D01*
X160880919Y-142370775D02*
X160166633Y-142180299D01*
X160166633Y-142180299D02*
X160880919Y-141989823D01*
X160880919Y-141989823D02*
X159880919Y-141751728D01*
X159880919Y-141466013D02*
X159880919Y-140846966D01*
X159880919Y-140846966D02*
X160261871Y-141180299D01*
X160261871Y-141180299D02*
X160261871Y-141037442D01*
X160261871Y-141037442D02*
X160309490Y-140942204D01*
X160309490Y-140942204D02*
X160357109Y-140894585D01*
X160357109Y-140894585D02*
X160452347Y-140846966D01*
X160452347Y-140846966D02*
X160690442Y-140846966D01*
X160690442Y-140846966D02*
X160785680Y-140894585D01*
X160785680Y-140894585D02*
X160833300Y-140942204D01*
X160833300Y-140942204D02*
X160880919Y-141037442D01*
X160880919Y-141037442D02*
X160880919Y-141323156D01*
X160880919Y-141323156D02*
X160833300Y-141418394D01*
X160833300Y-141418394D02*
X160785680Y-141466013D01*
X190714285Y-125254819D02*
X190714285Y-124254819D01*
X190714285Y-124254819D02*
X191047618Y-124969104D01*
X191047618Y-124969104D02*
X191380951Y-124254819D01*
X191380951Y-124254819D02*
X191380951Y-125254819D01*
X191999999Y-125254819D02*
X191904761Y-125207200D01*
X191904761Y-125207200D02*
X191857142Y-125159580D01*
X191857142Y-125159580D02*
X191809523Y-125064342D01*
X191809523Y-125064342D02*
X191809523Y-124778628D01*
X191809523Y-124778628D02*
X191857142Y-124683390D01*
X191857142Y-124683390D02*
X191904761Y-124635771D01*
X191904761Y-124635771D02*
X191999999Y-124588152D01*
X191999999Y-124588152D02*
X192142856Y-124588152D01*
X192142856Y-124588152D02*
X192238094Y-124635771D01*
X192238094Y-124635771D02*
X192285713Y-124683390D01*
X192285713Y-124683390D02*
X192333332Y-124778628D01*
X192333332Y-124778628D02*
X192333332Y-125064342D01*
X192333332Y-125064342D02*
X192285713Y-125159580D01*
X192285713Y-125159580D02*
X192238094Y-125207200D01*
X192238094Y-125207200D02*
X192142856Y-125254819D01*
X192142856Y-125254819D02*
X191999999Y-125254819D01*
X193190475Y-124588152D02*
X193190475Y-125254819D01*
X192761904Y-124588152D02*
X192761904Y-125111961D01*
X192761904Y-125111961D02*
X192809523Y-125207200D01*
X192809523Y-125207200D02*
X192904761Y-125254819D01*
X192904761Y-125254819D02*
X193047618Y-125254819D01*
X193047618Y-125254819D02*
X193142856Y-125207200D01*
X193142856Y-125207200D02*
X193190475Y-125159580D01*
X193666666Y-124588152D02*
X193666666Y-125254819D01*
X193666666Y-124683390D02*
X193714285Y-124635771D01*
X193714285Y-124635771D02*
X193809523Y-124588152D01*
X193809523Y-124588152D02*
X193952380Y-124588152D01*
X193952380Y-124588152D02*
X194047618Y-124635771D01*
X194047618Y-124635771D02*
X194095237Y-124731009D01*
X194095237Y-124731009D02*
X194095237Y-125254819D01*
X194428571Y-124588152D02*
X194809523Y-124588152D01*
X194571428Y-124254819D02*
X194571428Y-125111961D01*
X194571428Y-125111961D02*
X194619047Y-125207200D01*
X194619047Y-125207200D02*
X194714285Y-125254819D01*
X194714285Y-125254819D02*
X194809523Y-125254819D01*
X195142857Y-125254819D02*
X195142857Y-124588152D01*
X195142857Y-124254819D02*
X195095238Y-124302438D01*
X195095238Y-124302438D02*
X195142857Y-124350057D01*
X195142857Y-124350057D02*
X195190476Y-124302438D01*
X195190476Y-124302438D02*
X195142857Y-124254819D01*
X195142857Y-124254819D02*
X195142857Y-124350057D01*
X195619047Y-124588152D02*
X195619047Y-125254819D01*
X195619047Y-124683390D02*
X195666666Y-124635771D01*
X195666666Y-124635771D02*
X195761904Y-124588152D01*
X195761904Y-124588152D02*
X195904761Y-124588152D01*
X195904761Y-124588152D02*
X195999999Y-124635771D01*
X195999999Y-124635771D02*
X196047618Y-124731009D01*
X196047618Y-124731009D02*
X196047618Y-125254819D01*
X196952380Y-124588152D02*
X196952380Y-125397676D01*
X196952380Y-125397676D02*
X196904761Y-125492914D01*
X196904761Y-125492914D02*
X196857142Y-125540533D01*
X196857142Y-125540533D02*
X196761904Y-125588152D01*
X196761904Y-125588152D02*
X196619047Y-125588152D01*
X196619047Y-125588152D02*
X196523809Y-125540533D01*
X196952380Y-125207200D02*
X196857142Y-125254819D01*
X196857142Y-125254819D02*
X196666666Y-125254819D01*
X196666666Y-125254819D02*
X196571428Y-125207200D01*
X196571428Y-125207200D02*
X196523809Y-125159580D01*
X196523809Y-125159580D02*
X196476190Y-125064342D01*
X196476190Y-125064342D02*
X196476190Y-124778628D01*
X196476190Y-124778628D02*
X196523809Y-124683390D01*
X196523809Y-124683390D02*
X196571428Y-124635771D01*
X196571428Y-124635771D02*
X196666666Y-124588152D01*
X196666666Y-124588152D02*
X196857142Y-124588152D01*
X196857142Y-124588152D02*
X196952380Y-124635771D01*
X197428571Y-125254819D02*
X197428571Y-124254819D01*
X197428571Y-124731009D02*
X197999999Y-124731009D01*
X197999999Y-125254819D02*
X197999999Y-124254819D01*
X198619047Y-125254819D02*
X198523809Y-125207200D01*
X198523809Y-125207200D02*
X198476190Y-125159580D01*
X198476190Y-125159580D02*
X198428571Y-125064342D01*
X198428571Y-125064342D02*
X198428571Y-124778628D01*
X198428571Y-124778628D02*
X198476190Y-124683390D01*
X198476190Y-124683390D02*
X198523809Y-124635771D01*
X198523809Y-124635771D02*
X198619047Y-124588152D01*
X198619047Y-124588152D02*
X198761904Y-124588152D01*
X198761904Y-124588152D02*
X198857142Y-124635771D01*
X198857142Y-124635771D02*
X198904761Y-124683390D01*
X198904761Y-124683390D02*
X198952380Y-124778628D01*
X198952380Y-124778628D02*
X198952380Y-125064342D01*
X198952380Y-125064342D02*
X198904761Y-125159580D01*
X198904761Y-125159580D02*
X198857142Y-125207200D01*
X198857142Y-125207200D02*
X198761904Y-125254819D01*
X198761904Y-125254819D02*
X198619047Y-125254819D01*
X199523809Y-125254819D02*
X199428571Y-125207200D01*
X199428571Y-125207200D02*
X199380952Y-125111961D01*
X199380952Y-125111961D02*
X199380952Y-124254819D01*
X200285714Y-125207200D02*
X200190476Y-125254819D01*
X200190476Y-125254819D02*
X200000000Y-125254819D01*
X200000000Y-125254819D02*
X199904762Y-125207200D01*
X199904762Y-125207200D02*
X199857143Y-125111961D01*
X199857143Y-125111961D02*
X199857143Y-124731009D01*
X199857143Y-124731009D02*
X199904762Y-124635771D01*
X199904762Y-124635771D02*
X200000000Y-124588152D01*
X200000000Y-124588152D02*
X200190476Y-124588152D01*
X200190476Y-124588152D02*
X200285714Y-124635771D01*
X200285714Y-124635771D02*
X200333333Y-124731009D01*
X200333333Y-124731009D02*
X200333333Y-124826247D01*
X200333333Y-124826247D02*
X199857143Y-124921485D01*
X194738095Y-121954819D02*
X194738095Y-120954819D01*
X194738095Y-121431009D02*
X195309523Y-121431009D01*
X195309523Y-121954819D02*
X195309523Y-120954819D01*
X196309523Y-121954819D02*
X195738095Y-121954819D01*
X196023809Y-121954819D02*
X196023809Y-120954819D01*
X196023809Y-120954819D02*
X195928571Y-121097676D01*
X195928571Y-121097676D02*
X195833333Y-121192914D01*
X195833333Y-121192914D02*
X195738095Y-121240533D01*
X178591504Y-123387485D02*
X178591504Y-122911295D01*
X178877219Y-123482723D02*
X177877219Y-123149390D01*
X177877219Y-123149390D02*
X178877219Y-122816057D01*
X178877219Y-122482723D02*
X177877219Y-122482723D01*
X177877219Y-122482723D02*
X177877219Y-122244628D01*
X177877219Y-122244628D02*
X177924838Y-122101771D01*
X177924838Y-122101771D02*
X178020076Y-122006533D01*
X178020076Y-122006533D02*
X178115314Y-121958914D01*
X178115314Y-121958914D02*
X178305790Y-121911295D01*
X178305790Y-121911295D02*
X178448647Y-121911295D01*
X178448647Y-121911295D02*
X178639123Y-121958914D01*
X178639123Y-121958914D02*
X178734361Y-122006533D01*
X178734361Y-122006533D02*
X178829600Y-122101771D01*
X178829600Y-122101771D02*
X178877219Y-122244628D01*
X178877219Y-122244628D02*
X178877219Y-122482723D01*
X178877219Y-121482723D02*
X177877219Y-121482723D01*
X177877219Y-121482723D02*
X177877219Y-121244628D01*
X177877219Y-121244628D02*
X177924838Y-121101771D01*
X177924838Y-121101771D02*
X178020076Y-121006533D01*
X178020076Y-121006533D02*
X178115314Y-120958914D01*
X178115314Y-120958914D02*
X178305790Y-120911295D01*
X178305790Y-120911295D02*
X178448647Y-120911295D01*
X178448647Y-120911295D02*
X178639123Y-120958914D01*
X178639123Y-120958914D02*
X178734361Y-121006533D01*
X178734361Y-121006533D02*
X178829600Y-121101771D01*
X178829600Y-121101771D02*
X178877219Y-121244628D01*
X178877219Y-121244628D02*
X178877219Y-121482723D01*
X178877219Y-119911295D02*
X178401028Y-120244628D01*
X178877219Y-120482723D02*
X177877219Y-120482723D01*
X177877219Y-120482723D02*
X177877219Y-120101771D01*
X177877219Y-120101771D02*
X177924838Y-120006533D01*
X177924838Y-120006533D02*
X177972457Y-119958914D01*
X177972457Y-119958914D02*
X178067695Y-119911295D01*
X178067695Y-119911295D02*
X178210552Y-119911295D01*
X178210552Y-119911295D02*
X178305790Y-119958914D01*
X178305790Y-119958914D02*
X178353409Y-120006533D01*
X178353409Y-120006533D02*
X178401028Y-120101771D01*
X178401028Y-120101771D02*
X178401028Y-120482723D01*
X177972457Y-119530342D02*
X177924838Y-119482723D01*
X177924838Y-119482723D02*
X177877219Y-119387485D01*
X177877219Y-119387485D02*
X177877219Y-119149390D01*
X177877219Y-119149390D02*
X177924838Y-119054152D01*
X177924838Y-119054152D02*
X177972457Y-119006533D01*
X177972457Y-119006533D02*
X178067695Y-118958914D01*
X178067695Y-118958914D02*
X178162933Y-118958914D01*
X178162933Y-118958914D02*
X178305790Y-119006533D01*
X178305790Y-119006533D02*
X178877219Y-119577961D01*
X178877219Y-119577961D02*
X178877219Y-118958914D01*
X182132542Y-146603019D02*
X182132542Y-147317304D01*
X182132542Y-147317304D02*
X182084923Y-147460161D01*
X182084923Y-147460161D02*
X181989685Y-147555400D01*
X181989685Y-147555400D02*
X181846828Y-147603019D01*
X181846828Y-147603019D02*
X181751590Y-147603019D01*
X182370638Y-147698257D02*
X183132542Y-147698257D01*
X183370638Y-147603019D02*
X183370638Y-146603019D01*
X183370638Y-146603019D02*
X183608733Y-146603019D01*
X183608733Y-146603019D02*
X183751590Y-146650638D01*
X183751590Y-146650638D02*
X183846828Y-146745876D01*
X183846828Y-146745876D02*
X183894447Y-146841114D01*
X183894447Y-146841114D02*
X183942066Y-147031590D01*
X183942066Y-147031590D02*
X183942066Y-147174447D01*
X183942066Y-147174447D02*
X183894447Y-147364923D01*
X183894447Y-147364923D02*
X183846828Y-147460161D01*
X183846828Y-147460161D02*
X183751590Y-147555400D01*
X183751590Y-147555400D02*
X183608733Y-147603019D01*
X183608733Y-147603019D02*
X183370638Y-147603019D01*
X184323019Y-147555400D02*
X184465876Y-147603019D01*
X184465876Y-147603019D02*
X184703971Y-147603019D01*
X184703971Y-147603019D02*
X184799209Y-147555400D01*
X184799209Y-147555400D02*
X184846828Y-147507780D01*
X184846828Y-147507780D02*
X184894447Y-147412542D01*
X184894447Y-147412542D02*
X184894447Y-147317304D01*
X184894447Y-147317304D02*
X184846828Y-147222066D01*
X184846828Y-147222066D02*
X184799209Y-147174447D01*
X184799209Y-147174447D02*
X184703971Y-147126828D01*
X184703971Y-147126828D02*
X184513495Y-147079209D01*
X184513495Y-147079209D02*
X184418257Y-147031590D01*
X184418257Y-147031590D02*
X184370638Y-146983971D01*
X184370638Y-146983971D02*
X184323019Y-146888733D01*
X184323019Y-146888733D02*
X184323019Y-146793495D01*
X184323019Y-146793495D02*
X184370638Y-146698257D01*
X184370638Y-146698257D02*
X184418257Y-146650638D01*
X184418257Y-146650638D02*
X184513495Y-146603019D01*
X184513495Y-146603019D02*
X184751590Y-146603019D01*
X184751590Y-146603019D02*
X184894447Y-146650638D01*
X185323019Y-147603019D02*
X185323019Y-146603019D01*
X185751590Y-147603019D02*
X185751590Y-147079209D01*
X185751590Y-147079209D02*
X185703971Y-146983971D01*
X185703971Y-146983971D02*
X185608733Y-146936352D01*
X185608733Y-146936352D02*
X185465876Y-146936352D01*
X185465876Y-146936352D02*
X185370638Y-146983971D01*
X185370638Y-146983971D02*
X185323019Y-147031590D01*
X186370638Y-147603019D02*
X186275400Y-147555400D01*
X186275400Y-147555400D02*
X186227781Y-147507780D01*
X186227781Y-147507780D02*
X186180162Y-147412542D01*
X186180162Y-147412542D02*
X186180162Y-147126828D01*
X186180162Y-147126828D02*
X186227781Y-147031590D01*
X186227781Y-147031590D02*
X186275400Y-146983971D01*
X186275400Y-146983971D02*
X186370638Y-146936352D01*
X186370638Y-146936352D02*
X186513495Y-146936352D01*
X186513495Y-146936352D02*
X186608733Y-146983971D01*
X186608733Y-146983971D02*
X186656352Y-147031590D01*
X186656352Y-147031590D02*
X186703971Y-147126828D01*
X186703971Y-147126828D02*
X186703971Y-147412542D01*
X186703971Y-147412542D02*
X186656352Y-147507780D01*
X186656352Y-147507780D02*
X186608733Y-147555400D01*
X186608733Y-147555400D02*
X186513495Y-147603019D01*
X186513495Y-147603019D02*
X186370638Y-147603019D01*
X186989686Y-146936352D02*
X187370638Y-146936352D01*
X187132543Y-146603019D02*
X187132543Y-147460161D01*
X187132543Y-147460161D02*
X187180162Y-147555400D01*
X187180162Y-147555400D02*
X187275400Y-147603019D01*
X187275400Y-147603019D02*
X187370638Y-147603019D01*
X188132543Y-146603019D02*
X187942067Y-146603019D01*
X187942067Y-146603019D02*
X187846829Y-146650638D01*
X187846829Y-146650638D02*
X187799210Y-146698257D01*
X187799210Y-146698257D02*
X187703972Y-146841114D01*
X187703972Y-146841114D02*
X187656353Y-147031590D01*
X187656353Y-147031590D02*
X187656353Y-147412542D01*
X187656353Y-147412542D02*
X187703972Y-147507780D01*
X187703972Y-147507780D02*
X187751591Y-147555400D01*
X187751591Y-147555400D02*
X187846829Y-147603019D01*
X187846829Y-147603019D02*
X188037305Y-147603019D01*
X188037305Y-147603019D02*
X188132543Y-147555400D01*
X188132543Y-147555400D02*
X188180162Y-147507780D01*
X188180162Y-147507780D02*
X188227781Y-147412542D01*
X188227781Y-147412542D02*
X188227781Y-147174447D01*
X188227781Y-147174447D02*
X188180162Y-147079209D01*
X188180162Y-147079209D02*
X188132543Y-147031590D01*
X188132543Y-147031590D02*
X188037305Y-146983971D01*
X188037305Y-146983971D02*
X187846829Y-146983971D01*
X187846829Y-146983971D02*
X187751591Y-147031590D01*
X187751591Y-147031590D02*
X187703972Y-147079209D01*
X187703972Y-147079209D02*
X187656353Y-147174447D01*
X188846829Y-146603019D02*
X188942067Y-146603019D01*
X188942067Y-146603019D02*
X189037305Y-146650638D01*
X189037305Y-146650638D02*
X189084924Y-146698257D01*
X189084924Y-146698257D02*
X189132543Y-146793495D01*
X189132543Y-146793495D02*
X189180162Y-146983971D01*
X189180162Y-146983971D02*
X189180162Y-147222066D01*
X189180162Y-147222066D02*
X189132543Y-147412542D01*
X189132543Y-147412542D02*
X189084924Y-147507780D01*
X189084924Y-147507780D02*
X189037305Y-147555400D01*
X189037305Y-147555400D02*
X188942067Y-147603019D01*
X188942067Y-147603019D02*
X188846829Y-147603019D01*
X188846829Y-147603019D02*
X188751591Y-147555400D01*
X188751591Y-147555400D02*
X188703972Y-147507780D01*
X188703972Y-147507780D02*
X188656353Y-147412542D01*
X188656353Y-147412542D02*
X188608734Y-147222066D01*
X188608734Y-147222066D02*
X188608734Y-146983971D01*
X188608734Y-146983971D02*
X188656353Y-146793495D01*
X188656353Y-146793495D02*
X188703972Y-146698257D01*
X188703972Y-146698257D02*
X188751591Y-146650638D01*
X188751591Y-146650638D02*
X188846829Y-146603019D01*
X189799210Y-146603019D02*
X189894448Y-146603019D01*
X189894448Y-146603019D02*
X189989686Y-146650638D01*
X189989686Y-146650638D02*
X190037305Y-146698257D01*
X190037305Y-146698257D02*
X190084924Y-146793495D01*
X190084924Y-146793495D02*
X190132543Y-146983971D01*
X190132543Y-146983971D02*
X190132543Y-147222066D01*
X190132543Y-147222066D02*
X190084924Y-147412542D01*
X190084924Y-147412542D02*
X190037305Y-147507780D01*
X190037305Y-147507780D02*
X189989686Y-147555400D01*
X189989686Y-147555400D02*
X189894448Y-147603019D01*
X189894448Y-147603019D02*
X189799210Y-147603019D01*
X189799210Y-147603019D02*
X189703972Y-147555400D01*
X189703972Y-147555400D02*
X189656353Y-147507780D01*
X189656353Y-147507780D02*
X189608734Y-147412542D01*
X189608734Y-147412542D02*
X189561115Y-147222066D01*
X189561115Y-147222066D02*
X189561115Y-146983971D01*
X189561115Y-146983971D02*
X189608734Y-146793495D01*
X189608734Y-146793495D02*
X189656353Y-146698257D01*
X189656353Y-146698257D02*
X189703972Y-146650638D01*
X189703972Y-146650638D02*
X189799210Y-146603019D01*
X190323020Y-147698257D02*
X191084924Y-147698257D01*
X191323020Y-147079209D02*
X191656353Y-147079209D01*
X191799210Y-147603019D02*
X191323020Y-147603019D01*
X191323020Y-147603019D02*
X191323020Y-146603019D01*
X191323020Y-146603019D02*
X191799210Y-146603019D01*
X192180163Y-147555400D02*
X192323020Y-147603019D01*
X192323020Y-147603019D02*
X192561115Y-147603019D01*
X192561115Y-147603019D02*
X192656353Y-147555400D01*
X192656353Y-147555400D02*
X192703972Y-147507780D01*
X192703972Y-147507780D02*
X192751591Y-147412542D01*
X192751591Y-147412542D02*
X192751591Y-147317304D01*
X192751591Y-147317304D02*
X192703972Y-147222066D01*
X192703972Y-147222066D02*
X192656353Y-147174447D01*
X192656353Y-147174447D02*
X192561115Y-147126828D01*
X192561115Y-147126828D02*
X192370639Y-147079209D01*
X192370639Y-147079209D02*
X192275401Y-147031590D01*
X192275401Y-147031590D02*
X192227782Y-146983971D01*
X192227782Y-146983971D02*
X192180163Y-146888733D01*
X192180163Y-146888733D02*
X192180163Y-146793495D01*
X192180163Y-146793495D02*
X192227782Y-146698257D01*
X192227782Y-146698257D02*
X192275401Y-146650638D01*
X192275401Y-146650638D02*
X192370639Y-146603019D01*
X192370639Y-146603019D02*
X192608734Y-146603019D01*
X192608734Y-146603019D02*
X192751591Y-146650638D01*
X193751591Y-147507780D02*
X193703972Y-147555400D01*
X193703972Y-147555400D02*
X193561115Y-147603019D01*
X193561115Y-147603019D02*
X193465877Y-147603019D01*
X193465877Y-147603019D02*
X193323020Y-147555400D01*
X193323020Y-147555400D02*
X193227782Y-147460161D01*
X193227782Y-147460161D02*
X193180163Y-147364923D01*
X193180163Y-147364923D02*
X193132544Y-147174447D01*
X193132544Y-147174447D02*
X193132544Y-147031590D01*
X193132544Y-147031590D02*
X193180163Y-146841114D01*
X193180163Y-146841114D02*
X193227782Y-146745876D01*
X193227782Y-146745876D02*
X193323020Y-146650638D01*
X193323020Y-146650638D02*
X193465877Y-146603019D01*
X193465877Y-146603019D02*
X193561115Y-146603019D01*
X193561115Y-146603019D02*
X193703972Y-146650638D01*
X193703972Y-146650638D02*
X193751591Y-146698257D01*
X187442066Y-144703019D02*
X187442066Y-145417304D01*
X187442066Y-145417304D02*
X187394447Y-145560161D01*
X187394447Y-145560161D02*
X187299209Y-145655400D01*
X187299209Y-145655400D02*
X187156352Y-145703019D01*
X187156352Y-145703019D02*
X187061114Y-145703019D01*
X187965876Y-145703019D02*
X188156352Y-145703019D01*
X188156352Y-145703019D02*
X188251590Y-145655400D01*
X188251590Y-145655400D02*
X188299209Y-145607780D01*
X188299209Y-145607780D02*
X188394447Y-145464923D01*
X188394447Y-145464923D02*
X188442066Y-145274447D01*
X188442066Y-145274447D02*
X188442066Y-144893495D01*
X188442066Y-144893495D02*
X188394447Y-144798257D01*
X188394447Y-144798257D02*
X188346828Y-144750638D01*
X188346828Y-144750638D02*
X188251590Y-144703019D01*
X188251590Y-144703019D02*
X188061114Y-144703019D01*
X188061114Y-144703019D02*
X187965876Y-144750638D01*
X187965876Y-144750638D02*
X187918257Y-144798257D01*
X187918257Y-144798257D02*
X187870638Y-144893495D01*
X187870638Y-144893495D02*
X187870638Y-145131590D01*
X187870638Y-145131590D02*
X187918257Y-145226828D01*
X187918257Y-145226828D02*
X187965876Y-145274447D01*
X187965876Y-145274447D02*
X188061114Y-145322066D01*
X188061114Y-145322066D02*
X188251590Y-145322066D01*
X188251590Y-145322066D02*
X188346828Y-145274447D01*
X188346828Y-145274447D02*
X188394447Y-145226828D01*
X188394447Y-145226828D02*
X188442066Y-145131590D01*
X172100542Y-137378352D02*
X172100542Y-138045019D01*
X171862447Y-136997400D02*
X171624352Y-137711685D01*
X171624352Y-137711685D02*
X172243399Y-137711685D01*
X172529114Y-137045019D02*
X173195780Y-137045019D01*
X173195780Y-137045019D02*
X172767209Y-138045019D01*
X173767209Y-137045019D02*
X173862447Y-137045019D01*
X173862447Y-137045019D02*
X173957685Y-137092638D01*
X173957685Y-137092638D02*
X174005304Y-137140257D01*
X174005304Y-137140257D02*
X174052923Y-137235495D01*
X174052923Y-137235495D02*
X174100542Y-137425971D01*
X174100542Y-137425971D02*
X174100542Y-137664066D01*
X174100542Y-137664066D02*
X174052923Y-137854542D01*
X174052923Y-137854542D02*
X174005304Y-137949780D01*
X174005304Y-137949780D02*
X173957685Y-137997400D01*
X173957685Y-137997400D02*
X173862447Y-138045019D01*
X173862447Y-138045019D02*
X173767209Y-138045019D01*
X173767209Y-138045019D02*
X173671971Y-137997400D01*
X173671971Y-137997400D02*
X173624352Y-137949780D01*
X173624352Y-137949780D02*
X173576733Y-137854542D01*
X173576733Y-137854542D02*
X173529114Y-137664066D01*
X173529114Y-137664066D02*
X173529114Y-137425971D01*
X173529114Y-137425971D02*
X173576733Y-137235495D01*
X173576733Y-137235495D02*
X173624352Y-137140257D01*
X173624352Y-137140257D02*
X173671971Y-137092638D01*
X173671971Y-137092638D02*
X173767209Y-137045019D01*
X174529114Y-137378352D02*
X174529114Y-138045019D01*
X174529114Y-137473590D02*
X174576733Y-137425971D01*
X174576733Y-137425971D02*
X174671971Y-137378352D01*
X174671971Y-137378352D02*
X174814828Y-137378352D01*
X174814828Y-137378352D02*
X174910066Y-137425971D01*
X174910066Y-137425971D02*
X174957685Y-137521209D01*
X174957685Y-137521209D02*
X174957685Y-138045019D01*
X175767209Y-137521209D02*
X175433876Y-137521209D01*
X175433876Y-138045019D02*
X175433876Y-137045019D01*
X175433876Y-137045019D02*
X175910066Y-137045019D01*
D12*
X173660066Y-136089730D02*
X173636257Y-136113540D01*
X173636257Y-136113540D02*
X173564828Y-136137349D01*
X173564828Y-136137349D02*
X173517209Y-136137349D01*
X173517209Y-136137349D02*
X173445781Y-136113540D01*
X173445781Y-136113540D02*
X173398162Y-136065920D01*
X173398162Y-136065920D02*
X173374352Y-136018301D01*
X173374352Y-136018301D02*
X173350543Y-135923063D01*
X173350543Y-135923063D02*
X173350543Y-135851635D01*
X173350543Y-135851635D02*
X173374352Y-135756397D01*
X173374352Y-135756397D02*
X173398162Y-135708778D01*
X173398162Y-135708778D02*
X173445781Y-135661159D01*
X173445781Y-135661159D02*
X173517209Y-135637349D01*
X173517209Y-135637349D02*
X173564828Y-135637349D01*
X173564828Y-135637349D02*
X173636257Y-135661159D01*
X173636257Y-135661159D02*
X173660066Y-135684968D01*
X174136257Y-136137349D02*
X173850543Y-136137349D01*
X173993400Y-136137349D02*
X173993400Y-135637349D01*
X173993400Y-135637349D02*
X173945781Y-135708778D01*
X173945781Y-135708778D02*
X173898162Y-135756397D01*
X173898162Y-135756397D02*
X173850543Y-135780206D01*
D17*
X177164400Y-106040200D02*
X169814400Y-106040200D01*
X169814400Y-114980200D01*
X177164400Y-114980200D01*
X177164400Y-106040200D01*
X193283400Y-130473200D02*
X193283400Y-135973200D01*
X193283400Y-135973200D02*
X196483400Y-135973200D01*
X195776293Y-134473200D02*
X196483400Y-133973200D01*
X196483400Y-130473200D02*
X193283400Y-130473200D01*
X196483400Y-134973200D02*
X195776293Y-134473200D01*
X196483400Y-135973200D02*
X196483400Y-130473200D01*
X164234500Y-139428500D02*
X165484500Y-139428500D01*
X164234500Y-141428500D02*
X164234500Y-139428500D01*
X165484500Y-139428500D02*
X165484500Y-141428500D01*
X165484500Y-141428500D02*
X164234500Y-141428500D01*
X164234500Y-143230300D02*
X165484500Y-143230300D01*
X164234500Y-145230300D02*
X164234500Y-143230300D01*
X165484500Y-143230300D02*
X165484500Y-145230300D01*
X165484500Y-145230300D02*
X164234500Y-145230300D01*
X179585400Y-127378200D02*
X190585400Y-127378200D01*
X179585400Y-139018200D02*
X179585400Y-127378200D01*
X190585400Y-127378200D02*
X190585400Y-139018200D01*
X190585400Y-139018200D02*
X179585400Y-139018200D01*
X181260400Y-105462200D02*
X182510400Y-105462200D01*
X181260400Y-107462200D02*
X181260400Y-105462200D01*
X182510400Y-105462200D02*
X182510400Y-107462200D01*
X182510400Y-107462200D02*
X181260400Y-107462200D01*
X192915400Y-104833400D02*
X192915400Y-106133400D01*
X192915400Y-106133400D02*
X193215400Y-106433400D01*
X193215400Y-106433400D02*
X193715400Y-106433400D01*
X193715400Y-104833400D02*
X192915400Y-104833400D01*
X193715400Y-106433400D02*
X193715400Y-104833400D01*
X161161500Y-143105300D02*
X161486500Y-142780300D01*
X161161500Y-145680300D02*
X161161500Y-143105300D01*
X161486500Y-142780300D02*
X162461500Y-142780300D01*
X162461500Y-142780300D02*
X162461500Y-145680300D01*
X162461500Y-145680300D02*
X161161500Y-145680300D01*
X173067600Y-102296600D02*
X174317600Y-102296600D01*
X173067600Y-104296600D02*
X173067600Y-102296600D01*
X174317600Y-102296600D02*
X174317600Y-104296600D01*
X174317600Y-104296600D02*
X173067600Y-104296600D01*
X194846400Y-140526200D02*
X194846400Y-146026200D01*
X194846400Y-146026200D02*
X196971400Y-146026200D01*
X195696400Y-140526200D02*
X194846400Y-140526200D01*
X195696400Y-140826200D02*
X195696400Y-140526200D01*
X195846400Y-140826200D02*
X196346400Y-141533307D01*
X196346400Y-141533307D02*
X196846400Y-140826200D01*
X196971400Y-140826200D02*
X195696400Y-140826200D01*
X196971400Y-140826200D02*
X198246400Y-140826200D01*
X198246400Y-140526200D02*
X199096400Y-140526200D01*
X198246400Y-140826200D02*
X198246400Y-140526200D01*
X199096400Y-140526200D02*
X199096400Y-146026200D01*
X199096400Y-146026200D02*
X196971400Y-146026200D01*
X172780900Y-123958200D02*
X174780900Y-123958200D01*
X172780900Y-125208200D02*
X172780900Y-123958200D01*
X174780900Y-123958200D02*
X174780900Y-125208200D01*
X174780900Y-125208200D02*
X172780900Y-125208200D01*
X161161500Y-139028500D02*
X162461500Y-139028500D01*
X161161500Y-141928500D02*
X161161500Y-139028500D01*
X162136500Y-141928500D02*
X161161500Y-141928500D01*
X162461500Y-139028500D02*
X162461500Y-141603500D01*
X162461500Y-141603500D02*
X162136500Y-141928500D01*
X185043400Y-100974200D02*
X187843400Y-100974200D01*
X185043400Y-102774200D02*
X185043400Y-100974200D01*
X186193400Y-101474200D02*
X186793400Y-101874200D01*
X186193400Y-101874200D02*
X185693400Y-101874200D01*
X186193400Y-102274200D02*
X186193400Y-101474200D01*
X186793400Y-101874200D02*
X186193400Y-102274200D01*
X186793400Y-101874200D02*
X186793400Y-101324200D01*
X186793400Y-101874200D02*
X186793400Y-102424200D01*
X187193400Y-101874200D02*
X186793400Y-101874200D01*
X187843400Y-100974200D02*
X187843400Y-102774200D01*
X187843400Y-102774200D02*
X185043400Y-102774200D01*
X181085400Y-109486200D02*
X181085400Y-112686200D01*
X181085400Y-112686200D02*
X182685400Y-112686200D01*
X182285400Y-109486200D02*
X181085400Y-109486200D01*
X182685400Y-109886200D02*
X182285400Y-109486200D01*
X182685400Y-112686200D02*
X182685400Y-109886200D01*
X172780900Y-137266400D02*
X174780900Y-137266400D01*
X172780900Y-138516400D02*
X172780900Y-137266400D01*
X174780900Y-137266400D02*
X174780900Y-138516400D01*
X174780900Y-138516400D02*
X172780900Y-138516400D01*
X168941400Y-140448200D02*
X168941400Y-145948200D01*
X168941400Y-145948200D02*
X174816400Y-145948200D01*
X169791400Y-140448200D02*
X168941400Y-140448200D01*
X169791400Y-140748200D02*
X169791400Y-140448200D01*
X169941400Y-140748200D02*
X170441400Y-141455307D01*
X170441400Y-141455307D02*
X170941400Y-140748200D01*
X174816400Y-140748200D02*
X169791400Y-140748200D01*
X174816400Y-140748200D02*
X179841400Y-140748200D01*
X179841400Y-140448200D02*
X180691400Y-140448200D01*
X179841400Y-140748200D02*
X179841400Y-140448200D01*
X180691400Y-140448200D02*
X180691400Y-145948200D01*
X180691400Y-145948200D02*
X174816400Y-145948200D01*
X193057400Y-127036200D02*
X194307400Y-127036200D01*
X193057400Y-129036200D02*
X193057400Y-127036200D01*
X194307400Y-127036200D02*
X194307400Y-129036200D01*
X194307400Y-129036200D02*
X193057400Y-129036200D01*
X198362400Y-126652100D02*
X198362400Y-127952100D01*
X198362400Y-127952100D02*
X198662400Y-128252100D01*
X198662400Y-128252100D02*
X199162400Y-128252100D01*
X199162400Y-126652100D02*
X198362400Y-126652100D01*
X199162400Y-128252100D02*
X199162400Y-126652100D01*
X185633900Y-104792200D02*
X185633900Y-107592200D01*
X185633900Y-107592200D02*
X188433900Y-107592200D01*
X188433900Y-107592200D02*
X189133900Y-106892200D01*
X189133900Y-104792200D02*
X185633900Y-104792200D01*
X189133900Y-106892200D02*
X189133900Y-104792200D01*
X195285900Y-104792200D02*
X195285900Y-107592200D01*
X195285900Y-107592200D02*
X198085900Y-107592200D01*
X198085900Y-107592200D02*
X198785900Y-106892200D01*
X198785900Y-104792200D02*
X195285900Y-104792200D01*
X198785900Y-106892200D02*
X198785900Y-104792200D01*
X172532400Y-131616000D02*
X176732400Y-131616000D01*
X172532400Y-134416000D02*
X172532400Y-131616000D01*
X176732400Y-131616000D02*
X176732400Y-134416000D01*
X176732400Y-134416000D02*
X172532400Y-134416000D01*
X175432400Y-133016000D02*
G75*
G02*
X173832400Y-133016000I-800000J0D01*
G01*
X173832400Y-133016000D02*
G75*
G02*
X175432400Y-133016000I800000J0D01*
G01*
X183361400Y-110946200D02*
X183361400Y-114646200D01*
X189061400Y-110946200D02*
X183361400Y-110946200D01*
X189061400Y-110946200D02*
X190061400Y-111946200D01*
X190061400Y-111946200D02*
X190061400Y-114646200D01*
X190061400Y-114646200D02*
X183361400Y-114646200D01*
X174896400Y-118448200D02*
X176146400Y-118448200D01*
X174896400Y-120448200D02*
X174896400Y-118448200D01*
X176146400Y-118448200D02*
X176146400Y-120448200D01*
X176146400Y-120448200D02*
X174896400Y-120448200D01*
X172743400Y-125939400D02*
X174743400Y-125939400D01*
X172743400Y-127189400D02*
X172743400Y-125939400D01*
X174743400Y-125939400D02*
X174743400Y-127189400D01*
X174743400Y-127189400D02*
X172743400Y-127189400D01*
X189615400Y-100974200D02*
X192415400Y-100974200D01*
X189615400Y-102774200D02*
X189615400Y-100974200D01*
X190265400Y-101874200D02*
X190665400Y-101874200D01*
X190665400Y-101874200D02*
X190665400Y-101324200D01*
X190665400Y-101874200D02*
X190665400Y-102424200D01*
X190665400Y-101874200D02*
X191265400Y-101474200D01*
X191265400Y-101474200D02*
X191265400Y-102274200D01*
X191265400Y-101874200D02*
X191765400Y-101874200D01*
X191265400Y-102274200D02*
X190665400Y-101874200D01*
X192415400Y-100974200D02*
X192415400Y-102774200D01*
X192415400Y-102774200D02*
X189615400Y-102774200D01*
X172532400Y-128009200D02*
X176732400Y-128009200D01*
X172532400Y-130809200D02*
X172532400Y-128009200D01*
X176732400Y-128009200D02*
X176732400Y-130809200D01*
X176732400Y-130809200D02*
X172532400Y-130809200D01*
X175432400Y-129409200D02*
G75*
G02*
X173832400Y-129409200I-800000J0D01*
G01*
X173832400Y-129409200D02*
G75*
G02*
X175432400Y-129409200I800000J0D01*
G01*
X190737400Y-109486200D02*
X190737400Y-112686200D01*
X190737400Y-112686200D02*
X192337400Y-112686200D01*
X191937400Y-109486200D02*
X190737400Y-109486200D01*
X192337400Y-109886200D02*
X191937400Y-109486200D01*
X192337400Y-112686200D02*
X192337400Y-109886200D01*
X174998000Y-102296600D02*
X176248000Y-102296600D01*
X174998000Y-104296600D02*
X174998000Y-102296600D01*
X176248000Y-102296600D02*
X176248000Y-104296600D01*
X176248000Y-104296600D02*
X174998000Y-104296600D01*
X193013400Y-110946200D02*
X193013400Y-114646200D01*
X198713400Y-110946200D02*
X193013400Y-110946200D01*
X198713400Y-110946200D02*
X199713400Y-111946200D01*
X199713400Y-111946200D02*
X199713400Y-114646200D01*
X199713400Y-114646200D02*
X193013400Y-114646200D01*
X183249400Y-104833400D02*
X183249400Y-106133400D01*
X183249400Y-106133400D02*
X183549400Y-106433400D01*
X183549400Y-106433400D02*
X184049400Y-106433400D01*
X184049400Y-104833400D02*
X183249400Y-104833400D01*
X184049400Y-106433400D02*
X184049400Y-104833400D01*
X190912400Y-105446200D02*
X192162400Y-105446200D01*
X190912400Y-107446200D02*
X190912400Y-105446200D01*
X192162400Y-105446200D02*
X192162400Y-107446200D01*
X192162400Y-107446200D02*
X190912400Y-107446200D01*
X156576100Y-140080300D02*
X159376100Y-140080300D01*
X156576100Y-144280300D02*
X156576100Y-140080300D01*
X159376100Y-140080300D02*
X159376100Y-144280300D01*
X159376100Y-144280300D02*
X156576100Y-144280300D01*
X158776100Y-142180300D02*
G75*
G02*
X157176100Y-142180300I-800000J0D01*
G01*
X157176100Y-142180300D02*
G75*
G02*
X158776100Y-142180300I800000J0D01*
G01*
X181895400Y-140448200D02*
X181895400Y-145948200D01*
X181895400Y-145948200D02*
X187770400Y-145948200D01*
X182745400Y-140448200D02*
X181895400Y-140448200D01*
X182745400Y-140748200D02*
X182745400Y-140448200D01*
X182895400Y-140748200D02*
X183395400Y-141455307D01*
X183395400Y-141455307D02*
X183895400Y-140748200D01*
X187770400Y-140748200D02*
X182745400Y-140748200D01*
X187770400Y-140748200D02*
X192795400Y-140748200D01*
X192795400Y-140448200D02*
X193645400Y-140448200D01*
X192795400Y-140748200D02*
X192795400Y-140448200D01*
X193645400Y-140448200D02*
X193645400Y-145948200D01*
X193645400Y-145948200D02*
X187770400Y-145948200D01*
X172743400Y-135285200D02*
X174743400Y-135285200D01*
X172743400Y-136535200D02*
X172743400Y-135285200D01*
X174743400Y-135285200D02*
X174743400Y-136535200D01*
X174743400Y-136535200D02*
X172743400Y-136535200D01*
D18*
X205975958Y-144508558D02*
G75*
G02*
X203975958Y-146508658I-2000058J-42D01*
G01*
X198381400Y-92190200D02*
G75*
G02*
X200381400Y-90190200I2000000J0D01*
G01*
X205974864Y-92190158D02*
X205975958Y-144508558D01*
X169679400Y-101290400D02*
G75*
G02*
X171679400Y-99290400I2000000J0D01*
G01*
X155633209Y-144508599D02*
X155633210Y-139588499D01*
X169679400Y-135588500D02*
X169679400Y-101290400D01*
X171679400Y-99290400D02*
X196381400Y-99290400D01*
X157633210Y-137588500D02*
X167679400Y-137588500D01*
X200381400Y-90190200D02*
X203974864Y-90190200D01*
X155633210Y-139588499D02*
G75*
G02*
X157633210Y-137588510I1999990J-1D01*
G01*
X198381400Y-97290400D02*
G75*
G02*
X196381400Y-99290400I-2000000J0D01*
G01*
X169679400Y-135588500D02*
G75*
G02*
X167679400Y-137588500I-2000000J0D01*
G01*
X157633209Y-146508600D02*
G75*
G02*
X155633200Y-144508599I-9J2000000D01*
G01*
X198381400Y-97290400D02*
X198381400Y-92190200D01*
X203975958Y-146508600D02*
X157633209Y-146508600D01*
X203974864Y-90190200D02*
G75*
G02*
X205974900Y-92190158I36J-2000000D01*
G01*
M02*
