G04 #@! TF.GenerationSoftware,KiCad,Pcbnew,9.0.7*
G04 #@! TF.CreationDate,2026-02-01T23:57:30+01:00*
G04 #@! TF.ProjectId,CM5IO_top,434d3549-4f5f-4746-9f70-2e6b69636164,rev?*
G04 #@! TF.SameCoordinates,Original*
G04 #@! TF.FileFunction,Other,User*
%FSLAX46Y46*%
G04 Gerber Fmt 4.6, Leading zero omitted, Abs format (unit mm)*
G04 Created by KiCad (PCBNEW 9.0.7) date 2026-02-01 23:57:30*
%MOMM*%
%LPD*%
G01*
G04 APERTURE LIST*
%ADD10C,0.050000*%
%ADD11C,0.100000*%
G04 #@! TA.AperFunction,Profile*
%ADD12C,0.050000*%
G04 #@! TD*
G04 APERTURE END LIST*
D10*
X178249400Y-105190200D02*
X169309400Y-105190200D01*
X169309400Y-115830200D01*
X178249400Y-115830200D01*
X178249400Y-105190200D01*
X192773400Y-129973200D02*
X192773400Y-136473200D01*
X192773400Y-136473200D02*
X196983400Y-136473200D01*
X196983400Y-129973200D02*
X192773400Y-129973200D01*
X196983400Y-136473200D02*
X196983400Y-129973200D01*
X163909500Y-138578500D02*
X165809500Y-138578500D01*
X163909500Y-142278500D02*
X163909500Y-138578500D01*
X165809500Y-138578500D02*
X165809500Y-142278500D01*
X165809500Y-142278500D02*
X163909500Y-142278500D01*
X163909500Y-142380300D02*
X165809500Y-142380300D01*
X163909500Y-146080300D02*
X163909500Y-142380300D01*
X165809500Y-142380300D02*
X165809500Y-146080300D01*
X165809500Y-146080300D02*
X163909500Y-146080300D01*
D11*
X177485400Y-126378200D02*
X192685400Y-126378200D01*
X177485400Y-140018200D02*
X177485400Y-126378200D01*
X192685400Y-126378200D02*
X192685400Y-140018200D01*
X192685400Y-140018200D02*
X177485400Y-140018200D01*
D10*
X181637400Y-123448200D02*
X181637400Y-117468200D01*
X181637400Y-123448200D02*
X184157400Y-123448200D01*
X184157400Y-117468200D02*
X181637400Y-117468200D01*
X184157400Y-117468200D02*
X184157400Y-123448200D01*
X180935400Y-104612200D02*
X182835400Y-104612200D01*
X180935400Y-108312200D02*
X180935400Y-104612200D01*
X182835400Y-104612200D02*
X182835400Y-108312200D01*
X182835400Y-108312200D02*
X180935400Y-108312200D01*
X192585400Y-104153400D02*
X194045400Y-104153400D01*
X192585400Y-107113400D02*
X192585400Y-104153400D01*
X194045400Y-104153400D02*
X194045400Y-107113400D01*
X194045400Y-107113400D02*
X192585400Y-107113400D01*
X159881500Y-142730300D02*
X160911500Y-142730300D01*
X159881500Y-145730300D02*
X159881500Y-142730300D01*
X160911500Y-142530300D02*
X162711500Y-142530300D01*
X160911500Y-142730300D02*
X160911500Y-142530300D01*
X160911500Y-145730300D02*
X159881500Y-145730300D01*
X160911500Y-145930300D02*
X160911500Y-145730300D01*
X162711500Y-142530300D02*
X162711500Y-143680300D01*
X162711500Y-143680300D02*
X163741500Y-143680300D01*
X162711500Y-144780300D02*
X162711500Y-145930300D01*
X162711500Y-145930300D02*
X160911500Y-145930300D01*
X163741500Y-143680300D02*
X163741500Y-144780300D01*
X163741500Y-144780300D02*
X162711500Y-144780300D01*
X172742600Y-101446600D02*
X174642600Y-101446600D01*
X172742600Y-105146600D02*
X172742600Y-101446600D01*
X174642600Y-101446600D02*
X174642600Y-105146600D01*
X174642600Y-105146600D02*
X172742600Y-105146600D01*
X194346400Y-140026200D02*
X194346400Y-146526200D01*
X194346400Y-146526200D02*
X196976400Y-146526200D01*
X196186400Y-140026200D02*
X194346400Y-140026200D01*
X196186400Y-140326200D02*
X196186400Y-140026200D01*
X196966400Y-140326200D02*
X197756400Y-140326200D01*
X196976400Y-140326200D02*
X196186400Y-140326200D01*
X197756400Y-140026200D02*
X199596400Y-140026200D01*
X197756400Y-140326200D02*
X197756400Y-140026200D01*
X199596400Y-140026200D02*
X199596400Y-146526200D01*
X199596400Y-146526200D02*
X196966400Y-146526200D01*
X171930900Y-123633200D02*
X175630900Y-123633200D01*
X171930900Y-125533200D02*
X171930900Y-123633200D01*
X175630900Y-123633200D02*
X175630900Y-125533200D01*
X175630900Y-125533200D02*
X171930900Y-125533200D01*
X159881500Y-139928500D02*
X160911500Y-139928500D01*
X159881500Y-141028500D02*
X159881500Y-139928500D01*
X160911500Y-138778500D02*
X162711500Y-138778500D01*
X160911500Y-139928500D02*
X160911500Y-138778500D01*
X160911500Y-141028500D02*
X159881500Y-141028500D01*
X160911500Y-142178500D02*
X160911500Y-141028500D01*
X162711500Y-138778500D02*
X162711500Y-138978500D01*
X162711500Y-138978500D02*
X163741500Y-138978500D01*
X162711500Y-141978500D02*
X162711500Y-142178500D01*
X162711500Y-142178500D02*
X160911500Y-142178500D01*
X163741500Y-138978500D02*
X163741500Y-141978500D01*
X163741500Y-141978500D02*
X162711500Y-141978500D01*
X184243400Y-100724200D02*
X188643400Y-100724200D01*
X184243400Y-103024200D02*
X184243400Y-100724200D01*
X188643400Y-103024200D02*
X184243400Y-103024200D01*
X188643400Y-103024200D02*
X188643400Y-100724200D01*
X180835400Y-108596200D02*
X182935400Y-108596200D01*
X180835400Y-113576200D02*
X180835400Y-108596200D01*
X182935400Y-108596200D02*
X182935400Y-113576200D01*
X182935400Y-113576200D02*
X180835400Y-113576200D01*
X171930900Y-136941400D02*
X175630900Y-136941400D01*
X171930900Y-138841400D02*
X171930900Y-136941400D01*
X175630900Y-136941400D02*
X175630900Y-138841400D01*
X175630900Y-138841400D02*
X171930900Y-138841400D01*
X168441400Y-139948200D02*
X168441400Y-146448200D01*
X168441400Y-146448200D02*
X174821400Y-146448200D01*
X170281400Y-139948200D02*
X168441400Y-139948200D01*
X170281400Y-140248200D02*
X170281400Y-139948200D01*
X174811400Y-140248200D02*
X179351400Y-140248200D01*
X174821400Y-140248200D02*
X170281400Y-140248200D01*
X179351400Y-139948200D02*
X181191400Y-139948200D01*
X179351400Y-140248200D02*
X179351400Y-139948200D01*
X181191400Y-139948200D02*
X181191400Y-146448200D01*
X181191400Y-146448200D02*
X174811400Y-146448200D01*
X192702400Y-126156200D02*
X194662400Y-126156200D01*
X192702400Y-129916200D02*
X192702400Y-126156200D01*
X194662400Y-126156200D02*
X194662400Y-129916200D01*
X194662400Y-129916200D02*
X192702400Y-129916200D01*
X198032400Y-125972100D02*
X199492400Y-125972100D01*
X198032400Y-128932100D02*
X198032400Y-125972100D01*
X199492400Y-125972100D02*
X199492400Y-128932100D01*
X199492400Y-128932100D02*
X198032400Y-128932100D01*
X184743900Y-104542200D02*
X190023900Y-104542200D01*
X184743900Y-107842200D02*
X184743900Y-104542200D01*
X190023900Y-104542200D02*
X190023900Y-107842200D01*
X190023900Y-107842200D02*
X184743900Y-107842200D01*
X194395900Y-104542200D02*
X199675900Y-104542200D01*
X194395900Y-107842200D02*
X194395900Y-104542200D01*
X199675900Y-104542200D02*
X199675900Y-107842200D01*
X199675900Y-107842200D02*
X194395900Y-107842200D01*
X171832400Y-131216000D02*
X177432400Y-131216000D01*
X171832400Y-134816000D02*
X171832400Y-131216000D01*
X177432400Y-131216000D02*
X177432400Y-134816000D01*
X177432400Y-134816000D02*
X171832400Y-134816000D01*
X183111400Y-108396200D02*
X183111400Y-117196200D01*
X183111400Y-117196200D02*
X190311400Y-117196200D01*
X190311400Y-108396200D02*
X183111400Y-108396200D01*
X190311400Y-117196200D02*
X190311400Y-108396200D01*
X184177400Y-123448200D02*
X184177400Y-117468200D01*
X184177400Y-123448200D02*
X186697400Y-123448200D01*
X186697400Y-117468200D02*
X184177400Y-117468200D01*
X186697400Y-117468200D02*
X186697400Y-123448200D01*
X174571400Y-117598200D02*
X176471400Y-117598200D01*
X174571400Y-121298200D02*
X174571400Y-117598200D01*
X176471400Y-117598200D02*
X176471400Y-121298200D01*
X176471400Y-121298200D02*
X174571400Y-121298200D01*
X186717400Y-123448200D02*
X186717400Y-117468200D01*
X186717400Y-123448200D02*
X189237400Y-123448200D01*
X189237400Y-117468200D02*
X186717400Y-117468200D01*
X189237400Y-117468200D02*
X189237400Y-123448200D01*
X171863400Y-125584400D02*
X175623400Y-125584400D01*
X171863400Y-127544400D02*
X171863400Y-125584400D01*
X175623400Y-125584400D02*
X175623400Y-127544400D01*
X175623400Y-127544400D02*
X171863400Y-127544400D01*
X188815400Y-100724200D02*
X188815400Y-103024200D01*
X188815400Y-100724200D02*
X193215400Y-100724200D01*
X193215400Y-100724200D02*
X193215400Y-103024200D01*
X193215400Y-103024200D02*
X188815400Y-103024200D01*
X171832400Y-127609200D02*
X177432400Y-127609200D01*
X171832400Y-131209200D02*
X171832400Y-127609200D01*
X177432400Y-127609200D02*
X177432400Y-131209200D01*
X177432400Y-131209200D02*
X171832400Y-131209200D01*
X190487400Y-108596200D02*
X192587400Y-108596200D01*
X190487400Y-113576200D02*
X190487400Y-108596200D01*
X192587400Y-108596200D02*
X192587400Y-113576200D01*
X192587400Y-113576200D02*
X190487400Y-113576200D01*
X174673000Y-101446600D02*
X176573000Y-101446600D01*
X174673000Y-105146600D02*
X174673000Y-101446600D01*
X176573000Y-101446600D02*
X176573000Y-105146600D01*
X176573000Y-105146600D02*
X174673000Y-105146600D01*
X192763400Y-108396200D02*
X192763400Y-117196200D01*
X192763400Y-117196200D02*
X199963400Y-117196200D01*
X199963400Y-108396200D02*
X192763400Y-108396200D01*
X199963400Y-117196200D02*
X199963400Y-108396200D01*
X182919400Y-104153400D02*
X184379400Y-104153400D01*
X182919400Y-107113400D02*
X182919400Y-104153400D01*
X184379400Y-104153400D02*
X184379400Y-107113400D01*
X184379400Y-107113400D02*
X182919400Y-107113400D01*
X176557400Y-123448200D02*
X176557400Y-117468200D01*
X176557400Y-123448200D02*
X179077400Y-123448200D01*
X179077400Y-117468200D02*
X176557400Y-117468200D01*
X179077400Y-117468200D02*
X179077400Y-123448200D01*
X190587400Y-104596200D02*
X192487400Y-104596200D01*
X190587400Y-108296200D02*
X190587400Y-104596200D01*
X192487400Y-104596200D02*
X192487400Y-108296200D01*
X192487400Y-108296200D02*
X190587400Y-108296200D01*
X156176100Y-139380300D02*
X159776100Y-139380300D01*
X156176100Y-144980300D02*
X156176100Y-139380300D01*
X159776100Y-139380300D02*
X159776100Y-144980300D01*
X159776100Y-144980300D02*
X156176100Y-144980300D01*
X198100000Y-121500000D02*
G75*
G02*
X192900000Y-121500000I-2600000J0D01*
G01*
X192900000Y-121500000D02*
G75*
G02*
X198100000Y-121500000I2600000J0D01*
G01*
X179097400Y-123448200D02*
X179097400Y-117468200D01*
X179097400Y-123448200D02*
X181617400Y-123448200D01*
X181617400Y-117468200D02*
X179097400Y-117468200D01*
X181617400Y-117468200D02*
X181617400Y-123448200D01*
X181395400Y-139948200D02*
X181395400Y-146448200D01*
X181395400Y-146448200D02*
X187775400Y-146448200D01*
X183235400Y-139948200D02*
X181395400Y-139948200D01*
X183235400Y-140248200D02*
X183235400Y-139948200D01*
X187765400Y-140248200D02*
X192305400Y-140248200D01*
X187775400Y-140248200D02*
X183235400Y-140248200D01*
X192305400Y-139948200D02*
X194145400Y-139948200D01*
X192305400Y-140248200D02*
X192305400Y-139948200D01*
X194145400Y-139948200D02*
X194145400Y-146448200D01*
X194145400Y-146448200D02*
X187765400Y-146448200D01*
X171863400Y-134930200D02*
X175623400Y-134930200D01*
X171863400Y-136890200D02*
X171863400Y-134930200D01*
X175623400Y-134930200D02*
X175623400Y-136890200D01*
X175623400Y-136890200D02*
X171863400Y-136890200D01*
D12*
X205975958Y-144508558D02*
G75*
G02*
X203975958Y-146508658I-2000058J-42D01*
G01*
X198381400Y-92190200D02*
G75*
G02*
X200381400Y-90190200I2000000J0D01*
G01*
X205974864Y-92190158D02*
X205975958Y-144508558D01*
X169679400Y-101290400D02*
G75*
G02*
X171679400Y-99290400I2000000J0D01*
G01*
X155633209Y-144508599D02*
X155633210Y-139588499D01*
X169679400Y-135588500D02*
X169679400Y-101290400D01*
X171679400Y-99290400D02*
X196381400Y-99290400D01*
X157633210Y-137588500D02*
X167679400Y-137588500D01*
X200381400Y-90190200D02*
X203974864Y-90190200D01*
X155633210Y-139588499D02*
G75*
G02*
X157633210Y-137588510I1999990J-1D01*
G01*
X198381400Y-97290400D02*
G75*
G02*
X196381400Y-99290400I-2000000J0D01*
G01*
X169679400Y-135588500D02*
G75*
G02*
X167679400Y-137588500I-2000000J0D01*
G01*
X157633209Y-146508600D02*
G75*
G02*
X155633200Y-144508599I-9J2000000D01*
G01*
X198381400Y-97290400D02*
X198381400Y-92190200D01*
X203975958Y-146508600D02*
X157633209Y-146508600D01*
X203974864Y-90190200D02*
G75*
G02*
X205974900Y-92190158I36J-2000000D01*
G01*
M02*
